<?xml version="1.0" encoding="utf-8"?>
<!-- Generator: Adobe Illustrator 27.5.0, SVG Export Plug-In . SVG Version: 6.00 Build 0)  -->
<svg version="1.1" xmlns="http://www.w3.org/2000/svg" xmlns:xlink="http://www.w3.org/1999/xlink" x="0px" y="0px"
	 viewBox="0 0 750 500" style="enable-background:new 0 0 750 500;" xml:space="preserve">
<g id="BACKGROUND">
	<rect y="381.496" style="fill:#C3CBD1;" width="750" height="21.869"/>
	<rect y="402.984" style="fill:#6582AD;" width="750" height="97.016"/>
</g>
<g id="OBJECTS">
	<g>
		<rect x="544.963" y="30.84" style="fill:#3B3845;" width="182.559" height="372.144"/>
		<rect x="555.633" y="44.397" style="fill:#DDE4EB;" width="161.219" height="351.873"/>
		<g style="opacity:0.61;">
			<polygon style="fill:#FFFFFF;" points="710.551,164.488 710.551,89.732 561.934,385.862 561.934,390.747 596.999,390.747 			"/>
			<polygon style="fill:#FFFFFF;" points="561.934,131.691 561.934,343.998 709.521,49.92 602.972,49.92 			"/>
		</g>
		<g>
			<rect x="586.565" y="121.555" style="fill:#3B3845;" width="98.532" height="25.106"/>
			<g>
				<path style="fill:#FFFFFF;" d="M589.583,123.657c0,0.352-0.285,0.637-0.637,0.637s-0.637-0.285-0.637-0.637
					s0.285-0.637,0.637-0.637S589.583,123.305,589.583,123.657z"/>
				<path style="fill:#FFFFFF;" d="M682.304,123.657c0,0.352-0.285,0.637-0.637,0.637s-0.637-0.285-0.637-0.637
					s0.285-0.637,0.637-0.637S682.304,123.305,682.304,123.657z"/>
			</g>
			<g>
				<path style="fill:#FFFFFF;" d="M589.583,144.398c0,0.352-0.285,0.637-0.637,0.637s-0.637-0.285-0.637-0.637
					s0.285-0.637,0.637-0.637S589.583,144.046,589.583,144.398z"/>
				<path style="fill:#FFFFFF;" d="M682.304,144.398c0,0.352-0.285,0.637-0.637,0.637s-0.637-0.285-0.637-0.637
					s0.285-0.637,0.637-0.637S682.304,144.046,682.304,144.398z"/>
			</g>
			<text transform="matrix(1 0 0 1 599.2695 136.8823)" style="fill:#FFFFFF; font-family:'Michroma'; font-size:7.1655px;">LABORATORY</text>
		</g>
	</g>
	<g>
		<rect x="39.255" y="36.008" style="fill:none;stroke:#3B3845;stroke-miterlimit:10;" width="256.758" height="161.906"/>
		<rect x="45.892" y="42.974" style="fill:#3B3845;" width="242.838" height="147.975"/>
		<g>
			<g>
				<ellipse style="fill:none;stroke:#A7BCCF;stroke-miterlimit:10;" cx="88.391" cy="115.777" rx="8.98" ry="22.079"/>
				<ellipse style="fill:none;stroke:#A7BCCF;stroke-miterlimit:10;" cx="88.391" cy="115.777" rx="22.079" ry="8.98"/>
				<path style="fill:none;stroke:#A7BCCF;stroke-miterlimit:10;" d="M94.741,122.126c-8.622,8.622-18.455,12.769-21.962,9.262
					c-3.507-3.507,0.64-13.34,9.262-21.962c8.622-8.622,18.455-12.769,21.962-9.263C107.51,103.671,103.364,113.504,94.741,122.126z
					"/>
				<path style="fill:none;stroke:#A7BCCF;stroke-miterlimit:10;" d="M82.042,122.126c-8.622-8.622-12.769-18.455-9.262-21.962
					c3.507-3.507,13.34,0.64,21.962,9.263c8.622,8.622,12.769,18.455,9.262,21.962C100.497,134.896,90.664,130.749,82.042,122.126z"
					/>
			</g>
			<path style="fill:#A7BCCF;" d="M91.48,115.777c0,1.706-1.383,3.088-3.089,3.088c-1.706,0-3.089-1.383-3.089-3.088
				c0-1.706,1.383-3.089,3.089-3.089C90.097,112.688,91.48,114.071,91.48,115.777z"/>
		</g>
		<g>
			<polygon style="fill:none;stroke:#A7BCCF;stroke-miterlimit:10;" points="153.26,134.161 144.496,134.161 140.114,141.75 
				144.496,149.34 153.26,149.34 157.641,141.75 			"/>
			<polygon style="fill:none;stroke:#A7BCCF;stroke-miterlimit:10;" points="153.26,149.34 144.496,149.34 140.114,156.93 
				144.496,164.52 153.26,164.52 157.641,156.93 			"/>
			<polygon style="fill:none;stroke:#A7BCCF;stroke-miterlimit:10;" points="166.448,141.75 157.684,141.75 153.302,149.34 
				157.684,156.93 166.448,156.93 170.83,149.34 			"/>
		</g>
		<g>
			<polygon style="fill:none;stroke:#A7BCCF;stroke-miterlimit:10;" points="243.586,69.225 234.822,69.225 230.44,76.814 
				234.822,84.404 243.586,84.404 247.968,76.814 			"/>
			<polygon style="fill:none;stroke:#A7BCCF;stroke-miterlimit:10;" points="243.586,84.404 234.822,84.404 230.44,91.994 
				234.822,99.583 243.586,99.583 247.968,91.994 			"/>
			<polygon style="fill:none;stroke:#A7BCCF;stroke-miterlimit:10;" points="256.774,76.814 248.01,76.814 243.628,84.404 
				248.01,91.994 256.774,91.994 261.156,84.404 			"/>
		</g>
		<g>
			<line style="fill:none;stroke:#A7BCCF;stroke-miterlimit:10;" x1="144.883" y1="73.019" x2="186.102" y2="73.019"/>
			<line style="fill:none;stroke:#A7BCCF;stroke-miterlimit:10;" x1="144.883" y1="80.609" x2="176.85" y2="80.609"/>
			<line style="fill:none;stroke:#A7BCCF;stroke-miterlimit:10;" x1="144.883" y1="88.199" x2="179.227" y2="88.199"/>
			<line style="fill:none;stroke:#A7BCCF;stroke-miterlimit:10;" x1="144.883" y1="95.788" x2="197.746" y2="95.788"/>
			<line style="fill:none;stroke:#A7BCCF;stroke-miterlimit:10;" x1="144.883" y1="103.378" x2="181.795" y2="103.378"/>
			<line style="fill:none;stroke:#A7BCCF;stroke-miterlimit:10;" x1="144.883" y1="110.968" x2="187.059" y2="110.968"/>
		</g>
		<g>
			<line style="fill:none;stroke:#A7BCCF;stroke-miterlimit:10;" x1="215.747" y1="119.77" x2="256.966" y2="119.77"/>
			<line style="fill:none;stroke:#A7BCCF;stroke-miterlimit:10;" x1="215.747" y1="127.359" x2="247.714" y2="127.359"/>
			<line style="fill:none;stroke:#A7BCCF;stroke-miterlimit:10;" x1="215.747" y1="134.949" x2="250.091" y2="134.949"/>
			<line style="fill:none;stroke:#A7BCCF;stroke-miterlimit:10;" x1="215.747" y1="142.539" x2="268.61" y2="142.539"/>
			<line style="fill:none;stroke:#A7BCCF;stroke-miterlimit:10;" x1="215.747" y1="150.128" x2="252.659" y2="150.128"/>
			<line style="fill:none;stroke:#A7BCCF;stroke-miterlimit:10;" x1="215.747" y1="157.718" x2="257.923" y2="157.718"/>
		</g>
		<rect x="34.247" y="193.918" style="fill:#3B3845;" width="266.773" height="11.958"/>
		<g>
			<g>
				<rect x="53.634" y="188.762" style="fill:#5B5C70;" width="42.057" height="6.5"/>
			</g>
			<rect x="92.25" y="188.762" style="fill:#ED58BE;" width="10.948" height="6.5"/>
			<rect x="81.719" y="193.246" style="fill:#ED58BE;" width="10.948" height="2.017"/>
		</g>
	</g>
	<g>
		<path style="opacity:0.34;fill:#91AABA;" d="M277.821,465.318c0,3.825-44.415,6.925-65.323,6.925s-53.962-3.1-53.962-6.925
			c0-3.825,33.053-6.925,53.962-6.925S277.821,461.493,277.821,465.318z"/>
		<g>
			<path style="fill:#6582AD;" d="M222.668,290.497h-8.98c-0.308,0-0.558-0.25-0.558-0.558v-7.983c0-0.308,0.25-0.558,0.558-0.558
				h8.98c0.308,0,0.558,0.25,0.558,0.558v7.983C223.226,290.247,222.976,290.497,222.668,290.497z"/>
			<path style="fill:#6582AD;" d="M238.514,313.367h-11.381c-2.158,0-3.907-1.749-3.907-3.907v-80.746
				c0-2.158,1.749-3.907,3.907-3.907l0,0c8.443,0,15.287,6.844,15.287,15.287v69.366
				C242.42,311.618,240.671,313.367,238.514,313.367z"/>
			<path style="fill:#3B3845;" d="M257.945,461.99l-23.7-9.773c-7.886-3.252-13.032-10.94-13.032-19.47V277.018h-6.07v155.21
				c0,8.857-5.542,16.768-13.866,19.794l-27.346,9.941l1.219,3.356l41.571-15.112v11.664h3.57v-11.545l36.293,14.965L257.945,461.99
				z"/>
			<path style="fill:#3B3845;" d="M220.569,467.537h-4.124c-1.757,0-3.182-1.425-3.182-3.182v-4.594
				c0-1.757,1.425-3.182,3.182-3.182h4.124c1.757,0,3.182,1.425,3.182,3.182v4.594C223.751,466.112,222.326,467.537,220.569,467.537
				z"/>
			<path style="fill:#3B3845;" d="M176.603,469.44h-4.124c-1.757,0-3.182-1.425-3.182-3.182v-4.594c0-1.757,1.424-3.182,3.182-3.182
				h4.124c1.757,0,3.182,1.425,3.182,3.182v4.594C179.785,468.016,178.361,469.44,176.603,469.44z"/>
			<path style="fill:#3B3845;" d="M259.327,469.44h-4.124c-1.757,0-3.182-1.425-3.182-3.182v-4.594c0-1.757,1.425-3.182,3.182-3.182
				h4.124c1.757,0,3.182,1.425,3.182,3.182v4.594C262.509,468.016,261.085,469.44,259.327,469.44z"/>
			<path style="fill:#6582AD;" d="M271.302,358.814h-61.221c-3.57,0-6.463-2.894-6.463-6.463v-0.479c0-3.57,2.894-6.463,6.463-6.463
				h61.221c3.57,0,6.463,2.894,6.463,6.463v0.479C277.765,355.92,274.871,358.814,271.302,358.814z"/>
		</g>
	</g>
	<g>
		<path style="opacity:0.34;fill:#91AABA;" d="M680.122,482.916c0,5.099-160.886,9.233-236.624,9.233s-195.467-4.134-195.467-9.233
			c0-5.099,119.73-9.233,195.467-9.233S680.122,477.816,680.122,482.916z"/>
		<g>
			<rect x="260.404" y="301.637" style="fill:#C2CAD1;" width="406.096" height="181.774"/>
			<polygon style="fill:#DDE4EB;" points="666.5,301.637 260.404,301.637 270.6,295.841 656.303,295.841 			"/>
		</g>
		<g>
			<g>
				<g>
					<path style="opacity:0.34;fill:#639FC4;" d="M426.854,283.441h-0.725c-3.521,0-6.376-2.855-6.376-6.376v-64.641h13.478v64.641
						C433.23,280.586,430.375,283.441,426.854,283.441z"/>
					<path style="fill:#E8AE47;" d="M426.906,281.058h-0.563c-2.731,0-4.945-2.214-4.945-4.945V251.81
						c0-0.044,0.036-0.081,0.081-0.081h10.291c0.044,0,0.081,0.036,0.081,0.081v24.304
						C431.851,278.844,429.637,281.058,426.906,281.058z"/>
					<path style="fill:#FFDC4E;" d="M425.494,254.9c0,0.667-0.54,1.208-1.207,1.208c-0.667,0-1.207-0.541-1.207-1.208
						c0-0.667,0.541-1.207,1.207-1.207C424.954,253.693,425.494,254.234,425.494,254.9z"/>
					<path style="fill:#FFDC4E;" d="M429.788,261.745c0,0.667-0.54,1.208-1.207,1.208c-0.667,0-1.207-0.541-1.207-1.208
						c0-0.667,0.541-1.207,1.207-1.207C429.247,260.538,429.788,261.078,429.788,261.745z"/>
					<path style="fill:#FFDC4E;" d="M428.581,270.712c0,0.667-0.541,1.208-1.207,1.208c-0.667,0-1.207-0.541-1.207-1.208
						c0-0.667,0.541-1.207,1.207-1.207C428.04,269.504,428.581,270.045,428.581,270.712z"/>
					<path style="fill:#FFDC4E;" d="M424.821,266.394c0,0.667-0.541,1.207-1.207,1.207c-0.667,0-1.208-0.541-1.208-1.207
						c0-0.667,0.541-1.207,1.208-1.207C424.28,265.186,424.821,265.727,424.821,266.394z"/>
					<circle style="fill:#FFDC4E;" cx="425.547" cy="257.462" r="0.726"/>
					<circle style="fill:#FFDC4E;" cx="424.287" cy="278.636" r="0.726"/>
					<path style="fill:#FFDC4E;" d="M428.099,264.25c0,0.401-0.325,0.726-0.726,0.726c-0.401,0-0.726-0.325-0.726-0.726
						c0-0.401,0.325-0.727,0.726-0.727C427.774,263.524,428.099,263.849,428.099,264.25z"/>
					<path style="fill:#FF9F38;" d="M428.826,251.962c0,0.401-0.325,0.727-0.726,0.727c-0.401,0-0.726-0.325-0.726-0.727
						c0-0.401,0.325-0.726,0.726-0.726C428.501,251.236,428.826,251.561,428.826,251.962z"/>
					<path style="fill:#FFDC4E;" d="M431.808,251.729c0,0.419-2.321,0.759-5.183,0.759c-2.863,0-5.183-0.34-5.183-0.759
						c0-0.419,2.321-0.759,5.183-0.759C429.488,250.97,431.808,251.31,431.808,251.729z"/>
					<path style="opacity:0.34;fill:#639FC4;" d="M434.17,213.912H419.08c-0.365,0-0.66-0.296-0.66-0.66v-3.588
						c0-0.365,0.296-0.66,0.66-0.66h15.091c0.365,0,0.66,0.295,0.66,0.66v3.588C434.83,213.617,434.535,213.912,434.17,213.912z"/>
					<path style="fill:#FFFFFF;" d="M433.564,210.053c0,0.288-2.347,0.522-5.242,0.522c-2.895,0-5.242-0.234-5.242-0.522
						s2.347-0.522,5.242-0.522C431.217,209.531,433.564,209.765,433.564,210.053z"/>
					<path style="opacity:0.34;fill:#639FC4;" d="M428.717,279.637L428.717,279.637c-3.376,0-6.113-2.737-6.113-6.113v-57.597
						h-2.118v59.603c0,3.376,2.737,6.113,6.113,6.113c2.158,0,4.05-1.121,5.138-2.809
						C430.846,279.343,429.817,279.637,428.717,279.637z"/>
					<path style="fill:#FFFFFF;" d="M430.71,248.541c0,10.315-0.413,18.677-0.922,18.677c-0.509,0-0.922-8.362-0.922-18.677
						c0-10.315,0.413-18.677,0.922-18.677C430.297,229.864,430.71,238.226,430.71,248.541z"/>
				</g>
				<g>
					<path style="opacity:0.34;fill:#639FC4;" d="M449.92,283.441h-0.725c-3.522,0-6.376-2.855-6.376-6.376v-64.641h13.478v64.641
						C456.296,280.586,453.441,283.441,449.92,283.441z"/>
					<path style="fill:#ED58BE;" d="M450.106,281.058h-0.562c-2.731,0-4.945-2.214-4.945-4.945v-13.956
						c0-0.044,0.036-0.081,0.081-0.081h10.291c0.045,0,0.081,0.036,0.081,0.081v13.956
						C455.051,278.844,452.837,281.058,450.106,281.058z"/>
					<path style="fill:#EB81BD;" d="M451.646,269.504c0,0.667-0.54,1.207-1.207,1.207s-1.207-0.54-1.207-1.207
						s0.54-1.207,1.207-1.207S451.646,268.837,451.646,269.504z"/>
					<path style="fill:#EB81BD;" d="M447.887,265.186c0,0.667-0.541,1.207-1.207,1.207c-0.667,0-1.207-0.541-1.207-1.207
						c0-0.667,0.541-1.208,1.207-1.208C447.346,263.979,447.887,264.519,447.887,265.186z"/>
					<path style="fill:#EB81BD;" d="M448.079,277.428c0,0.401-0.325,0.726-0.726,0.726s-0.726-0.325-0.726-0.726
						c0-0.401,0.325-0.726,0.726-0.726S448.079,277.027,448.079,277.428z"/>
					<path style="fill:#EB81BD;" d="M455.008,262.077c0,0.419-2.321,0.759-5.183,0.759s-5.183-0.34-5.183-0.759
						c0-0.419,2.321-0.759,5.183-0.759S455.008,261.658,455.008,262.077z"/>
					<path style="opacity:0.34;fill:#639FC4;" d="M457.236,213.912h-15.091c-0.365,0-0.66-0.296-0.66-0.66v-3.588
						c0-0.365,0.296-0.66,0.66-0.66h15.091c0.365,0,0.66,0.295,0.66,0.66v3.588C457.896,213.617,457.601,213.912,457.236,213.912z"
						/>
					<path style="fill:#FFFFFF;" d="M456.63,210.053c0,0.288-2.347,0.522-5.242,0.522c-2.895,0-5.242-0.234-5.242-0.522
						s2.347-0.522,5.242-0.522C454.283,209.531,456.63,209.765,456.63,210.053z"/>
					<path style="opacity:0.34;fill:#639FC4;" d="M451.784,279.637L451.784,279.637c-3.376,0-6.113-2.737-6.113-6.113v-57.597
						h-2.118v59.603c0,3.376,2.737,6.113,6.113,6.113c2.158,0,4.05-1.121,5.138-2.809
						C453.912,279.343,452.883,279.637,451.784,279.637z"/>
					<path style="fill:#FFFFFF;" d="M453.776,248.541c0,10.315-0.413,18.677-0.922,18.677c-0.509,0-0.922-8.362-0.922-18.677
						c0-10.315,0.413-18.677,0.922-18.677C453.363,229.864,453.776,238.226,453.776,248.541z"/>
				</g>
				<g>
					<path style="opacity:0.34;fill:#639FC4;" d="M472.986,283.441h-0.725c-3.521,0-6.376-2.855-6.376-6.376v-64.641h13.477v64.641
						C479.362,280.586,476.507,283.441,472.986,283.441z"/>
					<path style="fill:#44BD66;" d="M473.264,281.058h-0.563c-2.731,0-4.945-2.214-4.945-4.945v-31.647
						c0-0.044,0.036-0.081,0.081-0.081h10.291c0.044,0,0.081,0.036,0.081,0.081v31.647
						C478.208,278.844,475.994,281.058,473.264,281.058z"/>
					<path style="fill:#7BF274;" d="M471.626,253.693c0,0.667-0.541,1.207-1.207,1.207c-0.667,0-1.207-0.541-1.207-1.207
						c0-0.667,0.54-1.207,1.207-1.207C471.086,252.486,471.626,253.026,471.626,253.693z"/>
					<circle style="fill:#7BF274;" cx="474.713" cy="260.538" r="1.207"/>
					<path style="fill:#7BF274;" d="M474.713,269.504c0,0.667-0.541,1.207-1.207,1.207c-0.667,0-1.207-0.54-1.207-1.207
						s0.541-1.207,1.207-1.207C474.172,268.297,474.713,268.837,474.713,269.504z"/>
					<path style="fill:#7BF274;" d="M470.953,265.186c0,0.667-0.54,1.207-1.207,1.207s-1.207-0.541-1.207-1.207
						c0-0.667,0.541-1.208,1.207-1.208S470.953,264.519,470.953,265.186z"/>
					<path style="fill:#7BF274;" d="M472.406,256.255c0,0.401-0.325,0.727-0.726,0.727c-0.401,0-0.726-0.325-0.726-0.727
						c0-0.401,0.325-0.726,0.726-0.726C472.08,255.528,472.406,255.853,472.406,256.255z"/>
					<path style="fill:#7BF274;" d="M471.145,277.428c0,0.401-0.325,0.726-0.726,0.726c-0.401,0-0.727-0.325-0.727-0.726
						c0-0.401,0.325-0.726,0.727-0.726C470.82,276.702,471.145,277.027,471.145,277.428z"/>
					<path style="fill:#7BF274;" d="M474.958,251.962c0,0.401-0.325,0.727-0.726,0.727c-0.401,0-0.726-0.325-0.726-0.727
						c0-0.401,0.325-0.726,0.726-0.726C474.633,251.236,474.958,251.561,474.958,251.962z"/>
					<path style="fill:#7BF274;" d="M474.232,263.043c0,0.401-0.325,0.726-0.726,0.726c-0.401,0-0.727-0.325-0.727-0.726
						c0-0.401,0.325-0.726,0.727-0.726C473.906,262.316,474.232,262.642,474.232,263.043z"/>
					<path style="fill:#7BF274;" d="M478.166,244.385c0,0.419-2.321,0.759-5.183,0.759c-2.863,0-5.183-0.34-5.183-0.759
						c0-0.419,2.321-0.759,5.183-0.759C475.845,243.627,478.166,243.967,478.166,244.385z"/>
					<path style="opacity:0.34;fill:#639FC4;" d="M480.302,213.912h-15.091c-0.365,0-0.66-0.296-0.66-0.66v-3.588
						c0-0.365,0.296-0.66,0.66-0.66h15.091c0.365,0,0.66,0.295,0.66,0.66v3.588C480.962,213.617,480.667,213.912,480.302,213.912z"
						/>
					<path style="fill:#FFFFFF;" d="M479.696,210.053c0,0.288-2.347,0.522-5.242,0.522c-2.895,0-5.242-0.234-5.242-0.522
						s2.347-0.522,5.242-0.522C477.349,209.531,479.696,209.765,479.696,210.053z"/>
					<path style="opacity:0.34;fill:#639FC4;" d="M474.85,279.637L474.85,279.637c-3.376,0-6.113-2.737-6.113-6.113v-57.597h-2.118
						v59.603c0,3.376,2.737,6.113,6.113,6.113c2.158,0,4.05-1.121,5.138-2.809C476.978,279.343,475.949,279.637,474.85,279.637z"/>
					<path style="fill:#FFFFFF;" d="M476.842,248.541c0,10.315-0.413,18.677-0.922,18.677c-0.509,0-0.922-8.362-0.922-18.677
						c0-10.315,0.413-18.677,0.922-18.677C476.429,229.864,476.842,238.226,476.842,248.541z"/>
				</g>
				<g>
					<path style="opacity:0.34;fill:#639FC4;" d="M403.788,283.441h-0.725c-3.521,0-6.376-2.855-6.376-6.376v-64.641h13.478v64.641
						C410.164,280.586,407.309,283.441,403.788,283.441z"/>
					<path style="fill:#FF7438;" d="M403.707,281.058h-0.562c-2.731,0-4.945-2.214-4.945-4.945v-27.308
						c0-0.044,0.036-0.081,0.081-0.081h10.291c0.044,0,0.081,0.036,0.081,0.081v27.308
						C408.651,278.844,406.438,281.058,403.707,281.058z"/>
					<path style="fill:#FF9F38;" d="M402.428,253.693c0,0.667-0.541,1.207-1.207,1.207c-0.667,0-1.207-0.541-1.207-1.207
						c0-0.667,0.541-1.207,1.207-1.207C401.887,252.486,402.428,253.026,402.428,253.693z"/>
					<path style="fill:#FF9F38;" d="M406.722,260.538c0,0.667-0.541,1.207-1.207,1.207s-1.207-0.54-1.207-1.207
						c0-0.667,0.541-1.207,1.207-1.207S406.722,259.871,406.722,260.538z"/>
					<path style="fill:#FF9F38;" d="M405.514,269.504c0,0.667-0.54,1.207-1.207,1.207s-1.207-0.54-1.207-1.207
						s0.54-1.207,1.207-1.207S405.514,268.837,405.514,269.504z"/>
					<path style="fill:#FF9F38;" d="M401.755,265.186c0,0.667-0.541,1.207-1.207,1.207c-0.667,0-1.207-0.541-1.207-1.207
						c0-0.667,0.541-1.208,1.207-1.208C401.214,263.979,401.755,264.519,401.755,265.186z"/>
					<path style="fill:#FF9F38;" d="M403.208,256.255c0,0.401-0.325,0.727-0.726,0.727c-0.401,0-0.726-0.325-0.726-0.727
						c0-0.401,0.325-0.726,0.726-0.726C402.882,255.528,403.208,255.853,403.208,256.255z"/>
					<path style="fill:#FF9F38;" d="M401.947,277.428c0,0.401-0.325,0.726-0.726,0.726c-0.401,0-0.726-0.325-0.726-0.726
						c0-0.401,0.325-0.726,0.726-0.726C401.622,276.702,401.947,277.027,401.947,277.428z"/>
					<path style="fill:#FF9F38;" d="M405.76,251.962c0,0.401-0.325,0.727-0.726,0.727c-0.401,0-0.726-0.325-0.726-0.727
						c0-0.401,0.325-0.726,0.726-0.726C405.435,251.236,405.76,251.561,405.76,251.962z"/>
					<path style="fill:#FF9F38;" d="M405.033,263.043c0,0.401-0.325,0.726-0.726,0.726c-0.401,0-0.727-0.325-0.727-0.726
						c0-0.401,0.325-0.726,0.727-0.726C404.708,262.316,405.033,262.642,405.033,263.043z"/>
					<path style="fill:#FF9F38;" d="M408.566,248.725c0,0.419-2.321,0.759-5.183,0.759s-5.183-0.34-5.183-0.759
						s2.321-0.759,5.183-0.759S408.566,248.306,408.566,248.725z"/>
					<path style="opacity:0.34;fill:#639FC4;" d="M411.104,213.912h-15.091c-0.365,0-0.66-0.296-0.66-0.66v-3.588
						c0-0.365,0.296-0.66,0.66-0.66h15.091c0.365,0,0.66,0.295,0.66,0.66v3.588C411.764,213.617,411.469,213.912,411.104,213.912z"
						/>
					<path style="fill:#FFFFFF;" d="M410.498,210.053c0,0.288-2.347,0.522-5.242,0.522c-2.895,0-5.242-0.234-5.242-0.522
						s2.347-0.522,5.242-0.522C408.151,209.531,410.498,209.765,410.498,210.053z"/>
					<path style="opacity:0.34;fill:#639FC4;" d="M405.651,279.637L405.651,279.637c-3.376,0-6.113-2.737-6.113-6.113v-57.597
						h-2.118v59.603c0,3.376,2.737,6.113,6.113,6.113c2.158,0,4.05-1.121,5.138-2.809
						C407.78,279.343,406.751,279.637,405.651,279.637z"/>
					<path style="fill:#FFFFFF;" d="M407.644,248.541c0,10.315-0.413,18.677-0.922,18.677c-0.509,0-0.922-8.362-0.922-18.677
						c0-10.315,0.413-18.677,0.922-18.677C407.231,229.864,407.644,238.226,407.644,248.541z"/>
				</g>
			</g>
			<g>
				
					<rect x="383.314" y="222.166" transform="matrix(-1 -1.224647e-16 1.224647e-16 -1 874.113 449.3395)" style="fill:#3B3845;" width="107.485" height="5.007"/>
				
					<rect x="383.314" y="269.551" transform="matrix(-1 -1.224647e-16 1.224647e-16 -1 874.113 544.1095)" style="fill:#3B3845;" width="107.485" height="5.007"/>
				
					<rect x="347.998" y="256.699" transform="matrix(6.123234e-17 -1 1 6.123234e-17 129.2845 645.1873)" style="fill:#3B3845;" width="78.475" height="2.504"/>
				
					<rect x="447.973" y="256.7" transform="matrix(6.123234e-17 -1 1 6.123234e-17 229.2595 745.1623)" style="fill:#3B3845;" width="78.475" height="2.504"/>
				<g>
					<path style="fill:#6582AD;" d="M388.677,227.847h-2.882c-0.308,0-0.558-0.25-0.558-0.558v-5.469
						c0-0.308,0.25-0.558,0.558-0.558h2.882c0.308,0,0.558,0.25,0.558,0.558v5.469C389.235,227.597,388.985,227.847,388.677,227.847
						z"/>
					<path style="fill:#6582AD;" d="M488.652,227.847h-2.882c-0.308,0-0.558-0.25-0.558-0.558v-5.469
						c0-0.308,0.25-0.558,0.558-0.558h2.882c0.308,0,0.558,0.25,0.558,0.558v5.469C489.21,227.597,488.96,227.847,488.652,227.847z"
						/>
				</g>
				<g>
					<path style="fill:#6582AD;" d="M388.677,275.347h-2.882c-0.308,0-0.558-0.25-0.558-0.558v-5.469
						c0-0.308,0.25-0.558,0.558-0.558h2.883c0.308,0,0.558,0.25,0.558,0.558v5.469C389.235,275.098,388.985,275.347,388.677,275.347
						z"/>
					<path style="fill:#6582AD;" d="M488.652,275.347h-2.882c-0.308,0-0.558-0.25-0.558-0.558v-5.469
						c0-0.308,0.25-0.558,0.558-0.558h2.882c0.308,0,0.558,0.25,0.558,0.558v5.469C489.21,275.098,488.96,275.347,488.652,275.347z"
						/>
				</g>
				<rect x="382.266" y="293.485" style="fill:#3B3845;" width="108.533" height="4.576"/>
			</g>
		</g>
		<g>
			<ellipse style="opacity:0.34;fill:#639FC4;" cx="526.703" cy="298.25" rx="19.33" ry="1.061"/>
			<g>
				<g>
					<path style="opacity:0.34;fill:#639FC4;" d="M537.737,232.228c-1.775-0.529-3.019-2.118-3.019-3.97v-8.536
						c0-1.011,0.82-1.831,1.831-1.831l0,0c1.298,0,2.35-1.052,2.35-2.35v-2.511c0-1.298-1.052-2.35-2.35-2.35h-15.583
						c-1.298,0-2.35,1.052-2.35,2.35v2.512c0,1.298,1.052,2.35,2.35,2.35h0c1.011,0,1.831,0.82,1.831,1.831v8.143
						c0,1.911-1.322,3.535-3.173,4.007c-15.679,4.006-26.985,18.939-25.322,36.209c1.578,16.389,15.141,29.45,31.574,30.471
						c19.704,1.224,36.066-14.394,36.066-33.834C561.942,249.365,551.735,236.398,537.737,232.228z"/>
					<path style="fill:#E8AE47;" d="M555.735,264.718c0-3.206-0.572-6.271-1.574-9.135c-2.715,0.08-6.697,0.642-15.138,0.302
						c-9.185-0.37-16.133-1.507-20.055-2.149c-6.258-1.024-10.96-2.195-14.641-3.269c-2.51,4.168-3.981,9.032-3.981,14.252
						c0,15.295,12.399,27.694,27.694,27.694C543.336,292.413,555.735,280.014,555.735,264.718z"/>
					<path style="opacity:0.34;fill:#639FC4;" d="M534.718,220.952v-1.23c0-1.011,0.82-1.831,1.831-1.831
						c1.298,0,2.35-1.052,2.35-2.35v-1.829h-20.283v1.829c0,1.298,1.052,2.35,2.35,2.35h0c1.011,0,1.831,0.82,1.831,1.831v1.23
						H534.718z"/>
				</g>
				<path style="fill:#FFDC4E;" d="M504.327,250.467c0,0,21.67-4.237,49.833,5.117C554.161,255.583,537.814,260.845,504.327,250.467
					z"/>
				<g>
					<path style="fill:#FFDC4E;" d="M516.89,267.244c0,3.219-2.61,5.829-5.829,5.829c-3.219,0-5.829-2.61-5.829-5.829
						c0-3.219,2.61-5.829,5.829-5.829C514.28,261.415,516.89,264.025,516.89,267.244z"/>
					<path style="fill:#FFDC4E;" d="M521.596,278.014c0,1.945-1.576,3.521-3.521,3.521c-1.944,0-3.521-1.576-3.521-3.521
						c0-1.944,1.576-3.521,3.521-3.521C520.019,274.493,521.596,276.07,521.596,278.014z"/>
					<path style="fill:#FFDC4E;" d="M538.389,281.535c0,1.945-1.576,3.521-3.521,3.521c-1.945,0-3.521-1.576-3.521-3.521
						c0-1.944,1.576-3.521,3.521-3.521C536.813,278.014,538.389,279.591,538.389,281.535z"/>
					<circle style="fill:#FFDC4E;" cx="549.611" cy="271.13" r="2.577"/>
					<path style="fill:#FFDC4E;" d="M548.61,265.039c-0.8-0.553-1-1.649-0.447-2.449c0.553-0.8,1.649-1,2.449-0.447
						c0.8,0.553,1,1.649,0.447,2.449C550.507,265.391,549.41,265.592,548.61,265.039z"/>
					<path style="fill:#FFDC4E;" d="M542.465,274.073c-0.552-0.382-0.69-1.139-0.309-1.691c0.382-0.552,1.139-0.69,1.691-0.309
						c0.552,0.382,0.69,1.139,0.309,1.691C543.774,274.316,543.017,274.454,542.465,274.073z"/>
					<path style="fill:#FFDC4E;" d="M511.945,259.132c-0.552-0.382-0.69-1.139-0.309-1.691c0.382-0.552,1.139-0.69,1.691-0.309
						c0.552,0.382,0.69,1.139,0.309,1.691C513.254,259.376,512.497,259.514,511.945,259.132z"/>
					<path style="fill:#FFDC4E;" d="M534.571,265.806c-0.552-0.382-0.69-1.139-0.309-1.691c0.382-0.552,1.139-0.69,1.691-0.309
						c0.552,0.382,0.69,1.139,0.309,1.691C535.88,266.049,535.123,266.188,534.571,265.806z"/>
					<path style="fill:#FFDC4E;" d="M529.193,277.771c-0.8-0.553-1-1.649-0.447-2.449s1.649-1,2.449-0.447
						c0.8,0.553,1,1.649,0.447,2.449C531.089,278.123,529.992,278.323,529.193,277.771z"/>
					<path style="fill:#FFDC4E;" d="M518.338,263.786c-0.8-0.553-1-1.649-0.447-2.449c0.553-0.8,1.649-1,2.449-0.447
						s1,1.649,0.447,2.449C520.234,264.138,519.138,264.339,518.338,263.786z"/>
				</g>
				<path style="opacity:0.34;fill:#639FC4;" d="M527.302,294.432c3.396-0.066,6.635-0.724,9.657-1.826
					c-1.581,0.291-3.194,0.492-4.853,0.525c-16.509,0.323-30.153-12.798-30.476-29.307c-0.256-13.113,7.982-24.391,19.65-28.65
					c-14.145,2.604-24.744,15.102-24.454,29.951C497.149,281.634,510.793,294.755,527.302,294.432z"/>
				<g>
					<path style="fill:#FFFFFF;" d="M529.547,233.909c-0.549,0-1.087,0.041-1.628,0.07c16.233,0.735,29.178,14.089,29.178,30.503
						c0,11.18-6.018,20.922-14.978,26.244c-2.322,1.625-4.867,2.953-7.599,3.89c14.515-2.38,25.601-14.946,25.601-30.134
						C560.121,247.597,546.432,233.909,529.547,233.909z"/>
				</g>
				<path style="fill:#FFFFFF;" d="M537.24,245.432c1.989,1.989,2.539,4.663,1.229,5.972c-1.31,1.31-3.984,0.759-5.972-1.229
					c-1.989-1.989-2.539-4.663-1.229-5.972C532.577,242.893,535.251,243.443,537.24,245.432z"/>
				<path style="fill:#FFFFFF;" d="M552.516,245.81c3.454,3.454,4.41,8.098,2.135,10.372c-2.275,2.275-6.919,1.319-10.372-2.135
					c-3.454-3.454-4.41-8.098-2.135-10.372S549.062,242.356,552.516,245.81z"/>
			</g>
		</g>
		<g>
			<g>
				<path style="opacity:0.34;fill:#639FC4;" d="M357.996,228.818c-0.941-0.28-1.6-1.123-1.6-2.104v-4.524
					c0-0.536,0.434-0.97,0.97-0.97l0,0c0.688,0,1.246-0.558,1.246-1.245v-1.331c0-0.688-0.558-1.245-1.246-1.245h-8.259
					c-0.688,0-1.246,0.558-1.246,1.245v1.331c0,0.688,0.558,1.245,1.245,1.245h0c0.536,0,0.97,0.435,0.97,0.97v4.316
					c0,1.013-0.701,1.873-1.682,2.124c-8.31,2.123-14.303,10.038-13.421,19.192c0.837,8.687,8.025,15.609,16.735,16.15
					c10.444,0.649,19.116-7.629,19.116-17.933C370.826,237.902,365.415,231.029,357.996,228.818z"/>
				<path style="fill:#44BD66;" d="M367.535,246.04c0-1.699-0.303-3.324-0.834-4.842c-1.439,0.043-3.549,0.34-8.023,0.16
					c-4.868-0.196-8.551-0.799-10.629-1.139c-3.317-0.543-5.809-1.163-7.76-1.733c-1.331,2.209-2.11,4.787-2.11,7.554
					c0,8.107,6.572,14.679,14.679,14.679C360.964,260.718,367.535,254.146,367.535,246.04z"/>
				<path style="opacity:0.34;fill:#639FC4;" d="M356.396,222.842v-0.652c0-0.536,0.434-0.97,0.97-0.97
					c0.688,0,1.246-0.558,1.246-1.245v-0.97h-10.75v0.97c0,0.688,0.558,1.245,1.245,1.245h0c0.536,0,0.97,0.435,0.97,0.97v0.652
					H356.396z"/>
			</g>
			<path style="fill:#7BF274;" d="M340.288,238.486c0,0,11.486-2.245,26.413,2.712C366.701,241.198,358.037,243.986,340.288,238.486
				z"/>
			<g>
				<path style="fill:#7BF274;" d="M346.946,247.378c0,1.706-1.383,3.089-3.089,3.089c-1.706,0-3.089-1.383-3.089-3.089
					c0-1.706,1.383-3.089,3.089-3.089C345.563,244.289,346.946,245.672,346.946,247.378z"/>
				<circle style="fill:#7BF274;" cx="347.575" cy="253.087" r="1.866"/>
				<path style="fill:#7BF274;" d="M358.342,254.953c0,1.031-0.835,1.866-1.866,1.866s-1.866-0.836-1.866-1.866
					c0-1.031,0.835-1.866,1.866-1.866S358.342,253.922,358.342,254.953z"/>
				<path style="fill:#7BF274;" d="M365.656,249.438c0,0.754-0.612,1.366-1.366,1.366c-0.754,0-1.366-0.612-1.366-1.366
					c0-0.754,0.611-1.366,1.366-1.366C365.044,248.072,365.656,248.684,365.656,249.438z"/>
				<path style="fill:#7BF274;" d="M363.759,246.209c-0.424-0.293-0.53-0.874-0.237-1.298c0.293-0.424,0.874-0.53,1.298-0.237
					c0.424,0.293,0.53,0.874,0.237,1.298C364.764,246.396,364.183,246.502,363.759,246.209z"/>
				<path style="fill:#7BF274;" d="M360.502,250.997c-0.293-0.202-0.366-0.604-0.164-0.896c0.202-0.293,0.604-0.366,0.896-0.164
					c0.293,0.202,0.366,0.604,0.164,0.896S360.794,251.2,360.502,250.997z"/>
				<path style="fill:#7BF274;" d="M344.326,243.079c-0.293-0.202-0.366-0.604-0.164-0.896c0.202-0.293,0.604-0.366,0.896-0.164
					s0.366,0.604,0.164,0.896C345.02,243.208,344.618,243.281,344.326,243.079z"/>
				<path style="fill:#7BF274;" d="M356.318,246.616c-0.293-0.202-0.366-0.604-0.164-0.896c0.202-0.293,0.604-0.366,0.896-0.164
					c0.293,0.202,0.366,0.604,0.164,0.896C357.012,246.745,356.611,246.818,356.318,246.616z"/>
				<path style="fill:#7BF274;" d="M353.467,252.958c-0.424-0.293-0.53-0.874-0.237-1.298c0.293-0.424,0.874-0.53,1.298-0.237
					c0.424,0.293,0.53,0.874,0.237,1.298S353.891,253.25,353.467,252.958z"/>
				<path style="fill:#7BF274;" d="M347.714,245.545c-0.424-0.293-0.53-0.874-0.237-1.298c0.293-0.424,0.874-0.53,1.298-0.237
					c0.424,0.293,0.53,0.874,0.237,1.298S348.138,245.838,347.714,245.545z"/>
			</g>
			<path style="opacity:0.34;fill:#639FC4;" d="M352.465,261.789c1.8-0.035,3.517-0.384,5.118-0.968
				c-0.838,0.154-1.693,0.261-2.572,0.278c-8.75,0.171-15.982-6.783-16.153-15.533c-0.136-6.95,4.231-12.928,10.415-15.185
				c-7.497,1.38-13.115,8.004-12.961,15.875C336.483,255.005,343.715,261.96,352.465,261.789z"/>
			<g>
				<path style="fill:#FFFFFF;" d="M353.655,229.71c-0.291,0-0.576,0.022-0.863,0.037c8.604,0.389,15.465,7.467,15.465,16.167
					c0,5.926-3.19,11.089-7.939,13.91c-1.231,0.861-2.58,1.565-4.028,2.062c7.693-1.261,13.569-7.922,13.569-15.972
					C369.86,236.965,362.605,229.71,353.655,229.71z"/>
			</g>
			<path style="fill:#FFFFFF;" d="M357.732,235.817c1.054,1.054,1.346,2.471,0.652,3.165c-0.694,0.694-2.111,0.402-3.165-0.652
				c-1.054-1.054-1.346-2.471-0.652-3.165C355.261,234.471,356.678,234.763,357.732,235.817z"/>
			<path style="fill:#FFFFFF;" d="M365.829,236.017c1.831,1.831,2.337,4.292,1.132,5.498c-1.206,1.206-3.667,0.699-5.498-1.132
				c-1.831-1.831-2.337-4.292-1.132-5.498C361.537,233.68,363.999,234.187,365.829,236.017z"/>
		</g>
		
			<rect x="269.091" y="251.69" transform="matrix(6.123234e-17 -1 1 6.123234e-17 60.4038 568.3585)" style="fill:#3B3845;" width="90.58" height="4.575"/>
		<rect x="312.094" y="224.46" style="fill:#3B3845;" width="41.073" height="4.576"/>
		<rect x="281.816" y="295.563" style="fill:#3B3845;" width="85.109" height="4.576"/>
		<path style="fill:#6582AD;" d="M317.476,229.925h-6.19c-0.308,0-0.558-0.25-0.558-0.558v-5.469c0-0.308,0.25-0.558,0.558-0.558
			h6.19c0.308,0,0.558,0.25,0.558,0.558v5.469C318.034,229.675,317.784,229.925,317.476,229.925z"/>
		<path style="fill:#6582AD;" d="M357.251,229.925h-8.023c-0.308,0-0.558-0.25-0.558-0.558v-5.469c0-0.308,0.25-0.558,0.558-0.558
			h8.023c0.308,0,0.558,0.25,0.558,0.558v5.469C357.809,229.675,357.559,229.925,357.251,229.925z"/>
		<g>
			<g>
				<g>
					<path style="fill:#E8AE47;" d="M350.66,293.621c-2.222-0.355-4.283-1.732-5.321-4.005c-0.881-1.93-1.204-4.701,1.027-8.062
						c3.101-4.672,3.447-8.46,3.369-10.336c-0.016-0.382,0.465-0.557,0.707-0.261c2.487,3.042,9.423,12.184,7.695,17.542
						C356.527,293.488,353.147,294.018,350.66,293.621z"/>
				</g>
				<g>
					<path style="fill:#FFDC4E;" d="M350.88,292.576c-1.558-0.217-3.003-1.062-3.731-2.457c-0.618-1.184-0.845-2.883,0.72-4.945
						c2.145-2.827,3.14-5.728,3.554-7.273c0.113-0.421,0.671-0.503,0.901-0.132c1.49,2.397,4.964,8.506,3.799,11.665
						C354.994,292.495,352.624,292.82,350.88,292.576z"/>
				</g>
				<g>
					<path style="fill:#FFFFFF;" d="M351.181,292.15c-1.024-0.143-1.973-0.698-2.451-1.614c-0.406-0.778-0.555-1.895,0.473-3.249
						c1.409-1.857,2.063-3.763,2.335-4.779c0.074-0.276,0.441-0.33,0.592-0.087c0.979,1.575,3.261,5.589,2.496,7.665
						C353.884,292.097,352.327,292.31,351.181,292.15z"/>
				</g>
				<g>
					<path style="fill:#FFDC4E;" d="M357.048,275.029c0,0.346-0.234,0.626-0.522,0.626c-0.288,0-0.522-0.28-0.522-0.626
						c0-0.346,0.234-0.626,0.522-0.626C356.815,274.403,357.048,274.683,357.048,275.029z"/>
				</g>
				<g>
					<path style="fill:#FFDC4E;" d="M345.082,279.027c0.204-0.244,0.534-0.244,0.738,0c0.204,0.245,0.204,0.641,0,0.885
						c-0.204,0.244-0.534,0.244-0.738,0C344.878,279.668,344.878,279.271,345.082,279.027z"/>
				</g>
				<g>
					<path style="fill:#FFDC4E;" d="M345.978,276.894c0.122-0.146,0.319-0.146,0.441,0c0.122,0.146,0.122,0.383,0,0.529
						s-0.319,0.146-0.441,0S345.856,277.04,345.978,276.894z"/>
				</g>
			</g>
			<rect x="341.068" y="291.391" style="fill:#6582AD;" width="20.822" height="4.075"/>
		</g>
		<g>
			<path style="fill:#6582AD;" d="M634.571,212.173c4.379,8.258,6.704,17.375,7.305,26.856c0.081,1.187,0.13,2.383,0.161,3.587
				c-0.023,1.2-0.061,2.406-0.142,3.618c-0.15,2.424-0.431,4.874-0.879,7.343c-1.039,4.886-2.794,9.877-5.77,14.474
				c-1.544,2.251-3.373,4.377-5.479,6.235c-2.058,1.831-4.526,3.552-6.884,4.588c-4.576,2.161-9.767,3.999-15.431,3.836
				c-2.79-0.066-5.659-0.45-8.283-1.513c-2.632-1.015-5.021-2.487-7.022-4.247c-3.951-3.639-6.518-8.009-7.584-12.901l2.696-1.191
				c1.808,3.647,4.664,7.108,8.076,9.422c3.403,2.396,7.546,3.559,11.718,3.319c4.183-0.197,8.307-1.669,12.12-3.678
				c3.826-1.913,7.036-4.804,9.438-8.346c4.887-7.096,6.675-16.055,7.194-24.795c0.245-4.405,0.153-8.84-0.19-13.258
				c-0.319-4.417-0.852-8.844-1.711-13.188L634.571,212.173z"/>
			<g>
				
					<rect x="600.749" y="213.102" transform="matrix(0.6171 0.7869 -0.7869 0.6171 401.783 -394.4691)" style="fill:#FFFFFF;" width="10.884" height="4.955"/>
				
					<rect x="597.498" y="215.475" transform="matrix(0.6171 0.7869 -0.7869 0.6171 402.9603 -388.9181)" style="fill:#3B3845;" width="7.186" height="8.209"/>
				
					<rect x="604.851" y="218.819" transform="matrix(0.877 0.4805 -0.4805 0.877 181.4222 -266.0426)" style="fill:#FFFFFF;" width="10.884" height="4.955"/>
				
					<rect x="603.585" y="222.877" transform="matrix(0.877 0.4805 -0.4805 0.877 183.7657 -263.8423)" style="fill:#3B3845;" width="7.185" height="8.209"/>
				
					<rect x="634.608" y="189.828" transform="matrix(0.6171 0.7869 -0.7869 0.6171 396.9527 -431.1091)" style="fill:#6582AD;" width="13.647" height="4.955"/>
				
					<rect x="641.619" y="181.777" transform="matrix(0.6171 0.7869 -0.7869 0.6171 395.3185 -438.7343)" style="fill:#6582AD;" width="13.647" height="10.061"/>
				
					<rect x="634.84" y="189.15" transform="matrix(0.6171 0.7869 -0.7869 0.6171 396.3442 -433.9586)" style="fill:#3B3845;" width="18.42" height="2.203"/>
				
					<rect x="616.213" y="184.593" transform="matrix(0.6171 0.7869 -0.7869 0.6171 400.7574 -413.4914)" style="fill:#3B3845;" width="18.019" height="40.844"/>
				<path style="fill:#3B3845;" d="M656.62,189.064c-0.37,0.29-2.555-1.879-4.88-4.844s-3.91-5.604-3.541-5.894
					c0.37-0.29,2.555,1.879,4.88,4.844C655.405,186.135,656.99,188.775,656.62,189.064z"/>
				<path style="fill:#6582AD;" d="M638.807,216.498c-3.393,2.661-8.302,2.067-10.963-1.326c-2.661-3.393-2.067-8.302,1.326-10.963
					c3.394-2.661,8.302-2.067,10.963,1.326C642.795,208.929,642.201,213.837,638.807,216.498z"/>
				<path style="fill:#FFFFFF;" d="M636.769,213.898c-1.958,1.535-4.789,1.193-6.325-0.765c-1.535-1.958-1.193-4.79,0.765-6.325
					c1.958-1.535,4.789-1.193,6.325,0.765C639.069,209.532,638.727,212.363,636.769,213.898z"/>
				<path style="fill:#6582AD;" d="M608.36,232.314c-0.166,0.303-1.714-0.225-3.457-1.18c-1.743-0.955-3.022-1.976-2.856-2.279
					c0.166-0.303,1.714,0.225,3.457,1.181C607.248,230.99,608.527,232.01,608.36,232.314z"/>
				<path style="fill:#6582AD;" d="M600.07,224.954c-0.272,0.213-1.487-0.882-2.714-2.446c-1.227-1.564-2-3.005-1.728-3.219
					c0.272-0.213,1.487,0.882,2.714,2.446C599.569,223.299,600.342,224.74,600.07,224.954z"/>
			</g>
			<g>
				<path style="fill:#3B3845;" d="M593.5,292.245h26.294l-9.114-21.038c-2.004-4.626-8.658-4.344-10.262,0.436L593.5,292.245z"/>
				<path style="fill:#FFFFFF;" d="M609.424,280.394c0,1.909-1.547,3.456-3.456,3.456c-1.909,0-3.457-1.547-3.457-3.456
					c0-1.909,1.548-3.457,3.457-3.457C607.877,276.938,609.424,278.485,609.424,280.394z"/>
			</g>
			
				<rect x="583.86" y="250.137" transform="matrix(0.1803 -0.9836 0.9836 0.1803 221.3626 791.507)" style="fill:#6582AD;" width="3.456" height="25.597"/>
			<rect x="568.812" y="292.152" style="fill:#3B3845;" width="75.3" height="7.16"/>
		</g>
		<rect x="271.035" y="317.321" style="opacity:0.34;fill:#639FC4;" width="187.803" height="3.943"/>
		<rect x="271.035" y="357.777" style="opacity:0.34;fill:#639FC4;" width="187.803" height="3.943"/>
		<rect x="271.035" y="398.233" style="opacity:0.34;fill:#639FC4;" width="187.803" height="3.943"/>
		<rect x="271.035" y="438.689" style="opacity:0.34;fill:#639FC4;" width="187.803" height="3.943"/>
		<rect x="464.764" y="317.321" style="opacity:0.34;fill:#639FC4;" width="187.803" height="3.943"/>
		<rect x="466.897" y="398.233" style="opacity:0.34;fill:#639FC4;" width="187.803" height="3.943"/>
		<rect x="466.897" y="438.689" style="opacity:0.34;fill:#639FC4;" width="187.803" height="3.943"/>
		<rect x="271.035" y="317.321" style="fill:none;stroke:#597399;stroke-miterlimit:10;" width="187.803" height="33.327"/>
		<rect x="464.764" y="317.321" style="fill:none;stroke:#597399;stroke-miterlimit:10;" width="187.803" height="73.784"/>
		<g>
			<rect x="271.035" y="357.777" style="fill:none;stroke:#597399;stroke-miterlimit:10;" width="187.803" height="33.327"/>
		</g>
		<g>
			<rect x="271.035" y="398.233" style="fill:none;stroke:#597399;stroke-miterlimit:10;" width="187.803" height="33.327"/>
			<rect x="466.897" y="398.233" style="fill:none;stroke:#597399;stroke-miterlimit:10;" width="187.803" height="33.327"/>
		</g>
		<g>
			<rect x="271.035" y="438.689" style="fill:none;stroke:#597399;stroke-miterlimit:10;" width="187.803" height="33.327"/>
			<rect x="466.897" y="438.689" style="fill:none;stroke:#597399;stroke-miterlimit:10;" width="187.803" height="33.327"/>
		</g>
		<rect x="544.618" y="331.997" style="fill:#597399;" width="28.095" height="3.975"/>
		<rect x="544.618" y="413.714" style="fill:#597399;" width="28.095" height="3.975"/>
		<g>
			<rect x="350.889" y="331.997" style="fill:#597399;" width="28.095" height="3.975"/>
			<rect x="350.889" y="374.441" style="fill:#597399;" width="28.095" height="3.975"/>
			<rect x="350.889" y="413.714" style="fill:#597399;" width="28.095" height="3.975"/>
			<rect x="350.889" y="454.296" style="fill:#597399;" width="28.095" height="3.975"/>
		</g>
		<rect x="544.618" y="454.296" style="fill:#597399;" width="28.095" height="3.975"/>
	</g>
	<g>
		<rect x="360.628" y="75.501" style="fill:#DDE4EB;" width="47.713" height="64.424"/>
		<g>
			<path style="fill:#FFFFFF;" d="M390.854,110.184L390.854,110.184c-0.914-0.516-2.004,0.307-1.757,1.328l0,0
				c0.307,1.272-1.352,2.048-2.132,0.997l0,0c-0.625-0.843-1.955-0.534-2.145,0.498l0,0c-0.237,1.286-2.068,1.321-2.353,0.044l0,0
				c-0.229-1.025-1.569-1.284-2.163-0.418l0,0c-0.74,1.079-2.427,0.365-2.167-0.917l0,0c0.208-1.029-0.911-1.811-1.806-1.261l0,0
				c-1.115,0.685-2.366-0.653-1.607-1.719l0,0c0.608-0.855-0.096-2.025-1.137-1.886l0,0c-1.297,0.172-1.895-1.559-0.769-2.224l0,0
				c0.904-0.534,0.736-1.889-0.271-2.186l0,0c-1.255-0.37-1.097-2.195,0.202-2.345l0,0c1.043-0.12,1.44-1.426,0.641-2.107h0
				c-0.996-0.848-0.11-2.452,1.138-2.06l0,0c1.001,0.314,1.896-0.717,1.443-1.664l0,0c-0.565-1.18,0.897-2.284,1.878-1.419l0,0
				c0.787,0.695,2.024,0.116,1.995-0.933l0,0c-0.036-1.308,1.749-1.722,2.293-0.532l0,0c0.436,0.955,1.801,0.929,2.202-0.041l0,0
				c0.499-1.209,2.298-0.862,2.311,0.446l0,0c0.01,1.05,1.268,1.582,2.029,0.858l0,0c0.948-0.902,2.45,0.147,1.93,1.347l0,0
				c-0.417,0.963,0.515,1.961,1.504,1.609l0,0c1.233-0.438,2.178,1.131,1.215,2.016l0,0c-0.773,0.71-0.327,2.001,0.72,2.082l0,0
				c1.304,0.101,1.53,1.919,0.29,2.335l0,0c-0.995,0.334-1.112,1.695-0.189,2.194l0,0c1.15,0.623,0.617,2.375-0.685,2.251l0,0
				c-1.045-0.099-1.705,1.096-1.065,1.928l0,0C393.193,109.442,391.993,110.826,390.854,110.184z"/>
			<g>
				<polygon style="fill:#FFFFFF;" points="379.669,123.188 377.581,120.207 373.983,120.758 380.384,105.78 386.07,108.21 				"/>
				<polygon style="fill:#FFFFFF;" points="387.171,123.188 389.259,120.207 392.857,120.758 386.456,105.78 380.77,108.21 				"/>
			</g>
		</g>
		<rect x="362.885" y="77.828" style="fill:none;stroke:#FFFFFF;stroke-miterlimit:10;" width="43.199" height="59.769"/>
	</g>
	<g>
		<rect x="437.892" y="97.28" style="fill:#DDE4EB;" width="47.713" height="64.424"/>
		<g>
			<path style="fill:#FFFFFF;" d="M468.117,131.963L468.117,131.963c-0.914-0.516-2.004,0.307-1.757,1.328l0,0
				c0.307,1.272-1.352,2.048-2.132,0.997l0,0c-0.625-0.843-1.955-0.534-2.145,0.498l0,0c-0.237,1.287-2.068,1.321-2.353,0.044l0,0
				c-0.229-1.025-1.569-1.283-2.163-0.418l0,0c-0.74,1.079-2.427,0.365-2.167-0.917l0,0c0.208-1.029-0.911-1.811-1.806-1.261l0,0
				c-1.114,0.685-2.365-0.653-1.607-1.719l0,0c0.608-0.855-0.096-2.025-1.137-1.887l0,0c-1.297,0.172-1.895-1.559-0.769-2.224h0
				c0.904-0.534,0.736-1.889-0.271-2.186l0,0c-1.255-0.37-1.097-2.195,0.202-2.345l0,0c1.043-0.12,1.44-1.426,0.641-2.107l0,0
				c-0.996-0.848-0.11-2.452,1.138-2.06l0,0c1.001,0.314,1.896-0.717,1.443-1.664l0,0c-0.565-1.18,0.897-2.284,1.878-1.419v0
				c0.787,0.695,2.024,0.116,1.995-0.933l0,0c-0.036-1.308,1.749-1.722,2.293-0.532l0,0c0.436,0.955,1.801,0.929,2.202-0.041l0,0
				c0.499-1.209,2.298-0.862,2.311,0.446l0,0c0.01,1.05,1.268,1.582,2.029,0.858l0,0c0.948-0.902,2.45,0.147,1.93,1.348v0
				c-0.417,0.963,0.515,1.96,1.504,1.609l0,0c1.233-0.438,2.178,1.131,1.215,2.016l0,0c-0.773,0.71-0.327,2.001,0.72,2.082l0,0
				c1.304,0.101,1.53,1.919,0.29,2.336l0,0c-0.995,0.334-1.112,1.694-0.189,2.194l0,0c1.15,0.623,0.617,2.375-0.685,2.252l0,0
				c-1.045-0.099-1.705,1.096-1.065,1.928l0,0C470.457,131.221,469.257,132.605,468.117,131.963z"/>
			<g>
				<polygon style="fill:#FFFFFF;" points="456.933,144.967 454.844,141.986 451.247,142.537 457.648,127.559 463.334,129.989 				
					"/>
				<polygon style="fill:#FFFFFF;" points="464.434,144.967 466.523,141.986 470.121,142.537 463.72,127.559 458.033,129.989 				
					"/>
			</g>
		</g>
		<rect x="440.149" y="99.607" style="fill:none;stroke:#FFFFFF;stroke-miterlimit:10;" width="43.199" height="59.769"/>
	</g>
	<g>
		<path style="opacity:0.34;fill:#91AABA;" d="M128.285,409.501c0,3.37-21.467,6.102-31.573,6.102s-26.081-2.732-26.081-6.102
			c0-3.37,15.976-6.102,26.081-6.102S128.285,406.131,128.285,409.501z"/>
		<polygon style="fill:#DDE4EB;" points="119.442,411.532 79.473,411.532 70.631,364.947 128.285,364.947 		"/>
		<g>
			<g>
				<g>
					<path style="fill:none;stroke:#76CF8F;stroke-miterlimit:10;" d="M74.435,295.981c0,0,20.098,15.323,27.413,54.102"/>
					<path style="fill:none;stroke:#76CF8F;stroke-miterlimit:10;" d="M86.013,272.096c0,0,4.016,24.552,6.381,48.557"/>
					<g>
						<path style="fill:#76CF8F;" d="M86.036,308.823c0,0,2.773-36.721-38.919-45.135C47.117,263.688,39.53,300.267,86.036,308.823z
							"/>
						<path style="fill:#449E88;" d="M47.117,263.688c20.729,20.135,38.919,45.135,38.919,45.135
							C39.53,300.267,47.117,263.688,47.117,263.688z"/>
					</g>
					<g>
						<path style="fill:#76CF8F;" d="M86.815,280.026c0,0,12.757-17.519-5.504-34.638C81.312,245.388,66.19,261.346,86.815,280.026z
							"/>
						<path style="fill:#449E88;" d="M81.312,245.388c4.14,16.495,5.504,34.638,5.504,34.638
							C66.19,261.346,81.312,245.388,81.312,245.388z"/>
					</g>
				</g>
				<g>
					<path style="fill:#76CF8F;" d="M97.832,351.966c0,0-0.356-32.104-37.202-36.274C60.63,315.692,56.794,348.035,97.832,351.966z"
						/>
					<path style="fill:#449E88;" d="M60.63,315.692c19.521,15.928,37.202,36.274,37.202,36.274
						C56.794,348.035,60.63,315.692,60.63,315.692z"/>
				</g>
			</g>
			<g>
				<g>
					<path style="fill:none;stroke:#76CF8F;stroke-miterlimit:10;" d="M122.238,322.661c0,0-17.183,12.467-26.39,44.263"/>
					<path style="fill:none;stroke:#76CF8F;stroke-miterlimit:10;" d="M111.23,298.509c0,0-4.597,24.45-7.53,48.393"/>
					<g>
						<path style="fill:#76CF8F;" d="M110.337,335.224c0,0-1.902-36.776,39.978-44.199
							C150.315,291.025,157.032,327.773,110.337,335.224z"/>
						<path style="fill:#449E88;" d="M150.315,291.025c-21.201,19.637-39.978,44.199-39.978,44.199
							C157.032,327.773,150.315,291.025,150.315,291.025z"/>
					</g>
					<g>
						<path style="fill:#76CF8F;" d="M110.24,306.418c0,0-12.338-17.817,6.323-34.498
							C116.563,271.92,131.303,288.231,110.24,306.418z"/>
						<path style="fill:#449E88;" d="M116.563,271.92c-4.53,16.392-6.323,34.498-6.323,34.498
							C131.303,288.231,116.563,271.92,116.563,271.92z"/>
					</g>
				</g>
			</g>
		</g>
		<path style="fill:#3B3845;" d="M128.285,364.947c0,1.612-12.906,2.918-28.827,2.918c-15.921,0-28.827-1.306-28.827-2.918
			c0-1.612,12.906-2.918,28.827-2.918C115.378,362.029,128.285,363.335,128.285,364.947z"/>
	</g>
</g>
</svg>
