<svg width="631" height="501" viewBox="0 0 631 501" fill="none" xmlns="http://www.w3.org/2000/svg">
<path d="M475.309 459.26C517.933 455.982 555.043 417.469 570.774 361.825C577.997 336.277 584.064 305.642 584.064 274.818C584.064 198.673 564.317 76.3798 505.075 32.5388C445.832 -11.3022 375.894 -5.53368 335.576 18.6942C295.258 42.9222 284.562 77.5335 244.244 84.4557C203.926 91.378 174.305 23.3091 102.721 21.0017C31.1366 18.6942 -4.24422 160.601 6.45229 233.284C17.1488 305.968 72.5913 357.577 73.466 387.61C74.3398 417.644 97.7841 466.334 156.204 480.178C214.623 494.023 297.727 434.03 337.222 431.723C376.716 429.415 429.376 461.719 472.985 459.412C473.763 459.37 474.538 459.32 475.309 459.26Z" fill="#C6FFD6"/>
<path opacity="0.7" d="M460.598 459.26C501.891 455.982 537.841 417.469 553.081 361.825C560.077 336.277 565.955 305.642 565.955 274.818C565.955 198.673 546.825 76.3798 489.434 32.5388C432.043 -11.3022 364.29 -5.53368 325.232 18.6942C286.174 42.9222 275.812 77.5335 236.754 84.4557C197.697 91.378 169.001 23.3091 99.6539 21.0017C30.3065 18.6942 -3.96865 160.601 6.3936 233.284C16.7559 305.968 70.4658 357.577 71.3131 387.61C72.1596 417.644 94.8713 466.334 151.465 480.178C208.059 494.023 288.566 434.03 326.826 431.723C365.087 429.415 416.101 461.719 458.347 459.412C459.101 459.37 459.852 459.32 460.598 459.26Z" fill="white"/>
<path opacity="0.2" d="M372.368 128.279H379.064" stroke="black" stroke-miterlimit="10" stroke-linecap="round" stroke-linejoin="round"/>
<path opacity="0.2" d="M384 128.279H396.636V205.439H337.782V128.279H366.024" stroke="black" stroke-miterlimit="10" stroke-linecap="round" stroke-linejoin="round"/>
<path opacity="0.2" d="M459.112 128.279H400.258V205.439H459.112V128.279Z" stroke="black" stroke-miterlimit="10" stroke-linecap="round" stroke-linejoin="round"/>
<path opacity="0.2" d="M507.01 128.279H521.588V205.439H462.734V128.279H500.313" stroke="black" stroke-miterlimit="10" stroke-linecap="round" stroke-linejoin="round"/>
<path opacity="0.2" d="M584.065 186.421V205.439H525.21V128.279H584.065V182.316" stroke="black" stroke-miterlimit="10" stroke-linecap="round" stroke-linejoin="round"/>
<path opacity="0.2" d="M396.636 210.261H337.782V287.421H396.636V210.261Z" stroke="black" stroke-miterlimit="10" stroke-linecap="round" stroke-linejoin="round"/>
<path opacity="0.2" d="M400.258 234.448V210.261H459.112V287.421H400.258V241.427" stroke="black" stroke-miterlimit="10" stroke-linecap="round" stroke-linejoin="round"/>
<path opacity="0.2" d="M521.588 210.261H462.734V287.421H521.588V210.261Z" stroke="black" stroke-miterlimit="10" stroke-linecap="round" stroke-linejoin="round"/>
<path opacity="0.2" d="M539.943 210.261H584.065V287.421H525.21V210.261H535.318" stroke="black" stroke-miterlimit="10" stroke-linecap="round" stroke-linejoin="round"/>
<path opacity="0.2" d="M396.636 292.243H337.782V369.403H396.636V292.243Z" stroke="black" stroke-miterlimit="10" stroke-linecap="round" stroke-linejoin="round"/>
<path opacity="0.2" d="M459.112 292.243H400.258V369.403H459.112V292.243Z" stroke="black" stroke-miterlimit="10" stroke-linecap="round" stroke-linejoin="round"/>
<path opacity="0.2" d="M521.588 292.243H462.734V369.403H521.588V292.243Z" stroke="black" stroke-miterlimit="10" stroke-linecap="round" stroke-linejoin="round"/>
<path opacity="0.2" d="M584.065 357.186V369.402H525.21V319.42" stroke="black" stroke-miterlimit="10" stroke-linecap="round" stroke-linejoin="round"/>
<path opacity="0.2" d="M584.064 345.692V352.671" stroke="black" stroke-miterlimit="10" stroke-linecap="round" stroke-linejoin="round"/>
<path opacity="0.2" d="M525.21 312.853V292.243H584.065V341.177" stroke="black" stroke-miterlimit="10" stroke-linecap="round" stroke-linejoin="round"/>
<path opacity="0.2" d="M396.636 374.228H337.782V451.388H396.636V374.228Z" stroke="black" stroke-miterlimit="10" stroke-linecap="round" stroke-linejoin="round"/>
<path opacity="0.2" d="M459.112 374.228H400.258V451.388H459.112V374.228Z" stroke="black" stroke-miterlimit="10" stroke-linecap="round" stroke-linejoin="round"/>
<path opacity="0.2" d="M521.588 374.228H462.734V451.388H521.588V374.228Z" stroke="black" stroke-miterlimit="10" stroke-linecap="round" stroke-linejoin="round"/>
<path opacity="0.2" d="M539.172 451.388H525.21V374.228H584.065V451.388H544.952" stroke="black" stroke-miterlimit="10" stroke-linecap="round" stroke-linejoin="round"/>
<g opacity="0.2">
<path d="M53.3667 230.516H122.54V99.3438H25.6562V230.516H46.8158" stroke="black" stroke-miterlimit="10" stroke-linecap="round" stroke-linejoin="round"/>
<path d="M101.923 105.13H63.001" stroke="black" stroke-miterlimit="10" stroke-linecap="round" stroke-linejoin="round"/>
<path d="M29.9307 158.429V224.728H118.265V105.13H106.932" stroke="black" stroke-miterlimit="10" stroke-linecap="round" stroke-linejoin="round"/>
<path d="M56.8353 105.13H29.9307V151.862" stroke="black" stroke-miterlimit="10" stroke-linecap="round" stroke-linejoin="round"/>
<path d="M87.6642 137.348H53.7251V192.513H79.5713" stroke="black" stroke-miterlimit="10" stroke-linecap="round" stroke-linejoin="round"/>
<path d="M83.8105 192.513H94.4705V137.348H91.9035" stroke="black" stroke-miterlimit="10" stroke-linecap="round" stroke-linejoin="round"/>
</g>
<g opacity="0.2">
<path d="M170.529 179.236C190.448 179.236 206.596 162.036 206.596 140.817C206.596 119.599 190.448 102.398 170.529 102.398C150.61 102.398 134.462 119.599 134.462 140.817C134.462 162.036 150.61 179.236 170.529 179.236Z" stroke="black" stroke-miterlimit="10" stroke-linecap="round" stroke-linejoin="round"/>
<path d="M170.528 173.845C187.652 173.845 201.533 159.058 201.533 140.817C201.533 122.577 187.652 107.79 170.528 107.79C153.404 107.79 139.522 122.577 139.522 140.817C139.522 159.058 153.404 173.845 170.528 173.845Z" stroke="black" stroke-miterlimit="10" stroke-linecap="round" stroke-linejoin="round"/>
<path d="M161.953 150.828L170.528 140.818H195.724" stroke="black" stroke-miterlimit="10" stroke-linecap="round" stroke-linejoin="round"/>
</g>
<path d="M74.9385 295.521C74.9385 295.521 62.9539 288.429 62.0666 304.505C61.1792 320.581 58.96 453.933 58.96 453.933" stroke="#263238" stroke-width="2" stroke-miterlimit="10" stroke-linecap="round" stroke-linejoin="round"/>
<path d="M55.8428 305.921C55.8428 305.921 65.6181 357.951 61.1795 452.514" stroke="#263238" stroke-width="2" stroke-miterlimit="10" stroke-linecap="round" stroke-linejoin="round"/>
<path d="M65.4457 298.758C65.4457 298.758 60.8614 301.887 58.2528 298.306C55.6442 294.724 60.0175 288.165 56.163 285.36C52.3085 282.555 45.6552 286.836 45.6552 286.836C45.6552 286.836 50.7792 288.439 50.6144 291.419C50.4496 294.398 47.9813 295.525 47.6517 294.223C47.3231 292.921 44.8792 286.36 40.7178 289.089C36.5563 291.817 35.9216 296.049 35.9216 296.049C35.9216 296.049 45.6063 294.949 46.1931 298.83C46.7798 302.711 42.2208 298.153 38.2242 297.902C34.2284 297.652 30.5849 298.277 30.8429 300.856C31.101 303.435 30.4653 307.666 30.4653 307.666C30.4653 307.666 33.8508 304.462 38.2468 304.738C42.6428 305.014 42.4771 307.994 38.4813 307.742C34.4855 307.491 31.053 311.547 31.053 311.547C31.053 311.547 34.6956 318.183 39.3252 321.464C43.9557 324.745 45.6244 323.569 46.1659 321.04C46.7074 318.511 45.4624 312.026 48.2593 312.201C51.0562 312.377 43.627 323.443 47.1999 324.094C50.7728 324.745 53.6404 323.645 54.5812 321.141C55.5219 318.637 55.5219 318.637 55.5219 318.637C55.5219 318.637 54.2769 312.152 54.8184 309.623C55.3599 307.094 56.0172 309.698 56.651 312.728C57.2849 315.757 57.6842 323.044 58.9065 322.694C60.1289 322.344 64.0314 317.036 64.9486 314.958C65.8658 312.879 59.802 306.518 59.8726 305.241C59.9433 303.964 64.6208 306.394 65.3497 307.721C66.0786 309.048 66.7831 310.802 66.7831 310.802C66.7831 310.802 69.6977 308.849 69.6289 302.865C69.5592 296.881 65.4457 298.758 65.4457 298.758Z" fill="#56DF7D"/>
<path opacity="0.3" d="M65.4457 298.758C65.4457 298.758 60.8614 301.887 58.2528 298.306C55.6442 294.724 60.0175 288.165 56.163 285.36C52.3085 282.555 45.6552 286.836 45.6552 286.836C45.6552 286.836 50.7792 288.439 50.6144 291.419C50.4496 294.398 47.9813 295.525 47.6517 294.223C47.3231 292.921 44.8792 286.36 40.7178 289.089C36.5563 291.817 35.9216 296.049 35.9216 296.049C35.9216 296.049 45.6063 294.949 46.1931 298.83C46.7798 302.711 42.2208 298.153 38.2242 297.902C34.2284 297.652 30.5849 298.277 30.8429 300.856C31.101 303.435 30.4653 307.666 30.4653 307.666C30.4653 307.666 33.8508 304.462 38.2468 304.738C42.6428 305.014 42.4771 307.994 38.4813 307.742C34.4855 307.491 31.053 311.547 31.053 311.547C31.053 311.547 34.6956 318.183 39.3252 321.464C43.9557 324.745 45.6244 323.569 46.1659 321.04C46.7074 318.511 45.4624 312.026 48.2593 312.201C51.0562 312.377 43.627 323.443 47.1999 324.094C50.7728 324.745 53.6404 323.645 54.5812 321.141C55.5219 318.637 55.5219 318.637 55.5219 318.637C55.5219 318.637 54.2769 312.152 54.8184 309.623C55.3599 307.094 56.0172 309.698 56.651 312.728C57.2849 315.757 57.6842 323.044 58.9065 322.694C60.1289 322.344 64.0314 317.036 64.9486 314.958C65.8658 312.879 59.802 306.518 59.8726 305.241C59.9433 303.964 64.6208 306.394 65.3497 307.721C66.0786 309.048 66.7831 310.802 66.7831 310.802C66.7831 310.802 69.6977 308.849 69.6289 302.865C69.5592 296.881 65.4457 298.758 65.4457 298.758Z" fill="#263238"/>
<path d="M42.2061 312.79C45.195 308.853 49.6009 303.527 53.2933 300.984" stroke="#263238" stroke-miterlimit="10" stroke-linecap="round" stroke-linejoin="round"/>
<path d="M38.7393 317.583C38.7393 317.583 39.5071 316.445 40.7512 314.742" stroke="#263238" stroke-miterlimit="10" stroke-linecap="round" stroke-linejoin="round"/>
<path d="M55.2432 301.962C55.2432 301.962 59.6853 308.648 60.5066 315.534" stroke="#263238" stroke-miterlimit="10" stroke-linecap="round" stroke-linejoin="round"/>
<path d="M50.2129 305.917C50.2129 305.917 51.4588 305.14 50.987 313.654" stroke="#263238" stroke-miterlimit="10" stroke-linecap="round" stroke-linejoin="round"/>
<path d="M53.458 298.005C53.458 298.005 55.9969 295.601 54.6577 290.818" stroke="#263238" stroke-miterlimit="10" stroke-linecap="round" stroke-linejoin="round"/>
<path d="M50.0249 302.06L48.2158 298.529" stroke="#263238" stroke-miterlimit="10" stroke-linecap="round" stroke-linejoin="round"/>
<path d="M46.217 305.665C46.217 305.665 40.4583 301.031 36.8628 300.806" stroke="#263238" stroke-miterlimit="10" stroke-linecap="round" stroke-linejoin="round"/>
<path d="M81.785 286.141C81.785 286.141 81.6012 293.163 76.4574 293.504C71.3135 293.845 68.129 284.71 62.8647 286.909C57.6004 289.108 57.0888 299.12 57.0888 299.12C57.0888 299.12 62.0887 294.748 64.777 296.955C67.4653 299.162 66.8415 302.562 65.3936 302.025C63.9458 301.488 56.1136 299.623 55.842 305.92C55.5704 312.217 59.1143 315.779 59.1143 315.779C59.1143 315.779 64.6819 304.701 68.7302 306.72C72.7785 308.739 65.3864 310.495 62.4265 314.585C59.4665 318.676 57.5705 322.988 60.171 324.47C62.7714 325.953 66.3154 329.515 66.3154 329.515C66.3154 329.515 65.6109 323.72 68.8669 319.22C72.123 314.721 74.8112 316.928 71.8513 321.018C68.8914 325.109 70.3637 331.534 70.3637 331.534C70.3637 331.534 79.0841 332.173 85.3236 329.471C91.563 326.77 91.5956 324.188 89.5873 321.886C87.579 319.586 80.6351 316.493 82.7068 313.629C84.7785 310.766 90.1152 326.232 93.163 322.866C96.2107 319.5 97.1307 315.69 95.4185 312.981C93.7063 310.272 93.7062 310.272 93.7062 310.272C93.7062 310.272 86.7623 307.179 84.754 304.878C82.7457 302.578 85.6423 303.652 88.9218 305.04C92.2023 306.429 99.3219 310.971 99.8262 309.429C100.33 307.887 98.0017 300.106 96.6734 297.712C95.3451 295.317 85.233 297.449 84.0813 296.503C82.9295 295.556 88.4012 292.224 90.1451 292.352C91.889 292.48 94.0168 292.923 94.0168 292.923C94.0168 292.923 94.1689 288.484 88.4963 284.479C82.8245 280.474 81.785 286.141 81.785 286.141Z" fill="#56DF7D"/>
<path opacity="0.2" d="M81.785 286.141C81.785 286.141 81.6012 293.163 76.4574 293.504C71.3135 293.845 68.129 284.71 62.8647 286.909C57.6004 289.108 57.0888 299.12 57.0888 299.12C57.0888 299.12 62.0887 294.748 64.777 296.955C67.4653 299.162 66.8415 302.562 65.3936 302.025C63.9458 301.488 56.1136 299.623 55.842 305.92C55.5704 312.217 59.1143 315.779 59.1143 315.779C59.1143 315.779 64.6819 304.701 68.7302 306.72C72.7785 308.739 65.3864 310.495 62.4265 314.585C59.4665 318.676 57.5705 322.988 60.171 324.47C62.7714 325.953 66.3154 329.515 66.3154 329.515C66.3154 329.515 65.6109 323.72 68.8669 319.22C72.123 314.721 74.8112 316.928 71.8513 321.018C68.8914 325.109 70.3637 331.534 70.3637 331.534C70.3637 331.534 79.0841 332.173 85.3236 329.471C91.563 326.77 91.5956 324.188 89.5873 321.886C87.579 319.586 80.6351 316.493 82.7068 313.629C84.7785 310.766 90.1152 326.232 93.163 322.866C96.2107 319.5 97.1307 315.69 95.4185 312.981C93.7063 310.272 93.7062 310.272 93.7062 310.272C93.7062 310.272 86.7623 307.179 84.754 304.878C82.7457 302.578 85.6423 303.652 88.9218 305.04C92.2023 306.429 99.3219 310.971 99.8262 309.429C100.33 307.887 98.0017 300.106 96.6734 297.712C95.3451 295.317 85.233 297.449 84.0813 296.503C82.9295 295.556 88.4012 292.224 90.1451 292.352C91.889 292.48 94.0168 292.923 94.0168 292.923C94.0168 292.923 94.1689 288.484 88.4963 284.479C82.8245 280.474 81.785 286.141 81.785 286.141Z" fill="#263238"/>
<path d="M79.1335 320.491C77.4711 314.619 75.4673 306.289 75.5941 300.619" stroke="#263238" stroke-miterlimit="10" stroke-linecap="round" stroke-linejoin="round"/>
<path d="M81.2745 327.454C81.2745 327.454 80.7294 325.86 79.9761 323.372" stroke="#263238" stroke-miterlimit="10" stroke-linecap="round" stroke-linejoin="round"/>
<path d="M77.8418 299.204C77.8418 299.204 87.1535 299.025 94.1861 302.843" stroke="#263238" stroke-miterlimit="10" stroke-linecap="round" stroke-linejoin="round"/>
<path d="M78.1299 307.266C78.1299 307.266 78.2494 305.408 85.9304 311.713" stroke="#263238" stroke-miterlimit="10" stroke-linecap="round" stroke-linejoin="round"/>
<path d="M72.9059 298.413C72.9059 298.413 72.378 294.067 66.9697 292.235" stroke="#263238" stroke-miterlimit="10" stroke-linecap="round" stroke-linejoin="round"/>
<path d="M74.3779 304.838L69.8262 304.36" stroke="#263238" stroke-miterlimit="10" stroke-linecap="round" stroke-linejoin="round"/>
<path d="M75.1699 311.356C75.1699 311.356 66.8904 314.34 64.2266 318.021" stroke="#263238" stroke-miterlimit="10" stroke-linecap="round" stroke-linejoin="round"/>
<path d="M26.5566 332.873C26.5566 332.873 52.7451 380.173 52.3014 451.568" stroke="#263238" stroke-width="2" stroke-miterlimit="10" stroke-linecap="round" stroke-linejoin="round"/>
<path d="M58.8457 328.002C58.8457 328.002 58.0118 336.087 52.0458 335.963C46.0798 335.84 43.2149 324.978 36.9456 326.986C30.6762 328.995 29.1994 340.497 29.1994 340.497C29.1994 340.497 35.3565 335.955 38.263 338.772C41.1695 341.589 40.1481 345.45 38.5247 344.684C36.9012 343.919 28.0286 340.978 27.1576 348.218C26.2856 355.458 30.0605 359.924 30.0605 359.924C30.0605 359.924 37.4662 347.7 41.959 350.437C46.451 353.175 37.7659 354.457 33.9883 358.881C30.2108 363.303 27.6411 368.089 30.5096 370.061C33.3781 372.033 37.1529 376.5 37.1529 376.5C37.1529 376.5 36.8532 369.743 41.0092 364.878C45.1653 360.013 48.0709 362.83 44.2933 367.252C40.5158 371.675 41.6448 379.237 41.6448 379.237C41.6448 379.237 51.6501 380.851 59.0902 378.361C66.5294 375.87 66.7956 372.894 64.6823 370.037C62.569 367.18 54.8301 362.913 57.474 359.817C60.1188 356.721 64.906 375.105 68.7215 371.527C72.5371 367.949 73.936 363.646 72.2003 360.347C70.4645 357.047 70.4645 357.047 70.4645 357.047C70.4645 357.047 62.7256 352.78 60.6123 349.923C58.499 347.066 61.7459 348.596 65.4076 350.529C69.0692 352.461 76.8833 358.418 77.6013 356.689C78.3193 354.96 76.3219 345.748 75.0018 342.852C73.6816 339.955 61.8238 341.397 60.5788 340.189C59.3329 338.982 65.9427 335.687 67.9437 336.01C69.9448 336.333 72.3614 337.058 72.3614 337.058C72.3614 337.058 72.9301 331.95 66.7395 326.758C60.548 321.567 58.8457 328.002 58.8457 328.002Z" fill="#56DF7D"/>
<path opacity="0.3" d="M58.8457 328.002C58.8457 328.002 58.0118 336.087 52.0458 335.963C46.0798 335.84 43.2149 324.978 36.9456 326.986C30.6762 328.995 29.1994 340.497 29.1994 340.497C29.1994 340.497 35.3565 335.955 38.263 338.772C41.1695 341.589 40.1481 345.45 38.5247 344.684C36.9012 343.919 28.0286 340.978 27.1576 348.218C26.2856 355.458 30.0605 359.924 30.0605 359.924C30.0605 359.924 37.4662 347.7 41.959 350.437C46.451 353.175 37.7659 354.457 33.9883 358.881C30.2108 363.303 27.6411 368.089 30.5096 370.061C33.3781 372.033 37.1529 376.5 37.1529 376.5C37.1529 376.5 36.8532 369.743 41.0092 364.878C45.1653 360.013 48.0709 362.83 44.2933 367.252C40.5158 371.675 41.6448 379.237 41.6448 379.237C41.6448 379.237 51.6501 380.851 59.0902 378.361C66.5294 375.87 66.7956 372.894 64.6823 370.037C62.569 367.18 54.8301 362.913 57.474 359.817C60.1188 356.721 64.906 375.105 68.7215 371.527C72.5371 367.949 73.936 363.646 72.2003 360.347C70.4645 357.047 70.4645 357.047 70.4645 357.047C70.4645 357.047 62.7256 352.78 60.6123 349.923C58.499 347.066 61.7459 348.596 65.4076 350.529C69.0692 352.461 76.8833 358.418 77.6013 356.689C78.3193 354.96 76.3219 345.748 75.0018 342.852C73.6816 339.955 61.8238 341.397 60.5788 340.189C59.3329 338.982 65.9427 335.687 67.9437 336.01C69.9448 336.333 72.3614 337.058 72.3614 337.058C72.3614 337.058 72.9301 331.95 66.7395 326.758C60.548 321.567 58.8457 328.002 58.8457 328.002Z" fill="#263238"/>
<path d="M52.7421 367.374C51.3441 360.431 49.7695 350.619 50.4187 344.088" stroke="#263238" stroke-miterlimit="10" stroke-linecap="round" stroke-linejoin="round"/>
<path d="M54.5958 375.622C54.5958 375.622 54.1078 373.729 53.4595 370.782" stroke="#263238" stroke-miterlimit="10" stroke-linecap="round" stroke-linejoin="round"/>
<path d="M53.1372 342.681C53.1372 342.681 63.8985 343.41 71.6746 348.522" stroke="#263238" stroke-miterlimit="10" stroke-linecap="round" stroke-linejoin="round"/>
<path d="M52.7568 352.011C52.7568 352.011 53.0602 349.88 61.3632 357.929" stroke="#263238" stroke-miterlimit="10" stroke-linecap="round" stroke-linejoin="round"/>
<path d="M47.5123 341.27C47.5123 341.27 47.2878 336.201 41.2095 333.544" stroke="#263238" stroke-miterlimit="10" stroke-linecap="round" stroke-linejoin="round"/>
<path d="M48.6415 348.832L43.4307 347.823" stroke="#263238" stroke-miterlimit="10" stroke-linecap="round" stroke-linejoin="round"/>
<path d="M48.9795 356.435C48.9795 356.435 39.1607 359.045 35.7607 363.025" stroke="#263238" stroke-miterlimit="10" stroke-linecap="round" stroke-linejoin="round"/>
<path d="M58.8457 395.595C58.8457 395.595 58.0118 403.68 52.0458 403.556C46.0798 403.433 43.2149 392.571 36.9456 394.58C30.6762 396.588 29.1994 408.09 29.1994 408.09C29.1994 408.09 35.3565 403.548 38.263 406.365C41.1695 409.182 40.1481 413.043 38.5247 412.277C36.9012 411.512 28.0286 408.572 27.1576 415.811C26.2856 423.051 30.0605 427.517 30.0605 427.517C30.0605 427.517 37.4662 415.293 41.959 418.03C46.451 420.768 37.7659 422.05 33.9883 426.474C30.2108 430.896 27.6411 435.682 30.5096 437.653C33.3781 439.626 37.1529 444.092 37.1529 444.092C37.1529 444.092 36.8532 437.335 41.0092 432.47C45.1653 427.605 48.0709 430.422 44.2933 434.845C40.5158 439.267 41.6448 446.829 41.6448 446.829C41.6448 446.829 51.6501 448.443 59.0902 445.953C66.5294 443.462 66.7956 440.486 64.6823 437.629C62.569 434.772 54.8301 430.505 57.474 427.409C60.1188 424.313 64.906 442.698 68.7215 439.119C72.5371 435.541 73.936 431.238 72.2003 427.939C70.4645 424.639 70.4645 424.639 70.4645 424.639C70.4645 424.639 62.7256 420.372 60.6123 417.515C58.499 414.659 61.7459 416.188 65.4076 418.121C69.0692 420.053 76.8833 426.01 77.6013 424.28C78.3193 422.551 76.3219 413.339 75.0018 410.443C73.6816 407.546 61.8238 408.988 60.5788 407.782C59.3329 406.574 65.9427 403.279 67.9437 403.602C69.9448 403.926 72.3614 404.65 72.3614 404.65C72.3614 404.65 72.9301 399.542 66.7395 394.35C60.548 389.16 58.8457 395.595 58.8457 395.595Z" fill="#56DF7D"/>
<path opacity="0.3" d="M58.8457 395.595C58.8457 395.595 58.0118 403.68 52.0458 403.556C46.0798 403.433 43.2149 392.571 36.9456 394.58C30.6762 396.588 29.1994 408.09 29.1994 408.09C29.1994 408.09 35.3565 403.548 38.263 406.365C41.1695 409.182 40.1481 413.043 38.5247 412.277C36.9012 411.512 28.0286 408.572 27.1576 415.811C26.2856 423.051 30.0605 427.517 30.0605 427.517C30.0605 427.517 37.4662 415.293 41.959 418.03C46.451 420.768 37.7659 422.05 33.9883 426.474C30.2108 430.896 27.6411 435.682 30.5096 437.653C33.3781 439.626 37.1529 444.092 37.1529 444.092C37.1529 444.092 36.8532 437.335 41.0092 432.47C45.1653 427.605 48.0709 430.422 44.2933 434.845C40.5158 439.267 41.6448 446.829 41.6448 446.829C41.6448 446.829 51.6501 448.443 59.0902 445.953C66.5294 443.462 66.7956 440.486 64.6823 437.629C62.569 434.772 54.8301 430.505 57.474 427.409C60.1188 424.313 64.906 442.698 68.7215 439.119C72.5371 435.541 73.936 431.238 72.2003 427.939C70.4645 424.639 70.4645 424.639 70.4645 424.639C70.4645 424.639 62.7256 420.372 60.6123 417.515C58.499 414.659 61.7459 416.188 65.4076 418.121C69.0692 420.053 76.8833 426.01 77.6013 424.28C78.3193 422.551 76.3219 413.339 75.0018 410.443C73.6816 407.546 61.8238 408.988 60.5788 407.782C59.3329 406.574 65.9427 403.279 67.9437 403.602C69.9448 403.926 72.3614 404.65 72.3614 404.65C72.3614 404.65 72.9301 399.542 66.7395 394.35C60.548 389.16 58.8457 395.595 58.8457 395.595Z" fill="#263238"/>
<path d="M52.7421 434.967C51.3441 428.024 49.7695 418.211 50.4187 411.681" stroke="#263238" stroke-miterlimit="10" stroke-linecap="round" stroke-linejoin="round"/>
<path d="M54.5958 443.215C54.5958 443.215 54.1078 441.322 53.4595 438.374" stroke="#263238" stroke-miterlimit="10" stroke-linecap="round" stroke-linejoin="round"/>
<path d="M53.1372 410.273C53.1372 410.273 63.8985 411.003 71.6746 416.114" stroke="#263238" stroke-miterlimit="10" stroke-linecap="round" stroke-linejoin="round"/>
<path d="M52.7568 419.605C52.7568 419.605 53.0602 417.474 61.3632 425.522" stroke="#263238" stroke-miterlimit="10" stroke-linecap="round" stroke-linejoin="round"/>
<path d="M47.5123 408.863C47.5123 408.863 47.2878 403.795 41.2095 401.138" stroke="#263238" stroke-miterlimit="10" stroke-linecap="round" stroke-linejoin="round"/>
<path d="M48.6415 416.425L43.4307 415.416" stroke="#263238" stroke-miterlimit="10" stroke-linecap="round" stroke-linejoin="round"/>
<path d="M48.9795 424.027C48.9795 424.027 39.1607 426.637 35.7607 430.618" stroke="#263238" stroke-miterlimit="10" stroke-linecap="round" stroke-linejoin="round"/>
<path d="M36.7651 389.14C36.7651 389.14 53.6319 431.712 55.4075 452.042L51.8563 355.097" stroke="#263238" stroke-width="2" stroke-miterlimit="10" stroke-linecap="round" stroke-linejoin="round"/>
<path d="M77.6018 379.21C55.4082 374.955 55.4082 452.042 55.4082 452.042" stroke="#263238" stroke-width="2" stroke-miterlimit="10" stroke-linecap="round" stroke-linejoin="round"/>
<path d="M58.0722 451.569C58.0722 451.569 45.2003 322.944 82.485 322.944" stroke="#263238" stroke-width="2" stroke-miterlimit="10" stroke-linecap="round" stroke-linejoin="round"/>
<path d="M69.1455 376.341C66.1141 372.708 59.6718 372.708 55.8824 381.992C52.0931 391.277 55.504 389.662 55.504 389.662C55.504 389.662 62.7041 387.24 67.2513 385.626C71.7985 384.011 77.8614 379.975 78.2408 382.396C78.6193 384.818 75.2093 387.24 71.0406 388.047C66.8719 388.855 55.8824 392.084 57.0197 394.506C58.1569 396.928 60.809 404.193 60.809 404.193C60.809 404.193 66.1141 399.349 71.0406 396.12C75.9672 392.891 78.9987 394.102 76.3457 397.735C73.6936 401.368 66.1141 405.405 67.6298 410.248C69.1455 415.092 78.2399 421.147 78.2399 421.147C78.2399 421.147 79.3771 411.056 82.0292 407.826C84.6822 404.597 84.6822 408.23 83.9243 413.882C83.1665 419.533 83.1665 421.147 83.1665 421.147L93.7766 425.184C93.7766 425.184 97.5659 419.128 99.461 417.111C101.356 415.093 101.356 415.093 101.356 415.093C101.356 415.093 93.0196 407.423 92.6402 402.58C92.2617 397.736 98.3246 402.58 100.219 403.387C102.114 404.194 105.145 409.845 105.145 409.845C105.145 409.845 107.04 400.561 107.419 397.332C107.798 394.103 107.798 394.103 107.798 394.103C107.798 394.103 99.8404 390.873 96.8089 390.873C93.7775 390.873 92.2617 393.295 92.2617 390.066C92.2617 386.837 95.2932 384.818 98.704 385.222C102.115 385.626 107.798 387.644 107.798 387.644C107.798 387.644 110.072 385.626 109.314 379.571C108.556 373.516 106.661 373.516 102.114 375.131C97.5668 376.745 94.5353 380.379 91.1245 380.379C87.7136 380.379 89.6088 375.938 91.8823 374.728C94.1559 373.516 99.8404 371.094 100.977 370.691C102.114 370.287 94.9138 364.636 91.1245 363.829C87.3352 363.022 82.4285 365.865 82.788 369.884C83.5449 378.359 72.177 379.974 69.1455 376.341Z" fill="#56DF7D"/>
<path d="M93.5391 417.902C93.6522 419.118 93.7328 420.336 93.7763 421.55" stroke="#263238" stroke-miterlimit="10" stroke-linecap="round" stroke-linejoin="round"/>
<path d="M85.9258 388.925C88.5869 395.477 91.6645 404.51 93.0589 413.938" stroke="#263238" stroke-miterlimit="10" stroke-linecap="round" stroke-linejoin="round"/>
<path d="M84.5619 385.684C82.6849 381.384 81.2715 378.763 81.2715 378.763C81.2715 378.763 84.6823 377.148 86.1981 373.919C87.7138 370.69 89.9874 369.075 89.9874 369.075" stroke="#263238" stroke-miterlimit="10" stroke-linecap="round" stroke-linejoin="round"/>
<path d="M68.0078 392.486C68.0078 392.486 81.6503 386.431 81.6503 387.643" stroke="#263238" stroke-miterlimit="10" stroke-linecap="round" stroke-linejoin="round"/>
<path d="M89.229 384.817C89.229 384.817 95.2919 381.588 100.597 381.588" stroke="#263238" stroke-miterlimit="10" stroke-linecap="round" stroke-linejoin="round"/>
<path d="M86.9554 394.506C86.9554 394.506 83.5446 397.332 79.7552 402.176C75.9659 407.019 74.4502 411.46 74.4502 411.46" stroke="#263238" stroke-miterlimit="10" stroke-linecap="round" stroke-linejoin="round"/>
<path d="M91.1245 396.12C91.1245 396.12 99.0826 393.698 103.25 397.735" stroke="#263238" stroke-miterlimit="10" stroke-linecap="round" stroke-linejoin="round"/>
<path d="M105.539 341.577C101.413 338.978 96.8501 338.921 94.6145 336.178C92.3789 333.435 96.7686 332.048 99.1173 333.083C101.466 334.118 106.91 337.102 107.941 337.752C108.972 338.402 108.259 328.906 106.346 325.329C104.434 321.751 99.2015 319.669 96.5884 322.592C91.076 328.759 82.4787 320.673 83.0664 315.853C83.654 311.033 79.431 305.851 70.3656 308.89C61.2993 311.928 64.6802 313.613 64.6802 313.613C64.6802 313.613 71.1171 317.816 75.2432 320.415C79.3694 323.015 86.2056 325.246 84.7369 327.138C83.2683 329.03 79.316 327.875 76.0111 325.051C72.7062 322.227 63.2125 315.504 62.2409 318.007C61.2694 320.509 57.8576 327.406 57.8576 327.406C57.8576 327.406 64.769 328.498 70.2877 330.344C75.8064 332.189 76.9355 335.422 72.6211 335.67C68.3066 335.918 60.4762 332.468 58.0369 336.863C55.5967 341.257 57.2664 352.543 57.2664 352.543C57.2664 352.543 65.1655 346.842 69.1939 346.858C73.2223 346.875 70.6463 349.257 66.1434 352.352C61.6406 355.447 60.4961 356.505 60.4961 356.505L64.5906 367.685C64.5906 367.685 71.367 366.763 74.0399 366.964C76.7128 367.165 76.7128 367.165 76.7128 367.165C76.7128 367.165 76.6847 355.431 79.8701 351.951C83.0555 348.471 83.597 356.523 84.2661 358.576C84.9361 360.629 82.917 366.772 82.917 366.772C82.917 366.772 90.741 362.21 93.2781 360.398C95.816 358.585 95.816 358.585 95.816 358.585C95.816 358.585 92.8887 350.067 90.9012 347.629C88.9138 345.191 86.2028 345.559 88.4927 343.442C90.7817 341.325 94.1998 342.441 96.1502 345.448C98.0996 348.456 100.396 354.351 100.396 354.351C100.396 354.351 103.317 354.858 107.112 350.278C110.907 345.701 109.665 344.177 105.539 341.577ZM69.6765 354.498C66.6451 352.883 73.8452 349.654 73.8452 349.654C76.4982 349.25 72.708 356.113 69.6765 354.498ZM74.7815 339.428C73.4894 338.739 77.3656 337.363 77.3656 337.363C82.9668 338.51 76.0744 340.116 74.7815 339.428Z" fill="#56DF7D"/>
<path d="M69.5958 362.722C68.808 363.61 67.9976 364.472 67.1655 365.304" stroke="#263238" stroke-miterlimit="10" stroke-linecap="round" stroke-linejoin="round"/>
<path d="M85.148 337.601C82.2478 344.037 77.8618 352.435 72.0923 359.736" stroke="#263238" stroke-miterlimit="10" stroke-linecap="round" stroke-linejoin="round"/>
<path d="M86.5508 334.379C88.368 330.049 89.3006 327.194 89.3006 327.194C89.3006 327.194 92.6816 328.879 95.9639 327.981C99.2471 327.083 101.882 327.854 101.882 327.854" stroke="#263238" stroke-miterlimit="10" stroke-linecap="round" stroke-linejoin="round"/>
<path d="M70.876 325.522C70.876 325.522 84.1119 332.527 83.2535 333.32" stroke="#263238" stroke-miterlimit="10" stroke-linecap="round" stroke-linejoin="round"/>
<path d="M90.2251 337.564C90.2251 337.564 96.489 340.325 99.9669 344.592" stroke="#263238" stroke-miterlimit="10" stroke-linecap="round" stroke-linejoin="round"/>
<path d="M81.8664 342.087C81.8664 342.087 77.627 341.196 71.709 341.323C65.791 341.45 61.6494 343.142 61.6494 343.142" stroke="#263238" stroke-miterlimit="10" stroke-linecap="round" stroke-linejoin="round"/>
<path d="M83.4541 346.498C83.4541 346.498 90.3881 351.312 90.2595 357.311" stroke="#263238" stroke-miterlimit="10" stroke-linecap="round" stroke-linejoin="round"/>
<path d="M46.6551 397.511C43.3348 395.419 39.6632 395.373 37.864 393.166C36.0649 390.958 39.5971 389.842 41.4877 390.675C43.3782 391.509 47.7588 393.91 48.5882 394.433C49.4185 394.956 48.8436 387.314 47.3052 384.435C45.7668 381.556 41.5556 379.88 39.4531 382.233C35.0173 387.195 28.0987 380.689 28.5714 376.81C29.0449 372.93 25.6458 368.761 18.3506 371.206C11.0554 373.651 13.7753 375.007 13.7753 375.007C13.7753 375.007 18.9554 378.389 22.2757 380.481C25.596 382.573 31.0976 384.368 29.916 385.891C28.7343 387.414 25.5535 386.485 22.8933 384.212C20.2339 381.94 12.5937 376.53 11.8114 378.543C11.0291 380.557 8.28377 386.106 8.28377 386.106C8.28377 386.106 13.846 386.985 18.2872 388.47C22.7285 389.956 23.6366 392.557 20.1651 392.757C16.6936 392.956 10.3917 390.18 8.42865 393.716C6.46472 397.253 7.80841 406.335 7.80841 406.335C7.80841 406.335 14.1656 401.747 17.4071 401.76C20.6486 401.774 18.5761 403.69 14.9524 406.182C11.3288 408.672 10.408 409.525 10.408 409.525L13.7029 418.522C13.7029 418.522 19.1565 417.781 21.3069 417.943C23.4583 418.105 23.4583 418.105 23.4583 418.105C23.4583 418.105 23.4356 408.662 25.999 405.861C28.5623 403.06 28.9978 409.541 29.5366 411.193C30.0753 412.845 28.4509 417.789 28.4509 417.789C28.4509 417.789 34.7475 414.117 36.7893 412.659C38.832 411.201 38.832 411.201 38.832 411.201C38.832 411.201 36.476 404.346 34.8769 402.383C33.2779 400.421 31.0967 400.718 32.9384 399.014C34.781 397.311 37.5317 398.208 39.1 400.629C40.6691 403.05 42.5162 407.794 42.5162 407.794C42.5162 407.794 44.8668 408.201 47.9218 404.517C50.975 400.829 49.9754 399.602 46.6551 397.511ZM17.7947 407.908C15.3554 406.609 21.1494 404.01 21.1494 404.01C23.2844 403.685 20.2339 409.207 17.7947 407.908ZM21.9027 395.78C20.8623 395.227 23.9825 394.119 23.9825 394.119C28.4899 395.042 22.9431 396.334 21.9027 395.78Z" fill="#56DF7D"/>
<path d="M17.7297 414.525C17.0959 415.24 16.444 415.935 15.7739 416.604" stroke="#263238" stroke-miterlimit="10" stroke-linecap="round" stroke-linejoin="round"/>
<path d="M30.2452 394.31C27.9118 399.489 24.3814 406.247 19.7383 412.123" stroke="#263238" stroke-miterlimit="10" stroke-linecap="round" stroke-linejoin="round"/>
<path d="M31.3735 391.717C32.8367 388.233 33.5865 385.936 33.5865 385.936C33.5865 385.936 36.3064 387.292 38.9486 386.569C41.5907 385.847 43.7112 386.467 43.7112 386.467" stroke="#263238" stroke-miterlimit="10" stroke-linecap="round" stroke-linejoin="round"/>
<path d="M18.7593 384.59C18.7593 384.59 29.4101 390.226 28.7202 390.865" stroke="#263238" stroke-miterlimit="10" stroke-linecap="round" stroke-linejoin="round"/>
<path d="M34.3315 394.281C34.3315 394.281 39.3722 396.503 42.1719 399.936" stroke="#263238" stroke-miterlimit="10" stroke-linecap="round" stroke-linejoin="round"/>
<path d="M27.6046 397.92C27.6046 397.92 24.1938 397.204 19.4311 397.306C14.6684 397.408 11.3354 398.77 11.3354 398.77" stroke="#263238" stroke-miterlimit="10" stroke-linecap="round" stroke-linejoin="round"/>
<path d="M28.8823 401.469C28.8823 401.469 34.4626 405.342 34.3585 410.17" stroke="#263238" stroke-miterlimit="10" stroke-linecap="round" stroke-linejoin="round"/>
<path d="M33.1165 330.855C33.1165 330.855 28.9478 334.084 26.2958 330.855C23.6428 327.626 27.433 321.167 23.6428 318.745C19.8535 316.324 13.7905 320.763 13.7905 320.763C13.7905 320.763 18.7171 321.974 18.7171 324.8C18.7171 327.626 16.4435 328.836 16.0641 327.626C15.6848 326.415 13.0327 320.36 9.24335 323.185C5.45403 326.011 5.07465 330.047 5.07465 330.047C5.07465 330.047 14.169 328.433 14.9269 332.065C15.6848 335.698 11.1376 331.662 7.34824 331.662C3.55892 331.662 0.148074 332.469 0.527459 334.891C0.906844 337.313 0.527459 341.349 0.527459 341.349C0.527459 341.349 3.55892 338.12 7.72763 338.12C11.8963 338.12 11.8963 340.946 8.1061 340.946C4.31678 340.946 1.28532 344.983 1.28532 344.983C1.28532 344.983 5.07465 351.038 9.62183 353.863C14.169 356.688 15.6848 355.477 16.0641 353.056C16.4426 350.634 14.9269 344.579 17.5799 344.579C20.2328 344.579 13.7905 355.477 17.2014 355.881C20.6122 356.284 23.2643 355.073 24.0222 352.651C24.78 350.23 24.78 350.23 24.78 350.23C24.78 350.23 23.2643 344.174 23.6437 341.753C24.0222 339.331 24.78 341.753 25.5388 344.579C26.2967 347.405 27.0545 354.266 28.1918 353.863C29.3281 353.46 32.739 348.212 33.4968 346.193C34.2547 344.174 28.1918 338.523 28.1918 337.313C28.1918 336.103 32.739 338.12 33.4968 339.332C34.2547 340.543 35.0126 342.158 35.0126 342.158C35.0126 342.158 37.6655 340.139 37.2862 334.488C36.9059 328.836 33.1165 330.855 33.1165 330.855Z" fill="#56DF7D"/>
<path d="M11.8887 345.494C14.5081 341.596 18.3925 336.3 21.7491 333.679" stroke="#263238" stroke-miterlimit="10" stroke-linecap="round" stroke-linejoin="round"/>
<path d="M8.86377 350.23C8.86377 350.23 9.52927 349.11 10.6167 347.426" stroke="#263238" stroke-miterlimit="10" stroke-linecap="round" stroke-linejoin="round"/>
<path d="M23.6431 334.486C23.6431 334.486 28.1903 340.541 29.3275 347" stroke="#263238" stroke-miterlimit="10" stroke-linecap="round" stroke-linejoin="round"/>
<path d="M19.0957 338.523C19.0957 338.523 20.233 337.716 20.233 345.789" stroke="#263238" stroke-miterlimit="10" stroke-linecap="round" stroke-linejoin="round"/>
<path d="M21.7485 330.855C21.7485 330.855 24.0221 328.433 22.5064 323.992" stroke="#263238" stroke-miterlimit="10" stroke-linecap="round" stroke-linejoin="round"/>
<path d="M18.716 334.891L16.8218 331.662" stroke="#263238" stroke-miterlimit="10" stroke-linecap="round" stroke-linejoin="round"/>
<path d="M15.3063 338.523C15.3063 338.523 9.62185 334.486 6.21191 334.486" stroke="#263238" stroke-miterlimit="10" stroke-linecap="round" stroke-linejoin="round"/>
<path d="M70.0464 416.642C70.0464 416.642 65.8777 419.871 63.2256 416.642C60.5735 413.413 64.3628 406.954 60.5735 404.532C56.7842 402.111 50.7213 406.551 50.7213 406.551C50.7213 406.551 55.6478 407.762 55.6478 410.588C55.6478 413.413 53.3743 414.624 52.9958 413.413C52.6164 412.203 49.9643 406.148 46.175 408.973C42.3857 411.799 42.0063 415.835 42.0063 415.835C42.0063 415.835 51.1007 414.221 51.8585 417.853C52.6164 421.486 48.0692 417.45 44.2799 417.45C40.4906 417.45 37.0797 418.257 37.4591 420.679C37.8385 423.101 37.4591 427.137 37.4591 427.137C37.4591 427.137 40.4906 423.908 44.6593 423.908C48.828 423.908 48.828 426.734 45.0386 426.734C41.2493 426.734 38.2179 430.771 38.2179 430.771C38.2179 430.771 42.0072 436.826 46.5544 439.651C51.1016 442.476 52.6173 441.265 52.9967 438.843C53.3752 436.422 51.8594 430.367 54.5124 430.367C57.1654 430.367 50.7231 441.265 54.1339 441.669C57.5448 442.073 60.1968 440.861 60.9547 438.439C61.7126 436.018 61.7126 436.018 61.7126 436.018C61.7126 436.018 60.1968 429.962 60.5762 427.541C60.9547 425.119 61.7126 427.541 62.4704 430.367C63.2283 433.192 63.9862 440.054 65.1234 439.651C66.2598 439.248 69.6706 434 70.4285 431.981C71.1863 429.962 65.1234 424.311 65.1234 423.101C65.1234 421.89 69.6706 423.908 70.4285 425.12C71.1863 426.331 71.9442 427.946 71.9442 427.946C71.9442 427.946 74.5972 425.927 74.2178 420.276C73.8357 414.624 70.0464 416.642 70.0464 416.642Z" fill="#56DF7D"/>
<path d="M48.8184 431.283C51.4378 427.385 55.3222 422.089 58.6787 419.468" stroke="#263238" stroke-miterlimit="10" stroke-linecap="round" stroke-linejoin="round"/>
<path d="M45.7935 436.018C45.7935 436.018 46.459 434.898 47.5464 433.214" stroke="#263238" stroke-miterlimit="10" stroke-linecap="round" stroke-linejoin="round"/>
<path d="M60.5728 420.275C60.5728 420.275 65.1199 426.331 66.2572 432.789" stroke="#263238" stroke-miterlimit="10" stroke-linecap="round" stroke-linejoin="round"/>
<path d="M56.0259 424.312C56.0259 424.312 57.1631 423.505 57.1631 431.578" stroke="#263238" stroke-miterlimit="10" stroke-linecap="round" stroke-linejoin="round"/>
<path d="M58.6787 416.642C58.6787 416.642 60.9523 414.22 59.4366 409.779" stroke="#263238" stroke-miterlimit="10" stroke-linecap="round" stroke-linejoin="round"/>
<path d="M55.6457 420.678L53.7515 417.449" stroke="#263238" stroke-miterlimit="10" stroke-linecap="round" stroke-linejoin="round"/>
<path d="M52.236 424.312C52.236 424.312 46.5515 420.275 43.1416 420.275" stroke="#263238" stroke-miterlimit="10" stroke-linecap="round" stroke-linejoin="round"/>
<path d="M71.3873 450.226H42.0923V495.143H71.3873V450.226Z" fill="#263238" stroke="#263238" stroke-width="2" stroke-miterlimit="10" stroke-linecap="round" stroke-linejoin="round"/>
<path d="M12.1685 495.144H630.499" stroke="#263238" stroke-miterlimit="10" stroke-linecap="round" stroke-linejoin="round"/>
<path d="M526.259 399.303L530.333 491.895" stroke="#263238" stroke-width="6" stroke-miterlimit="10" stroke-linecap="round" stroke-linejoin="round"/>
<path d="M507.984 399.303L512.511 491.895" stroke="#263238" stroke-width="6" stroke-miterlimit="10" stroke-linecap="round" stroke-linejoin="round"/>
<path d="M449.707 399.303L443.821 491.895" stroke="#263238" stroke-width="6" stroke-miterlimit="10" stroke-linecap="round" stroke-linejoin="round"/>
<path d="M436.391 399.303L422.356 491.895" stroke="#263238" stroke-width="6" stroke-miterlimit="10" stroke-linecap="round" stroke-linejoin="round"/>
<path d="M528.961 298.312L529.259 396.056H446.037L449.006 298.312H528.961Z" fill="#808080" stroke="#263238" stroke-miterlimit="10" stroke-linecap="round" stroke-linejoin="round"/>
<path d="M430.053 401.337H529.259V395.77H430.053V401.337Z" fill="#808080" stroke="#263238" stroke-miterlimit="10" stroke-linecap="round" stroke-linejoin="round"/>
<path d="M430.053 401.337H514.078V395.77H430.053V401.337Z" fill="#808080" stroke="#263238" stroke-miterlimit="10" stroke-linecap="round" stroke-linejoin="round"/>
<path d="M451.09 345.238C451.09 345.238 443.391 357.756 442.175 367.252C440.959 376.748 442.986 387.539 448.659 391.423C454.332 395.308 460.816 395.739 460.816 395.739H509.037C509.037 395.739 517.546 393.581 521.193 384.949C524.841 376.315 522.409 365.093 519.977 359.482C517.546 353.871 515.52 349.122 515.52 349.122L451.09 345.238Z" fill="#263238" stroke="#263238" stroke-miterlimit="10" stroke-linecap="round" stroke-linejoin="round"/>
<path d="M473.783 245.988C473.783 245.988 445.418 257.211 443.797 260.231C442.176 263.253 456.358 322.82 456.358 322.82L449.064 347.423C449.064 347.423 465.678 351.308 482.697 353.035C499.716 354.761 516.33 349.582 516.33 349.582L509.847 320.662L520.383 260.232C520.383 260.232 499.563 249.71 494.98 247.849C490.396 245.988 477.024 245.557 473.783 245.988Z" fill="#92E3A9" stroke="#263238" stroke-miterlimit="10" stroke-linecap="round" stroke-linejoin="round"/>
<path d="M503.781 251.975C499.946 250.104 496.531 248.479 494.979 247.85C490.396 245.989 477.024 245.557 473.782 245.989C473.782 245.989 466.832 248.74 459.616 251.883L475.808 323.684L489.991 325.843L503.781 251.975Z" fill="#92E3A9" stroke="#263238" stroke-miterlimit="10" stroke-linecap="round" stroke-linejoin="round"/>
<path d="M488.921 353.38L493.892 247.481C488.572 245.933 476.797 245.588 473.783 245.989C473.783 245.989 472.903 246.337 471.464 246.92L476.773 352.351C478.725 352.602 480.708 352.834 482.698 353.036C484.788 353.247 486.873 353.354 488.921 353.38Z" fill="white" stroke="#263238" stroke-miterlimit="10" stroke-linecap="round" stroke-linejoin="round"/>
<path d="M443.797 260.232C443.797 260.232 417.863 336.201 422.321 338.791C426.778 341.381 478.645 342.244 478.645 342.244V336.201L444.202 322.821L451.091 299.081L443.797 260.232Z" fill="#92E3A9" stroke="#263238" stroke-miterlimit="10" stroke-linecap="round" stroke-linejoin="round"/>
<path d="M478.645 336.201C478.645 336.201 492.422 334.475 493.638 334.475C494.853 334.475 505.794 342.676 505.794 342.676L478.645 342.245V336.201Z" fill="white" stroke="#263238" stroke-miterlimit="10" stroke-linecap="round" stroke-linejoin="round"/>
<path d="M520.272 260.231C520.272 260.231 546.206 336.2 541.748 338.79C537.291 341.38 485.424 342.243 485.424 342.243V336.2L519.867 322.82L513.334 300.353L520.272 260.231Z" fill="#92E3A9" stroke="#263238" stroke-miterlimit="10" stroke-linecap="round" stroke-linejoin="round"/>
<path d="M531.479 321.157C532.381 321.171 533.238 321.241 534.002 321.389" stroke="#263238" stroke-miterlimit="10" stroke-linecap="round" stroke-linejoin="round"/>
<path d="M519.867 322.819C519.867 322.819 525.128 321.425 529.869 321.189" stroke="#263238" stroke-miterlimit="10" stroke-linecap="round" stroke-linejoin="round"/>
<path d="M485.423 336.199C485.423 336.199 471.646 334.473 470.43 334.473C469.214 334.473 458.273 342.674 458.273 342.674L485.423 342.243L485.423 336.199Z" fill="white" stroke="#263238" stroke-miterlimit="10" stroke-linecap="round" stroke-linejoin="round"/>
<path d="M521.69 364.114C518.446 349.96 505.874 347.317 494.75 346.34C483.627 345.364 476.222 348.881 476.222 348.881C476.222 348.881 494.298 349.857 496.615 363.035L489.199 382.07C489.199 382.07 487.808 386.462 494.761 393.296" fill="#263238"/>
<path d="M521.69 364.114C518.446 349.96 505.874 347.317 494.75 346.34C483.627 345.364 476.222 348.881 476.222 348.881C476.222 348.881 494.298 349.857 496.615 363.035L489.199 382.07C489.199 382.07 487.808 386.462 494.761 393.296" stroke="#263238" stroke-miterlimit="10" stroke-linecap="round" stroke-linejoin="round"/>
<path d="M492.172 369.954C492.172 369.954 493.001 382.186 495.905 397.476C498.809 412.766 511.669 468.247 512.499 470.432C513.328 472.617 522.87 487.033 521.21 492.275C519.55 497.517 517.477 497.08 513.743 493.149C510.009 489.217 506.275 472.617 505.861 470.869C505.446 469.121 483.874 429.804 477.237 411.893C470.601 393.982 466.452 383.934 468.526 370.828C470.6 357.722 478.067 357.286 483.875 359.033C489.683 360.781 492.172 369.954 492.172 369.954Z" fill="white" stroke="#263238" stroke-miterlimit="10" stroke-linecap="round" stroke-linejoin="round"/>
<path d="M491.842 374.607L477.238 411.892L473.329 400.8L491.842 374.607Z" fill="#263238" stroke="#263238" stroke-miterlimit="10"/>
<path d="M521.211 492.274C522.106 489.443 519.738 483.941 517.238 479.131C514.224 483.999 511.044 483.466 508.812 482.026C510.225 486.627 511.984 491.294 513.745 493.148C517.477 497.08 519.551 497.516 521.211 492.274Z" fill="#263238" stroke="#263238" stroke-miterlimit="10" stroke-linecap="round" stroke-linejoin="round"/>
<path d="M495.259 357.783C495.259 357.783 488.37 344.833 477.429 348.718C466.489 352.603 443.392 437.204 436.097 449.291C432.839 454.688 430.019 458.355 430.019 458.355C430.019 458.355 424.751 460.081 418.268 460.081C411.785 460.081 406.111 460.081 410.975 464.398C415.837 468.714 425.968 471.735 431.235 472.599C436.503 473.462 439.34 462.671 439.34 462.671C439.34 462.671 470.542 406.126 476.214 400.083C481.887 394.04 492.423 374.616 494.449 370.731C496.475 366.847 496.07 361.668 495.259 357.783Z" fill="white" stroke="#263238" stroke-miterlimit="10" stroke-linecap="round" stroke-linejoin="round"/>
<path d="M438.882 464.144C433.097 464.806 423.942 465.692 423.942 465.692L420.734 460C419.939 460.051 419.115 460.082 418.268 460.082C411.785 460.082 406.111 460.082 410.975 464.398C415.837 468.714 425.968 471.736 431.235 472.599C435.278 473.261 437.886 467.065 438.882 464.144Z" fill="#263238" stroke="#263238" stroke-miterlimit="10" stroke-linecap="round" stroke-linejoin="round"/>
<path d="M465.514 212.539C465.514 212.539 461.422 216.027 462.24 219.949C463.059 223.873 461.013 229.975 458.148 230.847C455.283 231.719 458.148 235.643 460.194 236.078C462.24 236.514 462.24 236.514 462.24 236.514C462.24 236.514 464.287 247.412 465.924 248.72C467.561 250.028 473.699 248.72 473.699 248.72C473.699 248.72 475.745 263.106 478.609 267.464C481.474 271.824 483.111 272.696 486.794 267.028C490.477 261.361 494.978 247.848 494.978 247.848C494.978 247.848 496.206 233.463 492.932 223.437C489.659 213.41 477.382 200.333 465.514 212.539Z" fill="white" stroke="#263238" stroke-miterlimit="10" stroke-linecap="round" stroke-linejoin="round"/>
<path d="M466.153 227.237C466.153 228.357 465.78 229.264 465.321 229.264C464.861 229.264 464.489 228.356 464.489 227.237C464.489 226.118 464.862 225.211 465.321 225.211C465.78 225.211 466.153 226.119 466.153 227.237Z" fill="#263238"/>
<path d="M464.013 222.424C464.013 222.424 465.915 220.144 467.58 223.184" stroke="#263238" stroke-miterlimit="10" stroke-linecap="round" stroke-linejoin="round"/>
<path d="M464.964 239.146C464.964 239.146 466.153 239.652 469.007 237.372" stroke="#263238" stroke-miterlimit="10" stroke-linecap="round" stroke-linejoin="round"/>
<path d="M468.994 197.978C468.994 197.978 460.4 201.765 462.446 209.812C464.493 217.86 476.36 224.487 480.044 231.114C483.727 237.742 482.909 244.842 480.044 247.683C477.179 250.523 475.133 250.997 475.133 250.997C475.133 250.997 483.726 256.678 495.594 256.678C507.462 256.678 512.307 243.636 511.488 235.114C510.67 226.594 508.525 206.587 499.93 200.433C491.337 194.278 477.178 193.718 468.994 197.978Z" fill="#263238" stroke="#263238" stroke-miterlimit="10" stroke-linecap="round" stroke-linejoin="round"/>
<path d="M287.581 399.303L283.506 491.895" stroke="#263238" stroke-width="6" stroke-miterlimit="10" stroke-linecap="round" stroke-linejoin="round"/>
<path d="M331.948 399.303L327.421 491.895" stroke="#263238" stroke-width="6" stroke-miterlimit="10" stroke-linecap="round" stroke-linejoin="round"/>
<path d="M354.132 399.303L360.017 491.895" stroke="#263238" stroke-width="6" stroke-miterlimit="10" stroke-linecap="round" stroke-linejoin="round"/>
<path d="M377.673 399.303L391.707 491.895" stroke="#263238" stroke-width="6" stroke-miterlimit="10" stroke-linecap="round" stroke-linejoin="round"/>
<path d="M280.667 298.312L284.581 396.056H357.801L350.622 298.312H280.667Z" fill="#808080" stroke="#263238" stroke-miterlimit="10" stroke-linecap="round" stroke-linejoin="round"/>
<path d="M384.012 395.77H284.581V401.337H384.012V395.77Z" fill="#808080" stroke="#263238" stroke-miterlimit="10" stroke-linecap="round" stroke-linejoin="round"/>
<path d="M384.012 395.77H325.028V401.337H384.012V395.77Z" fill="#808080" stroke="#263238" stroke-miterlimit="10" stroke-linecap="round" stroke-linejoin="round"/>
<path d="M293.631 346.78C293.631 346.78 289.958 382.123 291.182 386.748C292.407 391.373 295.773 394.345 299.14 395.336C302.506 396.326 349.255 395.308 350.553 395.336C357.996 395.494 359.477 391.423 359.734 383.444C360.013 374.779 358.811 344.326 358.811 344.326L293.631 346.78Z" fill="#263238" stroke="#263238" stroke-miterlimit="10" stroke-linecap="round" stroke-linejoin="round"/>
<path d="M309.578 250.433C309.578 250.433 282.113 262.007 283.018 263.936C283.923 265.865 292.108 322.143 292.409 323.75C292.711 325.358 293.315 344.005 293.315 345.612C293.315 347.22 295.126 350.114 296.937 350.435C306.389 352.109 316.666 351.237 326.233 351.367C332.691 351.454 339.15 351.476 345.608 351.43C349.412 351.404 358.302 353.33 359.707 348.839C360.311 345.302 360.282 265.864 360.585 262.006C360.886 258.148 357.264 257.183 353.341 254.933C349.418 252.683 331.309 247.538 329.498 247.538C327.687 247.538 309.578 250.433 309.578 250.433Z" fill="#96BFE6" stroke="#263238" stroke-miterlimit="10" stroke-linecap="round" stroke-linejoin="round"/>
<path d="M317.458 268.791L323.579 277.919L316.584 333.741L327.601 346.128L336.476 331.785L327.557 276.941L331.536 267.813L320.212 260.967L317.458 268.791Z" fill="#263238" stroke="#263238" stroke-miterlimit="10" stroke-linecap="round" stroke-linejoin="round"/>
<path d="M311.691 247.539C311.691 247.539 308.069 248.825 307.768 251.397C307.466 253.969 308.371 274.224 308.371 274.224L320.142 269.401L325.274 268.116L338.575 270.747C338.575 270.747 338.252 259.114 336.139 253.327C334.027 247.54 331.612 245.611 329.801 245.29C327.989 244.968 311.691 247.539 311.691 247.539Z" fill="white" stroke="#263238" stroke-miterlimit="10" stroke-linecap="round" stroke-linejoin="round"/>
<path d="M309.88 246.575C309.88 246.575 313.201 259.757 314.408 262.007C315.615 264.257 323.462 271.008 325.273 268.115C327.084 265.221 328.895 257.505 329.196 256.541C329.498 255.576 329.8 245.288 329.8 245.288C329.8 245.288 315.313 250.755 309.88 246.575Z" fill="white" stroke="#263238" stroke-miterlimit="10" stroke-linecap="round" stroke-linejoin="round"/>
<path d="M315.795 254.963C315.795 254.963 316.136 255.509 320.576 257.509C325.015 259.509 328.259 259.328 328.259 259.328L329.113 255.872L329.626 246.596L315.795 254.963Z" fill="#263238" stroke="#263238" stroke-miterlimit="10"/>
<path d="M338.47 222.143C338.47 222.143 339.529 211.614 338.47 205.598C337.411 199.581 331.41 197.701 326.821 196.949C322.233 196.197 302.817 198.078 300.346 203.718C297.875 209.358 303.17 213.87 303.17 213.87C303.17 213.87 299.993 216.126 301.405 219.135C302.818 222.143 304.583 226.279 304.583 226.279L306.7 217.63L321.526 218.006L327.175 219.51L333.176 227.406C333.176 227.406 336.353 228.158 337.412 226.654C338.47 225.151 338.47 222.143 338.47 222.143Z" fill="#263238" stroke="#263238" stroke-miterlimit="10" stroke-linecap="round" stroke-linejoin="round"/>
<path d="M305.05 224.713C305.05 224.713 302.032 221.177 302.032 225.035C302.032 228.893 305.654 232.751 305.654 232.751L305.05 224.713Z" stroke="#263238" stroke-miterlimit="10" stroke-linecap="round" stroke-linejoin="round"/>
<path d="M304.582 214.999C304.582 214.999 304.935 236.056 305.641 240.193C306.347 244.329 314.819 255.233 316.584 255.233C318.349 255.233 320.82 255.986 322.939 254.105C325.057 252.224 333.882 243.577 334.588 240.944C335.295 238.312 335.648 233.048 335.648 233.048C335.648 233.048 341.296 230.04 340.59 225.528C339.883 221.016 337.766 220.64 336.707 221.767C335.648 222.895 333.883 225.528 333.883 225.528C333.883 225.528 333.177 221.767 331.765 220.264C330.353 218.759 326.117 218.008 326.823 216.503C327.529 214.999 330.706 208.23 330.706 208.23C330.706 208.23 323.999 214.247 317.645 215.375C311.288 216.503 304.582 214.999 304.582 214.999Z" fill="white" stroke="#263238" stroke-miterlimit="10" stroke-linecap="round" stroke-linejoin="round"/>
<path d="M311.164 225.341C311.164 226.385 310.662 227.232 310.043 227.232C309.424 227.232 308.922 226.385 308.922 225.341C308.922 224.296 309.424 223.449 310.043 223.449C310.661 223.449 311.164 224.296 311.164 225.341Z" fill="#263238"/>
<path d="M322.564 225.341C322.564 226.385 322.061 227.232 321.443 227.232C320.824 227.232 320.322 226.385 320.322 225.341C320.322 224.296 320.824 223.449 321.443 223.449C322.061 223.449 322.564 224.296 322.564 225.341Z" fill="#263238"/>
<path d="M314.154 224.842C314.154 224.842 311.537 235.592 312.659 236.189C313.78 236.786 320.134 234.198 320.134 234.198" stroke="#263238" stroke-miterlimit="10" stroke-linecap="round" stroke-linejoin="round"/>
<path d="M312.659 236.189C312.659 236.189 310.042 237.185 308.361 238.578C306.678 239.972 309.669 241.166 313.593 241.166C317.517 241.166 322.564 240.967 324.806 239.772C327.049 238.578 325.18 237.583 323.311 236.786C321.443 235.99 318.079 235.393 318.079 235.393C318.079 235.393 314.528 235.99 312.659 236.189Z" fill="#263238" stroke="#263238" stroke-miterlimit="10" stroke-linecap="round" stroke-linejoin="round"/>
<path d="M307.613 221.06C307.613 221.06 309.295 219.069 312.471 220.661" stroke="#263238" stroke-miterlimit="10" stroke-linecap="round" stroke-linejoin="round"/>
<path d="M317.892 220.862C317.892 220.862 321.63 218.672 324.62 222.056" stroke="#263238" stroke-miterlimit="10" stroke-linecap="round" stroke-linejoin="round"/>
<path d="M283.018 263.936C283.018 263.936 264.039 321.821 264.039 322.785C264.039 323.75 261.322 329.216 264.039 332.752C266.755 336.288 271.584 337.574 274.3 336.288C277.017 335.003 291.202 308.318 291.202 308.318C291.202 308.318 283.923 267.151 283.018 263.936Z" fill="white" stroke="#263238" stroke-miterlimit="10" stroke-linecap="round" stroke-linejoin="round"/>
<path d="M284.686 285.483L283.734 282.201" stroke="#263238" stroke-miterlimit="10" stroke-linecap="round" stroke-linejoin="round"/>
<path d="M289.897 303.445L285.631 288.739" stroke="#263238" stroke-miterlimit="10" stroke-linecap="round" stroke-linejoin="round"/>
<path d="M268.265 315.07L322.894 290.314L324.101 296.423C324.101 296.423 282.751 330.501 279.733 333.074C276.716 335.646 275.508 337.575 271.584 337.575C267.661 337.575 262.53 333.717 262.53 328.573C262.53 323.43 264.642 318.928 264.642 318.928" fill="white"/>
<path d="M268.265 315.07L322.894 290.314L324.101 296.423C324.101 296.423 282.751 330.501 279.733 333.074C276.716 335.646 275.508 337.575 271.584 337.575C267.661 337.575 262.53 333.717 262.53 328.573C262.53 323.43 264.642 318.928 264.642 318.928" stroke="#263238" stroke-miterlimit="10" stroke-linecap="round" stroke-linejoin="round"/>
<path d="M316.773 293.674L318.828 299.146" stroke="#263238" stroke-miterlimit="10" stroke-linecap="round" stroke-linejoin="round"/>
<path d="M322.894 290.314C322.894 290.314 324.704 283.242 325.308 282.277C325.912 281.313 329.534 278.74 331.043 277.455C332.552 276.169 334.966 273.918 335.268 275.526C335.57 277.133 331.647 281.956 331.647 281.956C331.647 281.956 337.683 278.741 339.796 278.419C341.908 278.098 344.552 277.754 346.061 278.075C347.571 278.396 346.006 279.301 345.832 281.634C345.548 285.464 339.193 289.029 337.382 290.958C335.571 292.887 324.101 296.423 324.101 296.423L322.894 290.314Z" fill="white" stroke="#263238" stroke-miterlimit="10" stroke-linecap="round" stroke-linejoin="round"/>
<path d="M345.547 280.264L334.757 284.096" stroke="#263238" stroke-miterlimit="10" stroke-linecap="round" stroke-linejoin="round"/>
<path d="M345.033 283.822L335.784 287.38" stroke="#263238" stroke-miterlimit="10" stroke-linecap="round" stroke-linejoin="round"/>
<path d="M338.867 289.841L336.555 290.662" stroke="#263238" stroke-miterlimit="10" stroke-linecap="round" stroke-linejoin="round"/>
<path d="M331.646 281.955L328.077 282.18" stroke="#263238" stroke-miterlimit="10" stroke-linecap="round" stroke-linejoin="round"/>
<path d="M359.981 259.757C359.981 259.757 365.806 275.386 367.225 278.726C368.926 282.727 376.616 299.318 376.616 299.318L391.104 265.881L398.951 269.418C398.951 269.418 386.576 310.892 383.86 317C381.144 323.108 381.748 327.931 377.522 327.609C373.296 327.288 360.307 313.122 360.307 313.122L359.981 259.757Z" fill="white" stroke="#263238" stroke-miterlimit="10" stroke-linecap="round" stroke-linejoin="round"/>
<path d="M376.618 299.316L370.725 310.641" stroke="#263238" stroke-miterlimit="10" stroke-linecap="round" stroke-linejoin="round"/>
<path d="M374.32 303.525L369.439 307.63" stroke="#263238" stroke-miterlimit="10" stroke-linecap="round" stroke-linejoin="round"/>
<path d="M389.221 271.233L396.928 275.338" stroke="#263238" stroke-miterlimit="10" stroke-linecap="round" stroke-linejoin="round"/>
<path d="M391.104 265.882C391.104 265.882 390.803 256.881 391.708 254.952C392.614 253.023 395.934 247.879 396.236 246.592C396.537 245.307 398.046 243.055 398.348 245.307C398.649 247.557 398.046 250.45 398.046 250.45C398.046 250.45 401.97 246.592 402.272 245.307C402.574 244.021 402.272 239.52 403.479 239.52C404.686 239.52 405.894 240.484 407.101 244.342C408.308 248.2 407.101 254.308 406.497 256.559C405.893 258.81 399.857 267.49 399.857 267.49L398.952 269.419L391.104 265.882Z" fill="white" stroke="#263238" stroke-miterlimit="10" stroke-linecap="round" stroke-linejoin="round"/>
<path d="M407.206 246.878C407.206 246.878 406.692 244.689 406.178 246.33C405.664 247.972 404.123 254.266 404.123 254.266C404.123 254.266 396.158 260.013 396.158 261.655C396.158 263.297 396.158 263.297 396.158 263.297" stroke="#263238" stroke-miterlimit="10" stroke-linecap="round" stroke-linejoin="round"/>
<path d="M361.876 479.431L368.754 489.172C368.754 489.172 377.921 491.736 377.989 492.749C378.057 493.763 374.711 495.242 374.711 495.242L365.817 496.735C365.817 496.735 355.284 492.338 352.754 491.715C350.224 491.092 347.878 491.781 348.626 488.667C349.374 485.552 350.554 479.106 350.554 479.106L361.876 479.431Z" fill="white" stroke="#263238" stroke-miterlimit="10" stroke-linecap="round" stroke-linejoin="round"/>
<path d="M337.699 379.679C337.699 379.679 344.738 366.314 354.531 361.098C364.324 355.882 372.892 357.838 380.849 357.838C388.806 357.838 402.271 359.142 403.802 361.098C405.332 363.054 361.876 479.431 361.876 479.431L350.553 479.105C350.553 479.105 358.816 439.987 360.04 430.859C361.264 421.731 364.325 395.326 364.325 395.326C364.325 395.326 343.1 395.289 333.308 394.963" fill="#263238"/>
<path d="M337.699 379.679C337.699 379.679 344.738 366.314 354.531 361.098C364.324 355.882 372.892 357.838 380.849 357.838C388.806 357.838 402.271 359.142 403.802 361.098C405.332 363.054 361.876 479.431 361.876 479.431L350.553 479.105C350.553 479.105 358.816 439.987 360.04 430.859C361.264 421.731 364.325 395.326 364.325 395.326C364.325 395.326 343.1 395.289 333.308 394.963" stroke="#263238" stroke-miterlimit="10" stroke-linecap="round" stroke-linejoin="round"/>
<path d="M296.385 361.775C296.385 361.775 296.691 356.885 306.485 356.559C316.278 356.233 326.683 355.255 327.907 361.449C329.131 367.643 329.437 462.506 329.437 465.766C329.437 469.026 330.355 476.85 330.355 476.85L319.032 477.828C319.032 477.828 304.343 425.343 301.895 413.608C299.447 401.872 299.753 373.512 299.753 371.23" fill="#263238"/>
<path d="M296.385 361.775C296.385 361.775 296.691 356.885 306.485 356.559C316.278 356.233 326.683 355.255 327.907 361.449C329.131 367.643 329.437 462.506 329.437 465.766C329.437 469.026 330.355 476.85 330.355 476.85L319.032 477.828C319.032 477.828 304.343 425.343 301.895 413.608C299.447 401.872 299.753 373.512 299.753 371.23" stroke="#263238" stroke-miterlimit="10" stroke-linecap="round" stroke-linejoin="round"/>
<path d="M330.354 476.85C330.354 476.85 334.333 491.193 335.251 492.823C336.169 494.453 336.781 495.431 334.027 497.387C331.272 499.343 325.764 500.647 322.397 499.669C319.031 498.691 318.419 492.497 319.031 487.281C319.643 482.065 319.031 477.827 319.031 477.827L330.354 476.85Z" fill="white" stroke="#263238" stroke-miterlimit="10" stroke-linecap="round" stroke-linejoin="round"/>
<path d="M148.141 399.303L134.106 491.895" stroke="#263238" stroke-width="6" stroke-miterlimit="10" stroke-linecap="round" stroke-linejoin="round"/>
<path d="M195.224 399.303L181.19 491.895" stroke="#263238" stroke-width="6" stroke-miterlimit="10" stroke-linecap="round" stroke-linejoin="round"/>
<path d="M214.692 399.303L228.726 491.895" stroke="#263238" stroke-width="6" stroke-miterlimit="10" stroke-linecap="round" stroke-linejoin="round"/>
<path d="M263.586 399.303L277.62 491.895" stroke="#263238" stroke-width="6" stroke-miterlimit="10" stroke-linecap="round" stroke-linejoin="round"/>
<path d="M124.93 298.312L145.141 396.056H211.118L187.64 298.312H124.93Z" fill="#808080" stroke="#263238" stroke-miterlimit="10" stroke-linecap="round" stroke-linejoin="round"/>
<path d="M269.924 395.77H145.141V401.337H269.924V395.77Z" fill="#808080" stroke="#263238" stroke-miterlimit="10" stroke-linecap="round" stroke-linejoin="round"/>
<path d="M269.925 395.77H227.692V401.337H269.925V395.77Z" fill="#808080" stroke="#263238" stroke-miterlimit="10" stroke-linecap="round" stroke-linejoin="round"/>
<path d="M162.931 254.629L137.879 269.096L151.16 355.901C151.16 355.901 150.556 358.152 152.065 359.116C153.575 360.081 157.799 360.402 157.799 360.402H206.995C206.995 360.402 210.013 359.437 211.523 357.187C213.032 354.937 213.032 353.65 213.032 351.4C213.032 349.15 218.163 267.81 217.258 266.203C216.352 264.596 214.843 262.988 214.843 262.988L188.886 252.058L162.931 254.629Z" fill="#C8C4FF" stroke="#263238" stroke-miterlimit="10" stroke-linecap="round" stroke-linejoin="round"/>
<path d="M180.798 274.224L186.699 278.545L185.055 339.432L196.072 351.82L204.947 337.477L190.678 277.568L194.656 268.44L183.333 261.594L180.798 274.224Z" fill="#263238" stroke="#263238" stroke-miterlimit="10" stroke-linecap="round" stroke-linejoin="round"/>
<path d="M199.45 203.832L203.072 215.406L201.563 219.907L206.392 228.588L203.071 230.838C203.071 230.838 204.882 242.733 204.278 243.698C203.674 244.662 190.998 245.627 190.998 245.627L189.187 264.917L168.966 252.378V233.41C168.966 233.41 162.326 206.726 163.834 204.475C165.344 202.225 175.605 197.724 187.98 196.116C200.355 194.508 202.166 193.223 202.769 197.081C203.374 200.939 199.45 203.832 199.45 203.832Z" fill="white" stroke="#263238" stroke-miterlimit="10" stroke-linecap="round" stroke-linejoin="round"/>
<path d="M202.77 197.081C202.166 193.223 200.355 194.508 187.981 196.116C175.606 197.724 165.345 202.224 163.835 204.475C162.326 206.726 168.967 233.41 168.967 233.41V238.556C169.824 238.689 170.648 238.696 171.382 238.554C174.702 237.911 179.229 233.088 179.229 233.088C179.229 233.088 174.702 235.982 172.891 233.088C171.08 230.195 170.476 226.658 171.08 223.443C171.684 220.229 176.211 221.193 176.211 222.8C176.211 224.408 178.022 227.622 179.532 226.979C181.041 226.336 181.342 218.942 181.342 218.942C181.342 218.942 187.681 214.441 187.982 212.19C188.284 209.94 186.171 206.403 186.171 206.403L199.451 203.831C199.451 203.831 203.374 200.939 202.77 197.081Z" fill="#263238" stroke="#263238" stroke-miterlimit="10" stroke-linecap="round" stroke-linejoin="round"/>
<path d="M199.752 216.693C199.752 216.693 196.13 215.407 194.018 218.301" stroke="#263238" stroke-miterlimit="10" stroke-linecap="round" stroke-linejoin="round"/>
<path d="M200.055 221.032C200.055 222.187 199.649 223.123 199.149 223.123C198.649 223.123 198.244 222.187 198.244 221.032C198.244 219.878 198.649 218.942 199.149 218.942C199.649 218.942 200.055 219.878 200.055 221.032Z" fill="#263238"/>
<path d="M201.865 234.053C201.865 234.053 197.942 235.018 196.432 233.41" stroke="#263238" stroke-miterlimit="10" stroke-linecap="round" stroke-linejoin="round"/>
<path d="M191 245.628H184.058L189.792 255.594L191 245.628Z" fill="#263238" stroke="#263238" stroke-miterlimit="10" stroke-linecap="round" stroke-linejoin="round"/>
<path d="M168.967 248.842L161.421 255.272L179.832 277.777L189.189 264.917L168.967 248.842Z" fill="#C8C4FF" stroke="#263238" stroke-miterlimit="10" stroke-linecap="round" stroke-linejoin="round"/>
<path d="M189.188 264.918L196.13 274.563L194.017 254.308L190.697 250.128L189.188 264.918Z" fill="#C8C4FF" stroke="#263238" stroke-miterlimit="10" stroke-linecap="round" stroke-linejoin="round"/>
<path d="M217.258 266.202L242.006 329.538L225.407 336.611L214.843 316.677L217.258 266.202Z" fill="#C8C4FF" stroke="#263238" stroke-miterlimit="10" stroke-linecap="round" stroke-linejoin="round"/>
<path d="M198.847 329.217C198.847 329.217 220.578 325.68 226.916 324.394C233.254 323.109 238.385 324.073 241.403 327.609C244.421 331.146 243.818 337.897 242.912 339.504C242.007 341.111 233.858 341.754 228.425 341.754C222.992 341.754 206.393 337.253 203.072 336.288C199.752 335.324 199.752 335.324 199.752 335.324L198.847 329.217Z" fill="#C8C4FF" stroke="#263238" stroke-miterlimit="10" stroke-linecap="round" stroke-linejoin="round"/>
<path d="M219.069 338.541C219.069 338.541 227.218 339.827 227.822 340.791C228.426 341.756 235.065 349.793 235.971 350.757C236.876 351.722 237.479 360.725 237.479 360.725C237.479 360.725 235.367 362.332 234.763 361.368C234.159 360.403 227.218 351.08 227.218 351.08C227.218 351.08 218.465 347.865 217.862 345.936C217.258 344.007 217.258 344.007 217.258 344.007L219.069 338.541Z" fill="#C8C4FF" stroke="#263238" stroke-miterlimit="10" stroke-linecap="round" stroke-linejoin="round"/>
<path d="M137.879 269.097C137.879 269.097 152.971 342.399 154.178 342.72C155.385 343.041 217.258 344.006 217.258 344.006L219.069 338.54L167.759 324.716L164.439 275.848" fill="#C8C4FF"/>
<path d="M137.879 269.097C137.879 269.097 152.971 342.399 154.178 342.72C155.385 343.041 217.258 344.006 217.258 344.006L219.069 338.54L167.759 324.716L164.439 275.848" stroke="#263238" stroke-miterlimit="10" stroke-linecap="round" stroke-linejoin="round"/>
<path d="M243.214 366.06C243.214 366.06 275.81 374.265 278.225 375.843C280.64 377.42 279.432 383.1 277.923 387.834C276.414 392.568 230.236 476.826 230.236 476.826L223.294 474.932L244.421 395.092H217.861L243.214 366.06Z" fill="#263238" stroke="#263238" stroke-miterlimit="10" stroke-linecap="round" stroke-linejoin="round"/>
<path d="M230.235 476.827L235.668 490.081C235.668 490.081 243.213 496.077 242.911 497.024C242.61 497.971 238.988 497.971 238.988 497.971L230.235 495.762C230.235 495.762 222.086 487.557 219.974 485.979C217.861 484.401 215.446 484.086 217.257 481.561C219.068 479.037 223.294 474.934 223.294 474.934L230.235 476.827Z" fill="white" stroke="#263238" stroke-miterlimit="10" stroke-linecap="round" stroke-linejoin="round"/>
<path d="M152.065 359.116C152.065 359.116 150.556 376.472 150.556 380.891C150.556 385.309 153.876 392.252 159.912 394.776C165.948 397.301 236.271 394.776 236.271 394.776L264.039 485.662L272.188 482.506C272.188 482.506 261.926 383.415 261.926 381.206C261.926 378.997 261.021 371.108 258.003 369.53C254.985 367.952 206.996 360.378 206.996 360.378L152.065 359.116Z" fill="#263238" stroke="#263238" stroke-miterlimit="10" stroke-linecap="round" stroke-linejoin="round"/>
<path d="M272.188 482.505C272.188 482.505 287.882 484.714 289.693 484.398C291.504 484.083 297.238 482.82 295.427 485.976C293.616 489.132 281.845 492.603 277.016 494.812C272.188 497.021 267.358 500.492 265.849 497.968C264.34 495.443 264.039 485.661 264.039 485.661L272.188 482.505Z" fill="white" stroke="#263238" stroke-miterlimit="10" stroke-linecap="round" stroke-linejoin="round"/>
<path d="M187.378 324.394H181.644L175.608 331.788C175.608 331.788 173.797 336.29 175.608 336.29C177.418 336.29 181.644 337.254 184.361 336.29C187.077 335.325 194.622 332.111 194.622 332.111C194.622 332.111 193.717 326.001 187.378 324.394Z" fill="white" stroke="#263238" stroke-miterlimit="10" stroke-linecap="round" stroke-linejoin="round"/>
<path d="M190.396 325.681L198.846 329.217L200.054 333.075L194.621 332.11L190.396 325.681Z" fill="white" stroke="#263238" stroke-miterlimit="10" stroke-linecap="round" stroke-linejoin="round"/>
<path d="M175.275 333.685C175.275 333.685 183.249 326.255 185.314 325.324" stroke="#263238" stroke-miterlimit="10" stroke-linecap="round" stroke-linejoin="round"/>
<path d="M176.735 335.824C176.735 335.824 187.322 326.298 189.512 326.298" stroke="#263238" stroke-miterlimit="10" stroke-linecap="round" stroke-linejoin="round"/>
<path d="M180.75 336.796C180.75 336.796 188.416 329.213 191.883 328.824" stroke="#263238" stroke-miterlimit="10" stroke-linecap="round" stroke-linejoin="round"/>
<path d="M582.749 344.89H123.19V367.434H582.749V344.89Z" fill="white" stroke="#263238" stroke-miterlimit="10" stroke-linecap="round" stroke-linejoin="round"/>
<path d="M127.193 494.969H121.002L116.539 344.89H131.656L127.193 494.969Z" fill="white" stroke="#263238" stroke-miterlimit="10" stroke-linecap="round" stroke-linejoin="round"/>
<path d="M583.73 494.969H577.538L573.075 344.89H588.193L583.73 494.969Z" fill="white" stroke="#263238" stroke-miterlimit="10" stroke-linecap="round" stroke-linejoin="round"/>
<path d="M587.869 352.212H116.767V346.907H588.199L587.869 352.212Z" fill="#263238" stroke="#263238" stroke-miterlimit="10"/>
<path d="M592.719 342.397H109.659V347.702H592.719V342.397Z" fill="white" stroke="#263238" stroke-miterlimit="10" stroke-linecap="round" stroke-linejoin="round"/>
<path d="M392.161 323.931C392.161 323.931 394.335 322.937 395.579 323.765C396.822 324.592 397.132 333.861 395.579 336.675C394.025 339.488 391.849 339.654 391.849 339.654L391.539 335.185C391.539 335.185 392.937 336.013 393.714 332.869C394.491 329.724 394.336 327.076 393.87 326.91C393.404 326.744 392.316 327.241 392.316 327.241L392.161 323.931Z" fill="#FFDF69" stroke="#263238" stroke-miterlimit="10" stroke-linecap="round" stroke-linejoin="round"/>
<path d="M392.494 319.418H374.95V343.001H392.494V319.418Z" fill="#FFDF69" stroke="#263238" stroke-miterlimit="10" stroke-linecap="round" stroke-linejoin="round"/>
<path d="M136.758 323.931C136.758 323.931 134.582 322.937 133.34 323.765C132.097 324.592 131.786 333.861 133.34 336.675C134.894 339.488 137.07 339.654 137.07 339.654L137.38 335.185C137.38 335.185 135.982 336.013 135.205 332.869C134.429 329.724 134.584 327.076 135.05 326.91C135.516 326.744 136.603 327.241 136.603 327.241L136.758 323.931Z" fill="#FFDF69" stroke="#263238" stroke-miterlimit="10" stroke-linecap="round" stroke-linejoin="round"/>
<path d="M136.425 343.002H153.969V319.419H136.425V343.002Z" fill="#FFDF69" stroke="#263238" stroke-miterlimit="10" stroke-linecap="round" stroke-linejoin="round"/>
<path d="M553.267 323.931C553.267 323.931 551.091 322.937 549.849 323.765C548.606 324.592 548.295 333.861 549.849 336.675C551.403 339.488 553.578 339.654 553.578 339.654L553.889 335.185C553.889 335.185 552.491 336.013 551.713 332.869C550.936 329.724 551.092 327.076 551.557 326.91C552.024 326.744 553.111 327.241 553.111 327.241L553.267 323.931Z" fill="#FFDF69" stroke="#263238" stroke-miterlimit="10" stroke-linecap="round" stroke-linejoin="round"/>
<path d="M552.934 343.002H570.478V319.419H552.934V343.002Z" fill="#FFDF69" stroke="#263238" stroke-miterlimit="10" stroke-linecap="round" stroke-linejoin="round"/>
<path d="M480.049 299.283H408.424V342.714H480.049V299.283Z" fill="#263238" stroke="#263238" stroke-miterlimit="10"/>
<path d="M271.333 125.055H201.028C196.193 125.055 192.273 129.23 192.273 134.38V170.072C192.273 175.222 196.193 179.398 201.028 179.398H209.604L205.523 197.267L220.348 179.398H271.333C276.168 179.398 280.088 175.222 280.088 170.072V134.38C280.088 129.23 276.168 125.055 271.333 125.055Z" fill="#263238"/>
<path d="M250.223 140.45C259.437 140.45 266.524 140.45 267.017 140.45" stroke="white" stroke-miterlimit="10" stroke-linecap="round" stroke-linejoin="round"/>
<path d="M222.862 140.45C230.144 140.45 238.637 140.45 246.218 140.45" stroke="white" stroke-miterlimit="10" stroke-linecap="round" stroke-linejoin="round"/>
<path d="M205.185 140.45C205.185 140.45 210.741 140.45 218.525 140.45" stroke="white" stroke-miterlimit="10" stroke-linecap="round" stroke-linejoin="round"/>
<path d="M256.228 148.291C262.366 148.291 266.638 148.291 267.017 148.291" stroke="white" stroke-miterlimit="10" stroke-linecap="round" stroke-linejoin="round"/>
<path d="M235.542 148.291C242.001 148.291 248.494 148.291 253.892 148.291" stroke="white" stroke-miterlimit="10" stroke-linecap="round" stroke-linejoin="round"/>
<path d="M205.185 148.291C205.185 148.291 219.19 148.291 233.873 148.291" stroke="white" stroke-miterlimit="10" stroke-linecap="round" stroke-linejoin="round"/>
<path d="M246.886 156.133C257.676 156.133 266.467 156.133 267.017 156.133" stroke="white" stroke-miterlimit="10" stroke-linecap="round" stroke-linejoin="round"/>
<path d="M220.526 156.133C227.472 156.133 235.838 156.133 243.549 156.133" stroke="white" stroke-miterlimit="10" stroke-linecap="round" stroke-linejoin="round"/>
<path d="M205.185 156.133C205.185 156.133 210.426 156.133 217.857 156.133" stroke="white" stroke-miterlimit="10" stroke-linecap="round" stroke-linejoin="round"/>
<path d="M261.233 163.973C264.596 163.973 266.753 163.973 267.017 163.973" stroke="white" stroke-miterlimit="10" stroke-linecap="round" stroke-linejoin="round"/>
<path d="M242.548 163.973C248.242 163.973 253.63 163.973 257.897 163.973" stroke="white" stroke-miterlimit="10" stroke-linecap="round" stroke-linejoin="round"/>
<path d="M234.208 163.973C236.21 163.973 238.223 163.973 240.213 163.973" stroke="white" stroke-miterlimit="10" stroke-linecap="round" stroke-linejoin="round"/>
<path d="M208.849 163.973C213.284 163.973 221.238 163.973 229.87 163.973" stroke="white" stroke-miterlimit="10" stroke-linecap="round" stroke-linejoin="round"/>
<path d="M205.185 163.973C205.185 163.973 205.901 163.973 207.18 163.973" stroke="white" stroke-miterlimit="10" stroke-linecap="round" stroke-linejoin="round"/>
<path d="M368.526 133.061H302.714C297.879 133.061 293.959 137.236 293.959 142.386V175.297C293.959 180.447 297.879 184.623 302.714 184.623H349.309V199.355L357.607 184.623H368.526C373.361 184.623 377.281 180.447 377.281 175.297V142.386C377.281 137.236 373.361 133.061 368.526 133.061Z" fill="white" stroke="#263238" stroke-miterlimit="10" stroke-linecap="round" stroke-linejoin="round"/>
<path d="M350.321 147.558C359.535 147.558 366.623 147.558 367.115 147.558" stroke="#263238" stroke-miterlimit="10" stroke-linecap="round" stroke-linejoin="round"/>
<path d="M322.96 147.558C330.243 147.558 338.735 147.558 346.317 147.558" stroke="#263238" stroke-miterlimit="10" stroke-linecap="round" stroke-linejoin="round"/>
<path d="M305.282 147.558C305.282 147.558 310.839 147.558 318.622 147.558" stroke="#263238" stroke-miterlimit="10" stroke-linecap="round" stroke-linejoin="round"/>
<path d="M356.326 155.397C362.464 155.397 366.736 155.397 367.115 155.397" stroke="#263238" stroke-miterlimit="10" stroke-linecap="round" stroke-linejoin="round"/>
<path d="M335.639 155.397C342.099 155.397 348.592 155.397 353.991 155.397" stroke="#263238" stroke-miterlimit="10" stroke-linecap="round" stroke-linejoin="round"/>
<path d="M305.282 155.397C305.282 155.397 319.288 155.397 333.971 155.397" stroke="#263238" stroke-miterlimit="10" stroke-linecap="round" stroke-linejoin="round"/>
<path d="M346.984 163.239C357.774 163.239 366.565 163.239 367.116 163.239" stroke="#263238" stroke-miterlimit="10" stroke-linecap="round" stroke-linejoin="round"/>
<path d="M320.625 163.239C327.57 163.239 335.937 163.239 343.647 163.239" stroke="#263238" stroke-miterlimit="10" stroke-linecap="round" stroke-linejoin="round"/>
<path d="M305.282 163.239C305.282 163.239 310.524 163.239 317.955 163.239" stroke="#263238" stroke-miterlimit="10" stroke-linecap="round" stroke-linejoin="round"/>
<path d="M361.331 171.079C364.694 171.079 366.851 171.079 367.115 171.079" stroke="#263238" stroke-miterlimit="10" stroke-linecap="round" stroke-linejoin="round"/>
<path d="M342.646 171.079C348.339 171.079 353.728 171.079 357.994 171.079" stroke="#263238" stroke-miterlimit="10" stroke-linecap="round" stroke-linejoin="round"/>
<path d="M334.306 171.079C336.309 171.079 338.321 171.079 340.312 171.079" stroke="#263238" stroke-miterlimit="10" stroke-linecap="round" stroke-linejoin="round"/>
<path d="M308.947 171.079C313.382 171.079 321.336 171.079 329.967 171.079" stroke="#263238" stroke-miterlimit="10" stroke-linecap="round" stroke-linejoin="round"/>
<path d="M305.282 171.079C305.282 171.079 305.998 171.079 307.278 171.079" stroke="#263238" stroke-miterlimit="10" stroke-linecap="round" stroke-linejoin="round"/>
<path d="M459.311 114.242H393.499C388.664 114.242 384.744 118.418 384.744 123.568V156.48C384.744 161.63 388.664 165.805 393.499 165.805H441.7L452.853 185.766L451.069 165.805H459.311C464.146 165.805 468.066 161.63 468.066 156.48V123.568C468.066 118.418 464.146 114.242 459.311 114.242Z" fill="#92E3A9" stroke="#263238" stroke-miterlimit="10" stroke-linecap="round" stroke-linejoin="round"/>
<path d="M440.409 127.654C449.623 127.654 456.71 127.654 457.204 127.654" stroke="#263238" stroke-miterlimit="10" stroke-linecap="round" stroke-linejoin="round"/>
<path d="M413.048 127.654C420.331 127.654 428.823 127.654 436.405 127.654" stroke="#263238" stroke-miterlimit="10" stroke-linecap="round" stroke-linejoin="round"/>
<path d="M395.37 127.654C395.37 127.654 400.927 127.654 408.71 127.654" stroke="#263238" stroke-miterlimit="10" stroke-linecap="round" stroke-linejoin="round"/>
<path d="M446.415 135.495C452.553 135.495 456.825 135.495 457.204 135.495" stroke="#263238" stroke-miterlimit="10" stroke-linecap="round" stroke-linejoin="round"/>
<path d="M425.728 135.495C432.187 135.495 438.68 135.495 444.078 135.495" stroke="#263238" stroke-miterlimit="10" stroke-linecap="round" stroke-linejoin="round"/>
<path d="M395.37 135.495C395.37 135.495 409.376 135.495 424.058 135.495" stroke="#263238" stroke-miterlimit="10" stroke-linecap="round" stroke-linejoin="round"/>
<path d="M437.072 143.336C447.862 143.336 456.653 143.336 457.204 143.336" stroke="#263238" stroke-miterlimit="10" stroke-linecap="round" stroke-linejoin="round"/>
<path d="M410.712 143.336C417.658 143.336 426.024 143.336 433.734 143.336" stroke="#263238" stroke-miterlimit="10" stroke-linecap="round" stroke-linejoin="round"/>
<path d="M395.37 143.336C395.37 143.336 400.612 143.336 408.043 143.336" stroke="#263238" stroke-miterlimit="10" stroke-linecap="round" stroke-linejoin="round"/>
<path d="M451.418 151.176C454.781 151.176 456.938 151.176 457.202 151.176" stroke="#263238" stroke-miterlimit="10" stroke-linecap="round" stroke-linejoin="round"/>
<path d="M432.734 151.176C438.427 151.176 443.816 151.176 448.082 151.176" stroke="#263238" stroke-miterlimit="10" stroke-linecap="round" stroke-linejoin="round"/>
<path d="M424.393 151.176C426.395 151.176 428.408 151.176 430.398 151.176" stroke="#263238" stroke-miterlimit="10" stroke-linecap="round" stroke-linejoin="round"/>
<path d="M399.035 151.176C403.47 151.176 411.424 151.176 420.056 151.176" stroke="#263238" stroke-miterlimit="10" stroke-linecap="round" stroke-linejoin="round"/>
<path d="M395.37 151.176C395.37 151.176 396.086 151.176 397.366 151.176" stroke="#263238" stroke-miterlimit="10" stroke-linecap="round" stroke-linejoin="round"/>
</svg>
