<svg width="530" height="480" viewBox="0 0 530 480" fill="none" xmlns="http://www.w3.org/2000/svg">
<path d="M39.5691 130.762C41.307 129.377 43.4818 129.454 45.2322 130.813C45.7075 131.182 46.1921 131.536 46.6845 131.876C47.1824 132.218 47.6841 132.543 48.1875 132.85C50.0299 133.968 51.2793 136.243 51.3425 138.86L51.5587 147.805L74.2425 146.899L74.0279 137.958C73.9654 135.334 75.0829 132.931 76.877 131.673C77.8642 130.981 78.8248 130.22 79.7535 129.391C81.4258 127.899 83.5921 127.692 85.3862 128.928L91.5105 133.146L102.24 107.446L96.1155 103.227C94.3214 101.992 93.257 99.5587 93.2999 96.9445C93.3233 95.4921 93.2858 94.0436 93.1891 92.6042C93.0119 89.989 93.9523 87.463 95.6886 86.0787L101.606 81.3615L89.6431 56.5886L83.6935 61.3229C81.9635 62.7002 79.8003 62.621 78.0585 61.2698C77.584 60.9009 77.0994 60.5471 76.607 60.2072C76.1138 59.8674 75.6159 59.5457 75.1141 59.2409C73.2647 58.1193 72.013 55.8349 71.9513 53.2096L71.7414 44.2563L49.0576 45.1615L49.2777 54.0827C49.3424 56.7049 48.2273 59.1096 46.4348 60.3696C45.4445 61.0653 44.4807 61.8321 43.549 62.6661C41.8766 64.1616 39.708 64.3701 37.9123 63.1332L31.7911 58.9162L21.061 84.6152L27.183 88.8323C28.9787 90.0692 30.0431 92.505 29.9986 95.1222C29.9736 96.5797 30.0095 98.0351 30.1063 99.4806C30.2803 102.096 29.3392 104.619 27.6021 106.001L21.6955 110.701L33.6586 135.474L39.5691 130.762ZM45.2548 84.7496C50.1072 73.1279 61.389 68.7535 70.4366 74.9864C79.4842 81.2192 82.8734 95.7006 78.021 107.321C73.1695 118.942 61.9111 123.307 52.8642 117.074C43.8166 110.842 40.4025 96.3712 45.2548 84.7496Z" stroke="#EBEBEB" stroke-width="1.0365" stroke-miterlimit="10"/>
<path d="M492.672 355.401C493.49 353.58 495.046 352.579 496.68 352.687C497.124 352.716 497.57 352.73 498.017 352.73C498.47 352.73 498.918 352.716 499.364 352.687C500.993 352.581 502.543 353.578 503.359 355.392L506.145 361.595L521.873 349.938L519.089 343.738C518.272 341.918 518.354 339.68 519.248 337.922C519.74 336.955 520.194 335.951 520.604 334.916C521.344 333.051 522.81 331.853 524.44 331.853H530V308.521H524.44C522.811 308.521 521.344 307.322 520.604 305.459C520.194 304.423 519.74 303.42 519.248 302.452C518.353 300.693 518.272 298.456 519.089 296.637L521.873 290.436L506.145 278.779L503.344 285.007C502.529 286.818 500.981 287.814 499.355 287.707C498.911 287.677 498.466 287.663 498.019 287.663C497.572 287.663 497.125 287.677 496.682 287.707C495.048 287.814 493.493 286.811 492.676 284.991L489.892 278.78L474.164 290.437L476.945 296.62C477.763 298.438 477.684 300.675 476.792 302.433C476.298 303.406 475.844 304.414 475.433 305.455C474.694 307.321 473.226 308.522 471.596 308.522H466.038V331.854H471.596C473.226 331.854 474.694 333.055 475.433 334.922C475.844 335.962 476.298 336.971 476.792 337.943C477.685 339.702 477.763 341.938 476.945 343.757L474.164 349.94L489.892 361.597L492.672 355.401ZM483.136 320.196C483.136 309.645 489.804 301.079 498.018 301.079C506.232 301.079 512.886 309.644 512.886 320.196C512.886 330.747 506.233 339.293 498.018 339.293C489.803 339.293 483.136 330.747 483.136 320.196Z" fill="#EBEBEB"/>
<path d="M2.66652 159.447C3.4508 160.028 3.88156 161.134 3.83552 162.295C3.82303 162.609 3.81679 162.926 3.81679 163.244C3.81679 163.566 3.82303 163.884 3.83552 164.2C3.88156 165.357 3.45158 166.46 2.67043 167.038L0 169.017L5.01934 180.191L7.68898 178.213C8.47248 177.633 9.43623 177.69 10.1932 178.327C10.6099 178.677 11.0422 178.998 11.4878 179.29C12.29 179.816 12.8066 180.858 12.8066 182.015V185.965H22.8531V182.015C22.8531 180.858 23.369 179.815 24.172 179.29C24.6175 178.998 25.0499 178.677 25.4666 178.327C26.2236 177.691 27.1873 177.634 27.97 178.213L30.6404 180.191L35.6598 169.017L32.9784 167.027C32.1988 166.449 31.7696 165.348 31.8165 164.193C31.8289 163.878 31.8352 163.562 31.8352 163.244C31.8352 162.926 31.8289 162.609 31.8165 162.295C31.7704 161.134 32.202 160.028 32.9862 159.449L35.6606 157.471L30.6412 146.298L27.9786 148.273C27.1959 148.855 26.2329 148.799 25.4752 148.164C25.0561 147.813 24.6222 147.491 24.1743 147.199C23.3705 146.675 22.8539 145.631 22.8539 144.473V140.524H12.8066V144.473C12.8066 145.632 12.2893 146.675 11.4863 147.199C11.0383 147.491 10.6037 147.813 10.1854 148.164C9.42765 148.799 8.46467 148.855 7.68196 148.273L5.02012 146.298L0.000779941 157.471L2.66652 159.447ZM17.826 152.672C22.3693 152.672 26.0573 157.409 26.0573 163.245C26.0573 169.081 22.3693 173.807 17.826 173.807C13.2827 173.807 9.60323 169.081 9.60323 163.245C9.60323 157.409 13.2827 152.672 17.826 152.672Z" fill="#EBEBEB"/>
<path d="M439.927 394.067C440.712 394.648 441.142 395.754 441.096 396.915C441.084 397.23 441.078 397.546 441.078 397.865C441.078 398.186 441.084 398.506 441.096 398.821C441.142 399.978 440.712 401.08 439.931 401.659L437.261 403.638L442.28 414.811L444.95 412.834C445.733 412.253 446.696 412.31 447.454 412.946C447.871 413.296 448.303 413.617 448.749 413.909C449.552 414.435 450.067 415.477 450.067 416.635V420.585H460.114V416.635C460.114 415.478 460.63 414.435 461.433 413.909C461.878 413.617 462.311 413.296 462.727 412.946C463.484 412.31 464.448 412.253 465.232 412.834L467.901 414.811L472.921 403.638L470.239 401.648C469.46 401.069 469.03 399.969 469.076 398.813C469.089 398.499 469.095 398.182 469.095 397.864C469.095 397.546 469.089 397.23 469.076 396.914C469.03 395.753 469.462 394.648 470.246 394.068L472.921 392.09L467.901 380.917L465.239 382.892C464.456 383.474 463.493 383.418 462.735 382.783C462.317 382.432 461.882 382.111 461.434 381.818C460.63 381.294 460.114 380.25 460.114 379.092V375.143H450.067V379.092C450.067 380.251 449.551 381.294 448.747 381.818C448.299 382.111 447.864 382.432 447.446 382.783C446.688 383.418 445.725 383.474 444.943 382.892L442.281 380.917L437.262 392.09L439.927 394.067ZM455.087 387.292C459.63 387.292 463.318 392.029 463.318 397.865C463.318 403.701 459.63 408.427 455.087 408.427C450.543 408.427 446.864 403.701 446.864 397.865C446.863 392.028 450.543 387.292 455.087 387.292Z" stroke="#EBEBEB" stroke-width="1.0365" stroke-miterlimit="10"/>
<path d="M316.556 19.5529C317.34 20.1342 317.771 21.2399 317.725 22.4006C317.713 22.7154 317.706 23.0321 317.706 23.3509C317.706 23.6727 317.713 23.9914 317.725 24.3072C317.771 25.4639 317.341 26.5655 316.56 27.1449L313.89 29.1236L318.909 40.2972L321.579 38.3195C322.362 37.7391 323.325 37.7962 324.083 38.4327C324.5 38.7826 324.932 39.1043 325.377 39.396C326.18 39.9213 326.696 40.9637 326.696 42.1205V46.0709H336.743V42.1205C336.743 40.9637 337.259 39.9213 338.062 39.396C338.507 39.1043 338.94 38.7826 339.356 38.4327C340.113 37.7962 341.077 37.7391 341.86 38.3195L344.529 40.2972L349.549 29.1236L346.867 27.1339C346.088 26.5555 345.659 25.4549 345.705 24.2991C345.717 23.9844 345.723 23.6676 345.723 23.3499C345.723 23.0321 345.717 22.7154 345.705 22.3996C345.659 21.2389 346.09 20.1332 346.874 19.5539L349.549 17.5762L344.529 6.40262L341.867 8.37832C341.084 8.9597 340.12 8.90357 339.363 8.26906C338.945 7.91822 338.51 7.59646 338.062 7.30377C337.259 6.77952 336.742 5.73604 336.742 4.57829V0.628906H326.696V4.57829C326.696 5.73704 326.178 6.77952 325.375 7.30377C324.927 7.59646 324.493 7.91822 324.074 8.26906C323.317 8.90357 322.354 8.9597 321.571 8.37832L318.909 6.40262L313.89 17.5762L316.556 19.5529ZM331.716 12.7778C336.259 12.7778 339.947 17.515 339.947 23.3509C339.947 29.1868 336.259 33.913 331.716 33.913C327.172 33.913 323.493 29.1868 323.493 23.3509C323.492 17.515 327.172 12.7778 331.716 12.7778Z" stroke="#EBEBEB" stroke-width="1.0365" stroke-miterlimit="10"/>
<path d="M22.647 448.087L83.2349 447.843L143.824 447.754L264.999 447.587L386.175 447.753L446.763 447.842L507.352 448.087L446.763 448.332L386.175 448.42L264.999 448.587L143.824 448.419L83.2349 448.331L22.647 448.087Z" fill="#263238"/>
<path d="M343.152 461.967H186.847V480H343.152V461.967Z" fill="#FFC727"/>
<path opacity="0.7" d="M343.152 461.967H186.847V480H343.152V461.967Z" fill="white"/>
<path d="M324.539 461.98H205.458L212.029 394.102H317.968L324.539 461.98Z" fill="#FFC727"/>
<g opacity="0.5">
<path d="M324.539 461.98H205.458L212.029 394.102H317.968L324.539 461.98Z" fill="white"/>
</g>
<g opacity="0.6">
<path d="M320.615 421.403L209.913 415.97L212.03 394.102H317.968L320.615 421.403Z" fill="#FFC727"/>
</g>
<path d="M461.118 28.9282H68.8809V405.449H461.118V28.9282Z" fill="#263238"/>
<path d="M461.118 349.911H68.8809V405.45H461.118V349.911Z" fill="#FFC727"/>
<path opacity="0.7" d="M461.118 349.911H68.8809V405.45H461.118V349.911Z" fill="white"/>
<path d="M442.611 53.4102H87.3882V323.791H442.611V53.4102Z" fill="white"/>
<path d="M442.611 53.4102H87.3882V323.791H442.611V53.4102Z" fill="white"/>
<path d="M442.611 53.4102H87.3882V65.6453H442.611V53.4102Z" fill="#A6A6A6"/>
<path d="M93.8985 59.5276C93.8985 60.6708 93.2274 61.5963 92.4002 61.5963C91.573 61.5963 90.9019 60.6697 90.9019 59.5276C90.9019 58.3856 91.573 57.459 92.4002 57.459C93.2274 57.459 93.8985 58.3845 93.8985 59.5276Z" fill="#C7C7C7"/>
<path d="M100.017 59.5276C100.017 60.6708 99.346 61.5963 98.5188 61.5963C97.6908 61.5963 97.0205 60.6697 97.0205 59.5276C97.0205 58.3856 97.6916 57.459 98.5188 57.459C99.346 57.459 100.017 58.3845 100.017 59.5276Z" fill="white"/>
<path d="M106.135 59.5276C106.135 60.6708 105.464 61.5963 104.636 61.5963C103.809 61.5963 103.138 60.6697 103.138 59.5276C103.138 58.3856 103.809 57.459 104.636 57.459C105.464 57.459 106.135 58.3845 106.135 59.5276Z" fill="#FFC727"/>
<path d="M442.611 65.645H436.153V323.79H442.611V65.645Z" fill="#DBDBDB"/>
<path d="M439.378 171.643C438.457 171.643 437.71 170.611 437.71 169.34V69.7385C437.71 68.466 438.457 67.436 439.378 67.436C440.299 67.436 441.046 68.4671 441.046 69.7385V169.34C441.047 170.611 440.3 171.643 439.378 171.643Z" fill="#A6A6A6"/>
<path d="M386.287 250.542C384.305 269.266 372.62 283.634 358.515 283.634C343.009 283.634 330.429 266.278 330.429 244.857C330.429 223.449 343.009 206.093 358.515 206.093V244.857L386.287 250.542Z" fill="#EBEBEB"/>
<path d="M392.311 236.962C392.311 238.896 392.206 240.791 392.006 242.647L364.234 236.962V198.198C374.65 198.198 383.752 206.04 388.603 217.685C390.967 223.37 392.311 229.962 392.311 236.962Z" fill="#DBDBDB"/>
<path d="M361.556 259.162H391.417" stroke="#C7C7C7" stroke-width="1.0066" stroke-miterlimit="10"/>
<path d="M393.51 262.051C392.354 262.051 391.417 260.757 391.417 259.162C391.417 257.566 392.354 256.272 393.51 256.272C394.666 256.272 395.603 257.566 395.603 259.162C395.603 260.757 394.666 262.051 393.51 262.051Z" stroke="#C7C7C7" stroke-width="1.0066" stroke-miterlimit="10"/>
<path d="M424.291 256.994H401.098V258.439H424.291V256.994Z" fill="#C7C7C7"/>
<path d="M414.227 259.884H401.098V261.329H414.227V259.884Z" fill="#C7C7C7"/>
<path d="M119.045 225.979H111.638V298.749H119.045V225.979Z" fill="#EBEBEB"/>
<path d="M131.775 243.593H124.368V298.749H131.775V243.593Z" fill="#EBEBEB"/>
<path d="M144.505 271.172H137.098V298.751H144.505V271.172Z" fill="#EBEBEB"/>
<path d="M157.236 255.419H149.829V298.749H157.236V255.419Z" fill="#EBEBEB"/>
<path d="M169.967 238.877H162.56V298.749H169.967V238.877Z" fill="#EBEBEB"/>
<path d="M182.698 229.149H175.291V298.749H182.698V229.149Z" fill="#EBEBEB"/>
<path d="M107.342 216.724L107.428 237.23L107.47 257.737L107.529 298.749L107.342 298.491C114.149 298.465 120.956 298.452 127.763 298.484L148.185 298.54L168.606 298.596L189.028 298.748L168.606 298.9L148.185 298.957L127.763 299.013C120.956 299.046 114.149 299.033 107.342 299.007L107.154 299.006V298.748L107.213 257.735L107.255 237.229L107.342 216.724Z" fill="#EBEBEB"/>
<path d="M105.708 220.837C106.253 220.609 106.797 220.557 107.342 220.547C107.887 220.556 108.432 220.608 108.976 220.837C108.432 221.067 107.887 221.118 107.342 221.127C106.797 221.117 106.253 221.066 105.708 220.837Z" fill="#EBEBEB"/>
<path d="M105.708 227.071C106.253 226.843 106.797 226.791 107.342 226.781C107.887 226.79 108.432 226.842 108.976 227.071C108.432 227.301 107.887 227.352 107.342 227.361C106.797 227.351 106.253 227.299 105.708 227.071Z" fill="#EBEBEB"/>
<path d="M105.708 233.305C106.253 233.077 106.797 233.025 107.342 233.015C107.887 233.024 108.432 233.075 108.976 233.305C108.432 233.534 107.887 233.586 107.342 233.595C106.797 233.585 106.253 233.533 105.708 233.305Z" fill="#EBEBEB"/>
<path d="M105.708 239.539C106.253 239.31 106.797 239.259 107.342 239.249C107.887 239.258 108.432 239.309 108.976 239.539C108.432 239.768 107.887 239.82 107.342 239.829C106.797 239.819 106.253 239.767 105.708 239.539Z" fill="#EBEBEB"/>
<path d="M105.708 245.773C106.253 245.544 106.797 245.493 107.342 245.483C107.887 245.492 108.432 245.543 108.976 245.773C108.432 246.002 107.887 246.054 107.342 246.063C106.797 246.053 106.253 246.001 105.708 245.773Z" fill="#EBEBEB"/>
<path d="M105.708 252.007C106.253 251.779 106.797 251.727 107.342 251.717C107.887 251.725 108.432 251.778 108.976 252.007C108.432 252.237 107.887 252.288 107.342 252.297C106.797 252.287 106.253 252.236 105.708 252.007Z" fill="#EBEBEB"/>
<path d="M105.708 258.241C106.253 258.013 106.797 257.961 107.342 257.951C107.887 257.96 108.432 258.012 108.976 258.241C108.432 258.47 107.887 258.522 107.342 258.531C106.797 258.521 106.253 258.468 105.708 258.241Z" fill="#EBEBEB"/>
<path d="M105.708 264.475C106.253 264.246 106.797 264.195 107.342 264.185C107.887 264.194 108.432 264.245 108.976 264.475C108.432 264.704 107.887 264.756 107.342 264.765C106.797 264.755 106.253 264.702 105.708 264.475Z" fill="#EBEBEB"/>
<path d="M105.708 270.709C106.253 270.48 106.797 270.429 107.342 270.419C107.887 270.428 108.432 270.479 108.976 270.709C108.432 270.938 107.887 270.99 107.342 270.999C106.797 270.989 106.253 270.936 105.708 270.709Z" fill="#EBEBEB"/>
<path d="M105.708 276.943C106.253 276.714 106.797 276.663 107.342 276.653C107.887 276.66 108.432 276.713 108.976 276.943C108.432 277.172 107.887 277.224 107.342 277.232C106.797 277.223 106.253 277.17 105.708 276.943Z" fill="#EBEBEB"/>
<path d="M105.708 283.177C106.253 282.948 106.797 282.896 107.342 282.887C107.887 282.894 108.432 282.947 108.976 283.177C108.432 283.406 107.887 283.458 107.342 283.466C106.797 283.457 106.253 283.404 105.708 283.177Z" fill="#EBEBEB"/>
<path d="M105.708 289.41C106.253 289.182 106.797 289.13 107.342 289.121C107.887 289.129 108.432 289.181 108.976 289.41C108.432 289.64 107.887 289.692 107.342 289.7C106.797 289.691 106.253 289.638 105.708 289.41Z" fill="#EBEBEB"/>
<path d="M35.8475 387.694C35.8593 387.71 34.1385 383.688 33.7015 378.587C33.096 373.516 33.7749 367.367 34.6895 363.797C36.567 356.474 41.0596 350.065 44.8741 347.11C48.8196 343.772 53.3786 342.94 56.351 345.046C59.3343 346.464 64.4138 350.054 64.4185 350.381C64.3467 349.78 60.366 350.313 57.5309 353.586C54.7934 355.44 48.4099 363.5 45.0208 366.86C41.5622 369.24 36.361 377.576 36.0653 381.287C35.5362 384.571 35.8429 387.701 35.8475 387.694Z" fill="#68F001"/>
<path opacity="0.1" d="M35.8475 387.694C35.8593 387.71 34.1385 383.688 33.7015 378.587C33.096 373.516 33.7749 367.367 34.6895 363.797C36.567 356.474 41.0596 350.065 44.8741 347.11C48.8196 343.772 53.3786 342.94 56.351 345.046C59.3343 346.464 64.4138 350.054 64.4185 350.381C64.3467 349.78 60.366 350.313 57.5309 353.586C54.7934 355.44 48.4099 363.5 45.0208 366.86C41.5622 369.24 36.361 377.576 36.0653 381.287C35.5362 384.571 35.8429 387.701 35.8475 387.694Z" fill="black"/>
<path d="M69.1612 392.847L68.6828 392.821C68.6867 392.716 69.0222 382.154 68.4385 371.579C67.6738 357.726 65.7135 350.142 62.7715 349.649L62.8331 349.039C70.4698 350.318 69.2181 391.11 69.1612 392.847Z" fill="#68F001"/>
<path opacity="0.1" d="M69.1612 392.847L68.6828 392.821C68.6867 392.716 69.0222 382.154 68.4385 371.579C67.6738 357.726 65.7135 350.142 62.7715 349.649L62.8331 349.039C70.4698 350.318 69.2181 391.11 69.1612 392.847Z" fill="black"/>
<g opacity="0.2">
<path d="M61.5399 349.033C55.5544 346.706 51.5355 345.968 46.588 351.679C42.5558 356.061 38.3559 360.904 36.7147 367.555C35.4404 371.852 34.9784 376.467 34.8879 381.066C34.8496 376.456 35.2211 371.796 36.4549 367.435C38.0445 360.675 42.2749 355.721 46.403 351.379C51.4645 345.691 55.5505 346.376 61.5399 349.033Z" fill="black"/>
<path d="M42.3847 356.256C42.0351 361.839 40.589 367.214 38.3096 371.971C40.1505 366.934 41.5583 361.723 42.3847 356.256Z" fill="black"/>
<path d="M49.5679 348.738C46.7414 349.87 43.8337 351.003 41.2538 352.878C39.8039 354.216 38.4827 355.793 37.1147 357.278C38.347 355.584 39.6104 353.919 41.0681 352.533C43.6566 350.554 46.629 349.463 49.5679 348.738Z" fill="black"/>
<path d="M54.2243 347.313C53.1498 349.409 51.2184 350.635 50.0619 352.555C49.1988 354.483 48.004 357.206 47.0605 359.039C47.8901 356.738 48.8 354.521 49.763 352.299C51.0428 350.257 52.8735 349.239 54.2243 347.313Z" fill="black"/>
</g>
<path d="M66.317 349.032C66.317 349.032 65.489 333.67 64.1975 327.287C62.906 320.903 59.5216 314.718 55.5971 309.731C51.6718 304.743 46.249 298.56 42.6328 297.562C39.0173 296.565 32.8188 290.779 32.8188 290.779C32.8188 290.779 37.7258 307.338 40.9542 314.719C44.1826 322.101 50.7681 334.669 54.2548 336.265C57.7415 337.861 63.1651 342.65 64.3271 344.844C65.489 347.037 66.317 349.032 66.317 349.032Z" fill="#68F001"/>
<path opacity="0.1" d="M66.317 349.032C66.317 349.032 65.489 333.67 64.1975 327.287C62.906 320.903 59.5216 314.718 55.5971 309.731C51.6718 304.743 46.249 298.56 42.6328 297.562C39.0173 296.565 32.8188 290.779 32.8188 290.779C32.8188 290.779 37.7258 307.338 40.9542 314.719C44.1826 322.101 50.7681 334.669 54.2548 336.265C57.7415 337.861 63.1651 342.65 64.3271 344.844C65.489 347.037 66.317 349.032 66.317 349.032Z" fill="black"/>
<path d="M67.3902 392.839C67.384 392.411 66.6933 349.911 65.1201 343.2L65.5782 343.022C67.1709 349.814 67.8413 391.074 67.8694 392.827L67.3902 392.839Z" fill="#68F001"/>
<path opacity="0.1" d="M67.3902 392.839C67.384 392.411 66.6933 349.911 65.1201 343.2L65.5782 343.022C67.1709 349.814 67.8413 391.074 67.8694 392.827L67.3902 392.839Z" fill="black"/>
<g opacity="0.2">
<path d="M36.1606 294.917C40.1265 300.717 45.1255 305.176 49.1632 310.875C53.0705 316.721 56.9723 322.636 60.1742 329.164C62.1423 333.657 63.6905 338.408 65.1202 343.201C63.575 338.478 61.937 333.775 59.9354 329.342C56.6914 322.908 52.7654 317.012 48.94 311.128C44.95 305.393 39.9712 300.892 36.1606 294.917Z" fill="black"/>
<path d="M48.4121 326.847C50.6174 328.317 52.8282 329.812 55.1444 330.955C57.4199 332.113 60.1067 332.329 62.1123 334.311C59.9405 332.644 57.3598 332.528 55.0172 331.385C52.6917 330.184 50.4848 328.648 48.4121 326.847Z" fill="black"/>
<path d="M57.4028 313.205C58.7178 315.738 59.4521 318.682 60.2161 321.543C61.0589 324.417 61.0214 327.571 60.6648 330.579C60.7225 327.545 60.7498 324.552 59.8743 321.681C59.1477 318.818 58.461 315.901 57.4028 313.205Z" fill="black"/>
<path d="M41.4648 309.429C44.9835 311.939 48.9587 313.844 52.5141 316.279C48.7137 314.39 44.7853 312.502 41.4648 309.429Z" fill="black"/>
<path d="M53.876 308.794C54.867 311.515 55.7301 314.304 56.6042 317.087C57.5273 319.895 58.2211 322.732 58.271 325.804C57.9433 322.859 57.205 319.964 56.2678 317.248C55.4352 314.448 54.5916 311.656 53.876 308.794Z" fill="black"/>
</g>
<path d="M71.2661 347.265C71.2161 347.619 73.1842 330.885 75.8492 323.938C78.3791 316.651 83.8979 311.691 87.6929 310.948C91.6345 310.273 95.3904 308.323 98.5892 308.174C101.491 308.161 108.228 304.345 108.197 305.192C108.451 303.661 101.646 318.202 97.3187 321.327C95.2328 323.358 92.4375 324.097 89.9356 325.591C87.4104 326.919 85.1793 329 83.6818 329.899C80.9286 330.576 75.0282 338.856 73.5963 342.057C72.2119 345.143 71.2661 347.288 71.2661 347.265Z" fill="#68F001"/>
<path opacity="0.1" d="M71.2661 347.265C71.2161 347.619 73.1842 330.885 75.8492 323.938C78.3791 316.651 83.8979 311.691 87.6929 310.948C91.6345 310.273 95.3904 308.323 98.5892 308.174C101.491 308.161 108.228 304.345 108.197 305.192C108.451 303.661 101.646 318.202 97.3187 321.327C95.2328 323.358 92.4375 324.097 89.9356 325.591C87.4104 326.919 85.1793 329 83.6818 329.899C80.9286 330.576 75.0282 338.856 73.5963 342.057C72.2119 345.143 71.2661 347.288 71.2661 347.265Z" fill="black"/>
<path d="M69.7502 392.844C69.7065 391.147 68.7256 351.146 72.6056 340.237L73.041 340.492C69.2071 351.269 70.2176 392.409 70.2286 392.823L69.7502 392.844Z" fill="#68F001"/>
<path opacity="0.1" d="M69.7502 392.844C69.7065 391.147 68.7256 351.146 72.6056 340.237L73.041 340.492C69.2071 351.269 70.2176 392.409 70.2286 392.823L69.7502 392.844Z" fill="black"/>
<g opacity="0.2">
<path d="M73.2915 337.952C74.7633 333.674 75.9533 329.216 77.9175 325.215C80.0596 321.373 83.1078 318.483 86.3401 316.304C89.6738 314.395 93.4016 313.912 96.8095 312.214C100.229 310.681 103.678 308.936 106.542 306.021C101.557 311.233 95.1387 313.492 89.0144 315.493C84.7559 317.185 80.8182 320.848 78.1157 325.383C76.3646 328.788 74.6915 334.244 73.2915 337.952Z" fill="black"/>
<path d="M77.7627 325.803C80.7741 324.868 83.5874 322.881 86.7588 322.839C89.4355 322.787 93.2835 322.198 95.9882 321.892C92.9386 322.615 89.8694 323.161 86.7635 323.3C83.6607 323.288 80.8054 325.243 77.7627 325.803Z" fill="black"/>
<path d="M83.5771 318.34C84.7243 316.312 86.1672 314.55 87.8427 313.202C89.5798 312.038 91.4136 311.183 93.2436 310.296C91.558 311.507 89.7038 312.427 88.0253 313.598C86.3701 314.868 84.9319 316.574 83.5771 318.34Z" fill="black"/>
<path d="M80.2974 321.987C80.9123 319.627 81.6778 317.251 83.0341 315.41C84.4396 313.671 86.0229 312.223 87.6929 310.948C86.3819 312.337 84.456 314.196 83.2893 315.733C81.9525 317.475 81.1628 319.816 80.2974 321.987Z" fill="black"/>
<path d="M91.5732 314.318C95.1489 314.078 98.8557 313.413 102.433 313.205C98.865 314.043 95.2027 314.693 91.5732 314.318Z" fill="black"/>
</g>
<path d="M78.64 338.737C76.7983 339.475 73.9695 342.771 71.9234 345.568C69.8772 348.366 67.0406 358.255 66.787 360.728C66.5341 363.201 65.8755 369.707 65.8755 369.707C65.8755 369.707 70.8246 337.056 88.0021 340.624C88.0021 340.624 84.9719 336.2 78.64 338.737Z" fill="#68F001"/>
<path opacity="0.4" d="M78.64 338.737C76.7983 339.475 73.9695 342.771 71.9234 345.568C69.8772 348.366 67.0406 358.255 66.787 360.728C66.5341 363.201 65.8755 369.707 65.8755 369.707C65.8755 369.707 70.8246 337.056 88.0021 340.624C88.0021 340.624 84.9719 336.2 78.64 338.737Z" fill="black"/>
<path d="M78.6399 338.738C78.4159 338.78 85.5797 333.077 87.352 332.101C89.125 331.125 94.3425 331.906 96.8241 333.012C99.3057 334.119 103.207 339.584 103.764 341.34C104.321 343.097 107.065 345.974 108.272 347.716C113.28 354.944 106.491 375.986 106.491 375.986C106.491 375.986 107.738 361.819 103.945 356.789C100.913 352.769 99.2557 351.425 95.5076 348.888C91.7595 346.35 89.3279 336.721 78.6399 338.738Z" fill="#68F001"/>
<path opacity="0.1" d="M78.6399 338.738C78.4159 338.78 85.5797 333.077 87.352 332.101C89.125 331.125 94.3425 331.906 96.8241 333.012C99.3057 334.119 103.207 339.584 103.764 341.34C104.321 343.097 107.065 345.974 108.272 347.716C113.28 354.944 106.491 375.986 106.491 375.986C106.491 375.986 107.738 361.819 103.945 356.789C100.913 352.769 99.2557 351.425 95.5076 348.888C91.7595 346.35 89.3279 336.721 78.6399 338.738Z" fill="black"/>
<g opacity="0.2">
<path d="M81 336.779C82.7878 336.155 84.5967 335.622 86.4236 335.206C88.2551 334.892 90.1475 334.328 91.9845 334.953C94.6182 336.089 97.2013 337.954 98.9415 340.775C100.757 343.471 102.762 345.919 104.806 348.341C106.16 349.97 107.43 351.929 107.817 354.33C108.436 359.039 108.363 363.883 107.739 368.575C108.26 363.9 108.228 359.036 107.577 354.399C107.166 352.091 105.921 350.238 104.587 348.636C102.544 346.228 100.474 343.795 98.6832 341.054C96.9952 338.247 94.4825 336.41 91.9166 335.251C90.1514 334.621 88.2442 335.151 86.4532 335.433C84.6225 335.78 82.8027 336.23 81 336.779Z" fill="black"/>
<path d="M102.961 346.423C104.146 350.527 105.918 354.33 106.543 358.685C105.881 356.683 105.358 354.582 104.686 352.597C103.927 350.662 103.267 348.571 102.961 346.423Z" fill="black"/>
<path d="M92.144 335.181C94.0716 335.215 96.0771 335.15 97.9406 335.963C99.0292 336.529 100.054 337.238 101.081 337.953C99.5997 337.379 98.2536 336.358 96.7295 336.012C95.2327 335.612 93.6728 335.567 92.144 335.181Z" fill="black"/>
<path d="M87.6953 335.085C89.2912 334.456 90.7824 333.333 92.5008 333.311C94.1716 333.351 95.8962 333.705 97.3407 334.819C95.808 334.064 94.1373 333.766 92.5102 333.771C90.8457 333.742 89.3341 334.831 87.6953 335.085Z" fill="black"/>
</g>
<path d="M65.3985 392.842C65.3766 391.824 64.8912 367.821 67.2799 359.039L67.731 359.241C65.3719 367.918 65.8714 392.576 65.8768 392.825L65.3985 392.842Z" fill="#68F001"/>
<path opacity="0.4" d="M65.3985 392.842C65.3766 391.824 64.8912 367.821 67.2799 359.039L67.731 359.241C65.3719 367.918 65.8714 392.576 65.8768 392.825L65.3985 392.842Z" fill="black"/>
<path d="M44.7849 283.478C39.2599 283.452 37.3862 285.463 34.8079 283.76C32.2303 282.058 27.4162 272.237 25.3779 271.803C23.3396 271.369 19.188 271.544 19.188 271.544C19.188 271.544 29.2969 268.511 31.7956 270.098C34.2944 271.684 37.9418 275.566 42.4438 277.197C46.9457 278.829 56.5599 278.244 59.9693 284.698L44.7849 283.478Z" fill="#68F001"/>
<path opacity="0.1" d="M44.7849 283.478C39.2599 283.452 37.3862 285.463 34.8079 283.76C32.2303 282.058 27.4162 272.237 25.3779 271.803C23.3396 271.369 19.188 271.544 19.188 271.544C19.188 271.544 29.2969 268.511 31.7956 270.098C34.2944 271.684 37.9418 275.566 42.4438 277.197C46.9457 278.829 56.5599 278.244 59.9693 284.698L44.7849 283.478Z" fill="black"/>
<path d="M67.4903 326.847C66.7271 320.825 61.1014 303.097 59.9082 298.07C58.7143 293.043 47.2249 283.766 44.7847 283.478C44.7847 283.478 52.6617 283.925 57.0669 282.957C61.4713 281.989 67.7588 284.065 69.9485 292.37C72.139 300.675 68.9348 312.529 68.4182 315.871C67.9023 319.213 67.4903 326.847 67.4903 326.847Z" fill="#68F001"/>
<path opacity="0.4" d="M67.4903 326.847C66.7271 320.825 61.1014 303.097 59.9082 298.07C58.7143 293.043 47.2249 283.766 44.7847 283.478C44.7847 283.478 52.6617 283.925 57.0669 282.957C61.4713 281.989 67.7588 284.065 69.9485 292.37C72.139 300.675 68.9348 312.529 68.4182 315.871C67.9023 319.213 67.4903 326.847 67.4903 326.847Z" fill="black"/>
<path d="M68.0041 392.834C68.0026 392.195 67.8559 328.801 66.6533 318.43L67.1262 318.34C68.335 328.754 68.4817 392.192 68.4825 392.832L68.0041 392.834Z" fill="#68F001"/>
<path opacity="0.4" d="M68.0041 392.834C68.0026 392.195 67.8559 328.801 66.6533 318.43L67.1262 318.34C68.335 328.754 68.4817 392.192 68.4825 392.832L68.0041 392.834Z" fill="black"/>
<g opacity="0.2">
<path d="M24.9429 270.902C32.8714 270.175 30.5498 273.548 36.3371 277.302C37.6091 278.12 38.9607 278.775 40.3614 278.952C44.662 279.526 49.0071 279.997 53.2563 281.117C54.6648 281.524 56.0945 281.936 57.4031 282.737C56.0547 282.065 54.6328 281.719 53.2133 281.412C48.9377 280.504 44.6277 280.096 40.3099 279.563C38.8288 279.354 37.4358 278.653 36.1396 277.799C34.0716 276.523 32.6162 274.675 31.125 272.505C29.3933 270.763 27.0304 271.064 24.9429 270.902Z" fill="black"/>
</g>
<path d="M72.6587 329.491C73.4079 326.242 73.4937 304.214 72.711 295.312C71.9275 286.411 70.1686 280.734 74.8882 271.651C79.6071 262.568 86.7031 255.605 87.9704 251.434C89.2377 247.263 89.2104 244.223 92.1274 242.78C95.0444 241.335 96.3492 242.36 98.0762 239.315C99.8031 236.272 102.246 235.069 105.176 233.43C108.106 231.792 107.722 230.672 107.722 230.672C107.722 230.672 106.663 239.763 104.986 247.808C103.31 255.852 95.4549 278.893 89.3165 287.527C83.1781 296.161 72.6587 329.491 72.6587 329.491Z" fill="#68F001"/>
<path opacity="0.1" d="M72.6587 329.491C73.4079 326.242 73.4937 304.214 72.711 295.312C71.9275 286.411 70.1686 280.734 74.8882 271.651C79.6071 262.568 86.7031 255.605 87.9704 251.434C89.2377 247.263 89.2104 244.223 92.1274 242.78C95.0444 241.335 96.3492 242.36 98.0762 239.315C99.8031 236.272 102.246 235.069 105.176 233.43C108.106 231.792 107.722 230.672 107.722 230.672C107.722 230.672 106.663 239.763 104.986 247.808C103.31 255.852 95.4549 278.893 89.3165 287.527C83.1781 296.161 72.6587 329.491 72.6587 329.491Z" fill="black"/>
<path d="M68.2666 354.999C68.5413 351.372 75.1401 314.918 86.4032 292.691C86.4032 292.691 73.1018 306.031 70.9971 313.767C68.8917 321.504 68.2666 354.999 68.2666 354.999Z" fill="#68F001"/>
<path opacity="0.4" d="M68.2666 354.999C68.5413 351.372 75.1401 314.918 86.4032 292.691C86.4032 292.691 73.1018 306.031 70.9971 313.767C68.8917 321.504 68.2666 354.999 68.2666 354.999Z" fill="black"/>
<g opacity="0.2">
<path d="M73.2925 308.794C74.1556 305.724 74.6706 300.845 75.1669 297.589C76.0043 291.949 76.6559 286.245 77.9458 280.733C78.3579 278.845 79.2974 277.259 80.1909 275.746C82.9246 271.195 85.9033 266.92 88.6431 262.386C89.5866 260.861 90.342 259.33 91.0256 257.568C92.7151 254.378 94.78 251.614 96.7301 248.704C100.601 242.92 104.78 237.343 107.721 230.672C104.896 237.433 100.766 243.105 96.9096 248.905C94.9922 251.803 92.9258 254.616 91.2792 257.77C90.6456 259.45 89.8184 261.153 88.9053 262.641C86.206 267.218 83.1743 271.461 80.4266 275.978C79.5214 277.49 78.6076 279.011 78.1994 280.841C76.0152 289.83 75.5197 299.862 73.2925 308.794Z" fill="black"/>
<path d="M76.9385 284.698C77.0797 280.236 77.5183 275.789 78.3385 271.442C79.3522 267.146 81.4982 263.454 83.4179 259.763C81.7534 263.613 79.6643 267.308 78.6857 271.556C77.8398 275.865 77.3591 280.284 76.9385 284.698Z" fill="black"/>
<path d="M75.6421 294.918C79.5556 291.318 83.8204 288.201 87.4421 284.141C90.338 280.277 93.9347 273.961 96.6114 269.734C93.7802 274.786 91.006 279.916 87.6894 284.474C84.0084 288.558 79.7359 291.592 75.6421 294.918Z" fill="black"/>
<path d="M89.9185 260.487C92.8722 259.337 95.4427 256.945 98.0406 254.864C100.756 252.884 102.71 249.761 104.714 246.75C102.929 250.014 100.962 253.207 98.2372 255.249C95.6159 257.295 92.9658 259.69 89.9185 260.487Z" fill="black"/>
<path d="M91.9751 256.168C94.1781 254.914 96.9499 252.091 98.9953 250.394C101.389 248.566 103.307 245.916 105.378 243.549C103.5 246.198 101.593 248.891 99.1943 250.777C96.8477 252.675 94.6166 254.989 91.9751 256.168Z" fill="black"/>
</g>
<path d="M67.2528 392.841L66.7744 392.825C66.7822 392.43 67.5704 353.237 69.0812 344.312L69.5486 344.442C68.048 353.311 67.2606 392.447 67.2528 392.841Z" fill="#68F001"/>
<path opacity="0.4" d="M67.2528 392.841L66.7744 392.825C66.7822 392.43 67.5704 353.237 69.0812 344.312L69.5486 344.442C68.048 353.311 67.2606 392.447 67.2528 392.841Z" fill="black"/>
<path d="M50.7725 395.772L51.6215 408.813L54.224 448.587H82.0981L84.7006 408.813L85.5497 395.772H50.7725Z" fill="#455A64"/>
<path opacity="0.1" d="M50.7725 395.772L51.6215 408.813L84.8856 405.97L85.5497 395.772H50.7725Z" fill="black"/>
<path d="M84.5589 410.962L84.3053 414.833H52.0151L51.7607 410.962H84.5589Z" fill="#68F001"/>
<path d="M82.8026 437.83L82.5482 441.7H53.7744L53.52 437.83H82.8026Z" fill="#68F001"/>
<path d="M84.0749 418.349L77.9248 426.27L83.1205 432.96L83.3936 428.756L81.4622 426.27L83.7487 423.326L84.0749 418.349Z" fill="#37474F"/>
<path d="M83.7499 423.326L83.3948 428.756L81.4634 426.27L83.7499 423.326Z" fill="#68F001"/>
<path d="M68.1863 418.297L61.9956 426.27L68.1863 434.243L74.3809 426.27L68.1863 418.297ZM65.533 426.27L68.1855 422.854L70.8403 426.27L68.1855 429.686L65.533 426.27Z" fill="#37474F"/>
<path d="M70.841 426.27L68.1862 429.686L65.5337 426.27L68.1862 422.854L70.841 426.27Z" fill="#68F001"/>
<path d="M52.2569 418.297L52.2437 418.316L52.5667 423.255L54.9117 426.27L52.9312 428.818L53.2066 433.022L58.4523 426.271L52.2569 418.297Z" fill="#37474F"/>
<path d="M54.9114 426.27L52.9301 428.818L52.5664 423.254L54.9114 426.27Z" fill="#68F001"/>
<path d="M62.8774 420.107L60.2218 423.524L57.5693 420.107L60.2218 416.691L62.8774 420.107Z" fill="#68F001"/>
<path d="M78.8066 420.107L76.1518 423.524L73.4985 420.107L76.1518 416.691L78.8066 420.107Z" fill="#68F001"/>
<path d="M62.8774 432.432L60.2218 435.848L57.5693 432.432L60.2218 429.015L62.8774 432.432Z" fill="#68F001"/>
<path d="M78.8066 432.432L76.1518 435.848L73.4985 432.432L76.1518 429.015L78.8066 432.432Z" fill="#68F001"/>
<path d="M49.0586 404.075H87.2632V389.803H49.0586V404.075Z" fill="#455A64"/>
<path opacity="0.1" d="M54.2241 448.588L78.5014 439.766L82.0607 404.074L85.9212 400.841L86.2006 389.802H87.2634V404.074H84.9769L82.0982 448.588H54.2241Z" fill="black"/>
<path d="M480.086 113.909C484.662 120.933 485.469 130.403 482.797 138.251L473.246 123.588L465.189 127.43L460.822 136.937L470.379 151.61C463.88 153.603 456.773 150.904 452.198 143.879C445.759 133.993 446.772 119.26 454.476 110.982C462.172 102.712 473.648 104.023 480.086 113.909Z" fill="#455A64"/>
<path d="M383.454 38.3399C378.878 31.3152 378.071 21.8457 380.744 13.997L390.295 28.6609L398.352 24.8187L402.718 15.3111L393.161 0.638286C399.66 -1.35445 406.767 1.34497 411.343 8.36966C417.782 18.2551 416.769 32.9881 409.065 41.2668C401.369 49.5365 389.893 48.2263 383.454 38.3399Z" fill="#455A64"/>
<path d="M407.955 23.321L395.532 36.6719L455.618 128.923L468.042 115.573L407.955 23.321Z" fill="#455A64"/>
<path opacity="0.2" d="M416.355 44.9219L410.604 51.1021L447.217 107.313L452.968 101.133L416.355 44.9219Z" fill="black"/>
<path d="M493.618 31.5451C496.152 28.8477 496.504 24.0212 494.403 20.7665L487.074 9.40752C484.974 6.15279 481.216 5.70071 478.682 8.39812L431.5 58.6194L446.436 81.7664L493.618 31.5451Z" fill="#FFC727"/>
<path opacity="0.5" d="M486.57 11.9644C484.707 9.31612 481.36 8.82596 479.184 11.0011L472.853 18.0629C464.352 27.4743 455.714 36.6731 446.934 45.6545C442.552 50.1551 438.107 54.5596 433.601 58.8699C446.014 44.2491 458.961 30.4183 472.108 16.9092C474.318 14.6608 476.469 12.4385 478.768 10.2283C481.246 8.1273 484.86 8.88109 486.57 11.9644Z" fill="white"/>
<path d="M429.12 67.5476L439.186 83.1475L444.005 78.0171L433.939 62.4173L429.12 67.5476Z" fill="#FFC727"/>
<path opacity="0.2" d="M429.12 67.5476L439.186 83.1475L444.005 78.0171L433.939 62.4173L429.12 67.5476Z" fill="black"/>
<path d="M388.445 119.776L391.641 124.729L435.749 77.7772L432.553 72.8244L388.445 119.776Z" fill="#C7C7C7"/>
<path d="M382.268 122.135C382.268 122.135 376.251 133.665 376.463 133.993L377.52 135.632C377.54 135.662 377.54 135.662 377.54 135.662L378.597 137.301C378.809 137.629 388.746 132.174 388.746 132.174L391.638 124.773L388.467 119.858L382.268 122.135Z" fill="#C7C7C7"/>
<g opacity="0.1">
<path d="M448.361 71.4508L448.66 71.9149C449.24 72.8141 450.278 72.9384 450.978 72.1936L489.416 31.2824C490.116 30.5376 490.213 29.2044 489.633 28.3053L489.333 27.8412C488.753 26.9421 487.715 26.8178 487.015 27.5625L448.578 68.4737C447.878 69.2185 447.781 70.5517 448.361 71.4508Z" fill="black"/>
<path d="M443.904 64.5431L444.203 65.0072C444.783 65.9063 445.821 66.0306 446.521 65.2859L484.959 24.3747C485.659 23.6289 485.756 22.2967 485.176 21.3976L484.876 20.9335C484.295 20.0344 483.258 19.9101 482.558 20.6548L444.121 61.566C443.421 62.3108 443.324 63.644 443.904 64.5431Z" fill="black"/>
<path d="M439.449 57.6398L439.749 58.1039C440.329 59.003 441.367 59.1273 442.067 58.3826L480.504 17.4713C481.204 16.7266 481.301 15.3934 480.721 14.4943L480.422 14.0302C479.842 13.131 478.804 13.0067 478.104 13.7515L439.666 54.6627C438.967 55.4075 438.869 56.7406 439.449 57.6398Z" fill="black"/>
</g>
<path opacity="0.1" d="M493.618 31.548L446.438 81.7693L442.423 75.5425L489.701 25.5427C491.997 23.114 492.59 19.0553 491.269 15.9028L494.406 20.7704C496.5 24.0201 496.154 28.8496 493.618 31.548Z" fill="black"/>
<path d="M455.103 247.174C440.436 247.174 428.511 262.498 428.511 281.331C428.511 300.164 440.436 315.481 455.103 315.481C469.754 315.481 481.679 300.164 481.679 281.331C481.679 262.498 469.754 247.174 455.103 247.174ZM455.103 308.213C443.527 308.213 434.164 296.179 434.164 281.33C434.164 266.475 443.528 254.44 455.103 254.44C466.658 254.44 476.021 266.473 476.021 281.33C476.021 296.179 466.657 308.213 455.103 308.213ZM455.103 247.174C440.436 247.174 428.511 262.498 428.511 281.331C428.511 300.164 440.436 315.481 455.103 315.481C469.754 315.481 481.679 300.164 481.679 281.331C481.679 262.498 469.754 247.174 455.103 247.174ZM455.103 308.213C443.527 308.213 434.164 296.179 434.164 281.33C434.164 266.475 443.528 254.44 455.103 254.44C466.658 254.44 476.021 266.473 476.021 281.33C476.021 296.179 466.657 308.213 455.103 308.213ZM455.103 223.751C430.343 223.751 410.276 249.532 410.276 281.331C410.276 313.122 430.342 338.897 455.103 338.897C479.842 338.897 499.914 313.122 499.914 281.331C499.914 249.532 479.842 223.751 455.103 223.751ZM455.103 318.758C439.034 318.758 425.955 301.972 425.955 281.33C425.955 260.695 439.034 243.895 455.103 243.895C471.162 243.895 484.23 260.695 484.23 281.33C484.23 301.972 471.162 318.758 455.103 318.758ZM455.103 247.174C440.436 247.174 428.511 262.498 428.511 281.331C428.511 300.164 440.436 315.481 455.103 315.481C469.754 315.481 481.679 300.164 481.679 281.331C481.679 262.498 469.754 247.174 455.103 247.174ZM455.103 308.213C443.527 308.213 434.164 296.179 434.164 281.33C434.164 266.475 443.528 254.44 455.103 254.44C466.658 254.44 476.021 266.473 476.021 281.33C476.021 296.179 466.657 308.213 455.103 308.213Z" fill="#FFC727"/>
<path d="M460.357 224.797H450.094L451.117 211.639H459.335L460.357 224.797Z" fill="#FFC727"/>
<path d="M437.646 228.991L428.759 235.582L424.522 223.531L431.64 218.252L437.646 228.991Z" fill="#FFC727"/>
<path d="M419.611 247.207L414.48 258.623L406.12 250.908L410.229 241.765L419.611 247.207Z" fill="#FFC727"/>
<path d="M411.083 274.566V287.748L400.84 286.436V275.879L411.083 274.566Z" fill="#FFC727"/>
<path d="M414.348 303.737L419.479 315.153L410.097 320.595L405.988 311.452L414.348 303.737Z" fill="#FFC727"/>
<path d="M428.53 326.903L437.417 333.495L431.411 344.233L424.293 338.955L428.53 326.903Z" fill="#FFC727"/>
<path d="M449.83 337.858H460.091L459.07 351.015H450.851L449.83 337.858Z" fill="#FFC727"/>
<path d="M472.54 333.664L481.427 327.074L485.664 339.125L478.546 344.403L472.54 333.664Z" fill="#FFC727"/>
<path d="M490.576 315.448L495.707 304.032L504.067 311.747L499.957 320.89L490.576 315.448Z" fill="#FFC727"/>
<path d="M499.103 288.089V274.906L509.346 276.219V286.775L499.103 288.089Z" fill="#FFC727"/>
<path d="M495.839 258.918L490.708 247.501L500.09 242.06L504.199 251.202L495.839 258.918Z" fill="#FFC727"/>
<path d="M481.656 235.752L472.769 229.161L478.775 218.422L485.893 223.701L481.656 235.752Z" fill="#FFC727"/>
<path d="M167.536 25.5645C151.82 25.5645 139.081 41.9283 139.081 62.1153C139.081 82.2942 151.82 98.6591 167.536 98.6591C183.246 98.6591 195.986 82.2952 195.986 62.1153C195.985 41.9283 183.246 25.5645 167.536 25.5645ZM167.536 79.1788C160.192 79.1788 154.245 71.5407 154.245 62.1153C154.245 52.6819 160.192 45.0437 167.536 45.0437C174.874 45.0437 180.82 52.6819 180.82 62.1153C180.819 71.5407 174.873 79.1788 167.536 79.1788Z" fill="#455A64"/>
<path d="M173.003 27.0829H162.062L162.667 17.1343H172.398L173.003 27.0829Z" fill="#455A64"/>
<path d="M152.178 31.8184L144.441 41.756L139.393 34.172L146.274 25.333L152.178 31.8184Z" fill="#455A64"/>
<path d="M140.059 54.0801V68.1345L132.315 67.3576V54.8579L140.059 54.0801Z" fill="#455A64"/>
<path d="M143.745 80.8296L151.482 90.7672L145.578 97.2526L138.697 88.4136L143.745 80.8296Z" fill="#455A64"/>
<path d="M161.077 96.3965H172.018L171.413 106.344H161.682L161.077 96.3965Z" fill="#455A64"/>
<path d="M181.902 91.6612L189.639 81.7236L194.687 89.3077L187.807 98.1467L181.902 91.6612Z" fill="#455A64"/>
<path d="M194.021 69.3986V55.3452L201.766 56.1221V68.6218L194.021 69.3986Z" fill="#455A64"/>
<path d="M190.335 42.6491L182.599 32.7125L188.503 26.2271L195.383 35.0661L190.335 42.6491Z" fill="#455A64"/>
<path d="M43.8688 233.461C33.5094 233.461 25.1118 244.248 25.1118 257.555C25.1118 270.856 33.5094 281.643 43.8688 281.643C54.2243 281.643 62.6219 270.856 62.6219 257.555C62.6219 244.248 54.2243 233.461 43.8688 233.461ZM43.8688 268.802C39.0282 268.802 35.1084 263.767 35.1084 257.555C35.1084 251.337 39.0282 246.302 43.8688 246.302C48.7055 246.302 52.6253 251.337 52.6253 257.555C52.6253 263.767 48.7055 268.802 43.8688 268.802Z" fill="#455A64"/>
<path d="M47.4724 234.462H40.2603L40.659 227.904H47.0737L47.4724 234.462Z" fill="#455A64"/>
<path d="M33.7459 237.584L28.6461 244.134L25.3179 239.135L29.8542 233.31L33.7459 237.584Z" fill="#455A64"/>
<path d="M25.757 252.258V261.522L20.6519 261.01V252.77L25.757 252.258Z" fill="#455A64"/>
<path d="M28.1872 269.891L33.2869 276.441L29.3952 280.715L24.8589 274.89L28.1872 269.891Z" fill="#455A64"/>
<path d="M39.6118 280.151H46.824L46.4252 286.709H40.0106L39.6118 280.151Z" fill="#455A64"/>
<path d="M53.3389 277.031L58.4378 270.48L61.7661 275.479L57.2306 281.305L53.3389 277.031Z" fill="#455A64"/>
<path d="M61.3276 262.356V253.092L66.4328 253.605V261.843L61.3276 262.356Z" fill="#455A64"/>
<path d="M58.8976 244.724L53.7979 238.173L57.6903 233.898L62.2258 239.725L58.8976 244.724Z" fill="#455A64"/>
<path d="M397.751 333.1C387.391 333.1 378.994 343.886 378.994 357.193C378.994 370.494 387.391 381.281 397.751 381.281C408.106 381.281 416.504 370.494 416.504 357.193C416.504 343.886 408.106 333.1 397.751 333.1ZM397.751 368.441C392.91 368.441 388.99 363.406 388.99 357.193C388.99 350.975 392.91 345.94 397.751 345.94C402.587 345.94 406.507 350.975 406.507 357.193C406.507 363.406 402.587 368.441 397.751 368.441Z" fill="#455A64"/>
<path d="M401.355 334.1H394.143L394.541 327.542H400.956L401.355 334.1Z" fill="#455A64"/>
<path d="M387.627 337.221L382.528 343.772L379.2 338.773L383.736 332.947L387.627 337.221Z" fill="#455A64"/>
<path d="M379.639 351.896V361.16L374.534 360.648V352.408L379.639 351.896Z" fill="#455A64"/>
<path d="M382.068 369.529L387.168 376.079L383.276 380.354L378.741 374.528L382.068 369.529Z" fill="#455A64"/>
<path d="M393.493 379.789H400.705L400.307 386.347H393.892L393.493 379.789Z" fill="#455A64"/>
<path d="M407.221 376.669L412.32 370.118L415.648 375.117L411.112 380.943L407.221 376.669Z" fill="#455A64"/>
<path d="M415.209 361.994V352.729L420.314 353.242V361.481L415.209 361.994Z" fill="#455A64"/>
<path d="M412.779 344.361L407.68 337.81L411.571 333.535L416.107 339.362L412.779 344.361Z" fill="#455A64"/>
<path d="M130.755 82.8857H54.46V180.887H130.755V82.8857Z" fill="#FFC727"/>
<path d="M71.6988 73.4053H66.0786V82.8858H71.6988V73.4053Z" fill="#FFC727"/>
<path d="M87.5109 73.4053H81.8906V82.8858H87.5109V73.4053Z" fill="#FFC727"/>
<path d="M103.323 73.4053H97.7031V82.8858H103.323V73.4053Z" fill="#FFC727"/>
<path d="M119.135 73.4053H113.515V82.8858H119.135V73.4053Z" fill="#FFC727"/>
<path d="M71.6988 73.4053H66.0786V82.8858H71.6988V73.4053Z" fill="#FFC727"/>
<path d="M87.5109 73.4053H81.8906V82.8858H87.5109V73.4053Z" fill="#FFC727"/>
<path d="M103.323 73.4053H97.7031V82.8858H103.323V73.4053Z" fill="#FFC727"/>
<path d="M119.135 73.4053H113.515V82.8858H119.135V73.4053Z" fill="#FFC727"/>
<path d="M47.0786 158.742V165.961H54.4593V158.742H47.0786Z" fill="#FFC727"/>
<path d="M47.0786 138.432V145.651H54.4594V138.432H47.0786Z" fill="#FFC727"/>
<path d="M47.0791 118.121V125.34H54.4598V118.121H47.0791Z" fill="#FFC727"/>
<path d="M47.0791 97.8106V105.03H54.4598V97.8106H47.0791Z" fill="#FFC727"/>
<path d="M113.516 190.366H119.136V180.886H113.516V190.366Z" fill="#FFC727"/>
<path d="M97.703 190.366H103.323V180.886H97.703V190.366Z" fill="#FFC727"/>
<path d="M81.892 190.366H87.5122V180.886H81.892V190.366Z" fill="#FFC727"/>
<path d="M66.08 190.366H71.7002V180.886H66.08V190.366Z" fill="#FFC727"/>
<path d="M138.136 105.03V97.811H130.755V105.03H138.136Z" fill="#FFC727"/>
<path d="M138.136 125.341V118.122H130.755V125.341H138.136Z" fill="#FFC727"/>
<path d="M138.136 145.651V138.432H130.755V145.651H138.136Z" fill="#FFC727"/>
<path d="M138.137 165.962V158.743H130.756V165.962H138.137Z" fill="#FFC727"/>
<path d="M92.9217 144.52H80.005L77.3994 153.397C76.921 154.901 75.8043 155.788 74.6353 155.788C74.2631 155.788 73.9431 155.718 73.6247 155.582C72.0835 154.831 71.339 152.646 71.8712 150.666L83.6197 110.447C84.0981 108.943 85.267 107.987 86.4376 108.056C87.6604 107.987 88.7748 108.943 89.2532 110.447L101.003 150.666C101.534 152.646 100.791 154.831 99.2482 155.582C98.9821 155.718 98.6122 155.788 98.2399 155.788C97.0686 155.788 95.9519 154.901 95.5281 153.397L92.9217 144.52ZM90.7421 137.008L86.4368 122.326L82.13 137.008H90.7421Z" fill="white"/>
<path d="M113.516 113.106C113.516 115.155 112.293 116.862 110.644 116.862C109.049 116.862 107.774 115.155 107.774 113.106V111.675C107.774 109.626 109.049 107.986 110.644 107.986C112.293 107.986 113.516 109.626 113.516 111.675V113.106ZM113.516 125.467V152.1C113.516 154.149 112.293 155.787 110.644 155.787C109.049 155.787 107.774 154.149 107.774 152.1V125.467C107.774 123.282 109.049 121.711 110.644 121.711C112.293 121.711 113.516 123.282 113.516 125.467Z" fill="white"/>
<path opacity="0.2" d="M97.4827 82.8833H72.0216L130.748 158.336V125.611L97.4827 82.8833ZM54.4531 143.156V175.862L58.362 180.883H83.8239L54.4531 143.156ZM114.357 82.8833H110.674L130.748 108.687V103.937L114.357 82.8833ZM54.4531 103.937V108.649L110.689 180.883H114.371L54.4531 103.937ZM54.4531 132.358V137.088L88.5631 180.882H92.2308L54.4531 132.358Z" fill="white"/>
<path d="M157.809 224.038C157.393 224.187 150.793 217.167 150.392 216.474C149.991 215.78 149.605 212.921 150.211 210.612C150.815 208.302 152.95 205.883 153.579 205.87C154.208 205.858 161.665 211.122 162.19 212.072C162.716 213.024 162.105 222.497 157.809 224.038Z" fill="#37474F"/>
<path d="M162.191 212.073C161.667 211.122 154.21 205.857 153.577 205.869C153.414 205.87 153.142 206.043 152.825 206.333C154.977 208.61 158.459 212.348 159.067 213.244C159.913 214.489 160.282 219.286 160.056 222.156C162.314 218.879 162.604 212.826 162.191 212.073Z" fill="#263238"/>
<path d="M160.29 188.609C160.503 187.034 163.085 185.287 166.02 185.283C167.322 185.281 171.773 191.429 172.58 193.834C173.387 196.239 175.476 203.672 175.501 204.429C175.525 205.186 167.913 205.647 167.332 205.083C166.752 204.518 165.006 196.655 163.489 193.977C161.973 191.299 160.217 189.157 160.29 188.609Z" fill="#37474F"/>
<path d="M173.358 205.083C171.226 203.663 169.446 198.981 168.587 197.424C167.834 196.064 163.008 190.018 160.891 187.392C160.557 187.785 160.343 188.206 160.29 188.607C160.215 189.156 161.971 191.298 163.489 193.977C165.006 196.656 166.753 204.52 167.333 205.086C167.71 205.451 171.071 205.384 173.358 205.083Z" fill="#263238"/>
<path d="M160.864 212.985C160.312 212.916 152.975 202.758 152.785 202.122C152.315 200.552 153.909 196.589 155.168 195.355C156.426 194.121 160.905 193.895 161.4 194.047C161.894 194.199 166.413 198.42 167.114 199.263C167.816 200.106 171.957 208.696 171.871 209.062C171.784 209.431 161.506 213.065 160.864 212.985Z" fill="#37474F"/>
<path d="M185.539 210.638C184.479 209.418 175.184 200.125 173.533 200.115C171.883 200.105 167.158 202.712 164.284 205.556C160.474 209.327 157.287 216.914 156.927 220.947C156.566 224.979 165.307 238.506 166.245 238.399C167.183 238.292 175.28 234.496 179.215 229.246C183.839 223.078 186.497 211.741 185.539 210.638Z" fill="#37474F"/>
<path d="M174.566 200.764C172.678 201.605 170.834 202.611 169.056 203.773C167.286 204.945 165.575 206.334 164.22 208.211C162.85 210.067 161.725 212.207 160.705 214.407C159.705 216.626 158.79 218.91 157.994 221.266C158.732 218.879 159.617 216.568 160.614 214.338C161.621 212.121 162.733 209.96 164.104 208.071C165.491 206.185 167.226 204.807 169.008 203.652C170.795 202.492 172.658 201.53 174.566 200.764Z" fill="#263238"/>
<path d="M175.87 201.903C173.901 202.778 171.978 203.824 170.125 205.037C168.279 206.259 166.495 207.707 165.081 209.663C163.653 211.6 162.481 213.831 161.417 216.125C160.375 218.438 159.421 220.821 158.593 223.277C159.364 220.789 160.287 218.379 161.326 216.055C162.376 213.745 163.536 211.492 164.966 209.522C166.411 207.556 168.218 206.12 170.076 204.915C171.939 203.707 173.881 202.703 175.87 201.903Z" fill="#263238"/>
<path d="M177.066 202.994C175.026 203.899 173.035 204.983 171.115 206.239C169.203 207.504 167.355 209.002 165.89 211.029C164.411 213.035 163.197 215.346 162.096 217.722C161.017 220.118 160.03 222.587 159.173 225.131C159.972 222.555 160.928 220.06 162.005 217.654C163.093 215.261 164.294 212.928 165.775 210.889C167.271 208.853 169.143 207.366 171.066 206.118C172.996 204.865 175.007 203.824 177.066 202.994Z" fill="#263238"/>
<path d="M177.889 204.357C175.849 205.263 173.857 206.346 171.938 207.602C170.026 208.867 168.178 210.367 166.713 212.393C165.233 214.398 164.02 216.71 162.919 219.085C161.84 221.481 160.852 223.95 159.996 226.494C160.795 223.918 161.751 221.423 162.828 219.017C163.916 216.624 165.117 214.291 166.598 212.252C168.094 210.216 169.966 208.729 171.889 207.481C173.819 206.228 175.829 205.187 177.889 204.357Z" fill="#263238"/>
<path d="M179.15 205.533C177.038 206.469 174.975 207.59 172.987 208.89C171.007 210.199 169.094 211.751 167.577 213.85C166.045 215.927 164.788 218.321 163.649 220.78C162.532 223.261 161.51 225.817 160.624 228.452C161.452 225.785 162.442 223.202 163.557 220.711C164.685 218.233 165.928 215.819 167.46 213.709C169.009 211.602 170.946 210.06 172.938 208.769C174.937 207.472 177.018 206.394 179.15 205.533Z" fill="#263238"/>
<path d="M180.606 206.711C178.437 207.672 176.319 208.822 174.277 210.158C172.244 211.502 170.278 213.096 168.72 215.251C167.147 217.385 165.857 219.843 164.687 222.37C163.539 224.918 162.49 227.543 161.581 230.249C162.432 227.512 163.45 224.86 164.595 222.301C165.753 219.757 167.03 217.278 168.604 215.11C170.194 212.946 172.183 211.363 174.229 210.036C176.28 208.703 178.418 207.597 180.606 206.711Z" fill="#263238"/>
<path d="M181.955 207.888C179.702 208.884 177.502 210.077 175.382 211.465C173.271 212.86 171.229 214.515 169.611 216.753C167.977 218.97 166.638 221.523 165.423 224.147C164.231 226.793 163.143 229.52 162.2 232.33C163.086 229.488 164.143 226.734 165.332 224.079C166.534 221.437 167.861 218.862 169.495 216.613C171.145 214.366 173.21 212.723 175.334 211.344C177.463 209.96 179.682 208.808 181.955 207.888Z" fill="#263238"/>
<path d="M183.327 208.917C181.012 209.939 178.752 211.165 176.573 212.589C174.404 214.023 172.306 215.723 170.643 218.021C168.965 220.299 167.59 222.922 166.342 225.617C165.117 228.336 164 231.137 163.032 234.024C163.943 231.105 165.029 228.276 166.25 225.548C167.486 222.835 168.849 220.19 170.528 217.88C172.223 215.571 174.344 213.883 176.525 212.467C178.713 211.048 180.992 209.865 183.327 208.917Z" fill="#263238"/>
<path d="M203.11 244.202C194.909 224.844 186.298 207.133 186.298 207.133C186.298 207.133 180.953 204.383 171.654 211.445C163.574 217.58 159.129 230.565 159.129 230.565C159.129 230.565 170.314 250.958 184.395 265.033C199.887 262.477 198.668 254.93 203.11 244.202Z" fill="#FFC727"/>
<path opacity="0.1" d="M203.112 244.194C199.065 253.97 199.708 261.101 188.167 264.235C188.619 263.841 196.187 257.348 195.179 244.776C194.332 234.005 186.297 207.134 183.332 206.609C185.275 206.609 186.297 207.134 186.297 207.134C186.297 207.134 194.916 224.848 203.112 244.194Z" fill="black"/>
<path d="M224.27 217.594C221.13 225.768 222.396 235.062 227.098 238.351C231.799 241.64 238.156 237.68 241.296 229.504C244.435 221.33 243.169 212.036 238.468 208.747C233.766 205.458 227.41 209.42 224.27 217.594Z" fill="#37474F"/>
<path d="M224.425 217.696C221.766 224.593 222.841 232.436 226.797 235.203C226.869 235.241 226.946 235.308 227.018 235.346C230.967 237.861 236.179 234.512 238.78 227.737C241.113 221.642 240.548 214.785 237.628 211.362C237.251 210.936 236.836 210.551 236.388 210.236C232.432 207.47 227.064 210.806 224.425 217.696Z" fill="#455A64"/>
<path d="M195.741 268.361C207.056 256.376 217.82 244.227 222.043 238.558C226.443 232.658 229.964 219.252 229.269 215.454C227.947 208.221 220.52 211.713 214.51 214.395C207.066 217.717 194.473 228.777 182.786 240.031C183.839 252.674 186.968 263.438 195.741 268.361Z" fill="#FFC727"/>
<path opacity="0.1" d="M222.04 238.564C217.818 244.232 207.052 256.372 195.745 268.362C193.057 266.861 190.895 264.797 189.156 262.302C203.634 251.174 231.171 224.885 227.708 212.219C228.453 212.894 228.993 213.945 229.271 215.446C229.958 219.255 226.438 232.653 222.04 238.564Z" fill="black"/>
<path d="M196.851 256.775C196.851 256.775 194.954 235.966 197.88 226.269L195.846 226.109C195.846 226.109 189.057 241.13 190.692 257.728L196.851 256.775Z" fill="#263238"/>
<path d="M184.047 262.376C184.047 262.4 184.055 262.424 184.055 262.449C184.568 267.568 189.277 270.998 194.618 270.107C199.334 269.33 202.965 265.473 203.461 261.041C203.529 260.425 203.541 259.797 203.482 259.167C203.006 254.012 198.269 250.545 192.901 251.424C187.542 252.315 183.57 257.21 184.047 262.376Z" fill="#263238"/>
<path d="M184.055 262.449C184.567 267.569 189.277 270.999 194.618 270.108C199.334 269.331 202.965 265.474 203.461 261.041C202.948 255.922 198.23 252.492 192.889 253.371C188.182 254.148 184.551 258.017 184.055 262.449Z" fill="#37474F"/>
<path d="M373.256 174.781C373.683 174.861 379.532 166.816 379.861 166.063C380.189 165.309 380.288 162.41 379.458 160.22C378.628 158.028 376.271 155.978 375.646 156.068C375.021 156.158 368.148 162.602 367.721 163.632C367.295 164.661 368.842 173.957 373.256 174.781Z" fill="#37474F"/>
<path d="M367.722 163.632C368.146 162.604 375.02 156.159 375.649 156.067C375.81 156.042 376.098 156.168 376.441 156.404C374.532 159.014 371.45 163.293 370.936 164.282C370.221 165.655 370.331 170.473 370.841 173.283C368.276 170.403 367.387 164.446 367.722 163.632Z" fill="#263238"/>
<path d="M367.276 140.047C366.909 138.52 364.175 137.21 361.263 137.688C359.97 137.899 356.168 144.726 355.606 147.244C355.044 149.762 353.71 157.477 353.762 158.231C353.812 158.986 361.408 158.195 361.928 157.541C362.448 156.886 363.398 148.801 364.637 145.895C365.875 142.991 367.403 140.579 367.276 140.047Z" fill="#37474F"/>
<path d="M355.951 158.53C357.924 156.771 359.224 151.837 359.921 150.152C360.533 148.679 364.718 141.891 366.558 138.939C366.927 139.274 367.183 139.657 367.274 140.047C367.403 140.578 365.874 142.991 364.635 145.896C363.397 148.802 362.445 156.889 361.926 157.544C361.589 157.968 358.25 158.453 355.951 158.53Z" fill="#263238"/>
<path d="M369.129 164.319C369.67 164.16 375.937 152.882 376.062 152.222C376.374 150.588 374.398 146.919 373.027 145.901C371.657 144.883 367.193 145.393 366.717 145.625C366.241 145.858 362.179 150.784 361.567 151.736C360.955 152.687 357.7 161.885 357.823 162.234C357.945 162.584 368.501 164.503 369.129 164.319Z" fill="#37474F"/>
<path d="M344.421 166.037C345.351 164.652 353.647 153.912 355.284 153.631C356.92 153.351 361.866 155.162 364.998 157.511C369.152 160.627 373.066 167.63 373.824 171.57C374.582 175.51 367.256 190.36 366.315 190.408C365.374 190.456 356.966 188.018 352.542 183.456C347.344 178.095 343.581 167.287 344.421 166.037Z" fill="#37474F"/>
<path d="M354.323 154.444C356.28 154.969 358.208 155.663 360.087 156.526C361.959 157.398 363.794 158.496 365.324 160.135C366.867 161.752 368.195 163.689 369.426 165.704C370.638 167.741 371.773 169.857 372.796 172.063C371.827 169.817 370.72 167.669 369.51 165.622C368.29 163.588 366.973 161.626 365.426 159.977C363.863 158.335 362.006 157.252 360.123 156.399C358.235 155.54 356.292 154.891 354.323 154.444Z" fill="#263238"/>
<path d="M353.145 155.787C355.185 156.332 357.196 157.055 359.155 157.954C361.106 158.863 363.02 160.007 364.616 161.716C366.226 163.402 367.61 165.423 368.892 167.524C370.156 169.648 371.339 171.855 372.404 174.155C371.392 171.814 370.238 169.575 368.976 167.441C367.704 165.321 366.33 163.277 364.716 161.558C363.088 159.846 361.152 158.716 359.19 157.827C357.222 156.932 355.197 156.254 353.145 155.787Z" fill="#263238"/>
<path d="M352.065 157.066C354.178 157.63 356.261 158.378 358.29 159.309C360.312 160.25 362.294 161.434 363.948 163.204C365.615 164.951 367.049 167.044 368.376 169.22C369.685 171.42 370.909 173.706 372.012 176.089C370.963 173.665 369.767 171.347 368.46 169.137C367.143 166.942 365.72 164.825 364.049 163.046C362.362 161.272 360.358 160.103 358.326 159.18C356.288 158.254 354.191 157.552 352.065 157.066Z" fill="#263238"/>
<path d="M351.385 158.553C353.498 159.116 355.581 159.864 357.61 160.795C359.632 161.736 361.614 162.92 363.268 164.69C364.935 166.437 366.368 168.53 367.696 170.707C369.004 172.906 370.229 175.192 371.332 177.576C370.283 175.152 369.087 172.835 367.78 170.624C366.463 168.429 365.039 166.312 363.369 164.533C361.683 162.76 359.678 161.59 357.646 160.669C355.609 159.741 353.511 159.039 351.385 158.553Z" fill="#263238"/>
<path d="M350.251 159.925C352.438 160.508 354.595 161.281 356.697 162.245C358.79 163.219 360.842 164.444 362.556 166.277C364.281 168.087 365.766 170.255 367.14 172.507C368.494 174.785 369.762 177.152 370.903 179.62C369.816 177.111 368.577 174.712 367.224 172.424C365.86 170.152 364.387 167.96 362.657 166.118C360.912 164.282 358.837 163.071 356.733 162.116C354.623 161.158 352.452 160.429 350.251 159.925Z" fill="#263238"/>
<path d="M348.924 161.332C351.171 161.928 353.386 162.722 355.544 163.713C357.694 164.713 359.801 165.971 361.561 167.854C363.333 169.712 364.857 171.939 366.268 174.253C367.66 176.591 368.961 179.024 370.131 181.559C369.014 178.983 367.742 176.52 366.352 174.17C364.95 171.836 363.437 169.586 361.661 167.695C359.869 165.81 357.739 164.566 355.579 163.585C353.413 162.599 351.183 161.851 348.924 161.332Z" fill="#263238"/>
<path d="M347.704 162.721C350.037 163.339 352.338 164.162 354.579 165.191C356.812 166.229 359.002 167.535 360.829 169.49C362.669 171.42 364.251 173.733 365.717 176.137C367.161 178.565 368.512 181.091 369.726 183.725C368.566 181.051 367.244 178.493 365.8 176.053C364.345 173.631 362.773 171.294 360.929 169.331C359.069 167.374 356.858 166.082 354.614 165.062C352.365 164.039 350.05 163.261 347.704 162.721Z" fill="#263238"/>
<path d="M346.446 163.966C348.843 164.6 351.206 165.446 353.508 166.501C355.802 167.568 358.051 168.909 359.929 170.918C361.82 172.902 363.445 175.277 364.95 177.747C366.434 180.242 367.821 182.838 369.068 185.544C367.875 182.798 366.517 180.171 365.034 177.665C363.539 175.176 361.924 172.777 360.03 170.76C358.119 168.749 355.848 167.422 353.543 166.375C351.233 165.323 348.855 164.523 346.446 163.966Z" fill="#263238"/>
<path d="M330.33 202.205C336.54 181.662 343.322 162.683 343.322 162.683C343.322 162.683 348.35 159.081 358.275 164.56C366.897 169.32 372.596 181.47 372.596 181.47C372.596 181.47 363.529 203.53 350.962 219.798C335.342 219.803 335.8 212.117 330.33 202.205Z" fill="#FFC727"/>
<path opacity="0.1" d="M330.327 202.198C335.312 211.232 335.382 218.409 347.14 219.626C346.652 219.309 338.502 214.11 338.253 201.476C338.023 190.654 343.322 162.686 346.212 161.679C344.285 161.998 343.323 162.687 343.323 162.687C343.323 162.687 336.533 181.667 330.327 202.198Z" fill="black"/>
<path d="M307.627 217.594C310.767 225.768 309.501 235.062 304.799 238.351C300.097 241.64 293.741 237.68 290.601 229.504C287.462 221.33 288.727 212.036 293.429 208.747C298.131 205.458 304.488 209.42 307.627 217.594Z" fill="#37474F"/>
<path d="M307.472 217.696C310.131 224.593 309.056 232.436 305.1 235.203C305.027 235.241 304.951 235.308 304.878 235.346C300.93 237.861 295.718 234.512 293.117 227.737C290.784 221.642 291.349 214.785 294.269 211.362C294.646 210.936 295.061 210.551 295.509 210.236C299.465 207.47 304.834 210.806 307.472 217.696Z" fill="#455A64"/>
<path d="M348.076 234.581C333.429 233.629 319.148 232.125 313.126 230.811C306.855 229.445 297.803 221.382 296.597 217.802C294.3 210.985 301.882 208.096 307.952 205.644C315.47 202.607 330.713 201.837 345.319 201.916C350.344 212.871 352.83 223.908 348.076 234.581Z" fill="#FFC727"/>
<path opacity="0.1" d="M313.13 230.814C319.15 232.128 333.429 233.624 348.073 234.586C349.533 231.321 350.31 228.009 350.547 224.674C333.759 226.834 299.45 226.83 296.348 214.01C296.064 215.123 296.117 216.381 296.592 217.798C297.809 221.382 306.856 229.439 313.13 230.814Z" fill="black"/>
<path d="M341.804 226.132C341.804 226.132 333.665 207.977 326.813 202.435L328.372 200.748C328.372 200.748 340.795 207.603 347.19 222.179L341.804 226.132Z" fill="#263238"/>
<path d="M354.683 220.818C354.694 220.837 354.699 220.864 354.71 220.883C356.675 225.384 354.488 231.745 349.788 235.122C345.642 238.113 340.936 237.798 338.479 234.621C338.14 234.178 337.838 233.683 337.594 233.133C335.583 228.63 337.774 222.219 342.491 218.812C347.206 215.421 352.666 216.306 354.683 220.818Z" fill="#263238"/>
<path d="M354.71 220.883C356.676 225.384 354.489 231.746 349.788 235.123C345.642 238.113 340.937 237.798 338.48 234.621C336.514 230.12 338.709 223.752 343.403 220.365C347.542 217.381 352.254 217.705 354.71 220.883Z" fill="#37474F"/>
<path d="M239.704 289.987C239.821 292.82 242.173 316.179 244.132 318.589C246.091 321 254.175 325.107 260.271 326.272C268.357 327.816 279.285 324.411 283.502 320.663C287.72 316.914 290.008 289.876 288.789 288.626C287.571 287.376 274.35 279.627 264.727 279.468C253.42 279.28 239.599 287.427 239.704 289.987Z" fill="#37474F"/>
<path d="M243.51 316.4C246.552 318.254 249.693 319.87 252.907 321.222C256.118 322.554 259.463 323.57 262.843 323.552C266.22 323.577 269.572 322.944 272.854 322.097C276.131 321.2 279.369 320.11 282.531 318.772C279.408 320.227 276.182 321.391 272.899 322.303C269.615 323.187 266.258 323.86 262.848 323.869C259.423 323.85 256.061 322.788 252.851 321.421C249.629 320.052 246.505 318.363 243.51 316.4Z" fill="#263238"/>
<path d="M243.027 313.299C246.197 315.234 249.473 316.92 252.822 318.331C256.17 319.72 259.657 320.78 263.181 320.762C266.703 320.787 270.198 320.128 273.62 319.243C277.036 318.308 280.412 317.17 283.707 315.772C280.45 317.287 277.087 318.499 273.664 319.449C270.24 320.369 266.741 321.071 263.186 321.079C259.617 321.06 256.111 319.954 252.765 318.529C249.408 317.102 246.15 315.343 243.027 313.299Z" fill="#263238"/>
<path d="M242.625 310.402C245.908 312.408 249.3 314.156 252.77 315.616C256.237 317.056 259.849 318.154 263.5 318.136C267.148 318.161 270.767 317.478 274.312 316.561C277.85 315.591 281.347 314.411 284.758 312.962C281.386 314.529 277.901 315.783 274.357 316.766C270.81 317.719 267.187 318.444 263.506 318.452C259.81 318.433 256.18 317.289 252.714 315.814C249.235 314.338 245.861 312.517 242.625 310.402Z" fill="#263238"/>
<path d="M242.925 307.763C246.208 309.769 249.6 311.517 253.069 312.978C256.537 314.417 260.149 315.515 263.799 315.498C267.448 315.523 271.066 314.839 274.611 313.923C278.149 312.954 281.646 311.774 285.057 310.324C281.685 311.891 278.2 313.145 274.656 314.128C271.11 315.082 267.486 315.806 263.805 315.814C260.109 315.796 256.479 314.652 253.013 313.176C249.536 311.699 246.161 309.878 242.925 307.763Z" fill="#263238"/>
<path d="M242.526 304.684C245.924 306.763 249.436 308.573 253.028 310.086C256.618 311.576 260.358 312.715 264.138 312.697C267.916 312.723 271.662 312.014 275.332 311.064C278.995 310.061 282.616 308.838 286.147 307.334C282.655 308.954 279.048 310.251 275.378 311.27C271.706 312.255 267.954 313.006 264.144 313.014C260.319 312.996 256.561 311.811 252.972 310.284C249.371 308.755 245.876 306.871 242.526 304.684Z" fill="#263238"/>
<path d="M241.896 301.318C245.384 303.454 248.99 305.316 252.679 306.87C256.367 308.401 260.208 309.571 264.09 309.553C267.971 309.579 271.818 308.85 275.587 307.875C279.349 306.844 283.067 305.587 286.693 304.042C283.106 305.704 279.401 307.035 275.632 308.08C271.862 309.092 268.009 309.863 264.096 309.87C260.168 309.852 256.309 308.636 252.623 307.068C248.926 305.497 245.337 303.564 241.896 301.318Z" fill="#263238"/>
<path d="M241.395 298.112C245.016 300.333 248.76 302.266 252.591 303.88C256.42 305.471 260.408 306.686 264.441 306.669C268.471 306.695 272.467 305.938 276.38 304.923C280.287 303.853 284.146 302.546 287.912 300.94C284.185 302.664 280.338 304.044 276.425 305.13C272.509 306.18 268.509 306.978 264.447 306.985C260.368 306.967 256.361 305.706 252.535 304.078C248.696 302.448 244.969 300.441 241.395 298.112Z" fill="#263238"/>
<path d="M240.727 295.027C244.446 297.31 248.292 299.298 252.228 300.954C256.161 302.589 260.258 303.838 264.402 303.82C268.542 303.846 272.647 303.068 276.667 302.026C280.681 300.926 284.646 299.583 288.513 297.931C284.684 299.7 280.732 301.118 276.713 302.232C272.691 303.311 268.58 304.131 264.408 304.138C260.219 304.119 256.104 302.825 252.172 301.153C248.228 299.478 244.4 297.418 240.727 295.027Z" fill="#263238"/>
<path d="M305.548 236.26C303.638 253.136 302.163 274.921 298.06 290.836C290.551 320.002 264.896 319.717 264.896 319.717C264.896 319.717 242.166 320.003 234.656 290.836C230.553 274.921 229.087 253.136 227.168 236.26C225.065 217.653 236.3 200.976 250.942 200.976H281.775C296.417 200.977 307.659 217.653 305.548 236.26Z" fill="#FFC727"/>
<path opacity="0.1" d="M249.508 204.585C249.031 209.013 248.636 213.447 248.324 217.881C247.986 222.311 247.731 226.743 247.557 231.173C247.169 240.031 247.107 248.887 247.369 257.711C247.574 266.538 248.102 275.34 248.95 284.088C249.355 288.465 249.838 292.83 250.403 297.179C250.943 301.533 251.561 305.875 252.261 310.197C251.444 305.909 250.705 301.595 250.046 297.261C249.412 292.921 248.858 288.559 248.385 284.182C247.477 275.42 246.89 266.598 246.628 257.744C246.423 248.887 246.542 240.006 246.989 231.13C247.233 226.693 247.558 222.259 247.965 217.831C248.397 213.407 248.911 208.989 249.508 204.585Z" fill="black"/>
<path opacity="0.1" d="M245.533 211.933C245.582 213.124 244.903 214.395 243.877 214.593C243.379 214.692 242.829 214.521 242.408 214.076C241.986 213.632 241.722 212.917 241.7 212.175C241.684 211.434 241.909 210.681 242.307 210.182C242.703 209.679 243.245 209.439 243.746 209.476C244.781 209.546 245.521 210.742 245.533 211.933ZM245.533 211.933C245.514 211.332 245.299 210.751 244.953 210.388C244.606 210.025 244.158 209.891 243.756 209.976C242.927 210.148 242.407 211.183 242.444 212.126C242.455 213.069 243.024 214.034 243.862 214.1C244.267 214.133 244.707 213.946 245.034 213.542C245.36 213.138 245.544 212.536 245.533 211.933Z" fill="black"/>
<path opacity="0.1" d="M244.571 228.123C244.673 229.303 244.051 230.614 243.036 230.884C242.543 231.018 241.987 230.889 241.547 230.476C241.106 230.064 240.81 229.372 240.756 228.637C240.707 227.902 240.899 227.139 241.273 226.614C241.647 226.085 242.177 225.809 242.679 225.81C243.714 225.804 244.507 226.94 244.571 228.123ZM244.571 228.123C244.525 227.528 244.286 226.965 243.924 226.63C243.562 226.294 243.108 226.194 242.71 226.305C241.889 226.535 241.416 227.602 241.495 228.535C241.547 229.471 242.159 230.39 242.998 230.396C243.405 230.4 243.835 230.181 244.144 229.757C244.452 229.333 244.609 228.72 244.571 228.123Z" fill="black"/>
<path opacity="0.1" d="M244.035 245.256C244.19 246.423 243.632 247.775 242.631 248.121C242.146 248.292 241.585 248.206 241.126 247.828C240.667 247.452 240.339 246.787 240.25 246.059C240.167 245.331 240.322 244.556 240.672 244.006C241.02 243.452 241.536 243.136 242.037 243.099C243.071 243.014 243.914 244.083 244.035 245.256ZM244.035 245.256C243.961 244.667 243.696 244.125 243.319 243.819C242.941 243.512 242.484 243.447 242.093 243.589C241.284 243.881 240.862 244.978 240.984 245.901C241.08 246.829 241.734 247.696 242.571 247.637C242.977 247.609 243.397 247.359 243.685 246.914C243.972 246.469 244.101 245.848 244.035 245.256Z" fill="black"/>
<path opacity="0.1" d="M244.298 262.355C244.508 263.505 244.013 264.895 243.03 265.316C242.554 265.524 241.989 265.481 241.513 265.141C241.038 264.802 240.68 264.163 240.558 263.446C240.44 262.727 240.561 261.943 240.883 261.368C241.204 260.789 241.705 260.435 242.203 260.359C243.231 260.196 244.123 261.196 244.298 262.355ZM244.298 262.355C244.196 261.774 243.907 261.256 243.516 260.979C243.125 260.703 242.665 260.672 242.281 260.845C241.488 261.197 241.118 262.323 241.283 263.232C241.421 264.148 242.114 264.963 242.947 264.84C243.35 264.782 243.759 264.5 244.025 264.034C244.292 263.568 244.391 262.939 244.298 262.355Z" fill="black"/>
<path opacity="0.1" d="M245.356 279.373C245.619 280.502 245.189 281.927 244.227 282.423C243.761 282.666 243.196 282.667 242.705 282.365C242.215 282.063 241.828 281.454 241.672 280.748C241.522 280.04 241.604 279.25 241.901 278.652C242.194 278.05 242.678 277.658 243.172 277.545C244.19 277.303 245.127 278.231 245.356 279.373ZM245.356 279.373C245.228 278.8 244.914 278.307 244.511 278.06C244.108 277.815 243.648 277.82 243.273 278.02C242.497 278.433 242.18 279.584 242.386 280.477C242.568 281.38 243.297 282.139 244.123 281.952C244.523 281.862 244.917 281.552 245.161 281.066C245.406 280.582 245.476 279.948 245.356 279.373Z" fill="black"/>
<path opacity="0.1" d="M247.203 296.264C247.519 297.37 247.157 298.826 246.219 299.394C245.766 299.673 245.202 299.718 244.698 299.453C244.194 299.19 243.779 298.612 243.591 297.92C243.408 297.226 243.454 296.43 243.721 295.811C243.987 295.188 244.451 294.759 244.939 294.608C245.945 294.288 246.922 295.143 247.203 296.264ZM247.203 296.264C247.049 295.702 246.713 295.234 246.299 295.02C245.885 294.806 245.427 294.846 245.061 295.076C244.306 295.547 244.042 296.72 244.29 297.596C244.513 298.483 245.277 299.184 246.093 298.934C246.489 298.814 246.867 298.473 247.089 297.97C247.31 297.468 247.35 296.828 247.203 296.264Z" fill="black"/>
<path opacity="0.1" d="M305.552 236.257C303.639 253.145 302.163 274.912 298.058 290.844C290.55 320.004 264.897 319.723 264.897 319.723C264.897 319.723 251.253 319.891 241.61 306.419C241.698 306.475 241.8 306.512 241.888 306.569C275.897 324.809 284.311 292.702 289.118 253.672C294.011 213.891 285.129 201.957 279.724 200.98H281.77C296.422 200.979 307.656 217.661 305.552 236.257Z" fill="black"/>
<path d="M240.758 207.508C229.264 215.374 232.992 239.374 234.267 253.231C235.603 265.664 236.82 278.176 239.171 290.362C240.042 294.271 240.896 298.584 243.032 301.701C240.389 299.126 239.021 294.777 237.759 290.951C234.298 278.99 232.675 266.301 231.275 253.753C229.861 239.559 227.353 213.248 240.758 207.508Z" fill="white"/>
<path d="M249.184 182.662C249.242 184.765 250.665 202.088 251.977 203.856C253.289 205.622 258.745 208.574 262.875 209.364C268.352 210.412 275.795 207.749 278.686 204.912C281.578 202.076 283.332 181.963 282.514 181.048C281.696 180.134 272.78 174.54 266.248 174.54C258.574 174.541 249.132 180.763 249.184 182.662Z" fill="#37474F"/>
<path d="M251.57 202.237C253.621 203.577 255.742 204.738 257.913 205.703C260.083 206.652 262.345 207.366 264.639 207.311C266.932 207.288 269.212 206.778 271.447 206.107C273.678 205.4 275.884 204.551 278.04 203.518C275.91 204.638 273.711 205.542 271.476 206.259C269.239 206.956 266.956 207.497 264.641 207.546C262.316 207.575 260.042 206.828 257.873 205.85C255.696 204.874 253.588 203.658 251.57 202.237Z" fill="#263238"/>
<path d="M251.265 199.939C253.403 201.338 255.614 202.551 257.877 203.557C260.14 204.547 262.499 205.292 264.891 205.235C267.282 205.211 269.658 204.678 271.989 203.979C274.314 203.242 276.615 202.355 278.862 201.277C276.64 202.441 274.348 203.384 272.018 204.131C269.687 204.857 267.306 205.421 264.893 205.471C262.47 205.501 260.099 204.722 257.837 203.704C255.569 202.686 253.37 201.419 251.265 199.939Z" fill="#263238"/>
<path d="M251.015 197.792C253.228 199.243 255.517 200.499 257.862 201.541C260.204 202.568 262.648 203.34 265.127 203.282C267.603 203.255 270.065 202.703 272.478 201.978C274.887 201.215 277.269 200.295 279.596 199.177C277.294 200.382 274.92 201.356 272.507 202.131C270.092 202.883 267.627 203.466 265.128 203.517C262.62 203.548 260.164 202.743 257.823 201.69C255.472 200.635 253.195 199.324 251.015 197.792Z" fill="#263238"/>
<path d="M251.237 195.828C253.45 197.278 255.74 198.534 258.084 199.577C260.428 200.603 262.871 201.375 265.35 201.317C267.826 201.291 270.288 200.738 272.701 200.014C275.11 199.25 277.492 198.331 279.818 197.212C277.517 198.417 275.143 199.391 272.729 200.166C270.315 200.917 267.85 201.5 265.351 201.551C262.842 201.583 260.387 200.777 258.045 199.724C255.695 198.67 253.418 197.359 251.237 195.828Z" fill="#263238"/>
<path d="M250.99 193.546C253.28 195.049 255.651 196.351 258.078 197.431C260.504 198.494 263.034 199.293 265.601 199.234C268.165 199.207 270.714 198.634 273.212 197.884C275.706 197.093 278.172 196.141 280.581 194.981C278.197 196.227 275.739 197.235 273.24 198.036C270.741 198.814 268.188 199.417 265.602 199.469C263.005 199.503 260.463 198.67 258.039 197.579C255.606 196.486 253.248 195.13 250.99 193.546Z" fill="#263238"/>
<path d="M250.587 191.054C252.939 192.598 255.373 193.936 257.866 195.044C260.358 196.137 262.957 196.958 265.592 196.898C268.226 196.87 270.843 196.28 273.409 195.509C275.971 194.697 278.503 193.718 280.976 192.525C278.528 193.804 276.004 194.838 273.438 195.661C270.87 196.459 268.25 197.078 265.593 197.131C262.927 197.165 260.317 196.31 257.826 195.191C255.328 194.072 252.906 192.68 250.587 191.054Z" fill="#263238"/>
<path d="M250.271 188.678C252.713 190.283 255.24 191.673 257.829 192.825C260.416 193.959 263.114 194.813 265.852 194.75C268.587 194.72 271.305 194.109 273.969 193.308C276.63 192.465 279.259 191.446 281.827 190.206C279.284 191.533 276.663 192.605 273.998 193.46C271.332 194.288 268.61 194.931 265.853 194.986C263.085 195.022 260.374 194.135 257.789 192.973C255.194 191.809 252.68 190.364 250.271 188.678Z" fill="#263238"/>
<path d="M249.84 186.394C252.348 188.044 254.943 189.473 257.603 190.656C260.261 191.822 263.033 192.7 265.846 192.636C268.656 192.605 271.448 191.976 274.185 191.152C276.918 190.286 279.619 189.24 282.256 187.965C279.645 189.326 276.951 190.428 274.214 191.305C271.476 192.155 268.68 192.814 265.848 192.87C263.004 192.909 260.22 191.997 257.564 190.804C254.899 189.609 252.315 188.125 249.84 186.394Z" fill="#263238"/>
<path d="M328.314 133.917C332.919 134.025 345.603 151.548 344.721 157.699C343.839 163.849 330.12 175.217 324.303 172.79C321.804 171.747 323.751 133.81 328.314 133.917Z" fill="#FFC727"/>
<path opacity="0.2" d="M328.314 133.917C332.919 134.025 345.603 151.548 344.721 157.699C343.839 163.849 330.12 175.217 324.303 172.79C321.804 171.747 323.751 133.81 328.314 133.917Z" fill="black"/>
<path d="M203.583 133.917C198.978 134.025 186.294 151.548 187.176 157.699C188.058 163.849 201.778 175.217 207.594 172.79C210.093 171.747 208.146 133.81 203.583 133.917Z" fill="#FFC727"/>
<path opacity="0.2" d="M203.583 133.917C198.978 134.025 186.294 151.548 187.176 157.699C188.058 163.849 201.778 175.217 207.594 172.79C210.093 171.747 208.146 133.81 203.583 133.917Z" fill="black"/>
<path d="M326.771 181.32C322.314 192.768 279.285 195.648 264.897 195.648C250.509 195.648 207.498 192.768 203.023 181.32C197.77 167.845 195.888 116.097 197.77 97.4926C199.397 81.2921 241.73 78.2168 264.897 78.2168C288.081 78.2168 330.398 81.2921 332.025 97.4926C333.905 116.098 332.024 167.845 326.771 181.32Z" fill="#FFC727"/>
<path d="M289.291 103.13C287.561 106.874 270.863 107.815 265.279 107.815C259.696 107.815 243.004 106.874 241.268 103.13C239.229 98.7232 238.499 81.801 239.229 75.7166C239.86 70.419 256.289 69.4136 265.279 69.4136C274.276 69.4136 290.698 70.419 291.33 75.7166C292.059 81.801 291.329 98.7232 289.291 103.13Z" fill="#FFC727"/>
<path opacity="0.1" d="M288.582 102.372C286.45 105.014 283.037 104.985 280.267 105.711C268.479 107.542 256.484 108.473 244.711 105.715C243.441 105.239 242.115 104.927 241.109 103.44C239.941 101.208 239.554 98.4757 239.161 96.0178C238.345 89.7299 237.941 83.447 238.351 77.0868C238.423 76.5476 238.364 76.2007 238.658 75.1242C239.286 73.4542 240.216 72.7926 240.978 72.2353C249.303 66.8896 282.219 67.7857 289.876 74.3343C290.526 74.9698 290.929 76.0113 290.91 77.0848C291.073 85.3615 291.037 94.6506 288.582 102.372ZM288.582 102.372C290.832 95.3893 290.686 87.4184 290.569 79.9757C290.471 78.6375 290.501 77.1811 290.103 75.9441C285.164 69.3745 258.095 72.2253 250.473 73.361C247.577 73.9875 243.741 74.3203 241.55 76.7079C241.582 76.5255 241.492 77.137 241.461 77.5349C241.106 85.3044 241.091 93.7464 242.873 101.194C243.037 101.706 243.008 101.68 243.479 102.07C250.752 106.579 282.426 108.811 288.582 102.372Z" fill="black"/>
<path d="M313.476 168.639C310.085 177.348 275.843 179.54 264.897 179.54C253.951 179.54 219.721 177.348 216.318 168.639C212.321 158.386 210.89 140.282 212.321 126.128C213.559 113.802 247.272 111.462 264.897 111.462C282.535 111.462 316.235 113.801 317.473 126.128C318.904 140.281 317.473 158.386 313.476 168.639Z" fill="#263238"/>
<path d="M269.176 111.509C267.671 111.471 266.239 111.453 264.895 111.453C261.024 111.453 256.393 111.565 251.485 111.866L301.037 175.534C307.391 173.901 312.285 171.65 313.469 168.629C313.484 168.573 313.512 168.535 313.527 168.479L269.176 111.509ZM284.88 112.391C283.945 112.297 283.024 112.223 282.089 112.148L316.565 156.451C316.711 155.532 316.857 154.594 316.974 153.636L284.88 112.391ZM229.762 114.755C229.031 114.924 228.301 115.093 227.585 115.28L277.196 179.005C277.999 178.948 278.817 178.892 279.65 178.817L229.762 114.755ZM213.035 155.193C213.254 156.676 213.503 158.102 213.78 159.49L225.555 174.614C226.607 174.952 227.731 175.271 228.9 175.571L213.035 155.193Z" fill="#37474F"/>
<path d="M237.245 129.906H231.74V161.096H237.245V129.906Z" fill="#FFC727"/>
<path d="M298.055 129.906H292.549V161.096H298.055V129.906Z" fill="#FFC727"/>
<path opacity="0.1" d="M326.764 181.313C322.308 192.76 279.287 195.649 264.897 195.649C252.363 195.649 218.106 193.454 206.537 185.31C219.699 189.982 305.583 192.009 313.004 176.04C320.44 160.015 323.829 101.057 321.886 94.1884C320.002 87.5266 311.354 83.0239 310.813 82.7612C322.441 85.6511 331.294 90.2671 332.025 97.4912C333.908 116.088 332.023 167.84 326.764 181.313Z" fill="black"/>
<path d="M209.719 89.9082C202.297 93.2211 203.296 98.65 203.138 107.196C202.681 122.187 202.994 137.043 203.375 152.029C203.551 159.524 203.723 167.019 203.981 174.54C202.702 167.176 201.969 159.691 201.298 152.213C200.108 137.252 199.413 122.049 200.323 107.033C200.775 98.3783 201.25 90.3633 209.719 89.9082Z" fill="white"/>
<path d="M249.337 330.7C249.337 333.726 256.878 337.142 263.692 337.142C270.504 337.142 280.403 333.726 280.403 331.091C280.403 328.455 270.464 331.286 263.368 331.188C258.118 331.116 249.337 328.357 249.337 330.7Z" fill="#37474F"/>
<path d="M153.193 215.752L159.265 214.309L160.622 206.088L161.979 214.309L168.051 215.756L162.005 217.653L160.622 225.42L159.239 217.653L153.193 215.752Z" fill="white"/>
<path d="M343.228 191.572L349.299 190.129L350.656 181.908L352.013 190.129L358.085 191.576L352.039 193.473L350.656 201.239L349.273 193.473L343.228 191.572Z" fill="white"/>
<path d="M213.237 94.3949L219.309 92.9525L220.665 84.731L222.022 92.9525L228.094 94.3989L222.049 96.2964L220.665 104.062L219.282 96.2964L213.237 94.3949Z" fill="white"/>
<path d="M365.9 159.313L369.294 158.507L370.053 153.912L370.811 158.507L374.205 159.315L370.825 160.376L370.053 164.717L369.279 160.376L365.9 159.313Z" fill="white"/>
<path d="M206.206 179.005L209.599 178.199L210.358 173.603L211.116 178.199L214.51 179.007L211.13 180.067L210.358 184.408L209.585 180.067L206.206 179.005Z" fill="white"/>
<path d="M242.494 307.358L245.887 306.552L246.646 301.956L247.405 306.552L250.798 307.36L247.419 308.42L246.646 312.761L245.873 308.42L242.494 307.358Z" fill="white"/>
<path d="M314.357 99.7978L317.751 98.9919L318.509 94.396L319.268 98.9919L322.662 99.7998L319.283 100.86L318.509 105.202L317.737 100.86L314.357 99.7978Z" fill="white"/>
<path d="M361.511 179.449C362.777 179.449 362.779 176.922 361.511 176.922C360.245 176.922 360.243 179.449 361.511 179.449Z" fill="white"/>
<path d="M314.754 120.864C316.02 120.864 316.022 118.337 314.754 118.337C313.488 118.337 313.486 120.864 314.754 120.864Z" fill="white"/>
<path d="M210.358 104.956C211.254 104.956 211.255 103.167 210.358 103.167C209.462 103.167 209.461 104.956 210.358 104.956Z" fill="white"/>
<path d="M208.869 240.403C209.765 240.403 209.767 238.614 208.869 238.614C207.973 238.614 207.972 240.403 208.869 240.403Z" fill="white"/>
<path d="M282.53 221.258C284.958 221.258 284.961 216.413 282.53 216.413C280.102 216.413 280.098 221.258 282.53 221.258Z" fill="white"/>
<g opacity="0.2">
<path d="M416.215 137.274C415.718 145.873 413.569 153.857 410.177 160.746L400.002 153.196C402.381 148.52 403.944 143.091 404.441 137.274H416.215Z" fill="#FFC727"/>
<path d="M416.339 133.35C416.339 133.897 416.339 134.444 416.304 134.992H404.566C404.584 134.445 404.601 133.898 404.601 133.35C404.601 120.667 399.54 109.512 391.868 103.011L397.746 89.9404C408.916 99.0661 416.339 115.102 416.339 133.35Z" fill="#FFC727"/>
<path d="M396.219 88.7555L390.359 101.827C386.452 98.9518 381.995 97.2417 377.218 97.0593V81.9814C384.126 82.1629 390.607 84.6037 396.219 88.7555Z" fill="#FFC727"/>
<path d="M375.442 81.98V97.0578C365.444 97.4457 356.743 104.517 351.965 114.941L341.79 107.413C348.591 92.496 361.092 82.3679 375.442 81.98Z" fill="#FFC727"/>
<path d="M351.113 116.949C349.23 121.694 348.147 127.054 348.076 132.711H336.338C336.409 124.294 338.06 116.379 340.937 109.398L351.113 116.949Z" fill="#FFC727"/>
<path d="M360.578 163.505L354.7 176.575C343.974 167.725 336.764 152.442 336.356 134.992H348.094C348.502 146.877 353.351 157.279 360.578 163.505Z" fill="#FFC727"/>
<path d="M409.182 162.638C401.972 176.005 389.95 184.742 376.329 184.742C368.995 184.742 362.123 182.21 356.209 177.761L362.087 164.714C366.277 167.863 371.143 169.664 376.328 169.664C385.598 169.664 393.82 163.939 398.988 155.065L409.182 162.638Z" fill="#FFC727"/>
<path d="M393.486 142.659C397.478 130.489 393.034 116.467 383.56 111.339C374.086 106.211 363.169 111.919 359.177 124.089C355.185 136.258 359.629 150.281 369.103 155.408C378.577 160.536 389.493 154.828 393.486 142.659Z" fill="#FFC727"/>
</g>
<g opacity="0.2">
<path d="M193.537 190.962C193.04 199.561 190.89 207.545 187.499 214.434L177.324 206.884C179.703 202.208 181.266 196.779 181.763 190.962H193.537Z" fill="#FFC727"/>
<path d="M193.662 187.037C193.662 187.584 193.662 188.132 193.626 188.68H181.888C181.906 188.133 181.923 187.585 181.923 187.037C181.923 174.355 176.862 163.2 169.19 156.699L175.069 143.628C186.239 152.754 193.662 168.789 193.662 187.037Z" fill="#FFC727"/>
<path d="M173.541 142.443L167.681 155.513C163.774 152.639 159.317 150.928 154.54 150.746V135.668C161.448 135.85 167.93 138.291 173.541 142.443Z" fill="#FFC727"/>
<path d="M152.764 135.668V150.746C142.766 151.134 134.064 158.205 129.287 168.629L119.112 161.101C125.913 146.184 138.415 136.056 152.764 135.668Z" fill="#FFC727"/>
<path d="M128.435 170.637C126.553 175.381 125.469 180.742 125.398 186.398H113.66C113.731 177.981 115.382 170.067 118.26 163.086L128.435 170.637Z" fill="#FFC727"/>
<path d="M137.9 217.192L132.022 230.262C121.296 221.412 114.086 206.129 113.678 188.68H125.416C125.824 200.564 130.672 210.966 137.9 217.192Z" fill="#FFC727"/>
<path d="M186.505 216.326C179.295 229.693 167.273 238.43 153.652 238.43C146.319 238.43 139.446 235.898 133.532 231.449L139.41 218.401C143.601 221.55 148.467 223.351 153.652 223.351C162.922 223.351 171.144 217.626 176.311 208.752L186.505 216.326Z" fill="#FFC727"/>
<path d="M153.661 210.961C163.942 210.961 172.276 200.255 172.276 187.049C172.276 173.843 163.942 163.137 153.661 163.137C143.379 163.137 135.045 173.843 135.045 187.049C135.045 200.255 143.379 210.961 153.661 210.961Z" fill="#FFC727"/>
</g>
</svg>
