<svg width="500" height="500" viewBox="0 0 500 500" fill="none" xmlns="http://www.w3.org/2000/svg">
<path d="M247.298 0.109403C124.505 -3.60386 18.14 87.6427 2.06995 207.37C-15.5 338.275 81.2035 456.058 200.193 474.923C348.197 498.388 491.752 362.642 478.862 215.379C469.151 104.429 372.12 3.88413 247.298 0.109403Z" fill="#F4F7FA"/>
<path d="M299.872 468.577C293.335 466.418 288.449 460.893 287.071 454.102L277.556 407.206L196.164 410.084L186.147 458.939C184.744 465.781 190.36 472.646 196.827 475.166L230.88 488.434C237.214 490.902 244.022 491.885 250.788 491.308L322.754 485.177C324.858 484.998 326.545 483.351 326.79 481.239C327.035 479.126 328.509 476.754 326.503 476.091L299.872 468.577Z" fill="#97A6B7"/>
<path d="M300.677 465.725C294.147 463.593 289.265 458.137 287.889 451.432L278.384 405.125L198.975 407.97L188.969 456.211C187.567 462.967 191.275 469.743 197.736 472.231L231.755 485.332C238.082 487.769 244.883 488.74 251.643 488.171L323.536 482.117C325.638 481.94 327.324 480.314 327.568 478.227C327.813 476.141 326.548 474.172 324.544 473.518L300.677 465.725Z" fill="url(#paint0_linear_11_2756)"/>
<path d="M29.8498 438.375C21.0234 438.899 13.8025 433.197 13.8025 425.661V154.056C13.8025 146.521 21.0234 140.701 29.8498 141.082L439.807 169.345C446.287 169.625 449.764 164.416 449.764 170.824V401.822C449.764 408.231 444.517 413.757 438.037 414.142L29.8498 438.375Z" fill="#97A6B7"/>
<path d="M33.5182 438.375C24.6919 438.899 17.4709 433.197 17.4709 425.661V154.056C17.4709 146.521 24.6919 140.701 33.5182 141.082L441.705 158.695C448.185 158.975 453.432 164.415 453.432 170.824V401.822C453.432 408.231 448.185 413.757 441.705 414.142L33.5182 438.375Z" fill="white"/>
<path opacity="0.3" d="M441.705 164.131L33.5183 147.409C28.7996 147.216 24.9631 150.321 24.9631 154.344V365.581V425.251C24.9631 429.275 28.7996 432.318 33.5183 432.048L441.705 408.705C445.178 408.507 447.987 405.559 447.987 402.12V349.315V170.615C447.987 167.176 445.178 164.274 441.705 164.131Z" fill="#D8DEE8"/>
<path d="M438.672 389.16L37.9422 408.859C33.736 409.065 30.3176 406.297 30.3176 402.674V157.903C30.3176 154.28 33.736 151.469 37.9422 151.625L438.672 166.438C441.817 166.554 444.361 169.179 444.361 172.301V383.227C444.361 386.349 441.817 389.005 438.672 389.16Z" fill="url(#paint1_linear_11_2756)"/>
<path opacity="0.6" d="M137.91 177.475L46.3923 174.794V166.105L137.91 169.053V177.475Z" fill="white"/>
<path opacity="0.36" d="M181.008 176.333L159.867 175.696V169.759L181.008 170.44V176.333Z" fill="white"/>
<path opacity="0.36" d="M181.008 184.521L159.867 183.944V178.008L181.008 178.628V184.521Z" fill="white"/>
<path d="M286.365 187.392L204.346 185.157V179.312L286.365 181.718V187.392Z" fill="url(#paint2_linear_11_2756)"/>
<path opacity="0.5" d="M299.814 195.604L218.611 193.625V187.81L299.814 189.958V195.604Z" fill="url(#paint3_linear_11_2756)"/>
<path opacity="0.5" d="M299.814 203.45L218.611 201.704V195.889L299.814 197.803V203.45Z" fill="url(#paint4_linear_11_2756)"/>
<path opacity="0.6" d="M299.814 211.296L218.611 209.784V203.969L299.814 205.649V211.296Z" fill="white"/>
<path opacity="0.36" d="M181.008 192.708L159.867 192.193V186.256L181.008 186.816V192.708Z" fill="white"/>
<path opacity="0.36" d="M181.008 200.896L159.867 200.442V194.505L181.008 195.003V200.896Z" fill="white"/>
<path opacity="0.36" d="M181.008 209.083L159.867 208.69V202.753L181.008 203.191V209.083Z" fill="white"/>
<path opacity="0.36" d="M181.008 217.271L159.867 216.938V211.001L181.008 211.378V217.271Z" fill="white"/>
<path opacity="0.6" d="M237.66 218.162L185.622 217.343V211.46L237.66 212.387V218.162Z" fill="white"/>
<path opacity="0.36" d="M181.008 225.458L159.867 225.186V219.25L181.008 219.565V225.458Z" fill="white"/>
<path opacity="0.36" d="M181.008 233.646L159.867 233.435V227.498L181.008 227.753V233.646Z" fill="white"/>
<path opacity="0.36" d="M181.008 241.833L159.867 241.683V235.747L181.008 235.941V241.833Z" fill="white"/>
<path opacity="0.5" d="M262.041 226.501L204.346 225.758V219.914L262.041 220.776V226.501Z" fill="url(#paint5_linear_11_2756)"/>
<path opacity="0.6" d="M292.015 234.754L218.611 234.021V228.206L292.015 229.091V234.754Z" fill="white"/>
<path d="M292.015 242.621L218.611 242.1V236.285L292.015 236.959V242.621Z" fill="url(#paint6_linear_11_2756)"/>
<path opacity="0.36" d="M181.008 250.021L159.867 249.931V243.995L181.008 244.128V250.021Z" fill="white"/>
<path opacity="0.36" d="M181.008 258.208L159.867 258.18V252.243L181.008 252.315V258.208Z" fill="white"/>
<path opacity="0.36" d="M181.008 266.396L159.867 266.428V260.492L181.008 260.503V266.396Z" fill="white"/>
<path opacity="0.36" d="M181.008 274.583L159.867 274.676V268.74L181.008 268.69V274.583Z" fill="white"/>
<path opacity="0.36" d="M181.008 282.771L159.867 282.925V276.988L181.008 276.878V282.771Z" fill="white"/>
<path opacity="0.36" d="M181.008 290.958L159.867 291.173V285.237L181.008 285.065V290.958Z" fill="white"/>
<path opacity="0.36" d="M181.008 299.146L159.867 299.422V293.485L181.008 293.253V299.146Z" fill="white"/>
<path opacity="0.36" d="M181.008 307.333L159.867 307.67V301.734L181.008 301.44V307.333Z" fill="white"/>
<path opacity="0.36" d="M181.008 315.52L159.867 315.918V309.981L181.008 309.627V315.52Z" fill="white"/>
<path opacity="0.36" d="M181.008 323.708L159.867 324.167V318.23L181.008 317.815V323.708Z" fill="white"/>
<path opacity="0.36" d="M181.008 331.896L159.867 332.415V326.479L181.008 326.003V331.896Z" fill="white"/>
<path opacity="0.36" d="M181.008 340.083L159.867 340.663V334.726L181.008 334.19V340.083Z" fill="white"/>
<path opacity="0.36" d="M181.008 348.27L159.867 348.911V342.975L181.008 342.377V348.27Z" fill="white"/>
<path opacity="0.36" d="M181.008 356.458L159.867 357.16V351.223L181.008 350.565V356.458Z" fill="white"/>
<path opacity="0.36" d="M181.008 364.646L159.867 365.409V359.472L181.008 358.753V364.646Z" fill="white"/>
<path opacity="0.36" d="M181.008 372.833L159.867 373.657V367.72L181.008 366.94V372.833Z" fill="white"/>
<path opacity="0.36" d="M181.008 381.02L159.867 381.905V375.968L181.008 375.127V381.02Z" fill="white"/>
<path opacity="0.36" d="M181.008 389.208L159.867 390.153V384.217L181.008 383.315V389.208Z" fill="white"/>
<path opacity="0.5" d="M243.136 178.206L185.478 176.468V170.584L243.136 172.442V178.206Z" fill="url(#paint7_linear_11_2756)"/>
<path opacity="0.6" d="M286.365 345.075L204.346 347.563V341.718L286.365 339.401V345.075Z" fill="white"/>
<path opacity="0.5" d="M299.814 352.513L218.611 355.209V349.394L299.814 346.866V352.513Z" fill="url(#paint8_linear_11_2756)"/>
<path opacity="0.5" d="M299.814 360.359L218.611 363.289V357.474L299.814 354.712V360.359Z" fill="url(#paint9_linear_11_2756)"/>
<path opacity="0.5" d="M334.807 366.841L255.706 369.923V364.185L334.807 361.267V366.841Z" fill="url(#paint10_linear_11_2756)"/>
<path d="M334.807 374.585L255.706 377.895V372.157L334.807 369.011V374.585Z" fill="url(#paint11_linear_11_2756)"/>
<path opacity="0.6" d="M334.807 382.33L255.706 385.868V380.13L334.807 376.756V382.33Z" fill="white"/>
<path opacity="0.5" d="M243.136 338.378L185.478 339.96V334.077L243.136 332.614V338.378Z" fill="url(#paint12_linear_11_2756)"/>
<path opacity="0.5" d="M286.365 258.35L204.346 258.239V252.395L286.365 252.675V258.35Z" fill="url(#paint13_linear_11_2756)"/>
<path opacity="0.6" d="M299.814 266.213L218.611 266.338V260.523L299.814 260.567V266.213Z" fill="white"/>
<path opacity="0.5" d="M299.814 274.059L218.611 274.417V268.602L299.814 268.412V274.059Z" fill="url(#paint14_linear_11_2756)"/>
<path opacity="0.5" d="M299.814 281.904L218.611 282.497V276.682L299.814 276.258V281.904Z" fill="url(#paint15_linear_11_2756)"/>
<path opacity="0.5" d="M237.66 290.382L185.622 290.911V285.028L237.66 284.606V290.382Z" fill="url(#paint16_linear_11_2756)"/>
<path opacity="0.6" d="M262.041 298.088L204.346 298.841V292.997L262.041 292.363V298.088Z" fill="white"/>
<path d="M292.015 305.565L218.611 306.734V300.919L292.015 299.902V305.565Z" fill="url(#paint17_linear_11_2756)"/>
<path opacity="0.5" d="M292.015 313.433L218.611 314.814V308.999L292.015 307.77V313.433Z" fill="url(#paint18_linear_11_2756)"/>
<path opacity="0.5" d="M308.288 320.948L235.767 322.52V316.741L308.288 315.318V320.948Z" fill="url(#paint19_linear_11_2756)"/>
<path opacity="0.5" d="M308.288 328.769L235.767 330.55V324.771L308.288 323.14V328.769Z" fill="url(#paint20_linear_11_2756)"/>
<path d="M243.136 250.283L185.478 250.04V244.156L243.136 244.519V250.283Z" fill="url(#paint21_linear_11_2756)"/>
<path d="M137.91 190.635L85.5271 189.339V180.764L137.91 182.213V190.635Z" fill="white"/>
<path opacity="0.6" d="M71.9785 189.004L81.8445 189.248V180.662L71.9785 180.389V189.004Z" fill="white"/>
<path opacity="0.6" d="M137.91 202.742L85.5271 201.666V193.091L137.91 194.32V202.742Z" fill="white"/>
<path opacity="0.6" d="M71.9785 201.388L81.8445 201.59V193.004L71.9785 192.773V201.388Z" fill="white"/>
<path opacity="0.6" d="M137.91 214.849L85.5271 213.993V205.417L137.91 206.427V214.849Z" fill="white"/>
<path opacity="0.6" d="M71.9785 213.771L81.8445 213.933V205.347L71.9785 205.157V213.771Z" fill="white"/>
<path d="M137.91 300.789L46.3923 302.018V293.328L137.91 292.367V300.789Z" fill="white"/>
<path opacity="0.6" d="M137.91 313.949L85.5271 314.891V306.316L137.91 305.526V313.949Z" fill="white"/>
<path opacity="0.6" d="M71.9785 315.134L81.8445 314.957V306.371L71.9785 306.52V315.134Z" fill="white"/>
<path opacity="0.6" d="M137.91 326.056L85.5271 327.218V318.643L137.91 317.634V326.056Z" fill="white"/>
<path opacity="0.6" d="M71.9785 327.519L81.8445 327.3V318.714L71.9785 318.904V327.519Z" fill="white"/>
<path opacity="0.6" d="M137.91 338.164L85.5271 339.545V330.97L137.91 329.741V338.164Z" fill="white"/>
<path opacity="0.6" d="M71.9785 339.902L81.8445 339.642V331.056L71.9785 331.287V339.902Z" fill="white"/>
<path d="M137.91 227.038L46.3923 225.929V217.24L137.91 218.616V227.038Z" fill="white"/>
<path opacity="0.6" d="M137.91 240.198L85.5271 239.802V231.227L137.91 231.776V240.198Z" fill="white"/>
<path opacity="0.6" d="M71.9785 239.7L81.8445 239.774V231.188L71.9785 231.085V239.7Z" fill="white"/>
<path opacity="0.6" d="M137.91 252.305L85.5271 252.129V243.554L137.91 243.883V252.305Z" fill="white"/>
<path opacity="0.6" d="M71.9785 252.084L81.8445 252.117V243.531L71.9785 243.469V252.084Z" fill="white"/>
<path opacity="0.6" d="M137.91 276.677L85.5271 276.943V268.368L137.91 268.255V276.677Z" fill="white"/>
<path opacity="0.6" d="M71.9785 277.012L81.8445 276.961V268.375L71.9785 268.397V277.012Z" fill="white"/>
<path opacity="0.6" d="M137.91 288.784L85.5271 289.27V280.694L137.91 280.362V288.784Z" fill="white"/>
<path opacity="0.6" d="M71.9785 289.395L81.8445 289.304V280.718L71.9785 280.78V289.395Z" fill="white"/>
<path opacity="0.6" d="M137.91 264.413L85.5271 264.456V255.881L137.91 255.991V264.413Z" fill="white"/>
<path opacity="0.6" d="M71.9785 264.467L81.8445 264.459V255.873L71.9785 255.853V264.467Z" fill="white"/>
<path d="M137.91 350.267L46.3923 353.064V344.374L137.91 341.844V350.267Z" fill="white"/>
<path opacity="0.6" d="M137.91 363.426L85.5271 365.266V356.691L137.91 355.004V363.426Z" fill="white"/>
<path opacity="0.6" d="M71.9785 365.742L81.8445 365.396V356.81L71.9785 357.127V365.742Z" fill="white"/>
<path opacity="0.6" d="M137.91 375.534L85.5271 377.593V369.018L137.91 367.111V375.534Z" fill="white"/>
<path opacity="0.6" d="M71.9785 378.126L81.8445 377.738V369.152L71.9785 369.511V378.126Z" fill="white"/>
<path opacity="0.6" d="M137.91 387.641L85.5271 389.92V381.345L137.91 379.218V387.641Z" fill="white"/>
<path opacity="0.6" d="M71.9785 390.509L81.8445 390.08V381.494L71.9785 381.895V390.509Z" fill="white"/>
<path opacity="0.6" d="M149.031 387.199L147.015 387.286V169.346L149.031 169.411V387.199Z" fill="white"/>
<path opacity="0.6" d="M399.092 397.33C310.235 399.181 290.253 411.815 265.005 396.676C230.311 375.874 246.111 338.87 212.308 319.459C169.811 295.056 120.814 339.749 98.6345 317.96C76.5466 296.261 118.272 245.192 94.1177 188.265C84.4245 165.42 67.9193 150.582 56.5178 142.075L33.518 141.083C24.6915 140.702 17.4707 146.521 17.4707 154.057V425.661C17.4707 433.197 24.6915 438.899 33.518 438.375L441.705 414.142C448.185 413.758 453.432 408.232 453.432 401.823V397.716C441.198 397.284 422.248 396.848 399.092 397.33Z" fill="white"/>
<path d="M387.968 212.378C409.813 232.11 437.632 237.32 451.642 224.779L451.651 224.786L451.704 224.724C452.277 224.21 452.835 223.678 453.357 223.102C454.016 222.375 454.627 221.614 455.182 220.828L472.123 201.831L475.642 197.881L450.282 175.668C446.596 169.957 441.902 164.403 436.294 159.332C429.985 153.635 423.177 149.153 416.354 145.949L390.97 123.721L371.13 148.373C371.058 148.453 370.976 148.527 370.904 148.607C370.156 149.422 369.48 150.287 368.869 151.188C367.895 152.614 367.085 154.136 366.429 155.745C360.08 171.318 368.482 194.771 387.968 212.378Z" fill="url(#paint22_linear_11_2756)"/>
<path opacity="0.3" d="M387.811 212.543C393.714 218.13 400.405 222.852 407.663 226.048C415.112 229.328 425.633 232.314 433.874 231.627C447.577 230.485 454.042 221.833 462.416 212.547C465.643 208.969 469.11 205.587 472.142 201.838C464.186 200.829 453.859 203.421 446.396 206.036C439.949 208.294 433.812 211.971 426.978 212.982C411.909 215.21 395.813 205.901 388.278 193.135C383.674 185.335 385.506 175.215 379.593 167.991C375.77 163.321 369.858 160.765 366.429 155.746C367.043 156.645 364.904 163.027 364.751 164.384C364.398 167.506 364.42 170.648 364.859 173.761C365.883 181.03 369 187.89 372.846 194.09C376.924 200.663 381.983 207.025 387.811 212.543Z" fill="url(#paint23_linear_11_2756)"/>
<path d="M371.37 106.614L459.432 126.235L497.316 207.798L499.747 209.75L498.9 210.795L407.342 190.415L367.974 105.61L368.82 104.565L371.37 106.614Z" fill="url(#paint24_linear_11_2756)"/>
<path d="M460.598 124.797L500 209.63L408.407 189.221L369.005 104.389L460.598 124.797Z" fill="url(#paint25_linear_11_2756)"/>
<path d="M464.328 251.78C465.02 251.887 465.684 251.441 465.836 250.751L475.779 205.643C475.859 205.281 475.783 204.902 475.57 204.598L437.769 150.614C437.347 150.011 436.515 149.864 435.91 150.284C435.305 150.704 435.157 151.533 435.578 152.135L473.046 205.641L463.228 250.181C463.07 250.898 463.526 251.607 464.246 251.764C464.274 251.771 464.301 251.776 464.328 251.78Z" fill="url(#paint26_linear_11_2756)"/>
<path d="M467.382 249.649L466.582 247.887C466.276 247.219 465.631 246.771 464.896 246.719C464.16 246.666 463.456 247.018 463.058 247.636L462.106 249.313C461.846 249.715 461.811 250.185 461.769 250.662L460.471 265.364C460.443 265.68 461.655 266.044 463.346 266.192C465.037 266.34 466.294 266.192 466.322 265.877L467.625 251.133C467.669 250.624 467.595 250.113 467.382 249.649Z" fill="url(#paint27_linear_11_2756)"/>
<path d="M374.488 320.704C370.279 316.228 381.931 299.415 388.168 292.048C393.616 285.612 399.216 278.997 406.093 279.834C412.131 280.57 418.006 286.911 418.358 292.988C419.305 309.336 380.472 327.066 374.488 320.704Z" fill="url(#paint28_linear_11_2756)"/>
<path d="M425.026 493.474C425.818 494.116 425.964 495.717 426.059 496.764C426.102 497.232 426.123 497.466 426.07 497.631C425.688 498.836 423.341 498.963 419.661 499.337C413.846 499.929 412.116 500.385 411.661 499.523C411.234 498.715 412.266 497.393 412.383 497.247C413.007 496.463 413.775 496.178 415.257 495.692C418.001 494.793 419.854 494.301 420.416 494.152C423.92 493.22 424.506 493.053 425.026 493.474Z" fill="url(#paint29_linear_11_2756)"/>
<path d="M421.568 488.184L420.986 494.783C421.151 495.101 423.12 496.057 424.685 495.237L426.18 488.751L421.568 488.184Z" fill="#D8DEE8"/>
<path d="M378.908 492.626C379.858 493.671 380.074 495.594 379.249 496.541C378.437 497.472 377.216 496.774 373.755 496.877C370.047 496.987 369.079 497.859 366.559 497.167C365.541 496.887 363.744 496.207 363.778 495.483C363.802 494.974 364.717 494.711 367.774 493.691C372.113 492.244 372.094 492.165 373.016 492.013C375.33 491.631 377.654 491.247 378.908 492.626Z" fill="url(#paint30_linear_11_2756)"/>
<path d="M376.533 486.604L374.673 492.764C374.814 493.095 376.704 494.197 378.327 493.499L381.089 487.519L376.533 486.604Z" fill="#D8DEE8"/>
<path d="M393.057 351.68C392.79 372.384 391.372 395.663 387.967 420.954C384.603 445.951 379.888 468.536 374.745 488.397C377.118 489.033 379.491 489.668 381.864 490.304C387.883 484.714 395.477 475.915 399.141 463.48C401.416 455.762 400.658 451.797 402.1 442.304C404.397 427.189 409.05 419.27 413.858 407.082C418.179 396.13 423.287 380.056 426.026 358.57C415.036 356.274 404.046 353.977 393.057 351.68Z" fill="url(#paint31_linear_11_2756)"/>
<path d="M414.475 349.704C415.927 376.036 417.122 402.858 418.027 430.155C418.706 450.638 419.205 470.862 419.536 490.82C421.96 491.118 424.384 491.416 426.808 491.714C429.15 487.372 432.26 480.733 434.391 472.224C436.979 461.89 436.38 455.753 437.515 445.042C438.789 433.029 440.638 430.412 443.915 415.258C450.566 384.503 453.891 369.126 446.472 359.56C444.064 356.455 436.514 348.665 414.475 349.704Z" fill="url(#paint32_linear_11_2756)"/>
<path d="M449.799 283.525C444.123 281.935 435.804 280.076 425.616 279.503C411.085 278.685 403.82 278.276 398.672 281.722C386.781 289.681 395.987 308.05 391.119 353.585C390.424 360.088 390.268 366.637 389.765 373.157C388.931 383.953 388.741 384.539 389.496 385.633C394.226 392.493 411.873 382.146 437.739 386.236C452.212 388.524 458.776 393.797 462.741 389.994C467.365 385.559 463.398 373.631 459.984 363.363C456.065 351.576 453.644 351.424 451.42 342.548C449.094 333.27 450.501 328.492 450.863 313.862C451.036 306.861 450.999 296.442 449.799 283.525Z" fill="url(#paint33_linear_11_2756)"/>
<g opacity="0.3">
<path d="M414.625 369.011C421.386 368.484 425.771 372.291 431.607 369.324C439.609 365.257 442.18 352.601 441.67 343.644C440.896 330.034 433.092 326.447 434.437 317.65C435.165 312.893 438.575 306.577 450.821 300.124C450.985 305.555 450.954 310.184 450.862 313.862C450.5 328.493 449.094 333.27 451.419 342.548C453.644 351.425 456.065 351.576 459.984 363.363C463.398 373.631 467.364 385.559 462.74 389.994C458.775 393.797 452.212 388.524 437.739 386.236C415.451 382.712 399.275 389.897 392.197 387.567C400.75 373.492 408.507 369.488 414.625 369.011Z" fill="url(#paint34_linear_11_2756)"/>
</g>
<path d="M440.577 284.459C445.405 280.508 455.114 284.98 457.709 286.176C472.182 292.842 485.176 310.807 481.956 329.792C481.473 332.639 479.234 345.956 467.91 352.409C457.693 358.232 443.896 356.734 432.842 348.488C431.331 347.153 429.82 345.818 428.309 344.483C426.823 342.883 425.337 341.284 423.851 339.684C426.187 337.748 430.156 334.957 435.731 333.165C443.082 330.803 448.433 335.041 451.843 331.819C454.196 329.596 454.202 325.668 453.621 323.288C452.449 318.49 448.203 317.141 444.658 313.736C436.33 305.735 434.796 289.19 440.577 284.459Z" fill="url(#paint35_linear_11_2756)"/>
<path d="M371.189 346.436L435.907 345.474L418.698 353.745L371.024 350.638L371.189 346.436Z" fill="url(#paint36_linear_11_2756)"/>
<path d="M438.191 347.186V347.187C438.191 348.393 437.433 349.47 436.295 349.882L415.616 357.956L415.521 352.359L435.907 345.474C437.051 345.146 438.191 346.001 438.191 347.186Z" fill="url(#paint37_linear_11_2756)"/>
<path d="M428.226 343.373C428.623 343.285 426.291 338.657 424.46 339.191C422.629 339.725 413.675 344.894 412.861 347.021C412.047 349.149 412.047 349.149 412.047 349.149C412.047 349.149 415.953 349.453 418.375 348.643C420.798 347.832 424.996 344.09 428.226 343.373Z" fill="white"/>
<path d="M413.805 313.088L418.366 354.451C418.524 355.878 416.517 358.004 415.077 357.936L348.156 353.845C347.056 353.793 346.14 352.987 345.954 351.907L337.555 311.957C337.304 310.503 339.928 309.002 341.409 309.043L411.538 311.007C412.71 311.04 413.677 311.928 413.805 313.088Z" fill="url(#paint38_linear_11_2756)"/>
<path d="M412.275 314.293L416.837 355.657C416.994 357.084 415.834 358.313 414.394 358.246L346.626 355.051C345.526 354.999 344.611 354.193 344.424 353.113L337.501 312.98C337.25 311.526 338.398 310.207 339.879 310.249L410.009 312.213C411.18 312.245 412.147 313.134 412.275 314.293Z" fill="url(#paint39_linear_11_2756)"/>
<path opacity="0.3" d="M372.482 345.358C378.399 342.861 376.311 338.098 383.298 332.163C392.516 324.334 401.912 327.729 405.201 321.661C406.226 319.771 406.715 316.83 404.931 312.07L410.009 312.212C411.18 312.245 412.148 313.133 412.275 314.293L416.837 355.657C416.994 357.084 415.834 358.313 414.394 358.246L346.626 355.051C345.526 354.999 344.611 354.193 344.424 353.112L343.469 347.575C345.525 346.435 347.982 345.399 350.849 344.82C360.792 342.812 365.669 348.234 372.482 345.358Z" fill="url(#paint40_linear_11_2756)"/>
<path d="M342.357 349.266C342.246 348.933 342.48 348.589 342.832 348.572C344.264 348.499 347.586 348.469 349.42 349.588C351.802 351.041 354.883 353.692 352.288 355.03L349.866 356.28C349.755 356.337 349.634 356.355 349.512 356.329C348.651 356.14 345.028 355.34 344.632 355.141C344.272 354.96 342.89 350.878 342.357 349.266Z" fill="white"/>
<path d="M424.531 263.693C424.495 267.983 424.975 271.385 425.43 273.715C425.951 276.385 426.326 277.075 426.805 277.634C427.526 278.477 428.619 279.183 434.791 280.708C438.151 281.537 438.583 281.514 438.657 281.846C439.019 283.466 429.859 288.985 420.396 287.655C414.604 286.841 409.335 283.55 409.658 281.822C409.984 280.083 415.769 281.016 417.493 277.87C418.693 275.682 417.348 272.575 415.759 270.002C417.298 267.129 422.992 266.566 424.531 263.693Z" fill="white"/>
<path d="M413.782 265.39C412.415 263.582 412.33 260.425 413.905 258.43C415.261 256.713 417.394 256.468 418.67 256.321C422.37 255.895 427.039 257.433 428.663 260.825C429.625 262.835 427.544 267.01 427.218 267.761C426.848 268.61 426.18 268.901 425.56 269.543C424.703 270.433 423.359 271.849 421.167 274.216C420.997 273.517 420.738 272.652 420.326 271.715C420.168 271.354 419.532 269.946 418.569 268.777C416.641 266.435 415.077 267.103 413.782 265.39Z" fill="url(#paint41_linear_11_2756)"/>
<path d="M424.294 272.225C424.294 272.225 421.862 276.199 417.019 275.885C412.683 275.604 412.048 265.92 414.817 263.865C415.741 263.18 417.592 262.895 419.096 263.315C419.985 263.563 420.286 263.931 421.746 264.308C423.093 264.656 423.473 264.507 423.88 264.847C424.388 265.274 424.761 266.318 423.911 269.149C424.739 268.315 425.732 267.995 426.435 268.326C426.547 268.379 426.845 268.581 427.013 268.886C427.619 269.992 426.605 271.405 424.294 272.225Z" fill="white"/>
<path d="M424.076 264.269C423.867 264.424 424.506 265.201 424.553 266.3C424.646 268.435 422.477 270.997 420.263 271.215C418.955 271.343 418.595 270.557 416.432 270.33C415.093 270.189 413.978 270.359 413.277 270.511C412.597 272.852 413.236 275.186 414.808 276.269C416.499 277.435 418.66 276.728 419.564 276.432C420.168 276.234 422.105 275.604 423.117 273.836C424.172 271.992 423.137 270.881 424.347 269.635C424.957 269.006 425.758 268.734 426.539 267.516C426.751 267.186 426.892 266.893 426.979 266.696C425.86 265.516 424.379 264.044 424.076 264.269Z" fill="url(#paint42_linear_11_2756)"/>
<path d="M414.851 271.379C414.851 271.379 415.787 271.866 417.405 271.776C417.484 271.771 417.571 271.794 417.581 271.835C417.618 271.987 416.58 272.673 415.623 272.405C414.944 272.215 414.416 271.575 414.507 271.412C414.546 271.343 414.699 271.352 414.851 271.379Z" fill="white"/>
<path d="M76.262 288.383C75.1123 288.816 57.5756 295.761 53.971 313.988C53.6798 315.46 50.8624 331.121 61.5267 342.183C73.485 354.589 96.5115 354.281 105.651 343.91C107.783 341.492 108.907 338.812 109.537 336.559L107.129 330.188C104.19 326.655 100.19 325.818 98.0528 325.294C92.7852 324.001 88.8082 326.337 85.7913 323.808C84.1221 322.408 83.7904 320.394 83.4942 318.594C82.4853 312.465 85.959 308.693 86.2119 304.913C86.4011 302.087 87.3941 295.896 83.6907 291.859C81.3457 289.303 78.0976 288.607 76.262 288.383Z" fill="url(#paint43_linear_11_2756)"/>
<path d="M69.4288 491.518C69.2242 490.396 65.5855 489.381 63.7837 490.883C62.8891 491.63 62.2729 493.143 62.7906 493.826C62.9789 494.074 62.2076 494.511 62.9467 494.52C65.3979 494.548 69.6324 492.633 69.4288 491.518Z" fill="url(#paint44_linear_11_2756)"/>
<path d="M65.615 491.927L61.8728 491.4C63.6065 489.321 63.2855 482.701 63.2855 482.701L67.2654 483.586C67.2654 483.586 66.812 485.403 66.0405 488.083C65.7764 489.001 65.6584 490.437 65.615 491.927Z" fill="url(#paint45_linear_11_2756)"/>
<path d="M65.947 491.468C65.947 491.468 61.4414 490.434 60.954 491.324C60.4666 492.214 60.0884 494.597 62.9468 494.52C65.8054 494.443 66.2009 492.222 65.947 491.468Z" fill="url(#paint46_linear_11_2756)"/>
<path d="M120.778 495.726C120.418 494.643 116.672 494.145 115.099 495.884C114.318 496.748 113.92 498.332 114.529 498.936C114.75 499.156 114.048 499.696 114.781 499.602C117.212 499.288 121.136 496.801 120.778 495.726Z" fill="url(#paint47_linear_11_2756)"/>
<path d="M117.058 496.662H113.279C114.704 494.362 113.455 487.852 113.455 487.852L117.52 488.173C117.52 488.173 117.327 490.035 116.94 492.797C116.807 493.742 116.892 495.18 117.058 496.662Z" fill="url(#paint48_linear_11_2756)"/>
<path d="M126.854 354.329C128.604 360.087 131.105 369.379 132.714 381.039C137.305 414.294 127.547 415.355 129.37 452.207C129.951 463.97 119.136 491.094 118.183 491.693C117.722 491.738 117.221 491.768 116.687 491.752C115.747 491.723 114.42 491.58 112.878 491.119C111.165 490.825 104.988 474.165 106.42 464.259C107.433 457.248 107.139 449.724 106.552 434.676C106.457 432.238 100.192 387.237 100.192 387.237C98.2868 403.894 96.0954 418.047 94.1955 429.019C88.0914 464.274 68.2447 485.612 67.2094 485.954C67.005 486.036 65.1427 486.709 63.62 485.71C62.9423 485.265 62.7116 484.691 62.7116 484.691C62.1808 484.277 62.8682 449.494 68.9218 423.317C77.7085 385.32 73.8823 376.43 76.6661 359.459C79.0748 344.773 126.854 354.329 126.854 354.329Z" fill="url(#paint49_linear_11_2756)"/>
<path d="M129.207 360.069C123.93 362.766 110.34 367.598 94.1438 365.198C86.9629 364.133 81.1805 361.795 77.0363 359.653C76.9099 359.59 76.7832 359.527 76.663 359.464C80.8703 346.794 77.574 340.014 76.0177 333.764C73.7972 324.856 73.7653 325.53 71.9368 318.448C68.9254 306.767 68.4316 294.834 70.5006 292.395C76.081 285.811 86.1405 285.572 91.3602 285.414C97.1933 285.244 110.606 283.196 117.989 289.812C118.116 289.925 116.604 290.732 117.351 291.601C118.04 292.408 120.413 295.237 122.564 299.055C124.12 301.821 125.531 305.047 126.948 309.848C129.447 318.322 130.169 325.542 130.409 328.686C130.485 329.726 130.555 330.734 130.618 331.704C131.599 347.317 130.352 354.852 129.207 360.069Z" fill="url(#paint50_linear_11_2756)"/>
<path d="M117.323 496.161C117.323 496.161 112.716 495.765 112.359 496.715C112.002 497.664 111.962 500.076 114.781 499.601C117.601 499.127 117.68 496.873 117.323 496.161Z" fill="url(#paint51_linear_11_2756)"/>
<path d="M108.151 277.99C109.74 274.829 108.694 271.418 108.46 270.681C107.482 267.597 107.167 267.141 106.535 266.518L105.648 265.705C105.648 265.705 105.594 265.671 105.537 265.637C104.934 265.284 102.743 264.793 102.278 264.802C100.793 264.831 98.1515 270.327 96.9985 278.592C96.8789 278.893 96.7609 279.196 96.6442 279.503C95.9184 281.41 95.3121 283.279 94.8064 285.095C84.8627 286.633 83.5564 287.898 83.5593 288.576C83.5652 290.004 89.38 291.249 93.7099 291.576C103.154 292.288 112.59 289.164 112.424 287.431C112.352 286.676 110.425 285.821 102.428 285.339C102.522 284.02 102.616 282.702 102.709 281.383C103.343 281.196 106.98 280.318 108.151 277.99Z" fill="url(#paint52_linear_11_2756)"/>
<path d="M109.055 263.95C108.555 266.483 106.831 268.96 106.136 269.278C106.046 269.319 105.534 269.583 105.019 270.103C104.949 270.174 104.883 270.26 104.816 270.375C103.949 271.865 106.135 274.235 105.504 274.856C105.046 275.306 103.447 274.279 103.154 274.687C102.878 275.072 104.149 276.222 103.831 276.685C103.591 277.034 102.772 276.515 102.099 276.991C101.764 277.228 101.801 277.475 101.334 278.307C101.069 278.778 100.729 279.284 100.489 279.555C99.3201 280.874 96.7232 280.939 96.3593 280.251C96.2581 280.059 96.3996 279.942 96.3713 279.359C96.3713 279.359 96.3451 278.818 96.1002 278.152C95.7502 277.2 94.6244 276.351 93.5434 275.209C91.542 273.095 91.1856 271.553 91.0891 271.036C91.0548 270.852 91.0379 270.715 91.0258 270.616C90.7836 268.631 91.3129 265.886 92.4837 264.361C94.4449 261.805 97.3721 263.76 100.524 261.461C104.161 258.807 103.225 254.045 104.953 253.871C106.858 253.679 109.979 259.266 109.055 263.95Z" fill="#26264F"/>
<path d="M104.704 274.084C104.246 273.111 102.994 273.702 102.773 274.805C102.553 275.908 103.405 277.263 104.49 277.246C105.575 277.228 105.321 275.395 104.704 274.084Z" fill="url(#paint53_linear_11_2756)"/>
<path d="M78.5248 351.616C78.5129 351.616 78.4996 351.615 78.4877 351.614C78.3009 351.593 78.1669 351.426 78.1881 351.24C78.8734 345.093 77.593 340.621 76.4636 336.675C76.1865 335.709 75.9174 334.771 75.6881 333.845C74.4314 328.799 73.8813 326.849 73.2981 324.784C72.915 323.429 72.524 322.04 71.9128 319.706C71.8664 319.525 71.975 319.341 72.1554 319.294C72.3383 319.242 72.5238 319.356 72.5703 319.535C73.1788 321.864 73.5698 323.249 73.9516 324.601C74.5363 326.672 75.0876 328.627 76.3456 333.683C76.5749 334.602 76.8415 335.532 77.1158 336.49C78.2624 340.496 79.5627 345.035 78.8615 351.315C78.8429 351.488 78.6958 351.616 78.5248 351.616Z" fill="url(#paint54_linear_11_2756)"/>
<path opacity="0.3" d="M129.207 360.069C123.931 362.766 110.341 367.598 94.1439 365.198C86.963 364.133 81.1806 361.795 77.0364 359.653C78.9156 358.198 81.2313 355.76 85.0588 351.614C89.6965 346.599 95.131 348.47 98.3259 350.36C100.629 351.715 103.483 351.752 105.817 350.467C108.158 349.176 109.639 346.75 109.708 344.091C109.746 342.869 109.689 341.476 109.537 339.901C108.443 328.491 124.316 327.521 124.316 327.521C126.556 326.361 128.682 328.233 130.618 331.704C131.599 347.317 130.352 354.852 129.207 360.069Z" fill="url(#paint55_linear_11_2756)"/>
<path d="M184.699 309.241C184.061 309.301 183.288 309.946 182.744 310.253C181.972 310.689 181.195 311.117 180.407 311.526C178.887 312.314 177.278 312.899 175.539 312.867C175.587 312.62 175.673 312.373 175.771 312.137C176.066 311.451 176.454 310.858 176.222 310.652C175.89 310.353 174.431 310.971 173.084 312.256C172.539 312.767 172.019 313.397 171.594 314.114C170.906 315.28 171.022 315.918 170.447 316.807C169.592 317.57 168.951 317.738 168.951 317.738V317.981L169.048 318.281C168.284 318.861 167.421 319.204 166.744 319.429C167.934 319.747 169.097 320.071 170.281 320.395L171.103 321.762C171.103 321.762 175.589 320.826 178.295 319.192C179.56 318.424 179.996 317.476 180.102 316.69C180.177 316.166 180.101 315.717 180.032 315.43C179.976 315.224 179.925 315.1 179.925 315.1C179.925 315.1 183.62 313.571 185.079 310.265C185.3 309.766 185.321 309.181 184.699 309.241Z" fill="url(#paint56_linear_11_2756)"/>
<path d="M169.046 316.364C171.156 317.834 172.287 319.83 172.874 321.105C171.322 324.73 167.805 331.462 160.524 336.423C148.586 344.558 131.081 344.831 118.888 335.555C104.322 324.472 101.888 303.219 108.006 294.118C108.71 293.07 111.026 289.626 114.621 289.23C116.891 288.981 119.981 289.913 124.863 295.605C135.035 307.466 131.442 314.872 137.452 318.343C146.464 323.546 159.857 309.96 169.046 316.364Z" fill="url(#paint57_linear_11_2756)"/>
<path d="M320.383 88.7669C316.644 87.6793 311.646 94.5169 307.491 100.201C301.276 108.705 294.014 118.641 295.97 130.571C297.895 142.309 308 151.45 310.88 150.143C313.343 149.025 308.607 141.13 312.235 130.571C315.163 122.051 320.013 122.048 323.266 113.695C327.303 103.328 324.983 90.1051 320.383 88.7669Z" fill="url(#paint58_linear_11_2756)"/>
<path d="M318.532 142.833C299.273 147.489 286.587 154.963 279.179 160.25C275.163 163.116 273.309 164.903 272.308 167.508C266.603 182.353 295.913 204.798 299.037 207.149C300.402 203.98 301.766 200.812 303.13 197.644C300.101 181.089 295.059 175.895 290.839 174.351C289.659 173.919 287.678 173.455 287.716 172.899C287.807 171.584 298.94 173.458 309.579 169.582C320.188 165.716 330.847 155.935 328.944 149.468C328.596 148.288 327.141 144.875 318.532 142.833Z" fill="url(#paint59_linear_11_2756)"/>
<path d="M299.857 251.338C299.857 251.338 301.65 251.974 301.657 253.386C301.663 254.797 299.841 261.017 297.861 263.227C295.881 265.437 295.704 262.14 295.826 260.016C295.949 257.892 296.468 253.138 296.957 252.219C297.447 251.3 299.857 251.338 299.857 251.338Z" fill="url(#paint60_linear_11_2756)"/>
<path opacity="0.3" d="M294.101 164.536C290.602 164.468 282.403 163.817 280.22 167.854C278.399 171.221 281.589 176.326 283.551 179.466C288.886 188.001 294.064 188.874 297.71 194.119C299.122 196.149 300.401 198.984 300.808 203.035C301.582 201.238 302.356 199.441 303.13 197.644C300.101 181.089 295.059 175.895 290.839 174.351C289.659 173.919 287.677 173.456 287.716 172.899C287.807 171.584 298.94 173.459 309.579 169.582C319.25 166.058 328.93 157.626 329.13 151.262C313.816 162.2 302.29 164.696 294.101 164.536Z" fill="url(#paint61_linear_11_2756)"/>
<path d="M300.893 245.338C300.788 247.514 300.602 249.333 300.435 250.684C300.065 253.672 299.725 254.855 299.259 255.932C298.853 256.87 297.837 258.918 297.352 258.776C296.859 258.632 297.366 256.364 297.75 250.055C297.806 249.14 297.975 246.225 297.975 246.225L300.893 245.338Z" fill="url(#paint62_linear_11_2756)"/>
<path d="M329.638 144.077C318.541 150.739 311.338 158.315 307.15 163.43C302.206 169.469 294.685 178.655 291.963 192.352C290.511 199.653 291.226 206.202 292.713 219.002C294.191 231.715 296.308 242.065 297.965 249.133C298.818 249.475 299.672 249.816 300.525 250.157C302.811 245.975 305.8 239.355 306.872 230.89C308.626 217.041 303.423 212.64 305.92 202.818C308.084 194.31 314.352 189.093 326.887 178.658C337.187 170.086 346.684 165 350.209 154.307C350.808 152.491 351.317 150.264 350.341 148.224C348.237 143.829 340.19 142.295 329.638 144.077Z" fill="url(#paint63_linear_11_2756)"/>
<path d="M338.496 89.5593C335.615 88.9424 330.879 89.065 326.363 85.5238C325.003 84.4578 320.187 80.681 320.772 75.2773C321.287 70.52 325.815 67.9634 326.37 67.6588C329.575 65.9019 332.771 66.2925 336.315 66.775C340.91 67.4006 342.436 68.6508 345.63 69.5082C353.529 71.6288 356.201 67.2026 364.155 67.5761C374.32 68.0532 375.2 75.5299 383.753 75.7165C393.355 75.9258 395.195 66.5676 404.675 64.9822C417.833 62.7813 437.742 76.8881 437.341 93.1502C437.11 102.543 430.087 113.307 421.116 116.538C415.888 118.422 410.246 117.824 408.635 121.209C407.489 123.619 410.066 125.476 409.822 129.674C409.509 135.087 404.829 138.886 404.074 139.499C397.059 145.193 381.331 142.317 370.591 134.26C351.225 119.73 354.156 92.9148 338.496 89.5593Z" fill="url(#paint64_linear_11_2756)"/>
<path d="M360.741 87.6288C354.218 86.8284 346.694 86.2192 338.334 86.1061C320.668 85.8671 318.139 88.0978 317.491 89.7495C316.285 92.8278 318.352 94.3708 317.178 99.7386C316.476 102.948 317.14 104.411 315.783 107.859C314.461 111.22 315.498 113.027 316.667 120.907C318.162 130.984 318.851 136.105 316.02 140.167C314.052 142.99 311.851 143.229 312.061 144.57C312.508 147.426 322.425 145.851 334.982 151.334C338.617 152.922 341.962 154.878 344.768 156.518C351.338 160.359 352.553 161.828 355.596 163.568C365.217 169.072 379.67 169.602 387.245 162.946C390.069 160.465 392.128 156.817 391.202 155.482C389.94 153.664 384.3 157.793 379.125 155.274C375.696 153.605 376.347 150.906 372.384 147.725C367.613 143.896 364.297 145.902 361.049 143.411C355.984 139.526 358.288 130.222 359.71 114.624C360.299 108.167 360.889 98.9461 360.741 87.6288Z" fill="url(#paint65_linear_11_2756)"/>
<path d="M341.623 84.0047C344.032 85.4932 347.927 87.4388 348.356 87.9669C348.785 88.4944 336.557 90.5797 328.948 86.7558C328.948 86.7558 327.768 86.1033 332.355 85.1897C333.333 84.995 333.142 83.1015 333.011 81.1439L333.928 79.4473C333.928 79.4473 339.214 82.5153 341.623 84.0047Z" fill="url(#paint66_linear_11_2756)"/>
<path d="M335.544 78.2946C335.544 78.2946 336.49 82.2875 332.958 84.2611C329.796 86.0284 324.447 78.7841 325.446 76.0918C325.779 75.1937 326.97 74.0396 328.214 73.6516C329.09 73.3786 332.401 73.4839 333.819 76.2604C334.191 75.4485 334.856 75.0231 335.303 75.1565C335.87 75.3252 335.954 76.3535 335.973 76.5861C336.039 77.3936 335.712 78.0199 335.544 78.2946Z" fill="url(#paint67_linear_11_2756)"/>
<path opacity="0.3" d="M330.069 142.304C333.707 143.806 334.198 147.051 339.228 148.892C344.027 150.647 345.637 148.447 350.423 149.905C357.611 152.095 360.36 159.002 361.448 158.351C362.445 157.754 361.489 151.146 356.868 146.865C351.562 141.948 345.847 144.2 342.451 139.095C341.13 137.109 340.111 133.936 341.264 131.494C342.825 128.185 346.904 129.332 349.066 126.595C352.949 121.678 343.861 112.809 346.352 105.312C347.346 102.321 350.511 98.5706 360.718 96.0605C360.58 103.575 360.145 109.855 359.71 114.624C358.288 130.222 355.984 139.526 361.049 143.412C364.296 145.903 367.613 143.897 372.383 147.725C376.347 150.906 375.696 153.605 379.125 155.274C384.3 157.793 389.94 153.664 391.201 155.482C392.128 156.817 390.069 160.465 387.245 162.947C379.67 169.603 365.217 169.072 355.596 163.569C352.553 161.828 351.338 160.36 344.768 156.519C341.962 154.878 338.616 152.922 334.982 151.335C326.17 147.486 318.663 147.114 314.812 146.247C322.458 141.169 327.116 141.085 330.069 142.304Z" fill="url(#paint68_linear_11_2756)"/>
<path d="M294.956 147.4L341.11 149.637C341.745 149.668 342.325 150.007 342.661 150.544L343.938 152.586C344.573 153.602 343.81 154.912 342.608 154.867L293.72 153.012L294.956 147.4Z" fill="url(#paint69_linear_11_2756)"/>
<path d="M252.586 122.008L300.268 122.928C301.679 122.956 302.971 123.721 303.668 124.942L320.18 153.873L269.822 151.875C268.439 151.82 267.178 151.075 266.468 149.893L251.169 124.441C250.518 123.358 251.318 121.984 252.586 122.008Z" fill="url(#paint70_linear_11_2756)"/>
<path opacity="0.3" d="M303.668 124.943C302.971 123.721 301.679 122.956 300.268 122.928L299.223 122.908C299.067 124.441 298.595 125.843 297.653 126.975C294.713 130.509 289.828 128.329 286.187 132.07C282.188 136.178 285.882 141.069 282.307 144.893C278.543 148.918 272.456 145.641 265.46 148.216L266.467 149.892C267.178 151.075 268.439 151.82 269.821 151.875L320.18 153.873L303.668 124.943Z" fill="url(#paint71_linear_11_2756)"/>
<path d="M333.549 147.425C333.029 146.057 332.509 144.69 331.989 143.322C337.737 141.752 345.687 139.433 353.841 136.532C355.855 135.815 356.593 134.888 357.132 134.176C361.312 128.655 350.673 118.914 350.864 106.275C350.996 97.514 356.33 87.4921 361.029 87.3784C370.583 87.1472 391.646 127.515 373.906 144.744C365.101 153.295 348.65 154.288 333.549 147.425Z" fill="url(#paint72_linear_11_2756)"/>
<path d="M331.989 143.321C328.38 141.412 324.061 143.369 323.783 143.5C322.99 143.873 321.836 144.537 320.67 145.723C320.538 145.902 318.973 148.062 319.543 148.754C320 149.309 321.77 148.849 323.897 147.531C324.789 147.407 326.117 147.292 327.707 147.438C330.628 147.707 331.966 148.625 333.026 147.832C333.802 147.252 334.067 146.024 333.788 145.111C333.488 144.131 332.6 143.645 331.989 143.321Z" fill="url(#paint73_linear_11_2756)"/>
<path d="M184.236 488.469C181.409 474.554 182.627 463.373 183.911 456.621C185.469 448.429 188.636 431.776 201.93 422.493C202.977 421.762 213.377 414.639 218.047 418.177C220.456 420.001 221.006 424.407 219.953 427.885C217.233 436.864 204.972 435.868 200.899 446.087C199.542 449.49 199.291 453.643 200.237 454.035C201.402 454.517 204.724 449.439 205.04 448.955C208.002 444.428 208.03 441.865 210.288 441.17C211.674 440.743 213.502 441.144 214.319 442.234C216.181 444.717 212.504 450.376 211.475 451.957C208.786 456.095 206.541 457.035 205.995 460.558C205.76 462.075 205.801 464.317 206.705 464.666C207.926 465.139 210.259 461.97 211.755 459.937C215.777 454.471 216.206 451.294 218.206 451.066C220.071 450.853 222.174 453.337 222.714 454.85C224.188 458.98 218.264 467.771 184.236 488.469Z" fill="url(#paint74_linear_11_2756)"/>
<path opacity="0.28" d="M184.662 486.082C184.24 473.153 186.341 462.903 188.245 456.177C190.692 447.531 195.295 431.27 208.208 424.233C209.126 423.733 215.877 420.054 217.763 422.024C219.021 423.338 217.906 426.943 216.057 429.33C212.901 433.405 209.266 431.788 204.113 435.787C199.489 439.375 197.865 444.208 197.459 445.472C195.951 450.163 196.735 454.185 196.947 455.667C197.754 461.296 196.101 470.515 184.662 486.082Z" fill="white"/>
<path opacity="0.28" d="M189.269 482.853C196.51 476.395 198.183 471.104 198.312 467.391C198.412 464.498 197.626 461.065 199.847 457.876C201.268 455.836 202.34 456.164 204.796 453.968C209.926 449.379 210.563 443.194 211.621 443.433C212.209 443.566 212.514 445.595 212.133 447.511C211.344 451.465 208.239 451.88 205.137 456.686C203.018 459.97 202.282 463.162 201.895 464.842C200.95 468.941 201.592 470.379 201.042 472.658C200.329 475.612 197.749 479.424 189.269 482.853Z" fill="white"/>
<path d="M188.587 490.717C201.139 491.433 204.87 492.182 210.785 490.175C216.344 488.289 222.045 484.575 221.544 482.869C221.185 481.646 217.696 481.663 215.611 481.672C210.018 481.698 205.406 483.405 202.169 485.053C204.961 483.167 207.752 481.281 210.543 479.394C212.492 478.7 215.79 477.226 218.712 474.113C220.541 472.163 224.744 466.884 223.164 464.347C221.514 461.697 213.675 462.233 209.156 465.991C206.987 467.794 206.985 469.174 204.078 472.322C201.437 475.183 198.71 476.999 196.795 478.096C198.59 475.861 201.031 472.37 202.929 467.666C205.813 460.517 207.99 449.209 204.322 447.153C201.889 445.789 197.065 448.599 194.652 451.929C192.695 454.629 192.887 456.894 191.541 465.569C190.955 469.341 190.382 472.379 190.009 474.263C186.276 466.108 185.193 459.248 184.974 454.205C184.693 447.726 185.77 442.649 183.281 441.299C181.063 440.095 177.103 442.444 175.094 444.647C166.963 453.566 177.691 474.498 178.825 476.658C175.841 474.408 171.73 470.888 167.748 465.8C163.49 460.359 161.692 456.309 159.527 456.672C157.374 457.033 155.956 461.597 156.117 465.129C156.567 474.977 169.482 480.76 170.86 481.356C169.774 481.53 167.932 481.713 165.761 481.301C160.945 480.385 159.443 477.478 154.558 476.492C152.69 476.114 148.869 475.723 148.399 476.875C147.554 478.943 157.203 486.709 168.911 489.67C173.202 490.755 172.176 489.78 188.587 490.717Z" fill="url(#paint75_linear_11_2756)"/>
<path opacity="0.28" d="M196.872 483.592C202.586 481.062 201.81 477.622 208.061 473.362C212.065 470.634 212.995 471.628 217.286 469.02C219.645 467.585 221.574 465.94 223.14 464.313C223.147 464.325 223.157 464.335 223.164 464.347C224.744 466.883 220.541 472.163 218.712 474.112C215.79 477.226 212.492 478.699 210.543 479.394C207.752 481.28 204.961 483.167 202.169 485.053C205.406 483.404 210.018 481.698 215.611 481.672C217.428 481.663 220.312 481.65 221.26 482.457C219.581 483.494 218.07 483.994 216.84 484.243C214.036 484.813 212.277 484.176 209.851 485.632C207.905 486.8 208.068 487.792 206.354 488.425C204.742 489.02 203.918 488.392 199.939 487.741C196.069 487.108 194.102 486.812 192.538 487.79C191.356 488.53 190.728 489.75 190.382 490.823C189.981 490.798 189.571 490.774 189.15 490.749C189.461 489.517 190.033 488.105 191.121 486.844C192.846 484.845 194.734 484.539 196.872 483.592Z" fill="white"/>
<path opacity="0.28" d="M180.587 487.965C179.684 487.75 179.252 488.393 177.998 488.555C175.668 488.857 174.794 486.942 172.055 486.032C168.813 484.955 167.991 486.958 164.761 485.962C162.205 485.173 162.534 483.861 159.195 481.944C155.641 479.905 154.136 480.741 151.524 479.058C150.684 478.517 149.726 477.712 148.814 476.459C149.963 475.839 152.967 476.17 154.558 476.491C159.443 477.478 160.945 480.385 165.761 481.3C167.932 481.713 169.774 481.53 170.86 481.356C169.482 480.76 156.567 474.977 156.117 465.129C155.967 461.852 157.178 457.69 159.072 456.816C158.847 459.091 158.815 461.036 158.85 462.565C158.931 466.124 158.995 467.933 160.125 469.418C162.086 471.993 164.477 470.651 167.736 473.328C170.704 475.765 169.67 477.656 172.766 480.096C175.437 482.203 177.02 481.436 179.534 483.143C181.111 484.215 183.026 486.244 184.177 490.49C183.653 490.466 183.151 490.445 182.674 490.426C182.219 489.221 181.56 488.197 180.587 487.965Z" fill="white"/>
<path opacity="0.28" d="M183.406 474.545C181.843 470.303 179.127 470.739 177.995 467.003C176.868 463.289 179.332 462.134 178.704 456.756C178.233 452.727 176.706 452.134 176.604 449.38C176.529 447.35 177.248 444.584 180.571 441.155C181.579 440.891 182.53 440.891 183.281 441.298C185.77 442.649 184.693 447.725 184.974 454.205C185.193 459.247 186.276 466.108 190.009 474.262C190.382 472.378 190.956 469.34 191.541 465.569C192.887 456.893 192.695 454.629 194.652 451.929C197.065 448.599 201.889 445.789 204.322 447.152C204.462 447.23 204.591 447.323 204.714 447.427C203.5 448.251 202.38 449.263 201.439 450.513C198.23 454.771 200.056 457.822 197.146 466.222C194.349 474.301 191.51 474.8 189.258 481.781C188.539 484.01 187.861 486.961 187.721 490.668C186.899 490.623 186.125 490.583 185.392 490.547C184.549 487.797 184.152 485.337 183.982 483.249C183.608 478.653 184.463 477.411 183.406 474.545Z" fill="white"/>
<path d="M214.755 20.8005C232.855 21.3536 248.056 32.3587 251.019 46.2894C251.022 46.3076 251.026 46.3258 251.03 46.3442C251.19 47.1066 251.314 47.8779 251.399 48.6566C251.405 48.708 251.411 48.7593 251.416 48.8108C251.454 49.1746 251.483 49.5403 251.504 49.9074C251.507 49.974 251.51 50.0406 251.513 50.1074C251.531 50.4825 251.543 50.8587 251.543 51.2369C251.543 67.4255 234.952 79.6937 214.755 78.6527C214.218 78.6249 213.684 78.5863 213.153 78.5404C213.101 78.536 213.048 78.5324 212.997 78.5276C212.494 78.4824 211.994 78.428 211.497 78.3672C211.42 78.3578 211.343 78.3487 211.265 78.3389C210.784 78.2776 210.307 78.2081 209.832 78.132C209.742 78.1177 209.653 78.1033 209.563 78.0884C209.097 78.011 208.634 77.9268 208.174 77.8358C208.081 77.8173 207.988 77.7981 207.895 77.779C207.437 77.6853 206.982 77.5862 206.531 77.4792C206.444 77.4585 206.357 77.4365 206.27 77.4152C205.822 77.3062 205.377 77.1922 204.935 77.0703C204.856 77.0483 204.778 77.025 204.699 77.0026C204.302 76.8905 203.908 76.7729 203.517 76.6505C203.417 76.6194 203.317 76.5897 203.219 76.5581C202.822 76.4309 202.429 76.2968 202.039 76.1591C201.955 76.1296 201.868 76.1032 201.784 76.0729C201.785 76.0719 201.786 76.0711 201.787 76.07C188.362 71.2473 178.923 60.3934 178.923 48.2552C178.923 32.4874 194.85 20.1918 214.755 20.8005Z" fill="url(#paint76_linear_11_2756)"/>
<path d="M175.091 48.2556C175.091 64.0235 191.017 77.6269 210.923 78.6529C231.12 79.694 247.711 67.4257 247.711 51.2371C247.711 35.0485 231.12 21.4178 210.923 20.8005C191.017 20.192 175.091 32.4876 175.091 48.2556Z" fill="url(#paint77_linear_11_2756)"/>
<g opacity="0.3">
<path d="M202.136 70.8557C206.495 62.5401 202.089 54.3784 207.985 49.1166C214.001 43.7477 221.858 49.2874 230.364 45.0354C233.666 43.3844 237.347 40.1155 240.09 33.1899C244.866 38.2827 247.711 44.5504 247.711 51.2372C247.711 67.4259 231.12 79.6942 210.922 78.653C206.337 78.4166 201.965 77.5134 197.952 76.0734C199.93 74.3627 201.24 72.566 202.136 70.8557Z" fill="url(#paint78_linear_11_2756)"/>
</g>
<path d="M192.708 41.8873C191.154 41.882 189.954 42.481 189.106 43.6823C188.259 44.8821 187.835 46.5565 187.835 48.7069C187.835 53.182 189.455 55.4462 192.708 55.4998C194.08 55.5223 195.745 55.1948 197.708 54.515V58.118C196.095 58.7793 194.298 59.0896 192.322 59.0504C189.494 58.9943 187.342 58.0667 185.857 56.271C184.376 54.4805 183.637 51.9374 183.637 48.6377C183.637 46.5596 183.999 44.7413 184.726 43.1808C185.453 41.6185 186.5 40.4197 187.869 39.5852C189.24 38.7484 190.853 38.3291 192.709 38.3291C194.606 38.3291 196.52 38.8045 198.45 39.7575L197.102 43.2459C196.368 42.8826 195.629 42.566 194.887 42.2958C194.147 42.0257 193.42 41.8897 192.708 41.8873Z" fill="white"/>
<path d="M215.185 53.502C215.185 55.3618 214.524 56.8156 213.205 57.8614C211.889 58.9047 210.064 59.4021 207.735 59.3559C205.598 59.3135 203.714 58.8675 202.082 58.0193V54.0116C203.424 54.6446 204.562 55.0946 205.495 55.3607C206.43 55.6272 207.286 55.7671 208.064 55.78C208.999 55.7954 209.717 55.625 210.218 55.2685C210.719 54.9118 210.97 54.3732 210.97 53.6528C210.97 53.2507 210.86 52.8913 210.639 52.5747C210.418 52.2587 210.094 51.9531 209.667 51.6578C209.24 51.363 208.371 50.8903 207.062 50.2408C205.839 49.6404 204.923 49.068 204.314 48.5226C203.705 47.978 203.22 47.3467 202.857 46.6285C202.494 45.9112 202.313 45.0747 202.313 44.1188C202.313 42.3188 202.909 40.9051 204.103 39.8762C205.299 38.8451 206.957 38.3286 209.081 38.3286C210.128 38.3286 211.129 38.455 212.083 38.7079C213.039 38.9613 214.04 39.3186 215.087 39.7795L213.698 43.1681C212.616 42.7135 211.723 42.3962 211.019 42.2158C210.315 42.0359 209.623 41.9445 208.944 41.9421C208.137 41.9394 207.519 42.1284 207.09 42.509C206.66 42.8895 206.446 43.3869 206.446 44.0017C206.446 44.3837 206.533 44.7173 206.706 45.0025C206.88 45.288 207.156 45.5646 207.536 45.8329C207.915 46.1014 208.815 46.5866 210.239 47.2895C212.127 48.2235 213.425 49.1566 214.129 50.088C214.832 51.0206 215.185 52.1589 215.185 53.502Z" fill="white"/>
<path d="M232.592 53.7496C232.592 55.6397 231.909 57.1169 230.546 58.1795C229.187 59.2395 227.302 59.7443 224.897 59.6965C222.69 59.6528 220.745 59.1988 219.06 58.3366V54.2643C220.445 54.9078 221.62 55.3654 222.584 55.6361C223.549 55.9072 224.434 56.0495 225.237 56.0628C226.202 56.0787 226.944 55.9057 227.461 55.5436C227.979 55.1811 228.238 54.634 228.238 53.9017C228.238 53.4931 228.124 53.1279 227.896 52.8062C227.668 52.485 227.333 52.1742 226.892 51.8741C226.451 51.5745 225.554 51.0939 224.203 50.4338C222.939 49.8234 221.994 49.2416 221.365 48.6872C220.736 48.1337 220.234 47.4921 219.86 46.7624C219.485 46.0334 219.299 45.1834 219.299 44.2122C219.299 42.3832 219.913 40.9467 221.146 39.9013C222.382 38.8535 224.094 38.3286 226.287 38.3286C227.368 38.3286 228.402 38.457 229.387 38.7141C230.374 38.9716 231.408 39.3347 232.49 39.8032L231.055 43.2471C229.937 42.7849 229.015 42.4625 228.288 42.279C227.561 42.096 226.846 42.0032 226.145 42.0008C225.312 41.9981 224.674 42.19 224.231 42.5768C223.787 42.9635 223.565 43.4688 223.565 44.0935C223.565 44.4817 223.655 44.8206 223.834 45.1104C224.013 45.4006 224.299 45.6817 224.691 45.9545C225.083 46.2275 226.013 46.7205 227.482 47.4349C229.432 48.3842 230.773 49.3329 231.499 50.2795C232.227 51.2277 232.592 52.3847 232.592 53.7496Z" fill="white"/>
<path d="M135.556 67.4987C155.695 68.1142 172.609 80.3595 175.906 95.86C175.91 95.8802 175.914 95.9005 175.918 95.9209C176.097 96.7692 176.234 97.6273 176.329 98.494C176.335 98.5512 176.342 98.6083 176.348 98.6657C176.39 99.0705 176.422 99.4774 176.445 99.8859C176.449 99.9599 176.452 100.034 176.456 100.108C176.476 100.526 176.489 100.944 176.489 101.365C176.489 119.378 158.028 133.029 135.556 131.87C134.958 131.84 134.364 131.797 133.773 131.746C133.715 131.741 133.657 131.737 133.599 131.731C133.039 131.681 132.484 131.621 131.931 131.553C131.845 131.542 131.759 131.532 131.673 131.521C131.138 131.453 130.606 131.376 130.077 131.291C129.978 131.275 129.878 131.259 129.779 131.243C129.26 131.156 128.745 131.063 128.233 130.962C128.129 130.941 128.026 130.919 127.923 130.898C127.413 130.794 126.907 130.684 126.405 130.565C126.308 130.542 126.212 130.517 126.115 130.493C125.616 130.372 125.12 130.245 124.63 130.109C124.542 130.085 124.454 130.059 124.366 130.034C123.924 129.909 123.486 129.779 123.051 129.642C122.94 129.608 122.829 129.575 122.719 129.54C122.278 129.398 121.841 129.249 121.407 129.096C121.313 129.063 121.217 129.033 121.123 129C121.124 128.999 121.126 128.998 121.127 128.997C106.188 123.631 95.6855 111.554 95.6855 98.0476C95.6855 80.5028 113.407 66.8216 135.556 67.4987Z" fill="url(#paint79_linear_11_2756)"/>
<path d="M91.4216 98.0479C91.4216 115.593 109.143 130.729 131.292 131.871C153.764 133.029 172.225 119.378 172.225 101.366C172.225 83.3528 153.764 68.1861 131.292 67.4992C109.143 66.8221 91.4216 80.5032 91.4216 98.0479Z" fill="url(#paint80_linear_11_2756)"/>
<g opacity="0.3">
<path d="M121.515 123.194C126.365 113.942 121.462 104.86 128.023 99.0054C134.717 93.0316 143.459 99.1957 152.923 94.4643C156.598 92.6272 160.694 88.99 163.745 81.2842C169.059 86.9507 172.225 93.9247 172.225 101.365C172.225 119.378 153.764 133.029 131.292 131.87C126.189 131.607 121.324 130.602 116.859 129C119.06 127.096 120.518 125.097 121.515 123.194Z" fill="url(#paint81_linear_11_2756)"/>
</g>
<path d="M117.906 108.865L101.774 101.051V98.6331L117.906 90.3071V94.4426L106.728 99.7383L117.906 104.747V108.865Z" fill="white"/>
<path d="M135.247 87.1711L125.952 112.6L121.304 112.463L130.498 87.1709L135.247 87.1711Z" fill="white"/>
<path d="M138.715 105.175L150.763 100.395L138.715 94.6202V90.3838L156.316 99.3794V101.954L138.715 109.394V105.175Z" fill="white"/>
<path d="M208.055 128.802C226.154 129.355 241.356 140.36 244.318 154.291C244.322 154.309 244.326 154.327 244.33 154.346C244.49 155.108 244.613 155.879 244.699 156.658C244.705 156.709 244.711 156.761 244.716 156.812C244.754 157.176 244.783 157.542 244.803 157.909C244.807 157.975 244.81 158.042 244.813 158.109C244.831 158.484 244.843 158.86 244.843 159.238C244.843 175.427 228.252 187.695 208.055 186.654C207.518 186.626 206.984 186.588 206.452 186.542C206.4 186.538 206.348 186.534 206.296 186.529C205.793 186.484 205.294 186.43 204.797 186.369C204.72 186.359 204.642 186.35 204.565 186.341C204.084 186.279 203.606 186.21 203.131 186.134C203.042 186.119 202.952 186.105 202.863 186.09C202.397 186.013 201.934 185.928 201.474 185.837C201.38 185.819 201.288 185.8 201.195 185.781C200.737 185.687 200.282 185.588 199.831 185.481C199.744 185.46 199.657 185.438 199.57 185.417C199.122 185.308 198.676 185.194 198.235 185.072C198.156 185.05 198.077 185.027 197.999 185.004C197.601 184.892 197.207 184.775 196.816 184.652C196.717 184.621 196.617 184.591 196.518 184.56C196.121 184.433 195.729 184.298 195.339 184.161C195.254 184.131 195.168 184.105 195.084 184.075C195.085 184.074 195.086 184.073 195.087 184.072C181.661 179.249 172.222 168.395 172.222 156.257C172.222 140.489 188.149 128.193 208.055 128.802Z" fill="url(#paint82_linear_11_2756)"/>
<path d="M168.39 156.257C168.39 172.025 184.317 185.628 204.223 186.654C224.42 187.695 241.011 175.427 241.011 159.239C241.011 143.05 224.42 129.419 204.223 128.802C184.317 128.194 168.39 140.489 168.39 156.257Z" fill="url(#paint83_linear_11_2756)"/>
<g opacity="0.3">
<path d="M195.436 178.857C199.795 170.541 195.389 162.38 201.285 157.118C207.301 151.749 215.157 157.289 223.663 153.037C226.966 151.386 230.647 148.117 233.389 141.191C238.165 146.284 241.011 152.552 241.011 159.239C241.011 175.427 224.419 187.696 204.222 186.655C199.637 186.418 195.265 185.515 191.252 184.075C193.229 182.364 194.54 180.567 195.436 178.857Z" fill="url(#paint84_linear_11_2756)"/>
</g>
<path d="M186.922 150.928C185.5 150.941 184.41 151.563 183.643 152.789C182.88 154.008 182.5 155.701 182.5 157.874C182.5 162.395 183.958 164.717 186.922 164.844C188.186 164.898 189.732 164.599 191.571 163.939V167.668C190.058 168.302 188.388 168.565 186.567 168.462C183.994 168.317 182.058 167.315 180.734 165.468C179.424 163.639 178.773 161.082 178.773 157.783C178.773 155.705 179.092 153.885 179.733 152.317C180.376 150.742 181.306 149.522 182.53 148.658C183.764 147.786 185.226 147.328 186.922 147.29C188.673 147.25 190.455 147.701 192.269 148.651L191.001 152.279C190.312 151.911 189.623 151.592 188.934 151.322C188.247 151.053 187.577 150.922 186.922 150.928Z" fill="white"/>
<path d="M200.803 159.892L195.655 159.773V156.585L200.803 156.645V150.862L203.801 150.835V156.68L209.26 156.744V160.088L203.801 159.962V165.732L200.803 165.602V159.892Z" fill="white"/>
<path d="M219.148 160.317L213.317 160.182V156.791L219.148 156.859V150.7L222.552 150.67V156.898L228.758 156.971V160.54L222.552 160.396V166.545L219.148 166.397V160.317Z" fill="white"/>
<path d="M122.991 257.735C119.466 253.339 117.436 248.178 117.436 242.658C117.436 226.605 134.599 213.591 155.772 213.591C176.944 213.591 194.107 226.605 194.107 242.658C194.107 258.71 176.944 271.724 155.772 271.724C147.837 271.724 140.465 269.896 134.348 266.765C130.306 267.452 124.03 268.606 120.719 269.22C119.743 269.4 118.945 268.451 119.294 267.526L122.991 257.735Z" fill="url(#paint85_linear_11_2756)"/>
<g opacity="0.2">
<path d="M134.793 248.809C143.389 245.211 152.842 252.806 158.752 247.507C164.709 242.166 158.274 231.607 163.979 224.082C166.7 220.494 171.27 218.796 176.499 218.203C187.092 223.375 194.107 232.395 194.107 242.658C194.107 258.71 176.944 271.724 155.772 271.724C147.837 271.724 140.465 269.896 134.348 266.765C131.159 267.307 126.58 268.14 123.163 268.768C125.683 255.753 130.32 250.681 134.793 248.809Z" fill="url(#paint86_linear_11_2756)"/>
</g>
<path d="M180.62 233.525C180.62 234.308 179.983 234.942 179.197 234.942H131.681C130.895 234.942 130.258 234.308 130.258 233.525V233.302C130.258 232.519 130.895 231.884 131.681 231.884H179.197C179.983 231.884 180.62 232.519 180.62 233.302V233.525Z" fill="white"/>
<path d="M180.62 242.088C180.62 242.871 179.983 243.505 179.197 243.505H131.681C130.895 243.505 130.258 242.871 130.258 242.088V241.865C130.258 241.082 130.895 240.447 131.681 240.447H179.197C179.983 240.447 180.62 241.082 180.62 241.865V242.088Z" fill="white"/>
<path d="M156.668 250.609C156.668 251.415 156.012 252.068 155.203 252.068H131.723C130.914 252.068 130.258 251.415 130.258 250.609V250.469C130.258 249.663 130.914 249.01 131.723 249.01H155.203C156.012 249.01 156.668 249.663 156.668 250.469V250.609Z" fill="white"/>
<defs>
<linearGradient id="paint0_linear_11_2756" x1="257.127" y1="553.771" x2="258.289" y2="454.575" gradientUnits="userSpaceOnUse">
<stop offset="0.494" stop-color="#EBEFF2"/>
<stop offset="1" stop-color="white"/>
</linearGradient>
<linearGradient id="paint1_linear_11_2756" x1="207.872" y1="233.65" x2="399.562" y2="586.697" gradientUnits="userSpaceOnUse">
<stop stop-color="#444B8C"/>
<stop offset="0.9964" stop-color="#26264F"/>
</linearGradient>
<linearGradient id="paint2_linear_11_2756" x1="236.626" y1="130.453" x2="270.978" y2="340.707" gradientUnits="userSpaceOnUse">
<stop offset="0.0036" stop-color="#E38DDD"/>
<stop offset="1" stop-color="#9571F6"/>
</linearGradient>
<linearGradient id="paint3_linear_11_2756" x1="218.611" y1="191.707" x2="299.814" y2="191.707" gradientUnits="userSpaceOnUse">
<stop stop-color="#FF9085"/>
<stop offset="1" stop-color="#FB6FBB"/>
</linearGradient>
<linearGradient id="paint4_linear_11_2756" x1="218.611" y1="199.669" x2="299.814" y2="199.669" gradientUnits="userSpaceOnUse">
<stop stop-color="#FF9085"/>
<stop offset="1" stop-color="#FB6FBB"/>
</linearGradient>
<linearGradient id="paint5_linear_11_2756" x1="204.346" y1="223.207" x2="262.041" y2="223.207" gradientUnits="userSpaceOnUse">
<stop stop-color="#FF9085"/>
<stop offset="1" stop-color="#FB6FBB"/>
</linearGradient>
<linearGradient id="paint6_linear_11_2756" x1="237.364" y1="130.579" x2="268.795" y2="322.959" gradientUnits="userSpaceOnUse">
<stop offset="0.0036" stop-color="#E38DDD"/>
<stop offset="1" stop-color="#9571F6"/>
</linearGradient>
<linearGradient id="paint7_linear_11_2756" x1="185.478" y1="174.395" x2="243.136" y2="174.395" gradientUnits="userSpaceOnUse">
<stop stop-color="#FF9085"/>
<stop offset="1" stop-color="#FB6FBB"/>
</linearGradient>
<linearGradient id="paint8_linear_11_2756" x1="218.611" y1="351.038" x2="299.814" y2="351.038" gradientUnits="userSpaceOnUse">
<stop stop-color="#FF9085"/>
<stop offset="1" stop-color="#FB6FBB"/>
</linearGradient>
<linearGradient id="paint9_linear_11_2756" x1="218.611" y1="359" x2="299.814" y2="359" gradientUnits="userSpaceOnUse">
<stop stop-color="#FF9085"/>
<stop offset="1" stop-color="#FB6FBB"/>
</linearGradient>
<linearGradient id="paint10_linear_11_2756" x1="255.706" y1="365.595" x2="334.807" y2="365.595" gradientUnits="userSpaceOnUse">
<stop stop-color="#FF9085"/>
<stop offset="1" stop-color="#FB6FBB"/>
</linearGradient>
<linearGradient id="paint11_linear_11_2756" x1="261.987" y1="171.509" x2="286.538" y2="321.776" gradientUnits="userSpaceOnUse">
<stop offset="0.0036" stop-color="#E38DDD"/>
<stop offset="1" stop-color="#9571F6"/>
</linearGradient>
<linearGradient id="paint12_linear_11_2756" x1="185.478" y1="336.287" x2="243.136" y2="336.287" gradientUnits="userSpaceOnUse">
<stop stop-color="#FF9085"/>
<stop offset="1" stop-color="#FB6FBB"/>
</linearGradient>
<linearGradient id="paint13_linear_11_2756" x1="204.346" y1="255.372" x2="286.365" y2="255.372" gradientUnits="userSpaceOnUse">
<stop stop-color="#FF9085"/>
<stop offset="1" stop-color="#FB6FBB"/>
</linearGradient>
<linearGradient id="paint14_linear_11_2756" x1="218.611" y1="271.415" x2="299.814" y2="271.415" gradientUnits="userSpaceOnUse">
<stop stop-color="#FF9085"/>
<stop offset="1" stop-color="#FB6FBB"/>
</linearGradient>
<linearGradient id="paint15_linear_11_2756" x1="218.611" y1="279.377" x2="299.814" y2="279.377" gradientUnits="userSpaceOnUse">
<stop stop-color="#FF9085"/>
<stop offset="1" stop-color="#FB6FBB"/>
</linearGradient>
<linearGradient id="paint16_linear_11_2756" x1="185.622" y1="287.759" x2="237.66" y2="287.759" gradientUnits="userSpaceOnUse">
<stop stop-color="#FF9085"/>
<stop offset="1" stop-color="#FB6FBB"/>
</linearGradient>
<linearGradient id="paint17_linear_11_2756" x1="228.952" y1="143.31" x2="257.484" y2="317.944" gradientUnits="userSpaceOnUse">
<stop offset="0.0036" stop-color="#E38DDD"/>
<stop offset="1" stop-color="#9571F6"/>
</linearGradient>
<linearGradient id="paint18_linear_11_2756" x1="218.611" y1="311.292" x2="292.015" y2="311.292" gradientUnits="userSpaceOnUse">
<stop stop-color="#FF9085"/>
<stop offset="1" stop-color="#FB6FBB"/>
</linearGradient>
<linearGradient id="paint19_linear_11_2756" x1="235.767" y1="318.919" x2="308.288" y2="318.919" gradientUnits="userSpaceOnUse">
<stop stop-color="#FF9085"/>
<stop offset="1" stop-color="#FB6FBB"/>
</linearGradient>
<linearGradient id="paint20_linear_11_2756" x1="235.767" y1="326.845" x2="308.288" y2="326.845" gradientUnits="userSpaceOnUse">
<stop stop-color="#FF9085"/>
<stop offset="1" stop-color="#FB6FBB"/>
</linearGradient>
<linearGradient id="paint21_linear_11_2756" x1="195.94" y1="135.794" x2="227.559" y2="329.321" gradientUnits="userSpaceOnUse">
<stop offset="0.0036" stop-color="#E38DDD"/>
<stop offset="1" stop-color="#9571F6"/>
</linearGradient>
<linearGradient id="paint22_linear_11_2756" x1="493.665" y1="56.4908" x2="406.799" y2="201.242" gradientUnits="userSpaceOnUse">
<stop stop-color="#AA80F9"/>
<stop offset="0.9964" stop-color="#6165D7"/>
</linearGradient>
<linearGradient id="paint23_linear_11_2756" x1="412.877" y1="229.799" x2="420.876" y2="162.187" gradientUnits="userSpaceOnUse">
<stop stop-color="#AA80F9"/>
<stop offset="0.9964" stop-color="#6165D7"/>
</linearGradient>
<linearGradient id="paint24_linear_11_2756" x1="465.011" y1="106.579" x2="421.611" y2="178.369" gradientUnits="userSpaceOnUse">
<stop stop-color="#AA80F9"/>
<stop offset="0.9964" stop-color="#6165D7"/>
</linearGradient>
<linearGradient id="paint25_linear_11_2756" x1="481.071" y1="89.2685" x2="376.559" y2="242.566" gradientUnits="userSpaceOnUse">
<stop stop-color="#AA80F9"/>
<stop offset="0.9964" stop-color="#6165D7"/>
</linearGradient>
<linearGradient id="paint26_linear_11_2756" x1="452.087" y1="251.206" x2="456.845" y2="151.001" gradientUnits="userSpaceOnUse">
<stop stop-color="#FFC444"/>
<stop offset="0.9964" stop-color="#F36F56"/>
</linearGradient>
<linearGradient id="paint27_linear_11_2756" x1="456.25" y1="297.595" x2="467.81" y2="238.598" gradientUnits="userSpaceOnUse">
<stop stop-color="#FFC444"/>
<stop offset="0.9964" stop-color="#F36F56"/>
</linearGradient>
<linearGradient id="paint28_linear_11_2756" x1="385.287" y1="254.479" x2="433.283" y2="485.557" gradientUnits="userSpaceOnUse">
<stop stop-color="#FF9085"/>
<stop offset="1" stop-color="#FB6FBB"/>
</linearGradient>
<linearGradient id="paint29_linear_11_2756" x1="411.634" y1="496.426" x2="426.118" y2="496.846" gradientUnits="userSpaceOnUse">
<stop stop-color="#311944"/>
<stop offset="1" stop-color="#893976"/>
</linearGradient>
<linearGradient id="paint30_linear_11_2756" x1="364.603" y1="492.454" x2="379.437" y2="496.55" gradientUnits="userSpaceOnUse">
<stop stop-color="#311944"/>
<stop offset="1" stop-color="#893976"/>
</linearGradient>
<linearGradient id="paint31_linear_11_2756" x1="369.66" y1="467.502" x2="410.433" y2="375.206" gradientUnits="userSpaceOnUse">
<stop stop-color="#311944"/>
<stop offset="1" stop-color="#893976"/>
</linearGradient>
<linearGradient id="paint32_linear_11_2756" x1="389.824" y1="471.869" x2="441.593" y2="385.21" gradientUnits="userSpaceOnUse">
<stop stop-color="#311944"/>
<stop offset="1" stop-color="#893976"/>
</linearGradient>
<linearGradient id="paint33_linear_11_2756" x1="402.039" y1="250.999" x2="450.035" y2="482.077" gradientUnits="userSpaceOnUse">
<stop stop-color="#FF9085"/>
<stop offset="1" stop-color="#FB6FBB"/>
</linearGradient>
<linearGradient id="paint34_linear_11_2756" x1="443.646" y1="448.557" x2="425.43" y2="361.672" gradientUnits="userSpaceOnUse">
<stop stop-color="#FF9085"/>
<stop offset="1" stop-color="#FB6FBB"/>
</linearGradient>
<linearGradient id="paint35_linear_11_2756" x1="435.181" y1="244.116" x2="483.178" y2="475.193" gradientUnits="userSpaceOnUse">
<stop stop-color="#FF9085"/>
<stop offset="1" stop-color="#FB6FBB"/>
</linearGradient>
<linearGradient id="paint36_linear_11_2756" x1="393.935" y1="373.081" x2="401.706" y2="350.971" gradientUnits="userSpaceOnUse">
<stop offset="0.0036" stop-color="#E38DDD"/>
<stop offset="1" stop-color="#9571F6"/>
</linearGradient>
<linearGradient id="paint37_linear_11_2756" x1="428.135" y1="341.076" x2="425.288" y2="360.83" gradientUnits="userSpaceOnUse">
<stop offset="0.0036" stop-color="#E38DDD"/>
<stop offset="1" stop-color="#9571F6"/>
</linearGradient>
<linearGradient id="paint38_linear_11_2756" x1="371.256" y1="342.806" x2="386.435" y2="321.163" gradientUnits="userSpaceOnUse">
<stop offset="0.0036" stop-color="#E38DDD"/>
<stop offset="1" stop-color="#9571F6"/>
</linearGradient>
<linearGradient id="paint39_linear_11_2756" x1="400.534" y1="378.527" x2="367.354" y2="310.849" gradientUnits="userSpaceOnUse">
<stop offset="0.0036" stop-color="#E38DDD"/>
<stop offset="1" stop-color="#9571F6"/>
</linearGradient>
<linearGradient id="paint40_linear_11_2756" x1="416.851" y1="335.159" x2="343.469" y2="335.159" gradientUnits="userSpaceOnUse">
<stop offset="0.0036" stop-color="#E38DDD"/>
<stop offset="1" stop-color="#9571F6"/>
</linearGradient>
<linearGradient id="paint41_linear_11_2756" x1="429.891" y1="285.5" x2="419.115" y2="257.716" gradientUnits="userSpaceOnUse">
<stop stop-color="#311944"/>
<stop offset="1" stop-color="#6B3976"/>
</linearGradient>
<linearGradient id="paint42_linear_11_2756" x1="426.539" y1="286.815" x2="415.752" y2="259.003" gradientUnits="userSpaceOnUse">
<stop stop-color="#311944"/>
<stop offset="1" stop-color="#6B3976"/>
</linearGradient>
<linearGradient id="paint43_linear_11_2756" x1="85.9169" y1="348.463" x2="70.8832" y2="288.077" gradientUnits="userSpaceOnUse">
<stop offset="0.0036" stop-color="#6165D7"/>
<stop offset="1" stop-color="#AA80F9"/>
</linearGradient>
<linearGradient id="paint44_linear_11_2756" x1="71.4499" y1="488.28" x2="63.4581" y2="493.613" gradientUnits="userSpaceOnUse">
<stop stop-color="#444B8C"/>
<stop offset="0.9964" stop-color="#26264F"/>
</linearGradient>
<linearGradient id="paint45_linear_11_2756" x1="63.6974" y1="493.632" x2="65.4362" y2="481.282" gradientUnits="userSpaceOnUse">
<stop stop-color="#FFC444"/>
<stop offset="0.9964" stop-color="#F36F56"/>
</linearGradient>
<linearGradient id="paint46_linear_11_2756" x1="70.8483" y1="487.378" x2="62.8565" y2="492.711" gradientUnits="userSpaceOnUse">
<stop stop-color="#444B8C"/>
<stop offset="0.9964" stop-color="#26264F"/>
</linearGradient>
<linearGradient id="paint47_linear_11_2756" x1="122.323" y1="492.237" x2="115.162" y2="498.634" gradientUnits="userSpaceOnUse">
<stop stop-color="#444B8C"/>
<stop offset="0.9964" stop-color="#26264F"/>
</linearGradient>
<linearGradient id="paint48_linear_11_2756" x1="115.4" y1="498.617" x2="115.4" y2="486.147" gradientUnits="userSpaceOnUse">
<stop stop-color="#FFC444"/>
<stop offset="0.9964" stop-color="#F36F56"/>
</linearGradient>
<linearGradient id="paint49_linear_11_2756" x1="115.99" y1="504.335" x2="69.4854" y2="315.793" gradientUnits="userSpaceOnUse">
<stop stop-color="#444B8C"/>
<stop offset="0.9964" stop-color="#26264F"/>
</linearGradient>
<linearGradient id="paint50_linear_11_2756" x1="154.033" y1="363.844" x2="35.8392" y2="281.302" gradientUnits="userSpaceOnUse">
<stop offset="0.0036" stop-color="#6165D7"/>
<stop offset="1" stop-color="#AA80F9"/>
</linearGradient>
<linearGradient id="paint51_linear_11_2756" x1="121.601" y1="491.429" x2="114.439" y2="497.825" gradientUnits="userSpaceOnUse">
<stop stop-color="#444B8C"/>
<stop offset="0.9964" stop-color="#26264F"/>
</linearGradient>
<linearGradient id="paint52_linear_11_2756" x1="114.653" y1="263.875" x2="79.4349" y2="315.365" gradientUnits="userSpaceOnUse">
<stop stop-color="#FFC444"/>
<stop offset="0.9964" stop-color="#F36F56"/>
</linearGradient>
<linearGradient id="paint53_linear_11_2756" x1="112.924" y1="262.692" x2="77.7068" y2="314.181" gradientUnits="userSpaceOnUse">
<stop stop-color="#FFC444"/>
<stop offset="0.9964" stop-color="#F36F56"/>
</linearGradient>
<linearGradient id="paint54_linear_11_2756" x1="71.9023" y1="335.448" x2="79.0594" y2="335.448" gradientUnits="userSpaceOnUse">
<stop offset="0.0036" stop-color="#6165D7"/>
<stop offset="1" stop-color="#AA80F9"/>
</linearGradient>
<linearGradient id="paint55_linear_11_2756" x1="77.0364" y1="346.512" x2="130.972" y2="346.512" gradientUnits="userSpaceOnUse">
<stop offset="0.0036" stop-color="#6165D7"/>
<stop offset="1" stop-color="#AA80F9"/>
</linearGradient>
<linearGradient id="paint56_linear_11_2756" x1="172.621" y1="310.248" x2="183.32" y2="323.765" gradientUnits="userSpaceOnUse">
<stop stop-color="#FFC444"/>
<stop offset="0.9964" stop-color="#F36F56"/>
</linearGradient>
<linearGradient id="paint57_linear_11_2756" x1="53.7738" y1="370.376" x2="166.73" y2="291.491" gradientUnits="userSpaceOnUse">
<stop offset="0.0036" stop-color="#6165D7"/>
<stop offset="1" stop-color="#AA80F9"/>
</linearGradient>
<linearGradient id="paint58_linear_11_2756" x1="295.646" y1="119.46" x2="325.345" y2="119.46" gradientUnits="userSpaceOnUse">
<stop stop-color="#FFC444"/>
<stop offset="0.9964" stop-color="#F36F56"/>
</linearGradient>
<linearGradient id="paint59_linear_11_2756" x1="244.501" y1="174.991" x2="302.094" y2="174.991" gradientUnits="userSpaceOnUse">
<stop stop-color="#AA80F9"/>
<stop offset="0.9964" stop-color="#6165D7"/>
</linearGradient>
<linearGradient id="paint60_linear_11_2756" x1="293.982" y1="238.461" x2="304.592" y2="281.887" gradientUnits="userSpaceOnUse">
<stop offset="0.0036" stop-color="#E38DDD"/>
<stop offset="1" stop-color="#9571F6"/>
</linearGradient>
<linearGradient id="paint61_linear_11_2756" x1="271.573" y1="177.149" x2="329.166" y2="177.149" gradientUnits="userSpaceOnUse">
<stop stop-color="#AA80F9"/>
<stop offset="0.9964" stop-color="#6165D7"/>
</linearGradient>
<linearGradient id="paint62_linear_11_2756" x1="297.148" y1="252.061" x2="300.893" y2="252.061" gradientUnits="userSpaceOnUse">
<stop stop-color="#311944"/>
<stop offset="1" stop-color="#A03976"/>
</linearGradient>
<linearGradient id="paint63_linear_11_2756" x1="275.253" y1="139.381" x2="326.636" y2="202.074" gradientUnits="userSpaceOnUse">
<stop stop-color="#AA80F9"/>
<stop offset="0.9964" stop-color="#6165D7"/>
</linearGradient>
<linearGradient id="paint64_linear_11_2756" x1="419.321" y1="53.3746" x2="354.275" y2="113.987" gradientUnits="userSpaceOnUse">
<stop stop-color="#444B8C"/>
<stop offset="0.9964" stop-color="#26264F"/>
</linearGradient>
<linearGradient id="paint65_linear_11_2756" x1="364.267" y1="141.233" x2="309.009" y2="91.3441" gradientUnits="userSpaceOnUse">
<stop stop-color="#FFC444"/>
<stop offset="0.9964" stop-color="#F36F56"/>
</linearGradient>
<linearGradient id="paint66_linear_11_2756" x1="328.812" y1="84.2279" x2="348.367" y2="84.2279" gradientUnits="userSpaceOnUse">
<stop stop-color="#311944"/>
<stop offset="1" stop-color="#A03976"/>
</linearGradient>
<linearGradient id="paint67_linear_11_2756" x1="331.288" y1="134.703" x2="330.87" y2="96.2702" gradientUnits="userSpaceOnUse">
<stop stop-color="#311944"/>
<stop offset="1" stop-color="#A03976"/>
</linearGradient>
<linearGradient id="paint68_linear_11_2756" x1="362.445" y1="143.251" x2="307.187" y2="93.3616" gradientUnits="userSpaceOnUse">
<stop stop-color="#FFC444"/>
<stop offset="0.9964" stop-color="#F36F56"/>
</linearGradient>
<linearGradient id="paint69_linear_11_2756" x1="344.167" y1="151.134" x2="293.72" y2="151.134" gradientUnits="userSpaceOnUse">
<stop offset="0.0036" stop-color="#E38DDD"/>
<stop offset="1" stop-color="#9571F6"/>
</linearGradient>
<linearGradient id="paint70_linear_11_2756" x1="320.18" y1="137.94" x2="250.937" y2="137.94" gradientUnits="userSpaceOnUse">
<stop offset="0.0036" stop-color="#E38DDD"/>
<stop offset="1" stop-color="#9571F6"/>
</linearGradient>
<linearGradient id="paint71_linear_11_2756" x1="267.093" y1="119.647" x2="300.032" y2="152.458" gradientUnits="userSpaceOnUse">
<stop offset="0.0036" stop-color="#E38DDD"/>
<stop offset="1" stop-color="#9571F6"/>
</linearGradient>
<linearGradient id="paint72_linear_11_2756" x1="341.284" y1="140.861" x2="383.467" y2="99.1805" gradientUnits="userSpaceOnUse">
<stop stop-color="#FFC444"/>
<stop offset="0.9964" stop-color="#F36F56"/>
</linearGradient>
<linearGradient id="paint73_linear_11_2756" x1="319.418" y1="145.737" x2="333.896" y2="145.737" gradientUnits="userSpaceOnUse">
<stop stop-color="#311944"/>
<stop offset="1" stop-color="#A03976"/>
</linearGradient>
<linearGradient id="paint74_linear_11_2756" x1="180.63" y1="428.949" x2="227.324" y2="484.702" gradientUnits="userSpaceOnUse">
<stop offset="0.0036" stop-color="#E38DDD"/>
<stop offset="1" stop-color="#9571F6"/>
</linearGradient>
<linearGradient id="paint75_linear_11_2756" x1="184.706" y1="492.875" x2="186.621" y2="459.082" gradientUnits="userSpaceOnUse">
<stop stop-color="#AA80F9"/>
<stop offset="0.9964" stop-color="#6165D7"/>
</linearGradient>
<linearGradient id="paint76_linear_11_2756" x1="178.348" y1="41.0675" x2="233.283" y2="54.0983" gradientUnits="userSpaceOnUse">
<stop stop-color="#311944"/>
<stop offset="1" stop-color="#893976"/>
</linearGradient>
<linearGradient id="paint77_linear_11_2756" x1="224.154" y1="26.2077" x2="177.34" y2="113.396" gradientUnits="userSpaceOnUse">
<stop offset="0.0036" stop-color="#E38DDD"/>
<stop offset="1" stop-color="#9571F6"/>
</linearGradient>
<linearGradient id="paint78_linear_11_2756" x1="237.964" y1="31.9577" x2="192.099" y2="124.382" gradientUnits="userSpaceOnUse">
<stop offset="0.0036" stop-color="#E38DDD"/>
<stop offset="1" stop-color="#9571F6"/>
</linearGradient>
<linearGradient id="paint79_linear_11_2756" x1="215.417" y1="52.4783" x2="121.7" y2="108.749" gradientUnits="userSpaceOnUse">
<stop stop-color="#311944"/>
<stop offset="1" stop-color="#893976"/>
</linearGradient>
<linearGradient id="paint80_linear_11_2756" x1="146.014" y1="73.5156" x2="93.9243" y2="170.528" gradientUnits="userSpaceOnUse">
<stop stop-color="#FF9085"/>
<stop offset="1" stop-color="#FB6FBB"/>
</linearGradient>
<linearGradient id="paint81_linear_11_2756" x1="161.38" y1="79.913" x2="110.346" y2="182.752" gradientUnits="userSpaceOnUse">
<stop stop-color="#FF9085"/>
<stop offset="1" stop-color="#FB6FBB"/>
</linearGradient>
<linearGradient id="paint82_linear_11_2756" x1="171.648" y1="149.069" x2="226.583" y2="162.1" gradientUnits="userSpaceOnUse">
<stop stop-color="#FFC444"/>
<stop offset="0.9964" stop-color="#F36F56"/>
</linearGradient>
<linearGradient id="paint83_linear_11_2756" x1="217.454" y1="134.209" x2="170.64" y2="221.397" gradientUnits="userSpaceOnUse">
<stop stop-color="#FFC444"/>
<stop offset="0.9964" stop-color="#F36F56"/>
</linearGradient>
<linearGradient id="paint84_linear_11_2756" x1="231.264" y1="139.959" x2="185.398" y2="232.383" gradientUnits="userSpaceOnUse">
<stop stop-color="#FFC444"/>
<stop offset="0.9964" stop-color="#F36F56"/>
</linearGradient>
<linearGradient id="paint85_linear_11_2756" x1="155.252" y1="227.569" x2="160.272" y2="374.688" gradientUnits="userSpaceOnUse">
<stop offset="0.0036" stop-color="#E38DDD"/>
<stop offset="1" stop-color="#9571F6"/>
</linearGradient>
<linearGradient id="paint86_linear_11_2756" x1="183.987" y1="222.573" x2="117.804" y2="310.098" gradientUnits="userSpaceOnUse">
<stop offset="0.0036" stop-color="#E38DDD"/>
<stop offset="1" stop-color="#9571F6"/>
</linearGradient>
</defs>
</svg>
