<svg width="500" height="500" viewBox="0 0 500 500" fill="none" xmlns="http://www.w3.org/2000/svg">
<path d="M73.2243 457.933C170.855 514.021 329.147 514.023 426.777 457.934C524.408 401.844 524.408 310.907 426.777 254.818C329.146 198.729 170.854 198.729 73.2232 254.817C-24.4079 310.906 -24.4079 401.844 73.2243 457.933Z" fill="#D7E1F4"/>
<path d="M363.985 435.573C343.168 446.485 309.416 446.485 288.6 435.573C267.782 424.663 267.782 406.973 288.6 396.061C309.416 385.152 343.167 385.152 363.985 396.061C384.801 406.972 384.801 424.663 363.985 435.573Z" fill="#EBEBEB"/>
<path d="M449.8 373.724C433.74 382.142 407.703 382.142 391.643 373.724C375.583 365.308 375.583 351.66 391.643 343.24C407.703 334.825 433.74 334.825 449.8 343.24C465.86 351.659 465.86 365.307 449.8 373.724Z" fill="#EBEBEB"/>
<path d="M127.612 352.442C125.241 338.959 116.785 319.74 106.425 309.045C96.4492 298.748 81.6467 295.164 75.7484 299.906C69.8513 304.65 73.7165 314.926 85.1647 327.438C98.0805 341.553 122.894 380.7 127.61 402.882L127.612 352.442Z" fill="#58D635"/>
<g opacity="0.2">
<path d="M127.612 352.442C125.241 338.959 116.785 319.74 106.425 309.045C96.4492 298.748 81.6467 295.164 75.7484 299.906C69.8513 304.65 73.7165 314.926 85.1647 327.438C98.0805 341.553 122.894 380.7 127.61 402.882L127.612 352.442Z" fill="black"/>
</g>
<path d="M127.61 384.883C127.314 384.883 127.061 384.635 127.033 384.305C124.101 350.332 102.506 312.152 81.7256 304.202C81.4225 304.086 81.2623 303.722 81.368 303.389C81.4736 303.054 81.8057 302.882 82.1064 302.994C103.634 311.23 125.167 349.17 128.188 384.185C128.218 384.535 127.985 384.847 127.666 384.881C127.647 384.882 127.629 384.883 127.61 384.883Z" fill="white"/>
<path d="M127.611 419.166C127.611 419.166 123.595 422.695 110.185 421.314C96.7743 419.932 89.8822 409.398 89.8822 404.876C89.8822 400.353 102.194 399.588 104.869 388.375C104.869 388.375 101.587 392.923 94.5985 394.365C87.61 395.806 82.0415 393.355 80.4508 379.391C80.4508 379.391 85.181 380.406 90.6938 378.459C96.2066 376.511 97.5197 373.182 96.0754 372.464C94.631 371.747 86.9575 372.532 82.0299 370.407C77.1023 368.283 80.9234 340.162 84.0931 338.149C87.2628 336.137 102.59 340.874 105.562 343.402C108.21 345.653 111.922 349.544 110.158 357.783C110.158 357.783 112.936 355.212 114.771 350.277C116.213 346.398 117.251 347.339 119.438 348.796C121.626 350.252 124.018 352.897 124.534 356.476C125.051 360.055 124.214 372.389 119.635 376.396C119.635 376.396 124.025 377.014 127.611 368.86C127.611 368.86 134.614 371.951 136.153 376.963C137.692 381.976 139.528 406.456 127.611 419.166Z" fill="#58D635"/>
<path d="M128.79 421.953C128.501 421.953 128.25 421.717 128.214 421.392C125.155 393.804 106.07 357.61 87.3721 343.934C87.1051 343.74 87.0331 343.343 87.2096 343.049C87.3884 342.756 87.7483 342.676 88.0142 342.872C106.949 356.72 126.272 393.339 129.365 421.238C129.404 421.588 129.177 421.906 128.858 421.949C128.838 421.952 128.813 421.953 128.79 421.953Z" fill="white"/>
<path d="M129.971 425.808C128.668 424.98 127.613 422.881 127.613 421.118V116.077C127.613 114.313 128.738 112.169 130.126 111.288L304.317 0.690935C305.706 -0.190085 307.886 -0.234774 309.189 0.592619C310.492 1.42001 311.547 3.51914 311.547 5.28246L134.843 425.709C133.454 426.59 131.272 426.635 129.971 425.808Z" fill="#E0E0E0"/>
<path d="M132.327 121.869L203.073 70.9629L198.356 67.9688L130.126 111.289C128.738 112.17 127.613 114.314 127.613 116.078V118.876L132.327 121.869Z" fill="#37474F"/>
<path opacity="0.2" d="M132.327 121.869L203.073 70.9629L198.356 67.9688L130.126 111.289C128.738 112.17 127.613 114.314 127.613 116.078V118.876L132.327 121.869Z" fill="#37474F"/>
<path d="M155.909 130.851L128.349 113.352C127.894 114.217 127.613 115.194 127.613 116.075V421.116C127.613 422.88 128.669 424.979 129.971 425.806C131.272 426.634 133.454 426.589 134.843 425.708L155.909 412.333V130.851Z" fill="#263238"/>
<path opacity="0.4" d="M155.909 130.851L128.349 113.352C127.894 114.217 127.613 115.194 127.613 116.075V421.116C127.613 422.88 128.669 424.979 129.971 425.806C131.272 426.634 133.454 426.589 134.843 425.708L155.909 412.333V130.851Z" fill="#263238"/>
<path d="M134.843 425.709L309.035 315.111C310.423 314.23 311.548 312.087 311.548 310.323L311.547 5.28207C311.547 3.51875 310.422 2.805 309.034 3.68602L134.841 114.283C133.453 115.164 132.328 117.308 132.328 119.072L132.329 424.113C132.329 425.875 133.454 426.59 134.843 425.709Z" fill="#455A64"/>
<path opacity="0.1" d="M134.843 425.709L309.035 315.111C310.423 314.23 311.548 312.087 311.548 310.323L311.547 5.28207C311.547 3.51875 310.422 2.805 309.034 3.68602L134.841 114.283C133.453 115.164 132.328 117.308 132.328 119.072L132.329 424.113C132.329 425.875 133.454 426.59 134.843 425.709Z" fill="#455A64"/>
<path d="M146.788 189.53L188.612 162.976C191.388 161.213 193.639 162.465 193.639 165.772C193.639 169.079 191.388 173.191 188.612 174.953L146.788 201.507C144.012 203.27 141.76 202.018 141.76 198.711C141.76 195.404 144.012 191.294 146.788 189.53Z" fill="#00CBDC"/>
<path d="M146.788 208.375L174.463 190.803C177.239 189.04 179.49 190.292 179.49 193.599C179.49 196.906 177.239 201.018 174.463 202.78L146.788 220.352C144.012 222.115 141.76 220.862 141.76 217.555C141.76 214.248 144.012 210.137 146.788 208.375Z" fill="#00CBDC"/>
<path d="M143.771 240.633L149.182 237.197C150.293 236.493 151.193 237.063 151.193 238.474V245.345C151.193 246.756 150.293 248.471 149.182 249.176L143.771 252.61C142.66 253.315 141.76 252.744 141.76 251.333V244.463C141.76 243.054 142.661 241.34 143.771 240.633Z" fill="#00CBDC"/>
<path opacity="0.2" d="M143.771 240.633L149.182 237.197C150.293 236.493 151.193 237.063 151.193 238.474V245.345C151.193 246.756 150.293 248.471 149.182 249.176L143.771 252.61C142.66 253.315 141.76 252.744 141.76 251.333V244.463C141.76 243.054 142.661 241.34 143.771 240.633Z" fill="black"/>
<path d="M143.771 264.591L149.182 261.155C150.293 260.45 151.193 261.022 151.193 262.432V269.303C151.193 270.714 150.293 272.429 149.182 273.133L143.771 276.568C142.66 277.273 141.76 276.702 141.76 275.291V268.421C141.76 267.012 142.661 265.296 143.771 264.591Z" fill="#00CBDC"/>
<g opacity="0.2">
<path d="M143.771 264.591L149.182 261.155C150.293 260.45 151.193 261.022 151.193 262.432V269.303C151.193 270.714 150.293 272.429 149.182 273.133L143.771 276.568C142.66 277.273 141.76 276.702 141.76 275.291V268.421C141.76 267.012 142.661 265.296 143.771 264.591Z" fill="black"/>
</g>
<path d="M158.423 258.282L191.126 237.518C192.514 236.637 193.639 237.263 193.639 238.917C193.639 240.57 192.514 242.626 191.126 243.507L158.423 264.271C157.034 265.152 155.909 264.526 155.909 262.873C155.909 261.219 157.035 259.163 158.423 258.282Z" fill="#00CBDC"/>
<path opacity="0.2" d="M158.423 258.282L191.126 237.518C192.514 236.637 193.639 237.263 193.639 238.917C193.639 240.57 192.514 242.626 191.126 243.507L158.423 264.271C157.034 265.152 155.909 264.526 155.909 262.873C155.909 261.219 157.035 259.163 158.423 258.282Z" fill="black"/>
<path d="M143.771 288.547L149.182 285.111C150.293 284.406 151.193 284.977 151.193 286.387V293.258C151.193 294.668 150.293 296.384 149.182 297.089L143.771 300.523C142.66 301.228 141.76 300.656 141.76 299.246V292.376C141.76 290.966 142.661 289.251 143.771 288.547Z" fill="#E0E0E0"/>
<path d="M158.423 282.237L191.126 261.473C192.514 260.592 193.639 261.218 193.639 262.872C193.639 264.525 192.514 266.581 191.126 267.462L158.423 288.226C157.034 289.107 155.909 288.481 155.909 286.828C155.909 285.174 157.035 283.12 158.423 282.237Z" fill="#F0F0F0"/>
<path d="M143.771 312.564L149.182 309.129C150.293 308.424 151.193 308.995 151.193 310.406V317.277C151.193 318.688 150.293 320.402 149.182 321.107L143.771 324.542C142.66 325.247 141.76 324.675 141.76 323.265V316.394C141.76 314.983 142.661 313.269 143.771 312.564Z" fill="#E0E0E0"/>
<path d="M158.423 306.256L191.126 285.492C192.514 284.611 193.639 285.237 193.639 286.89C193.639 288.544 192.514 290.599 191.126 291.48L158.423 312.244C157.034 313.125 155.909 312.5 155.909 310.846C155.909 309.193 157.035 307.137 158.423 306.256Z" fill="#F0F0F0"/>
<path d="M143.771 336.519L149.182 333.083C150.293 332.378 151.193 332.949 151.193 334.36V341.231C151.193 342.642 150.293 344.356 149.182 345.061L143.771 348.496C142.66 349.201 141.76 348.63 141.76 347.219V340.348C141.76 338.939 142.661 337.224 143.771 336.519Z" fill="#E0E0E0"/>
<path d="M158.423 330.208L191.126 309.444C192.514 308.563 193.639 309.189 193.639 310.842C193.639 312.496 192.514 314.552 191.126 315.433L158.423 336.197C157.034 337.078 155.909 336.452 155.909 334.798C155.909 333.145 157.035 331.09 158.423 330.208Z" fill="#F0F0F0"/>
<path d="M144.275 360.094L167.545 345.319C168.934 344.438 170.059 345.064 170.059 346.717C170.059 348.371 168.934 350.427 167.545 351.308L144.275 366.082C142.887 366.963 141.761 366.337 141.761 364.684C141.761 363.03 142.887 360.976 144.275 360.094Z" fill="#00CBDC"/>
<path d="M144.275 372.071L191.127 342.324C192.515 341.443 193.641 342.069 193.641 343.722C193.641 345.376 192.515 347.431 191.127 348.312L144.275 378.059C142.887 378.94 141.761 378.314 141.761 376.661C141.761 375.007 142.887 372.953 144.275 372.071Z" fill="#00CBDC"/>
<path opacity="0.8" d="M144.275 372.071L191.127 342.324C192.515 341.443 193.641 342.069 193.641 343.722C193.641 345.376 192.515 347.431 191.127 348.312L144.275 378.059C142.887 378.94 141.761 378.314 141.761 376.661C141.761 375.007 142.887 372.953 144.275 372.071Z" fill="white"/>
<path d="M144.275 372.071L176.979 351.307C178.368 350.426 179.493 351.052 179.493 352.707C179.493 354.36 178.366 356.416 176.979 357.297L144.276 378.06C142.888 378.941 141.762 378.315 141.762 376.662C141.761 375.008 142.886 372.954 144.275 372.071Z" fill="#00CBDC"/>
<path d="M144.275 384.036L167.545 369.262C168.934 368.381 170.059 369.006 170.059 370.66C170.059 372.313 168.934 374.369 167.545 375.25L144.275 390.024C142.887 390.905 141.761 390.28 141.761 388.626C141.761 386.973 142.887 384.918 144.275 384.036Z" fill="#00CBDC"/>
<path d="M158.423 234.325L191.126 213.561C192.514 212.68 193.639 213.306 193.639 214.96C193.639 216.613 192.514 218.669 191.126 219.55L158.423 240.314C157.034 241.195 155.909 240.569 155.909 238.916C155.909 237.262 157.035 235.206 158.423 234.325Z" fill="#00CBDC"/>
<path opacity="0.2" d="M158.423 234.325L191.126 213.561C192.514 212.68 193.639 213.306 193.639 214.96C193.639 216.613 192.514 218.669 191.126 219.55L158.423 240.314C157.034 241.195 155.909 240.569 155.909 238.916C155.909 237.262 157.035 235.206 158.423 234.325Z" fill="black"/>
<path d="M144.275 384.036L167.545 369.262C168.934 368.381 170.059 369.006 170.059 370.66C170.059 372.313 168.934 374.369 167.545 375.25L144.275 390.024C142.887 390.905 141.761 390.28 141.761 388.626C141.761 386.973 142.887 384.918 144.275 384.036Z" fill="#00CBDC"/>
<path d="M144.275 396.013L191.127 366.266C192.515 365.385 193.641 366.011 193.641 367.665C193.641 369.318 192.515 371.374 191.127 372.255L144.275 402.001C142.887 402.882 141.761 402.257 141.761 400.603C141.761 398.95 142.887 396.895 144.275 396.013Z" fill="#00CBDC"/>
<path opacity="0.8" d="M144.275 396.013L191.127 366.266C192.515 365.385 193.641 366.011 193.641 367.665C193.641 369.318 192.515 371.374 191.127 372.255L144.275 402.001C142.887 402.882 141.761 402.257 141.761 400.603C141.761 398.95 142.887 396.895 144.275 396.013Z" fill="white"/>
<path d="M144.275 396.014L186.412 369.262C187.8 368.381 188.925 369.006 188.925 370.66C188.925 372.313 187.799 374.369 186.411 375.25L144.275 402.002C142.887 402.883 141.761 402.258 141.761 400.604C141.761 398.951 142.887 396.896 144.275 396.014Z" fill="#00CBDC"/>
<path d="M309.033 3.68599L203.073 70.9628V382.39L309.035 315.113C310.423 314.232 311.548 312.088 311.548 310.325L311.547 5.28332C311.547 3.51872 310.421 2.80497 309.033 3.68599Z" fill="#EBEBEB"/>
<path opacity="0.6" d="M309.033 3.68599L203.073 70.9628V382.39L309.035 315.113C310.423 314.232 311.548 312.088 311.548 310.325L311.547 5.28332C311.547 3.51872 310.421 2.80497 309.033 3.68599Z" fill="#FAFAFA"/>
<path d="M203.072 82.9401L203.073 106.896L193.639 118.874H203.071L203.072 142.83L302.115 79.9459V20.0557L203.072 82.9401Z" fill="#00CBDC"/>
<g opacity="0.6">
<path d="M216.023 83.7734L256.148 58.2978C258.091 57.0644 259.667 58.0642 259.667 60.5323V60.5783C259.667 63.0464 258.091 66.0483 256.148 67.2817L216.025 92.7585C214.081 93.9919 212.505 92.9922 212.505 90.524V90.4781C212.504 88.0087 214.08 85.0068 216.023 83.7734Z" fill="white"/>
</g>
<path d="M213.762 103.104L291.426 53.7934C292.12 53.3529 292.682 53.6657 292.682 54.4931C292.682 55.3205 292.119 56.3471 291.426 56.7888L213.762 106.099C213.068 106.54 212.504 106.227 212.504 105.399C212.504 104.572 213.068 103.544 213.762 103.104Z" fill="#00CBDC"/>
<path d="M213.762 103.104L291.426 53.7934C292.12 53.3529 292.682 53.6657 292.682 54.4931C292.682 55.3205 292.119 56.3471 291.426 56.7888L213.762 106.099C213.068 106.54 212.504 106.227 212.504 105.399C212.504 104.572 213.068 103.544 213.762 103.104Z" fill="#C8C4FF"/>
<path opacity="0.6" d="M213.762 103.104L291.426 53.7934C292.12 53.3529 292.682 53.6657 292.682 54.4931C292.682 55.3205 292.119 56.3471 291.426 56.7888L213.762 106.099C213.068 106.54 212.504 106.227 212.504 105.399C212.504 104.572 213.068 103.544 213.762 103.104Z" fill="white"/>
<path d="M213.762 112.087L291.426 62.7768C292.12 62.3363 292.682 62.6491 292.682 63.4765C292.682 64.3039 292.119 65.3304 291.426 65.7722L213.762 115.083C213.068 115.523 212.504 115.21 212.504 114.383C212.504 113.555 213.068 112.529 213.762 112.087Z" fill="#00CBDC"/>
<path opacity="0.6" d="M213.762 112.087L291.426 62.7768C292.12 62.3363 292.682 62.6491 292.682 63.4765C292.682 64.3039 292.119 65.3304 291.426 65.7722L213.762 115.083C213.068 115.523 212.504 115.21 212.504 114.383C212.504 113.555 213.068 112.529 213.762 112.087Z" fill="white"/>
<path opacity="0.6" d="M213.762 121.07L291.426 71.7602C292.12 71.3197 292.682 71.6325 292.682 72.4599C292.682 73.2873 292.119 74.3138 291.426 74.7556L213.762 124.066C213.068 124.506 212.504 124.194 212.504 123.366C212.504 122.539 213.068 121.511 213.762 121.07Z" fill="white"/>
<path d="M216.688 146.189L222.098 142.753C223.209 142.048 224.109 142.619 224.109 144.03V150.901C224.109 152.312 223.208 154.026 222.098 154.731L216.688 158.166C215.577 158.871 214.677 158.3 214.677 156.889V150.018C214.677 148.61 215.577 146.894 216.688 146.189Z" fill="#00CBDC"/>
<path opacity="0.2" d="M216.688 146.189L222.098 142.753C223.209 142.048 224.109 142.619 224.109 144.03V150.901C224.109 152.312 223.208 154.026 222.098 154.731L216.688 158.166C215.577 158.871 214.677 158.3 214.677 156.889V150.018C214.677 148.61 215.577 146.894 216.688 146.189Z" fill="white"/>
<path d="M231.339 139.881L264.042 119.117C265.431 118.236 266.556 118.862 266.556 120.515C266.556 122.169 265.431 124.224 264.042 125.105L231.339 145.869C229.951 146.75 228.825 146.125 228.825 144.471C228.825 142.818 229.951 140.763 231.339 139.881Z" fill="#00CBDC"/>
<path opacity="0.8" d="M231.339 139.881L264.042 119.117C265.431 118.236 266.556 118.862 266.556 120.515C266.556 122.169 265.431 124.224 264.042 125.105L231.339 145.869C229.951 146.75 228.825 146.125 228.825 144.471C228.825 142.818 229.951 140.763 231.339 139.881Z" fill="white"/>
<path d="M215.933 167.642L298.314 115.329C299.008 114.888 299.571 115.201 299.571 116.028C299.571 116.856 299.008 117.882 298.314 118.324L215.933 170.637C215.239 171.078 214.676 170.765 214.676 169.938C214.676 169.11 215.239 168.082 215.933 167.642Z" fill="#00CBDC"/>
<path d="M215.933 176.624L298.314 124.311C299.008 123.87 299.571 124.183 299.571 125.011C299.571 125.838 299.008 126.865 298.314 127.306L215.933 179.62C215.239 180.06 214.676 179.748 214.676 178.92C214.676 178.093 215.239 177.066 215.933 176.624Z" fill="#00CBDC"/>
<path d="M215.933 185.609L298.314 133.295C299.008 132.855 299.571 133.168 299.571 133.995C299.571 134.822 299.008 135.849 298.314 136.291L215.933 188.604C215.239 189.045 214.676 188.732 214.676 187.905C214.676 187.077 215.239 186.049 215.933 185.609Z" fill="#00CBDC"/>
<path d="M215.933 194.617L298.314 142.303C299.008 141.863 299.571 142.175 299.571 143.003C299.571 143.83 299.008 144.857 298.314 145.299L215.933 197.612C215.239 198.053 214.676 197.74 214.676 196.912C214.677 196.085 215.239 195.057 215.933 194.617Z" fill="#00CBDC"/>
<path d="M215.933 167.642L298.314 115.329C299.008 114.888 299.571 115.201 299.571 116.028C299.571 116.856 299.008 117.882 298.314 118.324L215.933 170.637C215.239 171.078 214.676 170.765 214.676 169.938C214.676 169.11 215.239 168.082 215.933 167.642Z" fill="#E0E0E0"/>
<path d="M215.933 176.624L298.314 124.311C299.008 123.87 299.571 124.183 299.571 125.011C299.571 125.838 299.008 126.865 298.314 127.306L215.933 179.62C215.239 180.06 214.676 179.748 214.676 178.92C214.676 178.093 215.239 177.066 215.933 176.624Z" fill="#E0E0E0"/>
<path d="M215.933 185.609L298.314 133.295C299.008 132.855 299.571 133.168 299.571 133.995C299.571 134.822 299.008 135.849 298.314 136.291L215.933 188.604C215.239 189.045 214.676 188.732 214.676 187.905C214.676 187.077 215.239 186.049 215.933 185.609Z" fill="#E0E0E0"/>
<path d="M215.933 194.617L298.314 142.303C299.008 141.863 299.571 142.175 299.571 143.003C299.571 143.83 299.008 144.857 298.314 145.299L215.933 197.612C215.239 198.053 214.676 197.74 214.676 196.912C214.677 196.085 215.239 195.057 215.933 194.617Z" fill="#E0E0E0"/>
<path opacity="0.8" d="M215.933 167.642L298.314 115.329C299.008 114.888 299.571 115.201 299.571 116.028C299.571 116.856 299.008 117.882 298.314 118.324L215.933 170.637C215.239 171.078 214.676 170.765 214.676 169.938C214.676 169.11 215.239 168.082 215.933 167.642Z" fill="#E0E0E0"/>
<path opacity="0.8" d="M215.933 176.624L298.314 124.311C299.008 123.87 299.571 124.183 299.571 125.011C299.571 125.838 299.008 126.865 298.314 127.306L215.933 179.62C215.239 180.06 214.676 179.748 214.676 178.92C214.676 178.093 215.239 177.066 215.933 176.624Z" fill="#E0E0E0"/>
<path opacity="0.8" d="M215.933 185.609L298.314 133.295C299.008 132.855 299.571 133.168 299.571 133.995C299.571 134.822 299.008 135.849 298.314 136.291L215.933 188.604C215.239 189.045 214.676 188.732 214.676 187.905C214.676 187.077 215.239 186.049 215.933 185.609Z" fill="#E0E0E0"/>
<path opacity="0.8" d="M215.933 194.617L298.314 142.303C299.008 141.863 299.571 142.175 299.571 143.003C299.571 143.83 299.008 144.857 298.314 145.299L215.933 197.612C215.239 198.053 214.676 197.74 214.676 196.912C214.677 196.085 215.239 195.057 215.933 194.617Z" fill="#E0E0E0"/>
<path d="M215.933 232.761L298.314 180.448C299.008 180.007 299.571 180.32 299.571 181.147C299.571 181.975 299.008 183.001 298.314 183.443L215.933 235.757C215.239 236.197 214.676 235.884 214.676 235.057C214.676 234.229 215.239 233.202 215.933 232.761Z" fill="#E0E0E0"/>
<path d="M215.933 241.744L298.314 189.43C299.008 188.99 299.571 189.302 299.571 190.13C299.571 190.957 299.008 191.984 298.314 192.426L215.933 244.739C215.239 245.18 214.676 244.867 214.676 244.039C214.676 243.212 215.239 242.185 215.933 241.744Z" fill="#E0E0E0"/>
<path d="M215.933 250.728L298.314 198.414C299.008 197.974 299.571 198.287 299.571 199.114C299.571 199.942 299.008 200.968 298.314 201.41L215.933 253.723C215.239 254.164 214.676 253.851 214.676 253.024C214.676 252.196 215.239 251.168 215.933 250.728Z" fill="#E0E0E0"/>
<path d="M215.933 259.736L298.314 207.422C299.008 206.982 299.571 207.295 299.571 208.122C299.571 208.949 299.008 209.976 298.314 210.418L215.933 262.731C215.239 263.172 214.676 262.859 214.676 262.031C214.677 261.204 215.239 260.176 215.933 259.736Z" fill="#E0E0E0"/>
<path opacity="0.8" d="M215.933 232.761L298.314 180.448C299.008 180.007 299.571 180.32 299.571 181.147C299.571 181.975 299.008 183.001 298.314 183.443L215.933 235.757C215.239 236.197 214.676 235.884 214.676 235.057C214.676 234.229 215.239 233.202 215.933 232.761Z" fill="#E0E0E0"/>
<path opacity="0.8" d="M215.933 241.744L298.314 189.43C299.008 188.99 299.571 189.302 299.571 190.13C299.571 190.957 299.008 191.984 298.314 192.426L215.933 244.739C215.239 245.18 214.676 244.867 214.676 244.039C214.676 243.212 215.239 242.185 215.933 241.744Z" fill="#E0E0E0"/>
<path opacity="0.8" d="M215.933 250.728L298.314 198.414C299.008 197.974 299.571 198.287 299.571 199.114C299.571 199.942 299.008 200.968 298.314 201.41L215.933 253.723C215.239 254.164 214.676 253.851 214.676 253.024C214.676 252.196 215.239 251.168 215.933 250.728Z" fill="#E0E0E0"/>
<path opacity="0.8" d="M215.933 259.736L298.314 207.422C299.008 206.982 299.571 207.295 299.571 208.122C299.571 208.949 299.008 209.976 298.314 210.418L215.933 262.731C215.239 263.172 214.676 262.859 214.676 262.031C214.677 261.204 215.239 260.176 215.933 259.736Z" fill="#E0E0E0"/>
<path d="M215.933 299.157L298.314 246.843C299.008 246.403 299.571 246.715 299.571 247.543C299.571 248.37 299.008 249.397 298.314 249.839L215.933 302.152C215.239 302.593 214.676 302.28 214.676 301.452C214.677 300.625 215.239 299.597 215.933 299.157Z" fill="#E0E0E0"/>
<path d="M215.933 308.139L298.314 255.826C299.008 255.385 299.571 255.698 299.571 256.525C299.571 257.353 299.008 258.379 298.314 258.821L215.933 311.135C215.239 311.575 214.676 311.262 214.676 310.435C214.677 309.607 215.239 308.581 215.933 308.139Z" fill="#E0E0E0"/>
<path d="M215.933 317.123L298.314 264.81C299.008 264.369 299.571 264.682 299.571 265.51C299.571 266.337 299.008 267.364 298.314 267.805L215.933 320.119C215.239 320.559 214.676 320.247 214.676 319.419C214.677 318.592 215.239 317.564 215.933 317.123Z" fill="#E0E0E0"/>
<path d="M215.933 326.131L298.314 273.818C299.008 273.377 299.571 273.69 299.571 274.517C299.571 275.345 299.008 276.371 298.314 276.813L215.933 329.127C215.239 329.567 214.676 329.254 214.676 328.427C214.677 327.6 215.239 326.572 215.933 326.131Z" fill="#E0E0E0"/>
<path opacity="0.8" d="M215.933 299.157L298.314 246.843C299.008 246.403 299.571 246.715 299.571 247.543C299.571 248.37 299.008 249.397 298.314 249.839L215.933 302.152C215.239 302.593 214.676 302.28 214.676 301.452C214.677 300.625 215.239 299.597 215.933 299.157Z" fill="#E0E0E0"/>
<path opacity="0.8" d="M215.933 308.139L298.314 255.826C299.008 255.385 299.571 255.698 299.571 256.525C299.571 257.353 299.008 258.379 298.314 258.821L215.933 311.135C215.239 311.575 214.676 311.262 214.676 310.435C214.677 309.607 215.239 308.581 215.933 308.139Z" fill="#E0E0E0"/>
<path opacity="0.8" d="M215.933 317.123L298.314 264.81C299.008 264.369 299.571 264.682 299.571 265.51C299.571 266.337 299.008 267.364 298.314 267.805L215.933 320.119C215.239 320.559 214.676 320.247 214.676 319.419C214.677 318.592 215.239 317.564 215.933 317.123Z" fill="#E0E0E0"/>
<path opacity="0.8" d="M215.933 326.131L298.314 273.818C299.008 273.377 299.571 273.69 299.571 274.517C299.571 275.345 299.008 276.371 298.314 276.813L215.933 329.127C215.239 329.567 214.676 329.254 214.676 328.427C214.677 327.6 215.239 326.572 215.933 326.131Z" fill="#E0E0E0"/>
<path d="M216.688 212.071L222.098 208.636C223.209 207.931 224.109 208.502 224.109 209.913V216.783C224.109 218.194 223.208 219.909 222.098 220.614L216.688 224.049C215.577 224.754 214.677 224.183 214.677 222.772V215.901C214.677 214.49 215.577 212.775 216.688 212.071Z" fill="#00CBDC"/>
<path opacity="0.2" d="M216.688 212.071L222.098 208.636C223.209 207.931 224.109 208.502 224.109 209.913V216.783C224.109 218.194 223.208 219.909 222.098 220.614L216.688 224.049C215.577 224.754 214.677 224.183 214.677 222.772V215.901C214.677 214.49 215.577 212.775 216.688 212.071Z" fill="white"/>
<path d="M231.339 205.761L264.042 184.997C265.431 184.116 266.556 184.742 266.556 186.395C266.556 188.049 265.431 190.104 264.042 190.985L231.339 211.749C229.951 212.63 228.825 212.005 228.825 210.351C228.825 208.698 229.951 206.642 231.339 205.761Z" fill="#00CBDC"/>
<path opacity="0.8" d="M231.339 205.761L264.042 184.997C265.431 184.116 266.556 184.742 266.556 186.395C266.556 188.049 265.431 190.104 264.042 190.985L231.339 211.749C229.951 212.63 228.825 212.005 228.825 210.351C228.825 208.698 229.951 206.642 231.339 205.761Z" fill="white"/>
<path d="M216.688 277.948L222.098 274.513C223.209 273.808 224.109 274.379 224.109 275.79V282.66C224.109 284.071 223.208 285.786 222.098 286.491L216.688 289.926C215.577 290.631 214.677 290.06 214.677 288.649V281.778C214.677 280.369 215.577 278.652 216.688 277.948Z" fill="#00CBDC"/>
<path opacity="0.2" d="M216.688 277.948L222.098 274.513C223.209 273.808 224.109 274.379 224.109 275.79V282.66C224.109 284.071 223.208 285.786 222.098 286.491L216.688 289.926C215.577 290.631 214.677 290.06 214.677 288.649V281.778C214.677 280.369 215.577 278.652 216.688 277.948Z" fill="white"/>
<path d="M231.339 271.642L264.042 250.878C265.431 249.997 266.556 250.622 266.556 252.276C266.556 253.929 265.431 255.985 264.042 256.866L231.339 277.63C229.951 278.511 228.825 277.886 228.825 276.232C228.825 274.577 229.951 272.523 231.339 271.642Z" fill="#00CBDC"/>
<path opacity="0.8" d="M231.339 271.642L264.042 250.878C265.431 249.997 266.556 250.622 266.556 252.276C266.556 253.929 265.431 255.985 264.042 256.866L231.339 277.63C229.951 278.511 228.825 277.886 228.825 276.232C228.825 274.577 229.951 272.523 231.339 271.642Z" fill="white"/>
<path d="M224.392 335.951L229.802 332.515C230.913 331.81 231.813 332.381 231.813 333.792V340.662C231.813 342.073 230.913 343.788 229.802 344.493L224.392 347.928C223.28 348.632 222.381 348.062 222.381 346.651V339.78C222.381 338.37 223.28 336.656 224.392 335.951Z" fill="#00CBDC"/>
<path d="M215.933 359.29L238.259 345.117C238.954 344.676 239.517 344.989 239.517 345.816C239.517 346.644 238.954 347.67 238.259 348.112L215.933 362.285C215.239 362.726 214.676 362.413 214.676 361.585C214.676 360.758 215.239 359.73 215.933 359.29Z" fill="#E0E0E0"/>
<path d="M254.419 316.87L259.83 313.435C260.941 312.73 261.841 313.301 261.841 314.712V321.582C261.841 322.993 260.94 324.708 259.83 325.413L254.419 328.848C253.308 329.552 252.408 328.982 252.408 327.571V320.7C252.408 319.29 253.308 317.576 254.419 316.87Z" fill="#00CBDC"/>
<path d="M245.961 340.209L268.287 326.037C268.981 325.596 269.544 325.909 269.544 326.736C269.544 327.564 268.981 328.59 268.287 329.032L245.961 343.205C245.266 343.645 244.704 343.333 244.704 342.505C244.704 341.678 245.267 340.65 245.961 340.209Z" fill="#E0E0E0"/>
<path d="M284.447 297.79L289.857 294.356C290.967 293.651 291.868 294.222 291.868 295.633V302.503C291.868 303.913 290.967 305.629 289.857 306.334L284.447 309.768C283.336 310.473 282.436 309.901 282.436 308.492V301.621C282.436 300.211 283.336 298.495 284.447 297.79Z" fill="#00CBDC"/>
<path opacity="0.2" d="M224.392 335.951L229.802 332.515C230.913 331.81 231.813 332.381 231.813 333.792V340.662C231.813 342.073 230.913 343.788 229.802 344.493L224.392 347.928C223.28 348.632 222.381 348.062 222.381 346.651V339.78C222.381 338.37 223.28 336.656 224.392 335.951Z" fill="white"/>
<path opacity="0.2" d="M254.419 316.87L259.83 313.435C260.941 312.73 261.841 313.301 261.841 314.712V321.582C261.841 322.993 260.94 324.708 259.83 325.413L254.419 328.848C253.308 329.552 252.408 328.982 252.408 327.571V320.7C252.408 319.29 253.308 317.576 254.419 316.87Z" fill="white"/>
<path opacity="0.2" d="M284.447 297.79L289.857 294.356C290.967 293.651 291.868 294.222 291.868 295.633V302.503C291.868 303.913 290.967 305.629 289.857 306.334L284.447 309.768C283.336 310.473 282.436 309.901 282.436 308.492V301.621C282.436 300.211 283.336 298.495 284.447 297.79Z" fill="white"/>
<path d="M275.989 321.13L298.316 306.957C299.01 306.517 299.573 306.83 299.573 307.657C299.573 308.485 299.01 309.511 298.316 309.953L275.989 324.126C275.295 324.566 274.732 324.254 274.732 323.426C274.732 322.599 275.295 321.571 275.989 321.13Z" fill="#E0E0E0"/>
<mask id="mask0_20_6569" style="mask-type:luminance" maskUnits="userSpaceOnUse" x="141" y="104" width="48" height="68">
<path d="M165.342 108.089C152.318 116.167 141.76 136.276 141.76 153.006C141.76 169.736 152.318 176.596 165.342 168.327C178.365 160.058 188.923 139.948 188.923 123.41C188.923 106.871 178.365 100.012 165.342 108.089Z" fill="white"/>
</mask>
<g mask="url(#mask0_20_6569)">
<path d="M165.342 108.089C152.318 116.167 141.76 136.276 141.76 153.006C141.76 169.736 152.318 176.596 165.342 168.327C178.365 160.058 188.923 139.948 188.923 123.41C188.923 106.871 178.365 100.012 165.342 108.089Z" fill="#FAFAFA"/>
</g>
<mask id="mask1_20_6569" style="mask-type:luminance" maskUnits="userSpaceOnUse" x="141" y="104" width="48" height="68">
<path d="M165.342 108.089C152.318 116.167 141.76 136.276 141.76 153.006C141.76 169.736 152.318 176.596 165.342 168.327C178.365 160.058 188.923 139.948 188.923 123.41C188.923 106.871 178.365 100.012 165.342 108.089Z" fill="white"/>
</mask>
<g mask="url(#mask1_20_6569)">
<path d="M176.767 159.645L157.893 165.206C156.411 165.642 155.208 164.58 155.208 162.832V127.488C155.208 121.696 159.191 115.828 164.104 114.38L170.554 112.479C175.467 111.031 179.451 114.552 179.451 120.343V155.687C179.452 157.437 178.249 159.208 176.767 159.645Z" fill="#37474F"/>
</g>
<mask id="mask2_20_6569" style="mask-type:luminance" maskUnits="userSpaceOnUse" x="141" y="104" width="48" height="68">
<path d="M165.342 108.089C152.318 116.167 141.76 136.276 141.76 153.006C141.76 169.736 152.318 176.596 165.342 168.327C178.365 160.058 188.923 139.948 188.923 123.41C188.923 106.871 178.365 100.012 165.342 108.089Z" fill="white"/>
</mask>
<g mask="url(#mask2_20_6569)">
<path d="M177.675 168.785L175.65 159.142C175.65 159.142 175.669 146.134 173.958 144.931C172.247 143.728 171.789 143.505 171.789 143.505C173.951 142.685 178.505 142.064 179.944 146.639C181.302 150.953 183.335 161.592 184.3 166.833L177.675 168.785Z" fill="#F28F8F"/>
<path d="M177.513 168.832L170.785 143.616C173.767 142.333 177.59 141.279 179.452 144.664C181.125 147.705 183.795 163.616 184.322 166.826L177.513 168.832Z" fill="#00CBDC"/>
<g opacity="0.4">
<path d="M177.513 168.832L170.785 143.616C173.767 142.333 177.59 141.279 179.452 144.664C181.125 147.705 183.795 163.616 184.322 166.826L177.513 168.832Z" fill="black"/>
</g>
</g>
<mask id="mask3_20_6569" style="mask-type:luminance" maskUnits="userSpaceOnUse" x="141" y="104" width="48" height="68">
<path d="M165.342 108.089C152.318 116.167 141.76 136.276 141.76 153.006C141.76 169.736 152.318 176.596 165.342 168.327C178.365 160.058 188.923 139.948 188.923 123.41C188.923 106.871 178.365 100.012 165.342 108.089Z" fill="white"/>
</mask>
<g mask="url(#mask3_20_6569)">
<path d="M178.418 168.568L171.802 170.518C172.238 167.958 172.9 165.712 173.653 164.588C176.112 160.917 179.078 160.098 179.078 160.098C179.078 160.098 178.306 164.343 178.418 168.568Z" fill="#00CBDC"/>
</g>
<mask id="mask4_20_6569" style="mask-type:luminance" maskUnits="userSpaceOnUse" x="141" y="104" width="48" height="68">
<path d="M165.342 108.089C152.318 116.167 141.76 136.276 141.76 153.006C141.76 169.736 152.318 176.596 165.342 168.327C178.365 160.058 188.923 139.948 188.923 123.41C188.923 106.871 178.365 100.012 165.342 108.089Z" fill="white"/>
</mask>
<g mask="url(#mask4_20_6569)">
<path d="M178.418 168.568L171.802 170.518C172.238 167.958 172.9 165.712 173.653 164.588C176.112 160.917 179.078 160.098 179.078 160.098C179.078 160.098 178.306 164.343 178.418 168.568Z" fill="#00CBDC"/>
<g opacity="0.7">
<path d="M178.418 168.568L171.802 170.518C172.238 167.958 172.9 165.712 173.653 164.588C176.112 160.917 179.078 160.098 179.078 160.098C179.078 160.098 178.306 164.343 178.418 168.568Z" fill="black"/>
</g>
</g>
<mask id="mask5_20_6569" style="mask-type:luminance" maskUnits="userSpaceOnUse" x="141" y="104" width="48" height="68">
<path d="M165.342 108.089C152.318 116.167 141.76 136.276 141.76 153.006C141.76 169.736 152.318 176.596 165.342 168.327C178.365 160.058 188.923 139.948 188.923 123.41C188.923 106.871 178.365 100.012 165.342 108.089Z" fill="white"/>
</mask>
<g mask="url(#mask5_20_6569)">
<path d="M176.998 168.986L158.476 174.444L156.425 167.475C156.425 167.475 161.847 153.519 155.15 149.94C156.004 149.236 163.144 146.164 163.144 146.164L170.815 143.639C172.274 143.208 178.188 146.091 179.685 152.484C180.218 154.756 180.033 156.775 177.031 168.546C177.013 168.681 177.005 168.833 176.998 168.986Z" fill="#00CBDC"/>
</g>
<mask id="mask6_20_6569" style="mask-type:luminance" maskUnits="userSpaceOnUse" x="141" y="104" width="48" height="68">
<path d="M165.342 108.089C152.318 116.167 141.76 136.276 141.76 153.006C141.76 169.736 152.318 176.596 165.342 168.327C178.365 160.058 188.923 139.948 188.923 123.41C188.923 106.871 178.365 100.012 165.342 108.089Z" fill="white"/>
</mask>
<g mask="url(#mask6_20_6569)">
<path d="M175.47 116.81C176.75 117.324 178.333 120.654 178.176 128.657C178.044 135.44 176.19 137.653 175.258 138.407C174.327 139.162 172.531 139.399 170.785 139.571V143.618C170.785 143.618 173.197 146.211 173.046 148.111C172.894 150.013 169.562 151.432 167.304 150.285C165.046 149.137 163.144 146.163 163.144 146.163L163.183 136.844C163.183 136.844 162.156 138.324 160.413 137.041C158.974 135.983 158.49 133.626 159.611 131.954C160.731 130.283 162.804 130.038 163.598 131.715C163.598 131.715 164.568 128.253 168.59 125.519C172.224 123.049 174.199 120.856 175.47 116.81Z" fill="#FFA8A7"/>
</g>
<mask id="mask7_20_6569" style="mask-type:luminance" maskUnits="userSpaceOnUse" x="141" y="104" width="48" height="68">
<path d="M165.342 108.089C152.318 116.167 141.76 136.276 141.76 153.006C141.76 169.736 152.318 176.596 165.342 168.327C178.365 160.058 188.923 139.948 188.923 123.41C188.923 106.871 178.365 100.012 165.342 108.089Z" fill="white"/>
</mask>
<g mask="url(#mask7_20_6569)">
<path d="M171.788 128.845C171.809 129.325 171.503 129.827 171.106 129.966C170.709 130.105 170.371 129.83 170.35 129.35C170.329 128.869 170.635 128.368 171.032 128.228C171.429 128.089 171.768 128.365 171.788 128.845Z" fill="#37474F"/>
</g>
<mask id="mask8_20_6569" style="mask-type:luminance" maskUnits="userSpaceOnUse" x="141" y="104" width="48" height="68">
<path d="M165.342 108.089C152.318 116.167 141.76 136.276 141.76 153.006C141.76 169.736 152.318 176.596 165.342 168.327C178.365 160.058 188.923 139.948 188.923 123.41C188.923 106.871 178.365 100.012 165.342 108.089Z" fill="white"/>
</mask>
<g mask="url(#mask8_20_6569)">
<path d="M171.981 134.506L173.652 134.641C173.512 135.246 173.026 135.706 172.565 135.668C172.104 135.632 171.841 135.111 171.981 134.506Z" fill="#F28F8F"/>
</g>
<mask id="mask9_20_6569" style="mask-type:luminance" maskUnits="userSpaceOnUse" x="141" y="104" width="48" height="68">
<path d="M165.342 108.089C152.318 116.167 141.76 136.276 141.76 153.006C141.76 169.736 152.318 176.596 165.342 168.327C178.365 160.058 188.923 139.948 188.923 123.41C188.923 106.871 178.365 100.012 165.342 108.089Z" fill="white"/>
</mask>
<g mask="url(#mask9_20_6569)">
<path d="M177.687 124.503L176.231 123.744C176.497 123.175 177.038 122.884 177.44 123.095C177.843 123.304 177.953 123.935 177.687 124.503Z" fill="#37474F"/>
</g>
<mask id="mask10_20_6569" style="mask-type:luminance" maskUnits="userSpaceOnUse" x="141" y="104" width="48" height="68">
<path d="M165.342 108.089C152.318 116.167 141.76 136.276 141.76 153.006C141.76 169.736 152.318 176.596 165.342 168.327C178.365 160.058 188.923 139.948 188.923 123.41C188.923 106.871 178.365 100.012 165.342 108.089Z" fill="white"/>
</mask>
<g mask="url(#mask10_20_6569)">
<path d="M169.695 127.487L171.151 125.869C170.885 125.457 170.344 125.486 169.942 125.933C169.539 126.379 169.429 127.075 169.695 127.487Z" fill="#37474F"/>
</g>
<mask id="mask11_20_6569" style="mask-type:luminance" maskUnits="userSpaceOnUse" x="141" y="104" width="48" height="68">
<path d="M165.342 108.089C152.318 116.167 141.76 136.276 141.76 153.006C141.76 169.736 152.318 176.596 165.342 168.327C178.365 160.058 188.923 139.948 188.923 123.41C188.923 106.871 178.365 100.012 165.342 108.089Z" fill="white"/>
</mask>
<g mask="url(#mask11_20_6569)">
<path d="M177.352 126.593C177.373 127.073 177.067 127.575 176.67 127.714C176.273 127.853 175.935 127.578 175.914 127.098C175.893 126.617 176.199 126.116 176.596 125.977C176.993 125.837 177.332 126.113 177.352 126.593Z" fill="#37474F"/>
</g>
<mask id="mask12_20_6569" style="mask-type:luminance" maskUnits="userSpaceOnUse" x="141" y="104" width="48" height="68">
<path d="M165.342 108.089C152.318 116.167 141.76 136.276 141.76 153.006C141.76 169.736 152.318 176.596 165.342 168.327C178.365 160.058 188.923 139.948 188.923 123.41C188.923 106.871 178.365 100.012 165.342 108.089Z" fill="white"/>
</mask>
<g mask="url(#mask12_20_6569)">
<path d="M173.958 127.107L174.072 132.179L176.352 130.675L173.958 127.107Z" fill="#F28F8F"/>
</g>
<mask id="mask13_20_6569" style="mask-type:luminance" maskUnits="userSpaceOnUse" x="141" y="104" width="48" height="68">
<path d="M165.342 108.089C152.318 116.167 141.76 136.276 141.76 153.006C141.76 169.736 152.318 176.596 165.342 168.327C178.365 160.058 188.923 139.948 188.923 123.41C188.923 106.871 178.365 100.012 165.342 108.089Z" fill="white"/>
</mask>
<g mask="url(#mask13_20_6569)">
<path d="M170.785 139.571C168.944 139.829 165.159 139.663 164.57 138.072C164.57 138.072 164.766 139.123 165.897 139.933C167.028 140.742 170.785 140.922 170.785 140.922V139.571Z" fill="#F28F8F"/>
</g>
<mask id="mask14_20_6569" style="mask-type:luminance" maskUnits="userSpaceOnUse" x="141" y="104" width="48" height="68">
<path d="M165.342 108.089C152.318 116.167 141.76 136.276 141.76 153.006C141.76 169.736 152.318 176.596 165.342 168.327C178.365 160.058 188.923 139.948 188.923 123.41C188.923 106.871 178.365 100.012 165.342 108.089Z" fill="white"/>
</mask>
<g mask="url(#mask14_20_6569)">
<path d="M158.536 174.427L157.753 171.387L159.801 174.054L158.536 174.427Z" fill="#00CBDC"/>
</g>
<mask id="mask15_20_6569" style="mask-type:luminance" maskUnits="userSpaceOnUse" x="141" y="104" width="48" height="68">
<path d="M165.342 108.089C152.318 116.167 141.76 136.276 141.76 153.006C141.76 169.736 152.318 176.596 165.342 168.327C178.365 160.058 188.923 139.948 188.923 123.41C188.923 106.871 178.365 100.012 165.342 108.089Z" fill="white"/>
</mask>
<g mask="url(#mask15_20_6569)">
<path d="M157.009 174.878C156.573 172.037 155.152 166.673 153.611 162.03C151.658 156.145 153.839 151.063 155.15 149.94C156.461 148.816 163.144 146.164 163.144 146.164C165.558 153.732 166.221 163.852 166.275 172.145L157.009 174.878Z" fill="#00CBDC"/>
<path opacity="0.4" d="M157.009 174.878C156.573 172.037 155.152 166.673 153.611 162.03C151.658 156.145 153.839 151.063 155.15 149.94C156.461 148.816 163.144 146.164 163.144 146.164C165.558 153.732 166.221 163.852 166.275 172.145L157.009 174.878Z" fill="black"/>
</g>
<mask id="mask16_20_6569" style="mask-type:luminance" maskUnits="userSpaceOnUse" x="141" y="104" width="48" height="68">
<path d="M165.342 108.089C152.318 116.167 141.76 136.276 141.76 153.006C141.76 169.736 152.318 176.596 165.342 168.327C178.365 160.058 188.923 139.948 188.923 123.41C188.923 106.871 178.365 100.012 165.342 108.089Z" fill="white"/>
</mask>
<g mask="url(#mask16_20_6569)">
<path d="M153.712 175.848L147.08 177.802C146.744 177.539 146.558 177.335 146.558 177.335C146.558 177.335 149.697 164.033 150.695 159.612C151.692 155.192 152.457 152.16 155.151 149.94C159.993 153.403 157.754 163.017 157.754 163.017L153.712 175.848Z" fill="#00CBDC"/>
<path opacity="0.4" d="M153.712 175.848L147.08 177.802C146.744 177.539 146.558 177.335 146.558 177.335C146.558 177.335 149.697 164.033 150.695 159.612C151.692 155.192 152.457 152.16 155.151 149.94C159.993 153.403 157.754 163.017 157.754 163.017L153.712 175.848Z" fill="black"/>
</g>
<path d="M57.1748 90.8249V65.5192H57.1806C57.1109 60.6225 60.0136 55.7105 65.8991 51.9745C77.5319 44.5879 96.3923 44.5879 108.026 51.9745C113.912 55.7105 116.814 60.6225 116.745 65.5192H116.747V90.7279C116.794 95.6067 113.889 104.324 108.026 108.046C96.3935 115.432 77.5331 115.432 65.8991 108.046C60.0961 104.361 57.1887 95.7037 57.176 90.8747L57.1748 90.8581C57.1748 90.8479 57.1748 90.8364 57.1748 90.8249Z" fill="#EBEBEB"/>
<path d="M86.9634 34.1416L136.11 65.3463L86.9622 96.5511L37.8152 65.3463L86.9634 34.1416Z" fill="#F5F5F5"/>
<path d="M62.3672 80.9358L86.5744 65.7477C86.9889 65.486 87.5172 65.6469 87.7529 66.1027C87.9886 66.5585 87.8446 67.1395 87.4301 67.3987L64.1007 82.0364L62.3672 80.9358Z" fill="#E0E0E0"/>
<path d="M136.11 65.3477L136.109 67.577L86.9622 98.7805V96.5524L136.11 65.3477Z" fill="#E6E6E6"/>
<path d="M37.8152 65.3477L37.8163 67.577L86.9622 98.7805V96.5524L37.8152 65.3477Z" fill="#F0F0F0"/>
<path d="M61.1479 82.39L62.6481 83.3425C62.8721 82.9416 63.1798 82.5956 63.5641 82.3555L64.0866 82.0274L62.3798 80.9434C61.8748 81.3302 61.4568 81.8218 61.1479 82.39Z" fill="#E0E0E0"/>
<path d="M116.802 79.835L86.9609 102.124L57.2026 79.8848L86.9621 98.7795L116.802 79.835Z" fill="#E0E0E0"/>
<path d="M59.2332 108.669C59.8021 109.135 61.2755 109.171 61.9339 108.669L64.1445 124.414C64.1445 127.386 57.1235 127.386 57.1235 124.414L59.2332 108.669Z" fill="#F5F5F5"/>
<path d="M59.1126 117.654L58.6714 126.295C58.5216 126.236 58.3764 126.17 58.2429 126.095L59.1126 117.654Z" fill="#EBEBEB"/>
<path d="M62.432 126.356L61.502 112.325L62.8813 126.17C62.7385 126.239 62.5887 126.301 62.432 126.356Z" fill="#EBEBEB"/>
<path d="M60.8553 126.636C60.7078 126.641 60.5604 126.641 60.4141 126.636L60.6393 115.494L60.8553 126.636Z" fill="#EBEBEB"/>
<path d="M60.5649 109.982C61.0433 109.982 61.5263 109.805 61.993 109.45C62.3855 109.151 62.483 108.558 62.2125 108.127C61.9408 107.695 61.4021 107.587 61.0096 107.885C60.6381 108.169 60.4326 108.109 60.1818 107.905C59.7986 107.59 59.2564 107.677 58.9719 108.099C58.6863 108.52 58.7653 109.115 59.1484 109.429C59.5978 109.797 60.0796 109.982 60.5649 109.982Z" fill="#E0E0E0"/>
<path d="M60.6336 107.531C61.1108 107.531 61.4975 107.106 61.4975 106.581V84.2655C61.4975 83.2466 61.9967 82.3004 62.8013 81.7961L87.43 66.3437C87.8445 66.0833 87.9885 65.5036 87.7528 65.0465C87.5159 64.5906 86.9876 64.431 86.5743 64.6915L61.9456 80.1438C60.6034 80.9866 59.7698 82.5647 59.7698 84.2642V106.58C59.7698 107.106 60.1564 107.531 60.6336 107.531Z" fill="#FAFAFA"/>
<path d="M62.5305 106.581C62.5305 105.429 61.6806 104.494 60.6333 104.494C59.586 104.494 58.7361 105.429 58.7361 106.581C58.7361 107.732 59.5848 108.667 60.6333 108.667C61.6806 108.667 62.5305 107.732 62.5305 106.581Z" fill="#F5F5F5"/>
<path d="M58.7466 106.698C58.8522 107.197 59.7857 108.151 60.8574 107.491C62.0034 106.785 61.7839 105.175 60.8946 104.522C61.8176 104.664 62.5305 105.526 62.5305 106.579C62.5305 107.731 61.6806 108.666 60.6333 108.666C59.622 108.667 58.8035 107.795 58.7466 106.698Z" fill="#EBEBEB"/>
<path d="M397.005 94.2604L388.023 88.5785L392.965 87.4268L397.873 91.2049L397.005 94.2604Z" fill="#E0E0E0"/>
<path d="M381.289 43.4071C381.273 28.0492 372.759 20.9717 362.279 27.6266L346.789 37.4608C336.309 44.1144 327.779 62.0387 327.779 77.4055C327.779 78.0363 327.795 78.6555 327.829 79.2403C327.829 79.58 327.863 79.8737 327.879 80.2031C327.895 80.5082 327.929 80.8019 327.961 81.0956C327.995 81.4378 328.028 81.7813 328.077 82.1132C328.326 84.0643 328.756 85.8276 329.3 87.4211C329.549 88.0633 329.796 88.657 330.077 89.2303C330.209 89.5342 330.358 89.8279 330.523 90.0858C330.571 90.1752 330.621 90.2659 330.671 90.3553C330.936 90.8417 331.233 91.3078 331.564 91.7036C331.746 91.927 331.928 92.176 332.126 92.3893L332.721 93.0289C332.935 93.2077 333.134 93.4209 333.349 93.5997C333.564 93.7785 333.778 93.9572 334.009 94.1015C334.242 94.2458 334.473 94.3888 334.704 94.5331C335.58 95.0681 336.539 95.4039 337.547 95.5877C337.63 95.5839 337.712 95.6043 337.778 95.635C338.043 95.6605 338.29 95.6976 338.555 95.6988C338.836 95.7384 339.117 95.7295 339.398 95.7205C340.108 95.7295 340.853 95.6452 341.613 95.4537C342.043 95.3503 342.472 95.2468 342.903 95.0949V95.1192C344.159 94.7093 345.448 94.0849 346.788 93.2345L362.278 83.4003C363.303 82.7504 364.327 81.9779 365.32 81.1301C365.304 80.9219 365.286 80.7394 365.271 80.5555C365.254 80.2031 365.238 79.9464 365.238 79.7281C365.204 79.2161 365.188 78.6926 365.188 78.1601C365.188 64.9487 372.346 49.5934 381.289 43.4071Z" fill="#E0E0E0"/>
<path d="M383.909 32.3596C383.909 32.3596 374.855 26.6304 374.909 26.6662C374.964 26.7007 375.821 33.5547 375.821 33.5547L382.503 34.4192L383.909 32.3596Z" fill="#E0E0E0"/>
<path d="M342.33 99.2804L334.01 94.1003L339.016 91.7305L342.33 99.2804Z" fill="#E0E0E0"/>
<path d="M346.788 93.2355C346.788 95.2733 346.267 99.8661 343.612 103.759C343.243 104.301 343.812 104.773 344.236 104.534C345.628 103.749 347.242 102.574 349.181 100.146C352.053 96.5489 353.888 91.7224 354.534 88.3184L346.788 93.2355Z" fill="#E0E0E0"/>
<path d="M343.709 104.507L352.71 110.201C352.71 110.201 357.754 105.512 357.754 96.0304L347.993 95.2949C347.993 95.2949 347.767 101.472 343.709 104.507Z" fill="#E0E0E0"/>
<path d="M367.673 76.5902C367.673 77.0626 367.686 77.5287 367.711 77.9679C367.711 78.2233 367.735 78.4429 367.748 78.6906C367.76 78.9192 367.785 79.1401 367.81 79.3609C367.835 79.6176 367.86 79.8755 367.897 80.1245C368.046 81.3401 368.294 82.456 368.617 83.4519C368.667 83.6562 368.729 83.8363 368.803 84.0252C368.89 84.2793 368.977 84.5334 369.089 84.7722C369.187 85.0186 369.287 85.2472 369.399 85.4668C369.497 85.6954 369.61 85.915 369.734 86.109C369.771 86.1946 369.809 86.2623 369.846 86.3108C370.057 86.6683 370.28 86.999 370.516 87.3221C370.653 87.5085 370.789 87.677 370.937 87.8366L371.384 88.3167C371.533 88.4763 371.694 88.6104 371.856 88.7445C372.017 88.8785 372.178 89.0126 372.351 89.1211C372.525 89.2284 372.687 89.3446 372.873 89.4454C373.047 89.554 373.22 89.6433 373.407 89.7251C373.592 89.8068 373.778 89.8885 373.965 89.9523C373.978 89.9626 373.978 89.9626 373.978 89.9626C374.314 90.0775 374.661 90.1656 375.008 90.2371C375.069 90.2524 375.119 90.2575 375.182 90.2728C375.368 90.2996 375.566 90.3201 375.765 90.3214C375.963 90.3584 376.175 90.352 376.398 90.338C376.869 90.3482 377.366 90.2882 377.886 90.1745C378.259 90.1196 378.643 90.0034 379.027 89.8859C379.97 89.5782 380.951 89.1007 381.943 88.4712L393.57 81.0885C394.575 80.4501 395.543 79.6904 396.485 78.8004V78.7825C396.808 78.4863 397.131 78.1543 397.454 77.8224C398.024 77.2414 398.583 76.5953 399.116 75.9109C399.328 75.6492 399.538 75.3887 399.749 75.0912C399.948 74.8384 400.133 74.5741 400.332 74.3021C400.382 74.2166 400.443 74.1221 400.506 74.0467C401.263 72.9474 401.983 71.7803 402.64 70.5444C402.813 70.2162 402.987 69.8868 403.162 69.5586C403.336 69.2305 403.496 68.8908 403.657 68.5525C403.819 68.2128 403.967 67.8643 404.129 67.5259L404.576 66.4776C404.724 66.129 404.861 65.769 404.997 65.4268C405.246 64.8139 405.469 64.1819 405.667 63.5639C405.704 63.4489 405.741 63.334 405.779 63.2204C405.903 62.8693 406.014 62.5066 406.114 62.1529C406.325 61.4545 406.511 60.7727 406.698 60.0538C407.107 58.339 407.43 56.6051 407.617 54.9043C407.654 54.6081 407.678 54.3195 407.704 54.0297C407.728 53.7769 407.754 53.5253 407.766 53.2802C407.779 53.0172 407.803 52.7656 407.803 52.5103C407.828 52.0391 407.841 51.559 407.841 51.0853C407.841 39.5503 401.437 34.2272 393.571 39.2222L381.944 46.6049C374.077 51.6011 367.673 65.0552 367.673 76.5902Z" fill="#E0E0E0"/>
<path d="M411.979 44.1548L403.058 38.5137L399.687 41.1184L410.103 48.053L411.979 44.1548Z" fill="#E0E0E0"/>
<path d="M381.332 94.803L372.351 89.1223L379.391 86.8125L381.332 94.803Z" fill="#E0E0E0"/>
<path d="M391.804 82.2129C391.804 84.2507 394.123 87.0406 396.778 87.5628C397.147 87.6356 397.05 88.5077 396.626 88.8078C395.234 89.7909 393.36 89.9901 391.432 89.7565C388.335 89.3811 386.775 87.8808 385.858 85.9885L391.804 82.2129Z" fill="#27DEBF"/>
<path d="M371.265 33.3115L355.766 43.1445C345.285 49.7968 336.765 67.7186 336.765 83.0828C336.765 83.7161 336.776 84.338 336.809 84.9227C336.809 85.2637 336.842 85.5561 336.853 85.8855C336.875 86.1894 336.909 86.4818 336.941 86.7742C336.975 87.1151 337.007 87.4688 337.051 87.7982C337.306 89.7479 337.739 91.5138 338.281 93.0984C338.525 93.7444 338.78 94.3407 339.057 94.914C339.189 95.2179 339.333 95.5103 339.5 95.767C339.556 95.864 339.6 95.9496 339.656 96.0351C339.922 96.5229 340.21 96.9851 340.542 97.3873C340.73 97.6069 340.907 97.8623 341.107 98.0691L341.705 98.7152C341.915 98.8863 342.115 99.1046 342.325 99.2885C342.547 99.4596 342.757 99.6422 342.989 99.7877C343.223 99.9218 343.455 100.067 343.687 100.214C344.562 100.75 345.514 101.091 346.523 101.274C346.612 101.261 346.69 101.285 346.756 101.323C347.022 101.347 347.277 101.384 347.531 101.384C347.819 101.421 348.097 101.408 348.373 101.408C349.093 101.408 349.836 101.323 350.588 101.14C351.02 101.03 351.452 100.933 351.884 100.775V100.799C353.136 100.397 354.433 99.7635 355.762 98.922L355.767 98.9195C355.767 100.957 355.245 105.55 352.591 109.442C352.222 109.983 352.79 110.456 353.214 110.217C354.606 109.432 356.22 108.257 358.159 105.828C361.031 102.232 362.864 97.4052 363.51 94.0011L362.399 94.7072L371.26 89.0789C372.08 88.5554 372.922 87.9578 373.731 87.2875C373.665 86.958 373.621 86.6299 373.576 86.3005C373.543 86.0808 373.51 85.7642 373.488 85.436C373.455 85.1922 373.422 84.8998 373.41 84.5831L373.399 84.4248C373.377 84.2052 373.365 83.9983 373.365 83.7787C373.343 83.3037 373.331 82.7917 373.331 82.2797C373.331 69.3529 380.322 54.7931 389.264 49.1278L390.249 48.4945C390.032 33.5427 381.601 26.7435 371.265 33.3115Z" fill="#F0F0F0"/>
<path d="M402.551 44.9072L390.924 52.2899C383.058 57.2849 376.654 70.7389 376.654 82.2739C376.654 82.7464 376.667 83.2124 376.691 83.6516C376.691 83.907 376.716 84.1266 376.729 84.3743C376.741 84.6029 376.766 84.8238 376.791 85.0447C376.816 85.3013 376.841 85.5592 376.878 85.8082C377.027 87.0238 377.275 88.1397 377.598 89.1357C377.648 89.34 377.71 89.52 377.785 89.709C377.871 89.9631 377.958 90.2172 378.071 90.4559C378.169 90.7024 378.269 90.9296 378.381 91.1505C378.48 91.3791 378.591 91.5987 378.715 91.7928C378.752 91.8783 378.789 91.946 378.827 91.9945C379.037 92.352 379.261 92.6827 379.497 93.0058C379.634 93.1922 379.769 93.3607 379.918 93.5203L380.365 94.0017C380.514 94.1613 380.675 94.2954 380.836 94.4295C380.998 94.5635 381.159 94.6976 381.332 94.8061C381.506 94.9147 381.667 95.0296 381.854 95.1304C382.028 95.239 382.201 95.3283 382.388 95.4101C382.573 95.4918 382.759 95.5735 382.946 95.6374C382.958 95.6476 382.958 95.6476 382.958 95.6476C383.293 95.7625 383.64 95.8506 383.988 95.9221C384.049 95.9374 384.099 95.9425 384.162 95.9578C384.348 95.9846 384.547 96.0051 384.745 96.0064C384.943 96.0434 385.154 96.037 385.377 96.023C385.849 96.0332 386.346 95.9719 386.867 95.8595C387.239 95.8046 387.624 95.6884 388.008 95.571C388.951 95.2632 389.932 94.7857 390.924 94.1562L394.838 91.6715C395.755 93.5638 397.314 95.0641 400.412 95.4394C402.341 95.6731 404.214 95.4739 405.606 94.4907C406.029 94.1907 406.127 93.3186 405.758 93.2458C403.104 92.7236 400.785 89.9337 400.785 87.8959L402.551 86.7748C403.556 86.1364 404.523 85.3767 405.466 84.4867V84.4688C405.789 84.1726 406.112 83.8406 406.433 83.5086C407.005 82.9277 407.563 82.2816 408.096 81.5972C408.307 81.3354 408.518 81.075 408.729 80.7775C408.927 80.5247 409.113 80.2603 409.312 79.9884C409.362 79.9028 409.423 79.8083 409.485 79.733C410.242 78.6336 410.962 77.4666 411.62 76.2306C411.793 75.9025 411.967 75.5743 412.141 75.2449C412.315 74.9168 412.477 74.5771 412.638 74.2388C412.8 73.8991 412.948 73.5505 413.11 73.2109L413.555 72.1626C413.705 71.814 413.841 71.454 413.977 71.1118C414.225 70.4989 414.448 69.8668 414.647 69.2489C414.684 69.1339 414.721 69.019 414.758 68.9054C414.883 68.5543 414.994 68.1916 415.094 67.838C415.305 67.1395 415.491 66.4577 415.678 65.7388C416.088 64.0228 416.409 62.2901 416.596 60.5893C416.633 60.2931 416.658 60.0045 416.683 59.7147C416.708 59.4619 416.733 59.2103 416.745 58.9652C416.758 58.7022 416.782 58.4506 416.782 58.1952C416.806 57.7241 416.819 57.244 416.819 56.7703C416.822 45.2353 410.418 39.9134 402.551 44.9072Z" fill="#F0F0F0"/>
<path d="M309.279 213.803C304.883 212.29 300.374 216.201 297.43 224.097C294.485 231.993 288.289 252.052 287.377 257.405C286.467 262.757 307.219 274.403 306.636 274.089C306.051 273.776 309.279 213.803 309.279 213.803Z" fill="#37474F"/>
<path d="M299.622 399.528C299.002 399.786 298.845 401.085 298.752 403.665C298.682 405.619 298.301 409.027 300.381 409.707C302.461 410.388 305.507 410.04 306.842 408.199C308.505 405.902 309.629 403.88 312.004 401.077C314.063 398.646 316.292 396.376 317.123 392.965C317.874 389.883 317.248 388.547 315.337 387.651C312.708 386.419 308.579 390.445 306.518 391.078C304.742 391.624 300.242 399.27 299.622 399.528Z" fill="#263238"/>
<path d="M299.622 397.14V400.309C299.622 400.309 302.617 402.84 306.903 400.525C307.029 400.22 307.659 395.992 307.659 395.992L299.622 397.14Z" fill="#FFA8A7"/>
<path d="M322.956 417.79C322.956 417.79 322.129 420.545 321.683 422.955C321.329 424.87 320.822 428.072 321.431 429.513C322.042 430.953 324.421 431.884 328.11 431.853C330.499 431.833 334.223 433.618 336.771 435.182C339.405 436.798 344.88 437.441 347.666 437.082C350.948 436.658 354.348 434.565 354.878 433.07C355.409 431.575 354.704 430.023 346.969 426.399C346.898 426.365 336.216 422.545 332.474 418.003L322.956 417.79Z" fill="#263238"/>
<path d="M322.956 414.363C322.956 414.363 322.966 416.715 322.956 418.058C322.945 419.402 324.389 421.405 328.124 421.258C330.748 421.155 332.579 420.38 332.476 418.004V414.578L322.956 414.363Z" fill="#FFA8A7"/>
<path d="M297.748 355.091C299.067 344.739 301.15 338.589 301.15 338.589C301.15 338.589 300.121 324.351 299.628 310.853C299.095 296.271 299.657 277.943 299.404 274.306C299.404 274.306 342.188 264.785 342.951 281.641C343.714 298.497 341.261 341.402 340.756 348.807C340.251 356.211 339.087 362.76 337.696 374.761C336.323 386.605 332.474 414.577 332.474 414.577C327.586 417.483 322.955 414.362 322.955 414.362C322.955 414.362 319.944 380.66 320.26 372.115C320.645 361.682 323.206 353.467 323.206 353.467C323.206 353.467 322.394 339.569 321.678 327.48C320.961 315.39 320.203 309.583 320.037 304.325L319.116 303.824C319.116 303.824 318.178 324.679 317.672 332.084C317.166 339.488 316.095 346.589 314.147 360.342C312.458 372.272 307.424 397.518 307.424 397.518C302.536 400.424 299.621 397.138 299.621 397.138C299.621 397.138 296.429 365.444 297.748 355.091Z" fill="#455A64"/>
<path d="M320.038 304.328C320.038 304.328 309.659 298.704 304.465 293.631C304.465 293.631 309.288 301.104 315.619 304.418C315.619 304.418 317.872 330.325 317.86 329.811L319.16 304.289L320.038 304.328Z" fill="#455A64"/>
<path d="M329.276 208.465L326.745 223.789L314.157 222.777L316.801 205.407L329.276 208.465Z" fill="#FFA8A7"/>
<path d="M300.865 221.657C302.111 217.49 306.918 212.956 311.728 213.938C320.565 215.744 327.574 217.673 332.791 219.722C337.194 221.453 341.207 225.637 341.571 241.567L343.804 289.019L338.478 290.279L336.621 279.531L335.753 290.279C330.18 291.823 320.515 290.546 314.159 289.019C300.926 285.84 299.329 279.803 299.329 279.803C299.329 279.803 299.159 253.099 299.555 241.567C299.891 231.768 300.01 224.518 300.865 221.657Z" fill="#A5CA60"/>
<path d="M338.594 190.306C338.594 190.306 341.641 195.269 341.254 195.801C340.866 196.334 338.962 196.916 338.962 196.916L338.594 190.306Z" fill="#FFA8A7"/>
<path d="M329.278 174.578C332.212 176.206 337.285 179.22 338.686 191.036C340.122 203.164 338.231 207.073 336.739 208.682C335.731 209.766 330.257 209.831 327.514 208.926C324.082 207.793 316.339 204.557 312.808 198.326C308.656 190.995 307.727 181.176 312.413 177.274C319.008 171.782 326.794 173.201 329.278 174.578Z" fill="#FFA8A7"/>
<path d="M339.296 178.641C338.33 181.552 336.707 188.672 329.95 191.648C329.95 191.648 328.986 187.109 325.516 187.591C322.024 188.076 321.454 192.944 323.587 195.964C325.721 198.982 327.787 197.897 327.787 197.897C327.787 197.897 328.252 204.406 324.301 207.357C324.301 207.357 319.531 210.679 314.477 208.127C312.202 206.978 308.988 200.989 307.1 196.075C303.108 185.677 302.537 177.34 308.57 174.712C309.313 169.985 311.246 168.209 315.136 167.327C323.512 165.428 329.841 171.479 336.868 170.411C340.535 169.852 340.399 175.316 339.296 178.641Z" fill="black"/>
<path d="M308.434 176.296L304.486 173.603C305.161 172.404 306.594 172.035 307.684 172.778C308.775 173.521 309.11 175.097 308.434 176.296Z" fill="#FBE9F3"/>
<path d="M328.355 214.041L329.788 218.625C329.788 218.625 328.738 220.672 324.239 220.772C319.74 220.871 314.966 219.308 313.471 217.203C312.277 215.52 312.63 214.124 312.63 214.124C312.63 214.124 314.414 209.783 316.107 209.976L315.821 211.854C315.821 211.854 316.206 213.403 320.286 214.597C326.622 216.452 328.355 214.041 328.355 214.041Z" fill="#455A64"/>
<path d="M364.455 244.513C366.271 242.231 366.964 237.156 369.385 233.689C371.749 230.303 372.686 227.671 373.643 229.191C374.905 231.197 372.054 235.212 372.687 235.613C373.319 236.014 375.692 241.307 375.93 244.249C376.169 247.19 369.089 254.579 369.089 254.579L364.455 244.513Z" fill="#FFA8A7"/>
<path d="M328.355 214.04C328.355 214.04 329.16 213.933 329.788 214.949C330.416 215.966 331.698 219.307 331.698 219.307L329.788 218.623L328.355 214.04Z" fill="#455A64"/>
<path d="M372.491 235.165C372.491 235.165 381.05 234.348 382.298 235.139C383.545 235.931 383.169 240.028 382.298 242.527C381.428 245.026 377.061 246.653 373.01 249.67C372.999 249.241 372.491 235.165 372.491 235.165Z" fill="#FFA8A7"/>
<path d="M331.696 219.308C335.375 220.716 338.594 222.344 342.026 229.439C346.437 238.556 354.835 253.143 354.835 253.143L364.455 243.81C364.455 243.81 365.91 242.259 368.615 247.175C371.32 252.092 369.598 256.245 369.598 256.245C369.598 256.245 358.495 270.583 356.36 272.763C354.225 274.942 350.718 273.248 348.431 269.818C346.144 266.39 331.696 246.522 331.696 246.522C331.696 246.522 323.806 235.112 331.696 219.308Z" fill="#37474F"/>
<path d="M403.561 195.527H430.977C433.132 195.527 434.878 193.607 434.878 191.237V143.334C434.878 135.485 429.092 129.121 421.954 129.121H412.584C405.447 129.121 399.66 135.484 399.66 143.334V191.237C399.66 193.605 401.408 195.527 403.561 195.527Z" fill="#37474F"/>
<path d="M398.944 179.17C396.279 187.799 391.823 212.586 391.823 212.586C391.823 212.586 382.483 225.083 379.506 228.102C377.848 229.784 374.111 232.809 374.111 232.809L380.903 238.309C387.178 233.193 394.659 225.334 398.132 221.255C399.315 219.864 400.148 218.165 400.54 216.309L405.183 194.399C405.183 194.399 405.154 176.776 407.64 174.462C410.127 172.15 410.79 171.663 410.79 171.663C407.651 171.417 401.036 172.395 398.944 179.17Z" fill="#F28F8F"/>
<path d="M412.251 171.415C407.919 170.867 402.365 170.966 399.661 176.296C396.957 181.627 392.452 209.091 392.452 209.091C392.452 209.091 396.71 212.732 401.312 212.671L412.251 171.415Z" fill="#9C99D6"/>
<path d="M400.205 197.061C400.205 197.061 401.497 203.338 401.107 209.555C400.761 215.064 397.305 224.694 397.305 224.694C397.305 224.694 400.005 227.968 407.641 226.654C413.852 225.585 411.657 204.974 408.086 200.981C404.515 196.988 400.205 197.061 400.205 197.061Z" fill="#27DEBF"/>
<path opacity="0.3" d="M400.205 197.061C400.205 197.061 401.497 203.338 401.107 209.555C400.761 215.064 397.305 224.694 397.305 224.694C397.305 224.694 400.005 227.968 407.641 226.654C413.852 225.585 411.657 204.974 408.086 200.981C404.515 196.988 400.205 197.061 400.205 197.061Z" fill="black"/>
<path d="M414.559 342.882C414.599 343.706 414.52 344.316 413.941 345.563C413.241 347.069 411.369 349.648 409.918 351.363C407.766 353.905 404.549 356.909 402.246 359.121C400.964 360.352 400.915 362.211 402.748 362.865C404.582 363.519 408.638 363.798 412.837 361.316C415.124 359.964 418.388 353.714 420.294 352.768C422.484 351.681 423.715 351.136 424.453 350.026C425.56 348.368 425.845 347.123 424.899 345.187C423.867 343.075 422.317 339.816 421.678 340.179L421.877 340.852C421.374 342.575 417.103 344.582 414.912 344.103L414.559 342.882Z" fill="#37474F"/>
<path d="M436.942 270.835C437.937 259.31 440.767 240.86 437.861 227.175L399.32 229.418C398.249 242.92 397.024 285.051 398.339 289.874C399.895 295.566 413.792 334.982 414.555 342.914C414.504 344.33 414.504 344.33 413.944 345.564C413.242 347.064 411.368 349.643 409.915 351.368C408.87 352.601 407.568 353.947 406.242 355.252C406.114 355.477 406.051 355.686 406.051 355.869C406.051 357.187 408.971 357.538 410.679 356.99C412.77 356.317 414.542 354.578 415.957 352.531C416.939 351.087 419.157 348.311 420.559 346.236C421.159 345.367 421.617 344.624 421.783 344.148C422.28 342.788 422.14 341.82 421.962 341.161L421.873 340.852C421.117 338.265 420.651 335.59 420.483 332.879C419.943 324.189 418.593 304.098 417.334 298.748C415.714 291.863 413.394 287.559 413.394 287.559L417.793 249.914C417.793 249.914 418.264 283.1 419.628 291.568C420.713 298.355 421.133 306.837 422.395 318.46C423.593 329.593 424.906 349.208 424.906 349.208C424.932 349.236 424.97 349.25 425.009 349.264V358.534H432.34V353.098C432.34 350.64 432.522 348.187 432.887 345.763C434 338.366 436.465 321.416 436.968 315.688C437.758 306.589 434.774 295.162 434.774 295.162C434.774 295.162 435.974 282.052 436.942 270.835Z" fill="#FFA8A7"/>
<path d="M423.351 171.814C423.351 171.814 433.721 173.125 434.962 173.738C425.234 181.263 433.109 198.013 433.109 198.013L429.38 210.861C433.527 216.698 437.109 220.173 439.32 226.576C441.789 233.726 443.999 244.356 443.392 266.112C434.089 273.801 405.843 272.945 394.826 266.112C394.826 266.112 396.688 246.875 398.884 231.921C400.333 222.057 403.767 211.304 403.176 207.697C398.816 192.94 398.548 190.279 399.321 186.988C401.498 177.723 410.086 171.456 412.207 171.456L423.351 171.814Z" fill="#9C99D6"/>
<path opacity="0.6" d="M423.351 171.814C423.351 171.814 433.721 173.125 434.962 173.738C425.234 181.263 433.109 198.013 433.109 198.013L429.38 210.861C433.527 216.698 437.109 220.173 439.32 226.576C441.789 233.726 443.999 244.356 443.392 266.112C434.089 273.801 405.843 272.945 394.826 266.112C394.826 266.112 396.688 246.875 398.884 231.921C400.333 222.057 403.767 211.304 403.176 207.697C398.816 192.94 398.548 190.279 399.321 186.988C401.498 177.723 410.086 171.456 412.207 171.456L423.351 171.814Z" fill="white"/>
<path d="M425.005 354.559V353.406C424.796 355.163 422.674 360.581 419.765 363.499C417.452 365.817 414.299 368.497 413.497 371.083C412.662 373.772 417.222 374.837 420.213 374.509C423.713 374.125 426.444 371.812 427.737 370.179C429.64 367.78 429.606 366.142 430.494 364.821C431.381 363.501 433.426 362.026 433.907 360.498C434.171 359.658 433.857 357.819 433.487 356.265C433.147 354.84 432.779 353.272 432.336 353.406C432.335 353.58 432.336 354.285 432.336 354.285C431.804 354.934 430.331 355.577 428.671 355.647C427.598 355.693 424.996 355.458 425.005 354.559Z" fill="#37474F"/>
<path d="M432.336 354.286C431.804 354.934 430.331 355.578 428.672 355.648C427.599 355.693 424.997 355.459 425.006 354.56V353.407C424.797 355.164 422.675 360.581 419.766 363.499C419.212 364.055 418.61 364.631 418.005 365.221C416.775 366.727 417.125 368.042 420.013 368.316C422.905 368.59 425.445 366.672 427.638 363.713C429.829 360.753 432.336 354.286 432.336 354.286Z" fill="#FFA8A7"/>
<path d="M405.444 136.953C403.584 138.162 401.285 143.307 401.512 154.091C401.705 163.232 404.398 165.489 405.751 166.14C407.104 166.792 409.712 166.395 412.249 165.93V171.415C412.249 171.415 408.744 175.893 408.965 178.408C409.185 180.924 414.027 181.517 417.307 179.061C420.587 176.603 423.35 171.813 423.35 171.813L423.294 159.201C423.294 159.201 424.787 160.796 427.317 158.362C429.407 156.352 430.11 152.965 428.482 151.148C426.855 149.33 423.844 149.825 422.691 152.417C422.691 152.417 421.281 148.111 415.439 146.012C410.16 144.114 407.29 141.929 405.444 136.953Z" fill="#FFA8A7"/>
<path d="M410.792 151.794C410.762 152.453 411.206 153.011 411.781 153.042C412.359 153.072 412.85 152.562 412.88 151.904C412.91 151.245 412.467 150.687 411.891 150.657C411.315 150.626 410.822 151.137 410.792 151.794Z" fill="#37474F"/>
<path d="M410.513 159.543L408.086 160.395C408.288 161.158 408.994 161.587 409.665 161.352C410.335 161.116 410.716 160.307 410.513 159.543Z" fill="#F28F8F"/>
<path d="M402.224 148.265L404.338 146.653C403.953 145.989 403.165 145.812 402.581 146.257C401.997 146.702 401.837 147.601 402.224 148.265Z" fill="#37474F"/>
<path d="M413.834 149.116L411.719 147.505C412.104 146.841 412.892 146.664 413.476 147.108C414.06 147.554 414.22 148.453 413.834 149.116Z" fill="#37474F"/>
<path d="M402.71 150.962C402.68 151.621 403.124 152.179 403.699 152.21C404.275 152.24 404.768 151.73 404.798 151.072C404.828 150.413 404.384 149.855 403.809 149.824C403.233 149.795 402.74 150.305 402.71 150.962Z" fill="#37474F"/>
<path d="M407.641 150.305L407.475 157.224L404.164 156.096L407.641 150.305Z" fill="#F28F8F"/>
<path d="M412.251 165.93C414.924 165.544 420.422 163.806 421.28 161.416C421.28 161.416 420.995 162.919 419.352 164.466C417.709 166.015 412.251 167.759 412.251 167.759V165.93Z" fill="#F28F8F"/>
<path d="M431.181 203.845L423.864 214.749L429.38 210.861L431.181 203.845Z" fill="#27DEBF"/>
<path d="M373.471 232.809C371.906 235.037 370.938 239.352 370.112 240.804C369.288 242.255 368.297 243.526 370.112 243.798C371.927 244.07 374.567 240.169 375.556 237.811C376.547 235.452 378.195 234.81 378.195 234.81C377.341 234.495 377.792 230.745 377.19 230.228C377.19 230.228 374.111 231.614 373.471 232.809Z" fill="#F28F8F"/>
<path d="M373.009 249.671C374.645 248.324 374.695 246.686 375.016 244.059C375.338 241.433 381.885 238.617 382.092 240.572C382.297 242.528 382.896 244.16 380.884 246.525C378.871 248.89 376.004 251.427 373.009 249.671Z" fill="#F28F8F"/>
<path d="M423.35 171.812C423.35 171.812 433.058 172.737 434.962 173.737C436.866 174.736 440.033 180.753 437.196 189.508C434.36 198.264 431.791 208.54 432.082 210.609C432.372 212.679 439.136 223.365 439.136 223.365C437.17 224.763 435.084 226.208 432.911 226.653L429.441 218.325L430.255 227.175C430.255 227.175 424.017 228.838 419.558 228.411C419.558 228.411 416.269 194.473 423.35 171.812Z" fill="#9C99D6"/>
<path d="M447.272 213.501C448.039 208.463 447.279 206.82 445.66 201.885L437.477 207.67C437.477 207.67 438.797 211.384 438.689 213.503C438.615 214.948 436.819 229.38 435.132 234.415C434.833 235.306 434.226 236.031 433.463 236.478C431.418 237.678 430.541 239.005 428.957 240.593C427.718 241.837 426.712 242.095 426.838 242.529C427 243.088 427.771 244.032 429.217 243.663C429.945 243.478 430.904 242.933 432.104 242.214C432.104 242.214 431.118 244.802 428.918 247.385C425.936 250.885 425.674 253.152 431.223 253.626C434.7 253.922 437.624 251.772 440.768 243.539C441.673 241.167 442.44 237.464 443.175 234.305C444.845 227.113 446.5 218.565 447.272 213.501Z" fill="#FFA8A7"/>
<path d="M434.962 173.738C438.874 175.67 439.986 179.474 441.434 185.066C442.882 190.659 447.443 207.434 447.443 207.434C447.443 207.434 443.535 212.579 438.103 211.109L431.181 192.5C431.181 192.5 427.93 180.364 434.962 173.738Z" fill="#9C99D6"/>
</svg>
