<svg width="500" height="490" viewBox="0 0 500 490" fill="none" xmlns="http://www.w3.org/2000/svg">
<path d="M500 461.506C500 477.242 389.32 490 252.79 490C116.26 490 5.58057 477.242 5.58057 461.506C5.58057 445.767 116.261 433.01 252.79 433.01C389.32 433.01 500 445.767 500 461.506Z" fill="#D6E3FE"/>
<path d="M135.929 356.7C132.808 357.038 129.783 358.401 126.615 358.382C122.796 358.359 123.222 344.528 122.765 341.023C121.635 332.408 118.48 323.424 111.707 318.679C105.313 314.199 96.7192 315.045 91.1548 320.624C87.4526 324.334 85.2176 329.42 83.0621 334.466C81.3232 332.409 79.4549 330.612 78.4329 329.477C72.2156 322.565 65.5354 316.091 58.3863 310.45C52.8943 306.112 45.4852 300.693 38.4905 301.201C30.6565 301.774 30.1473 311.766 30.977 318.539C31.0471 319.117 31.1491 319.69 31.2358 320.264C29.0494 318.33 26.8274 316.449 24.5603 314.637C17.7804 309.224 8.2396 308.036 2.80331 316.186C2.6407 316.428 2.53387 316.666 2.44841 316.901C2.28342 317.082 2.12556 317.28 1.98787 317.534C-2.65908 326.029 1.43712 335.56 8.12683 340.86C10.4568 342.708 12.8818 344.418 15.3258 346.08C9.7043 347.183 4.08523 349.565 2.43061 355.298C0.307135 362.632 6.94462 368.788 11.0491 373.06C17.467 379.733 25.4339 384.689 33.1468 389.163C37.2276 391.53 41.5125 394.158 45.9494 395.98C42.8217 399.904 39.7819 403.825 37.6525 408.694C34.3326 416.31 36.8703 425.826 42.2721 431.312C48.3245 437.456 56.7341 437.555 64.3188 436.07C67.2256 435.503 79.2804 429.948 80.795 433.087C82.1612 435.921 82.3084 439.778 82.7938 442.894C83.5107 447.475 85.2425 451.767 88.0794 455.152C93.5216 461.633 101.884 462.092 109.216 461.111C117.679 459.97 126.029 456.416 133.716 452.385C137.917 450.183 142.008 447.714 146.121 445.316C148.074 444.18 151.944 440.212 154.279 440.79C155.522 441.328 156.826 441.004 157.832 440.171C158.125 439.935 158.384 439.656 158.607 439.348L158.609 439.346C158.663 439.267 158.719 439.19 158.771 439.108C158.798 439.069 158.825 439.027 158.848 438.984C158.874 438.946 158.897 438.897 158.918 438.857C158.968 438.772 159.015 438.687 159.06 438.599C159.06 438.597 159.061 438.595 159.061 438.595C159.235 438.246 159.372 437.874 159.457 437.481C159.786 436.116 159.583 434.616 158.692 433.485C157.513 431.44 159.056 426.788 159.361 424.613C160.085 419.468 160.383 414.16 160.761 408.973C161.473 399.216 161.237 389.263 159.493 379.65C158.004 371.426 154.652 362.707 147.753 358.714C143.999 356.544 140.062 356.254 135.929 356.7Z" fill="#BC74E1"/>
<path d="M76.6787 340.201C76.7713 339.075 76.0497 338.08 75.0621 337.972C74.0757 337.869 73.1962 338.686 73.1001 339.81L70.7356 367.722C63.6459 362.188 56.5503 356.647 49.457 351.111L52.0089 320.942C52.1027 319.822 51.3787 318.826 50.3923 318.715C49.4024 318.61 48.524 319.428 48.4303 320.553L46.0706 348.468C38.2022 342.324 30.3362 336.185 22.469 330.046C22.4394 330.019 22.4073 329.999 22.3812 329.977C20.4702 328.485 18.431 331.848 20.3432 333.342C20.3729 333.363 20.4014 333.386 20.4334 333.413C28.2994 339.554 36.1666 345.69 44.0338 351.832L21.9337 364.338C21.0471 364.839 20.6838 366.066 21.1266 367.075C21.5693 368.084 22.6495 368.497 23.5361 367.991L47.419 354.474C54.5134 360.011 61.6031 365.55 68.7012 371.088L46.6011 383.59C45.7133 384.097 45.3525 385.322 45.794 386.33C46.2415 387.341 47.3181 387.754 48.2071 387.247L72.0888 373.733C79.7292 379.695 87.3733 385.662 95.0114 391.626L72.9149 404.133C72.0282 404.633 71.665 405.861 72.1113 406.871C72.5541 407.879 73.6294 408.288 74.5185 407.788L98.4037 394.269C106.724 400.768 115.046 407.262 123.369 413.762L101.273 426.268C100.384 426.767 100.022 427.993 100.464 429.002C100.907 430.012 101.987 430.424 102.874 429.923L126.758 416.403C134.182 422.201 141.606 427.997 149.032 433.792C150.943 435.284 152.98 431.915 151.068 430.425C143.641 424.628 136.218 418.832 128.795 413.038L131.347 382.871C131.44 381.75 130.714 380.749 129.726 380.643C128.736 380.54 127.864 381.357 127.768 382.48L125.403 410.392C117.082 403.897 108.76 397.403 100.437 390.904L102.989 360.739C103.082 359.614 102.359 358.614 101.371 358.509C100.382 358.401 99.5052 359.223 99.4067 360.348L97.047 388.258C89.4042 382.296 81.7625 376.329 74.1244 370.365L76.6787 340.201Z" fill="#A364C8"/>
<path d="M195.553 325.681C191.617 324.583 187.42 324.787 183.56 323.236C178.904 321.365 184.602 304.692 185.353 300.195C187.201 289.134 186.713 276.647 180.224 267.587C174.098 259.036 163.293 255.918 154.414 260.04C148.509 262.781 143.875 267.906 139.358 273.019C138.008 269.671 136.397 266.58 135.576 264.701C130.576 253.258 124.847 242.139 118.234 231.799C113.155 223.855 106.141 213.669 97.4136 210.914C87.6401 207.827 83.2768 219.773 81.754 228.443C81.6258 229.18 81.5332 229.927 81.4287 230.67C79.4821 227.256 77.4726 223.885 75.3847 220.585C69.1401 210.703 57.9376 204.651 48.2532 211.971C47.9695 212.185 47.7487 212.425 47.5529 212.673C47.2858 212.811 47.0187 212.978 46.7552 213.222C37.9064 221.342 39.3367 234.951 45.5172 244.652C47.6704 248.034 49.9945 251.287 52.3494 254.5C45.0757 253.13 37.3296 253.32 33.161 259.519C27.8303 267.448 33.6239 278.166 37.034 285.358C42.3682 296.605 50.2366 306.493 57.9744 315.677C62.0635 320.532 66.3116 325.815 71.044 330.174C65.7585 333.458 60.5821 336.771 56.1643 341.688C49.2573 349.377 48.7968 362.217 53.3334 371.519C58.4183 381.942 68.6452 386.121 78.4566 387.968C82.2169 388.68 99.01 387.716 99.6818 392.281C100.288 396.399 99.0219 401.178 98.4498 405.218C97.6118 411.155 98.1139 417.231 100.312 422.728C104.527 433.265 114.559 437.863 123.876 440.199C134.63 442.897 146.15 442.585 157.039 441.382C162.99 440.725 168.907 439.682 174.824 438.743C177.633 438.3 183.84 435.323 186.47 437.154C187.788 438.414 189.504 438.649 191.042 438.118C191.485 437.971 191.904 437.757 192.293 437.488L192.294 437.487C192.394 437.42 192.49 437.345 192.585 437.271C192.632 437.236 192.681 437.2 192.728 437.162C192.773 437.124 192.817 437.081 192.862 437.041C192.953 436.96 193.043 436.879 193.13 436.791C193.13 436.789 193.131 436.789 193.131 436.789C193.473 436.446 193.778 436.057 194.033 435.621C194.943 434.111 195.26 432.184 194.591 430.375C193.921 427.309 197.548 422.375 198.734 419.868C201.54 413.943 203.891 407.61 206.292 401.461C210.815 389.897 214.25 377.638 215.722 365.067C216.981 354.311 216.156 342.052 209.228 333.844C205.46 329.382 200.765 327.131 195.553 325.681Z" fill="#08E1B6"/>
<path d="M129.423 276.939C129.957 275.616 129.448 274.05 128.283 273.44C127.117 272.832 125.738 273.411 125.2 274.733L111.872 307.66C105.288 297.478 98.7035 287.297 92.1182 277.115L106.523 241.531C107.06 240.209 106.548 238.641 105.383 238.032C104.217 237.424 102.838 238.004 102.3 239.327L88.9728 272.253C81.6706 260.96 74.3684 249.668 67.0662 238.378C67.0378 238.335 67.0105 238.292 66.982 238.246C65.2087 235.504 61.465 238.629 63.2383 241.371C63.2656 241.414 63.2941 241.459 63.3226 241.502C70.6236 252.795 77.9269 264.085 85.2279 275.375L53.5788 279.968C52.3064 280.154 51.4067 281.473 51.5693 282.92C51.7331 284.366 52.8951 285.388 54.1675 285.202L88.3722 280.237C94.9563 290.419 101.54 300.6 108.126 310.783L76.4777 315.375C75.2052 315.561 74.3055 316.882 74.4693 318.328C74.6308 319.774 75.7952 320.795 77.0664 320.611L111.271 315.646C118.363 326.614 125.458 337.582 132.55 348.548L100.901 353.141C99.6293 353.327 98.7284 354.648 98.8922 356.095C99.0548 357.541 100.218 358.562 101.489 358.378L135.694 353.413C143.419 365.357 151.143 377.302 158.868 389.249L127.22 393.842C125.947 394.028 125.047 395.346 125.21 396.793C125.372 398.238 126.537 399.261 127.808 399.077L162.012 394.112C168.905 404.769 175.795 415.427 182.688 426.084C184.463 428.827 188.207 425.704 186.432 422.959C179.54 412.304 172.649 401.645 165.76 390.991L180.163 355.406C180.698 354.083 180.187 352.514 179.023 351.906C177.856 351.3 176.479 351.878 175.941 353.203L162.617 386.127C154.892 374.183 147.166 362.235 139.441 350.291L153.846 314.707C154.38 313.382 153.871 311.816 152.707 311.208C151.54 310.599 150.162 311.178 149.624 312.501L136.297 345.427C129.202 334.458 122.11 323.491 115.018 312.521L129.423 276.939Z" fill="#04C89B"/>
<path d="M360.762 365.717C355.707 369.621 353.845 376.828 353.397 383.433C352.873 391.156 353.557 398.974 354.968 406.534C355.714 410.551 356.412 414.675 357.428 418.618C357.855 420.288 359.472 423.755 358.728 425.492C358.127 426.476 358.102 427.674 358.476 428.707C358.579 429.003 358.718 429.281 358.886 429.535V429.536C358.928 429.599 358.972 429.663 359.017 429.723C359.04 429.754 359.061 429.787 359.085 429.815C359.106 429.846 359.134 429.873 359.156 429.903C359.206 429.959 359.255 430.017 359.306 430.071L359.307 430.073C359.51 430.287 359.737 430.477 359.986 430.629C360.847 431.167 361.896 431.276 362.824 430.714C364.6 429.997 367.975 432.669 369.604 433.339C373.035 434.753 376.454 436.226 379.935 437.475C386.306 439.761 393.152 441.607 399.877 441.546C405.703 441.489 412.21 440.187 415.905 434.5C417.831 431.534 418.811 427.975 418.972 424.307C419.08 421.81 418.858 418.774 419.681 416.403C420.591 413.773 430.515 416.766 432.842 416.884C438.909 417.193 445.484 416.168 449.685 410.674C453.434 405.769 454.592 398.034 451.325 392.445C449.235 388.873 446.512 386.146 443.721 383.425C447.034 381.501 450.162 378.958 453.147 376.647C458.795 372.275 464.598 367.5 469.04 361.551C471.881 357.746 476.538 352.178 474.238 346.674C472.441 342.37 467.833 341.14 463.336 340.912C465.102 339.334 466.854 337.723 468.517 336.013C473.29 331.108 475.664 323.184 471.285 317.058C471.156 316.875 471.013 316.736 470.87 316.616C470.78 316.438 470.677 316.264 470.529 316.096C465.561 310.329 458.193 312.332 453.359 317.335C451.746 319.006 450.167 320.73 448.625 322.49C448.644 322.03 448.673 321.569 448.677 321.112C448.736 315.714 447.464 307.949 441.28 308.385C435.759 308.774 430.432 313.85 426.512 317.863C421.406 323.087 416.743 328.906 412.478 335.021C411.778 336.024 410.471 337.641 409.289 339.447C407.163 335.742 404.966 332.012 401.746 329.522C396.902 325.783 390.097 326.089 385.484 330.316C380.596 334.795 378.911 342.184 378.78 349.057C378.728 351.853 380.27 362.632 377.281 363.079C374.8 363.449 372.316 362.723 369.843 362.813C366.567 362.925 363.509 363.595 360.762 365.717Z" fill="#08E1B6"/>
<path d="M414.787 343.215C414.615 342.347 415.096 341.485 415.859 341.287C416.622 341.093 417.382 341.637 417.556 342.504L421.843 364.094C426.913 358.959 431.981 353.825 437.052 348.691L432.419 325.359C432.247 324.489 432.728 323.63 433.49 323.432C434.257 323.236 435.015 323.782 435.188 324.649L439.475 346.237C445.096 340.543 450.72 334.85 456.341 329.154C456.363 329.133 456.386 329.111 456.407 329.091C457.77 327.706 459.661 330.113 458.295 331.496C458.274 331.517 458.254 331.54 458.231 331.561C452.61 337.256 446.986 342.949 441.363 348.643L459.756 355.942C460.496 356.236 460.886 357.155 460.627 357.994C460.37 358.836 459.56 359.278 458.82 358.984L438.94 351.094C433.872 356.229 428.803 361.362 423.732 366.497L442.126 373.798C442.866 374.091 443.254 375.012 442.995 375.85C442.736 376.693 441.929 377.136 441.187 376.84L421.311 368.949C415.848 374.481 410.387 380.01 404.927 385.543L423.319 392.843C424.056 393.138 424.448 394.055 424.189 394.896C423.929 395.738 423.122 396.18 422.381 395.885L402.501 387.995C396.554 394.02 390.605 400.04 384.658 406.065L403.05 413.367C403.79 413.661 404.179 414.579 403.922 415.417C403.663 416.257 402.853 416.702 402.114 416.408L382.235 408.517C376.927 413.89 371.622 419.265 366.315 424.638C364.95 426.021 363.059 423.616 364.427 422.232C369.733 416.86 375.039 411.484 380.345 406.114L375.711 382.781C375.54 381.914 376.021 381.05 376.784 380.854C377.551 380.661 378.306 381.205 378.48 382.072L382.768 403.661C388.715 397.636 394.662 391.613 400.612 385.59L395.98 362.258C395.807 361.391 396.287 360.527 397.051 360.33C397.816 360.134 398.574 360.68 398.748 361.548L403.034 383.137C408.495 377.605 413.958 372.074 419.417 366.542L414.787 343.215Z" fill="#04C89B"/>
<path d="M376.504 179.392C374.247 182.892 374.476 187.575 375.431 191.569C376.544 196.241 378.386 200.682 380.608 204.795C381.788 206.983 382.957 209.244 384.283 211.325C384.843 212.206 386.432 213.865 386.313 215.062C386.143 215.785 386.346 216.497 386.758 217.014C386.873 217.165 387.006 217.296 387.151 217.405L387.152 217.407C387.189 217.434 387.225 217.461 387.265 217.485C387.282 217.498 387.301 217.513 387.32 217.523C387.341 217.536 387.358 217.547 387.378 217.558C387.418 217.579 387.457 217.601 387.497 217.621H387.498C387.657 217.7 387.826 217.758 388 217.787C388.607 217.9 389.244 217.714 389.686 217.163C390.601 216.319 393.079 217.09 394.162 217.098C396.442 217.115 398.725 217.171 401.005 217.079C405.177 216.915 409.546 216.373 413.494 214.739C416.914 213.321 420.504 211.009 421.632 206.785C422.218 204.58 422.141 202.253 421.559 200.056C421.164 198.562 420.473 196.827 420.521 195.235C420.573 193.47 426.966 192.874 428.357 192.39C431.986 191.131 435.668 188.965 437.13 184.733C438.436 180.956 437.691 176.129 434.739 173.613C432.849 172.006 430.745 171.049 428.6 170.109C430.197 168.19 431.569 165.951 432.902 163.879C435.422 159.964 437.96 155.773 439.478 151.216C440.449 148.3 442.167 143.916 439.798 141.224C437.948 139.117 435.009 139.487 432.319 140.421C433.069 139.071 433.803 137.709 434.468 136.307C436.375 132.285 436.315 127.056 432.608 124.491C432.497 124.414 432.389 124.367 432.282 124.328C432.198 124.247 432.104 124.169 431.986 124.103C428 121.886 424.032 124.816 422.107 128.908C421.463 130.279 420.853 131.667 420.269 133.07C420.194 132.794 420.129 132.517 420.046 132.245C419.086 129.054 416.908 124.786 413.347 126.51C410.169 128.051 407.969 132.307 406.398 135.6C404.354 139.887 402.681 144.422 401.296 149.032C401.069 149.79 400.597 151.052 400.233 152.396C398.299 150.72 396.32 149.045 393.965 148.346C390.425 147.293 386.475 149.09 384.538 152.675C382.486 156.472 382.854 161.223 384.043 165.301C384.526 166.958 387.42 172.938 385.744 173.912C384.352 174.72 382.755 174.883 381.315 175.522C379.407 176.369 377.73 177.489 376.504 179.392Z" fill="#BC74E1"/>
<path d="M404.165 153.312C403.904 152.841 404.027 152.219 404.44 151.924C404.854 151.627 405.402 151.767 405.663 152.237L412.164 163.926C414.202 159.7 416.241 155.473 418.28 151.244L411.256 138.61C410.994 138.14 411.119 137.518 411.531 137.222C411.946 136.925 412.494 137.065 412.754 137.535L419.252 149.226C421.513 144.538 423.776 139.851 426.037 135.163C426.045 135.144 426.055 135.127 426.062 135.111C426.611 133.972 428.166 134.938 427.618 136.077C427.608 136.095 427.6 136.112 427.592 136.131C425.329 140.818 423.068 145.506 420.806 150.193L432.979 150.121C433.467 150.119 433.867 150.568 433.87 151.123C433.873 151.678 433.478 152.133 432.989 152.134L419.833 152.21C417.793 156.437 415.755 160.662 413.715 164.891L425.888 164.818C426.378 164.817 426.776 165.267 426.78 165.821C426.781 166.378 426.387 166.831 425.897 166.832L412.742 166.909C410.545 171.461 408.348 176.015 406.152 180.568L418.324 180.499C418.812 180.496 419.212 180.944 419.214 181.502C419.217 182.057 418.823 182.509 418.333 182.513L405.176 182.588C402.785 187.549 400.393 192.506 398.001 197.467L410.172 197.397C410.662 197.393 411.061 197.841 411.063 198.397C411.066 198.953 410.67 199.407 410.183 199.41L397.025 199.485C394.892 203.91 392.758 208.333 390.623 212.758C390.073 213.897 388.518 212.929 389.067 211.79C391.202 207.366 393.336 202.942 395.47 198.519L388.446 185.884C388.186 185.414 388.31 184.79 388.724 184.495C389.139 184.201 389.683 184.34 389.944 184.809L396.445 196.498C398.838 191.54 401.229 186.583 403.622 181.622L396.598 168.988C396.337 168.516 396.46 167.894 396.873 167.599C397.289 167.301 397.835 167.443 398.097 167.913L404.596 179.602C406.794 175.05 408.99 170.496 411.186 165.944L404.165 153.312Z" fill="#A364C8"/>
<path d="M116.708 24.1629H106.216L115.364 0H125.856L116.708 24.1629Z" fill="#6833A3"/>
<path d="M131.924 24.1629H121.433L130.582 0H141.073L131.924 24.1629Z" fill="#6833A3"/>
<path d="M147.141 24.1629H136.65L145.799 0H156.291L147.141 24.1629Z" fill="#6833A3"/>
<path opacity="0.4" d="M162.358 24.1629H151.867L161.015 0H171.507L162.358 24.1629Z" fill="#6833A3"/>
<path opacity="0.4" d="M177.576 24.1629H167.084L176.232 0H186.725L177.576 24.1629Z" fill="#6833A3"/>
<path opacity="0.4" d="M192.793 24.1629H182.302L191.451 0H201.942L192.793 24.1629Z" fill="#6833A3"/>
<path opacity="0.4" d="M208.011 24.1629H197.519L206.668 0H217.159L208.011 24.1629Z" fill="#6833A3"/>
<path d="M460.707 72.1499C460.707 77.6568 456.777 82.1203 451.929 82.1203H408.568C403.718 82.1203 399.79 77.6555 399.79 72.1499V36.1456C399.79 30.6388 403.72 26.1753 408.568 26.1753H451.929C456.777 26.1753 460.707 30.6388 460.707 36.1456V72.1499Z" stroke="#6833A3" stroke-miterlimit="10"/>
<path d="M438.884 51.542H421.61V56.7536H438.884V51.542Z" fill="#6833A3"/>
<path d="M432.542 44.3394H427.954V63.9565H432.542V44.3394Z" fill="#6833A3"/>
<path d="M132.139 88.1058V82.8456H125.452C125.215 81.7496 124.832 80.7183 124.33 79.7774L129.062 74.404L125.787 70.6833L121.056 76.0567C120.227 75.4851 119.32 75.0511 118.354 74.7814V67.1851H113.721V74.7814C112.755 75.0511 111.848 75.4838 111.021 76.0554L106.289 70.6806L103.013 74.4013L107.745 79.7761C107.242 80.717 106.861 81.7469 106.622 82.8429H99.9336V88.1044H106.622C106.86 89.2004 107.241 90.2317 107.744 91.1713L103.013 96.5461L106.289 100.267L111.02 94.892C111.848 95.4636 112.755 95.8976 113.72 96.1673V103.764H118.352V96.1673C119.318 95.8976 120.226 95.4649 121.054 94.8933L125.786 100.267L129.062 96.5474L124.33 91.174C124.834 90.233 125.216 89.2031 125.453 88.1058H132.139ZM116.037 90.4851C113.604 90.4851 111.625 88.2379 111.625 85.4743C111.625 82.7108 113.604 80.4636 116.037 80.4636C118.469 80.4636 120.448 82.7108 120.448 85.4743C120.448 88.2379 118.469 90.4851 116.037 90.4851Z" fill="#6833A3"/>
<path d="M262.103 16.7742V13.6157H258.088C257.945 12.9578 257.716 12.3391 257.415 11.7729L260.256 8.54695L258.289 6.3132L255.449 9.54048C254.952 9.19672 254.407 8.93654 253.828 8.77477V4.21289H251.045V8.77477C250.466 8.93654 249.921 9.19672 249.424 9.53913L246.582 6.31184L244.616 8.5456L247.457 11.7729C247.155 12.3377 246.927 12.9565 246.784 13.6143H242.768V16.7742H246.784C246.927 17.4334 247.156 18.0509 247.457 18.6157L244.616 21.843L246.582 24.0767L249.424 20.8495C249.92 21.1919 250.465 21.4534 251.045 21.6152V26.1757H253.826V21.6152C254.407 21.452 254.951 21.1932 255.449 20.8495L258.289 24.0754L260.256 21.8416L257.415 18.6157C257.717 18.0509 257.945 17.4321 258.089 16.7729L262.103 16.7742ZM252.434 18.2032C250.973 18.2032 249.786 16.8538 249.786 15.1956C249.786 13.5375 250.973 12.1881 252.434 12.1881C253.894 12.1881 255.082 13.5375 255.082 15.1956C255.082 16.8538 253.894 18.2032 252.434 18.2032Z" fill="#BC74E1"/>
<path d="M368.124 53.8288H170.057C168.936 53.8288 167.851 53.9986 166.81 54.2898L166.28 51.7729L161.015 57.7557C160.621 58.1534 160.25 58.5767 159.899 59.0242L159.781 59.1577L159.782 59.1712C157.711 61.8821 156.449 65.4114 156.449 69.283V459.085C156.449 467.621 162.542 474.539 170.058 474.539H368.125C375.641 474.539 381.732 467.621 381.732 459.085V69.2844C381.731 60.7484 375.639 53.8288 368.124 53.8288Z" fill="#7CA1D6"/>
<path d="M386.97 453.134C386.97 461.67 380.878 468.588 373.362 468.588H175.295C167.78 468.588 161.688 461.67 161.688 453.134V63.3337C161.688 54.7977 167.78 47.8794 175.295 47.8794H373.362C380.878 47.8794 386.97 54.799 386.97 63.3337V453.134Z" fill="url(#paint0_linear_12_4669)"/>
<path d="M313.651 74.8237C313.651 76.6584 312.342 78.1454 310.726 78.1454H236.093C234.477 78.1454 233.168 76.6584 233.168 74.8237C233.168 72.9903 234.477 71.5034 236.093 71.5034H310.726C312.342 71.5021 313.651 72.989 313.651 74.8237Z" fill="white"/>
<path d="M335.188 74.8241C335.188 78.0446 332.889 80.6558 330.054 80.6558C327.219 80.6558 324.919 78.0446 324.919 74.8241C324.919 71.6035 327.22 68.9937 330.054 68.9937C332.889 68.9923 335.188 71.6035 335.188 74.8241Z" fill="white"/>
<path d="M239.537 194.693C239.537 202.079 234.265 208.067 227.761 208.067H91.684C85.1807 208.067 79.9082 202.079 79.9082 194.693V135.013C79.9082 127.626 85.1807 121.639 91.684 121.639H227.761C234.265 121.639 239.537 127.627 239.537 135.013V194.693Z" fill="#5B8CDD"/>
<path d="M243.466 190.229C243.466 197.616 238.193 203.603 231.69 203.603H95.6132C89.1099 203.603 83.8374 197.616 83.8374 190.229V130.55C83.8374 123.163 89.1087 117.175 95.6132 117.175H231.69C238.193 117.175 243.466 123.163 243.466 130.55V190.229Z" fill="#A9C7F9"/>
<path d="M138.948 160.119L118.869 152.836V145.828L138.948 138.545V145.238L121.389 151.261V147.403L138.948 153.427V160.119ZM139.543 167.048L152.535 129.963H160.408L147.417 167.048H139.543ZM160.622 160.119V153.427L178.181 147.403V151.261L160.622 145.238V138.545L180.7 145.828V152.836L160.622 160.119Z" fill="white"/>
<path opacity="0.4" d="M372.419 109.347H263.348V117.308H372.419V109.347Z" fill="white"/>
<path opacity="0.4" d="M372.419 124.042H326.378V132.002H372.419V124.042Z" fill="white"/>
<path opacity="0.4" d="M372.418 162.621H353.746V170.58H372.418V162.621Z" fill="white"/>
<path opacity="0.4" d="M372.42 140.11H291.801V148.07H372.42V140.11Z" fill="white"/>
<path opacity="0.4" d="M341.298 162.621H268.197V170.58H341.298V162.621Z" fill="white"/>
<path opacity="0.4" d="M291.992 194.446V250.917H213.586V305.898" stroke="#402083" stroke-width="4" stroke-miterlimit="10"/>
<path opacity="0.4" d="M316.199 390.475V329.4H267.788" stroke="#402083" stroke-width="4" stroke-miterlimit="10"/>
<path d="M268.677 360.549C268.677 367.936 263.404 373.923 256.9 373.923H139.159C132.656 373.923 127.383 367.936 127.383 360.549V300.87C127.383 293.484 132.655 287.496 139.159 287.496H256.9C263.403 287.496 268.677 293.482 268.677 300.87V360.549Z" fill="#008487"/>
<path d="M272.605 356.088C272.605 363.475 267.332 369.462 260.827 369.462H143.087C136.584 369.462 131.311 363.475 131.311 356.088V296.409C131.311 289.021 136.584 283.035 143.087 283.035H260.827C267.331 283.035 272.605 289.021 272.605 296.409V356.088Z" fill="#00CBDC"/>
<path d="M173.026 330.932C171.162 330.932 169.431 330.644 167.834 330.067C166.258 329.468 164.883 328.625 163.707 327.538C162.553 326.45 161.654 325.164 161.011 323.677C160.367 322.19 160.046 320.548 160.046 318.751C160.046 316.954 160.367 315.312 161.011 313.825C161.654 312.339 162.553 311.052 163.707 309.965C164.883 308.877 166.258 308.045 167.834 307.469C169.431 306.869 171.162 306.57 173.026 306.57C175.311 306.57 177.33 306.969 179.083 307.768C180.858 308.567 182.323 309.721 183.476 311.229L178.517 315.656C177.829 314.791 177.064 314.125 176.221 313.659C175.4 313.171 174.468 312.927 173.425 312.927C172.604 312.927 171.861 313.06 171.195 313.326C170.53 313.592 169.953 313.981 169.465 314.491C168.999 315.001 168.633 315.623 168.366 316.355C168.1 317.065 167.967 317.864 167.967 318.751C167.967 319.639 168.1 320.449 168.366 321.181C168.633 321.891 168.999 322.501 169.465 323.011C169.953 323.522 170.53 323.91 171.195 324.176C171.861 324.442 172.604 324.576 173.425 324.576C174.468 324.576 175.4 324.343 176.221 323.877C177.064 323.388 177.829 322.712 178.517 321.846L183.476 326.273C182.323 327.76 180.858 328.913 179.083 329.734C177.33 330.533 175.311 330.932 173.026 330.932ZM190.844 326.905V310.597H196.835V326.905H190.844ZM185.353 321.58V315.922H202.326V321.58H185.353ZM211.808 326.905V310.597H217.799V326.905H211.808ZM206.316 321.58V315.922H223.29V321.58H206.316Z" fill="white"/>
<path d="M344.621 300.26H341.95V305.398H344.621V300.26Z" fill="white"/>
<path d="M344.621 291.046H341.95V296.183H344.621V291.046Z" fill="white"/>
<path d="M344.621 281.862H341.95V286.998H344.621V281.862Z" fill="white"/>
<path d="M344.621 327.937H341.95V333.073H344.621V327.937Z" fill="white"/>
<path d="M344.621 318.723H341.95V323.86H344.621V318.723Z" fill="white"/>
<path d="M344.621 309.539H341.95V314.676H344.621V309.539Z" fill="white"/>
<path d="M344.621 355.615H341.95V360.752H344.621V355.615Z" fill="white"/>
<path d="M344.621 346.4H341.95V351.537H344.621V346.4Z" fill="white"/>
<path d="M344.621 337.216H341.95V342.355H344.621V337.216Z" fill="white"/>
<path d="M344.621 383.29H341.95V388.429H344.621V383.29Z" fill="white"/>
<path d="M344.621 374.076H341.95V379.215H344.621V374.076Z" fill="white"/>
<path d="M344.621 364.893H341.95V370.032H344.621V364.893Z" fill="white"/>
<path d="M481.93 284.476C481.93 291.863 476.658 297.85 470.154 297.85H334.077C327.573 297.85 322.301 291.863 322.301 284.476V224.797C322.301 217.41 327.573 211.422 334.077 211.422H470.154C476.658 211.422 481.93 217.41 481.93 224.797V284.476Z" fill="#235098"/>
<path d="M485.858 280.012C485.858 287.398 480.587 293.386 474.083 293.386H338.007C331.504 293.386 326.23 287.399 326.23 280.012V220.333C326.23 212.947 331.502 206.958 338.007 206.958H474.084C480.587 206.958 485.86 212.947 485.86 220.333L485.858 280.012Z" fill="#4883ED"/>
<path d="M358.901 254.122C357.346 254.122 355.943 253.876 354.691 253.383C353.439 252.87 352.396 252.131 351.562 251.164L355.175 246.896C355.706 247.541 356.227 248.034 356.739 248.376C357.251 248.698 357.782 248.859 358.332 248.859C359.774 248.859 360.494 248.034 360.494 246.384V238.817H353.724V233.754H367.123V245.986C367.123 248.717 366.421 250.756 365.018 252.102C363.614 253.449 361.576 254.122 358.901 254.122ZM367.623 253.667L376.328 233.754H382.928L391.633 253.667H384.691L378.262 236.94H380.879L374.45 253.667H367.623ZM372.8 250.196L374.507 245.36H383.667L385.374 250.196H372.8ZM397.824 253.667L389.403 233.754H396.629L403.485 250.566H399.189L406.244 233.754H412.844L404.423 253.667H397.824ZM410.628 253.667L419.333 233.754H425.933L434.638 253.667H427.696L421.267 236.94H423.884L417.455 253.667H410.628ZM415.805 250.196L417.512 245.36H426.672L428.379 250.196H415.805Z" fill="white"/>
<path d="M220.518 236.337H216.536V239.371H220.518V236.337Z" fill="white"/>
<path d="M213.375 236.337H209.393V239.371H213.375V236.337Z" fill="white"/>
<path d="M206.256 236.337H202.274V239.371H206.256V236.337Z" fill="white"/>
<path d="M241.974 236.337H237.992V239.371H241.974V236.337Z" fill="white"/>
<path d="M234.831 236.337H230.849V239.371H234.831V236.337Z" fill="white"/>
<path d="M227.712 236.337H223.729V239.371H227.712V236.337Z" fill="white"/>
<path d="M263.428 236.337H259.447V239.371H263.428V236.337Z" fill="white"/>
<path d="M256.286 236.337H252.304V239.371H256.286V236.337Z" fill="white"/>
<path d="M249.167 236.337H245.185V239.371H249.167V236.337Z" fill="white"/>
<path d="M203.684 245.556H201.013V251.072H203.684V245.556Z" fill="white"/>
<path d="M203.684 255.449H201.013V260.966H203.684V255.449Z" fill="white"/>
<path d="M203.684 265.312H201.013V270.829H203.684V265.312Z" fill="white"/>
<path opacity="0.4" d="M359.377 403.611H196.69V431.608H359.377V403.611Z" fill="white"/>
<path d="M221.538 418.728C220.835 418.728 220.183 418.618 219.581 418.397C218.988 418.169 218.471 417.847 218.03 417.431C217.598 417.016 217.259 416.529 217.014 415.97C216.768 415.402 216.645 414.779 216.645 414.101C216.645 413.423 216.768 412.805 217.014 412.246C217.259 411.678 217.598 411.187 218.03 410.771C218.471 410.356 218.988 410.038 219.581 409.818C220.183 409.589 220.835 409.475 221.538 409.475C222.36 409.475 223.093 409.619 223.737 409.907C224.39 410.195 224.932 410.61 225.364 411.153L223.763 412.602C223.474 412.263 223.157 412.004 222.809 411.826C222.47 411.648 222.089 411.559 221.665 411.559C221.301 411.559 220.966 411.619 220.661 411.737C220.356 411.856 220.094 412.03 219.873 412.258C219.662 412.479 219.492 412.746 219.365 413.059C219.246 413.373 219.187 413.72 219.187 414.101C219.187 414.483 219.246 414.83 219.365 415.144C219.492 415.457 219.662 415.728 219.873 415.957C220.094 416.177 220.356 416.347 220.661 416.465C220.966 416.584 221.301 416.643 221.665 416.643C222.089 416.643 222.47 416.554 222.809 416.376C223.157 416.198 223.474 415.94 223.763 415.601L225.364 417.05C224.932 417.584 224.39 417.999 223.737 418.296C223.093 418.584 222.36 418.728 221.538 418.728ZM230.786 418.728C230.075 418.728 229.418 418.613 228.816 418.385C228.215 418.156 227.69 417.834 227.24 417.419C226.8 416.995 226.457 416.504 226.211 415.944C225.965 415.385 225.842 414.771 225.842 414.101C225.842 413.432 225.965 412.818 226.211 412.258C226.457 411.699 226.8 411.212 227.24 410.797C227.69 410.373 228.215 410.047 228.816 409.818C229.418 409.589 230.075 409.475 230.786 409.475C231.507 409.475 232.163 409.589 232.757 409.818C233.358 410.047 233.879 410.373 234.32 410.797C234.76 411.212 235.104 411.699 235.349 412.258C235.604 412.818 235.731 413.432 235.731 414.101C235.731 414.771 235.604 415.389 235.349 415.957C235.104 416.516 234.76 417.003 234.32 417.419C233.879 417.834 233.358 418.156 232.757 418.385C232.163 418.613 231.507 418.728 230.786 418.728ZM230.786 416.643C231.125 416.643 231.439 416.584 231.727 416.465C232.024 416.347 232.278 416.177 232.49 415.957C232.71 415.728 232.879 415.457 232.998 415.144C233.125 414.83 233.189 414.483 233.189 414.101C233.189 413.712 233.125 413.364 232.998 413.059C232.879 412.746 232.71 412.479 232.49 412.258C232.278 412.03 232.024 411.856 231.727 411.737C231.439 411.619 231.125 411.559 230.786 411.559C230.448 411.559 230.13 411.619 229.833 411.737C229.545 411.856 229.291 412.03 229.071 412.258C228.859 412.479 228.689 412.746 228.562 413.059C228.444 413.364 228.384 413.712 228.384 414.101C228.384 414.483 228.444 414.83 228.562 415.144C228.689 415.457 228.859 415.728 229.071 415.957C229.291 416.177 229.545 416.347 229.833 416.465C230.13 416.584 230.448 416.643 230.786 416.643ZM237.049 418.55V409.653H239.12L244.026 415.576H243.048V409.653H245.513V418.55H243.442L238.536 412.627H239.514V418.55H237.049ZM247.289 418.55V409.653H249.36L254.266 415.576H253.288V409.653H255.753V418.55H253.682L248.776 412.627H249.754V418.55H247.289ZM259.842 413.097H263.972V414.978H259.842V413.097ZM260.02 416.605H264.671V418.55H257.529V409.653H264.506V411.597H260.02V416.605ZM270.504 418.728C269.8 418.728 269.148 418.618 268.546 418.397C267.953 418.169 267.436 417.847 266.996 417.431C266.564 417.016 266.225 416.529 265.979 415.97C265.733 415.402 265.61 414.779 265.61 414.101C265.61 413.423 265.733 412.805 265.979 412.246C266.225 411.678 266.564 411.187 266.996 410.771C267.436 410.356 267.953 410.038 268.546 409.818C269.148 409.589 269.8 409.475 270.504 409.475C271.326 409.475 272.059 409.619 272.703 409.907C273.355 410.195 273.897 410.61 274.329 411.153L272.728 412.602C272.44 412.263 272.122 412.004 271.775 411.826C271.436 411.648 271.054 411.559 270.631 411.559C270.266 411.559 269.932 411.619 269.627 411.737C269.322 411.856 269.059 412.03 268.839 412.258C268.627 412.479 268.457 412.746 268.33 413.059C268.212 413.373 268.152 413.72 268.152 414.101C268.152 414.483 268.212 414.83 268.33 415.144C268.457 415.457 268.627 415.728 268.839 415.957C269.059 416.177 269.322 416.347 269.627 416.465C269.932 416.584 270.266 416.643 270.631 416.643C271.054 416.643 271.436 416.554 271.775 416.376C272.122 416.198 272.44 415.94 272.728 415.601L274.329 417.05C273.897 417.584 273.355 417.999 272.703 418.296C272.059 418.584 271.326 418.728 270.504 418.728ZM277.271 418.55V411.648H274.538V409.653H282.507V411.648H279.787V418.55H277.271ZM285.758 413.097H289.889V414.978H285.758V413.097ZM285.936 416.605H290.588V418.55H283.445V409.653H290.423V411.597H285.936V416.605ZM291.984 418.55V409.653H296.191C297.174 409.653 298.038 409.835 298.784 410.199C299.53 410.564 300.11 411.076 300.525 411.737C300.949 412.398 301.161 413.186 301.161 414.101C301.161 415.008 300.949 415.796 300.525 416.465C300.11 417.126 299.53 417.639 298.784 418.003C298.038 418.368 297.174 418.55 296.191 418.55H291.984ZM294.501 416.542H296.09C296.598 416.542 297.039 416.448 297.411 416.262C297.793 416.067 298.089 415.788 298.301 415.423C298.513 415.05 298.619 414.61 298.619 414.101C298.619 413.584 298.513 413.144 298.301 412.78C298.089 412.415 297.793 412.14 297.411 411.953C297.039 411.758 296.598 411.661 296.09 411.661H294.501V416.542Z" fill="white"/>
<path d="M292.575 18.8188V9.29318H297.161C298.05 9.29318 298.817 9.43833 299.461 9.72864C300.114 10.0189 300.618 10.4363 300.972 10.9806C301.325 11.5158 301.502 12.1509 301.502 12.8857C301.502 13.6206 301.325 14.2556 300.972 14.7909C300.618 15.3261 300.114 15.7434 299.461 16.0428C298.817 16.3331 298.05 16.4783 297.161 16.4783H294.358L295.787 15.1038V18.8188H292.575ZM295.787 15.4576L294.358 14.0016H296.957C297.402 14.0016 297.728 13.9018 297.937 13.7022C298.155 13.5026 298.264 13.2305 298.264 12.8857C298.264 12.541 298.155 12.2688 297.937 12.0692C297.728 11.8696 297.402 11.7699 296.957 11.7699H294.358L295.787 10.3138V15.4576ZM305.005 18.8188V14.6412L305.74 16.5599L301.413 9.29318H304.801L307.727 14.2601H305.754L308.706 9.29318H311.809L307.509 16.5599L308.217 14.6412V18.8188H305.005ZM314.019 18.8188V11.7835H311.23V9.29318H320.021V11.7835H317.231V18.8188H314.019ZM327.033 9.29318H330.244V18.8188H327.033V9.29318ZM324.066 18.8188H320.855V9.29318H324.066V18.8188ZM327.251 15.308H323.849V12.668H327.251V15.308ZM336.786 19.0366C336.015 19.0366 335.298 18.9141 334.636 18.6692C333.983 18.4242 333.416 18.0795 332.935 17.6349C332.454 17.1813 332.078 16.6506 331.805 16.0428C331.542 15.435 331.411 14.7727 331.411 14.056C331.411 13.3302 331.542 12.668 331.805 12.0692C332.078 11.4614 332.454 10.9352 332.935 10.4907C333.416 10.0371 333.983 9.68781 334.636 9.44287C335.298 9.19792 336.015 9.07545 336.786 9.07545C337.566 9.07545 338.283 9.19792 338.936 9.44287C339.589 9.68781 340.156 10.0371 340.637 10.4907C341.118 10.9352 341.49 11.4614 341.753 12.0692C342.025 12.668 342.161 13.3302 342.161 14.056C342.161 14.7727 342.025 15.435 341.753 16.0428C341.49 16.6506 341.118 17.1813 340.637 17.6349C340.156 18.0795 339.589 18.4242 338.936 18.6692C338.283 18.9141 337.566 19.0366 336.786 19.0366ZM336.786 16.4374C337.085 16.4374 337.362 16.383 337.616 16.2741C337.879 16.1653 338.106 16.011 338.296 15.8115C338.496 15.6028 338.65 15.3533 338.759 15.063C338.868 14.7636 338.922 14.428 338.922 14.056C338.922 13.6841 338.868 13.3529 338.759 13.0626C338.65 12.7632 338.496 12.5138 338.296 12.3142C338.106 12.1055 337.879 11.9468 337.616 11.8379C337.362 11.729 337.085 11.6746 336.786 11.6746C336.487 11.6746 336.205 11.729 335.942 11.8379C335.688 11.9468 335.461 12.1055 335.262 12.3142C335.071 12.5138 334.922 12.7632 334.813 13.0626C334.704 13.3529 334.649 13.6841 334.649 14.056C334.649 14.428 334.704 14.7636 334.813 15.063C334.922 15.3533 335.071 15.6028 335.262 15.8115C335.461 16.011 335.688 16.1653 335.942 16.2741C336.205 16.383 336.487 16.4374 336.786 16.4374ZM343.327 18.8188V9.29318H345.967L350.811 15.0902H349.586V9.29318H352.716V18.8188H350.076L345.232 13.0218H346.457V18.8188H343.327Z" fill="#6833A3"/>
<path d="M474.855 167.044C474.855 170.719 472.233 173.698 468.997 173.698C465.761 173.698 463.138 170.719 463.138 167.044C463.138 163.369 465.761 160.39 468.997 160.39C472.233 160.39 474.855 163.369 474.855 167.044Z" stroke="#6833A3" stroke-width="3" stroke-miterlimit="10"/>
<path d="M498.701 113.327C498.701 116.012 496.785 118.189 494.42 118.189C492.054 118.189 490.14 116.014 490.14 113.327C490.14 110.64 492.055 108.464 494.42 108.464C496.784 108.464 498.701 110.642 498.701 113.327Z" stroke="#6833A3" stroke-width="2" stroke-miterlimit="10"/>
<path d="M72.4129 56.7556C72.4129 59.4409 70.4971 61.6167 68.1327 61.6167C65.7683 61.6167 63.8525 59.4409 63.8525 56.7556C63.8525 54.0702 65.7683 51.8931 68.1327 51.8931C70.4971 51.8931 72.4129 54.0702 72.4129 56.7556Z" stroke="#6833A3" stroke-width="2" stroke-miterlimit="10"/>
<defs>
<linearGradient id="paint0_linear_12_4669" x1="274.329" y1="468.588" x2="274.329" y2="47.8791" gradientUnits="userSpaceOnUse">
<stop stop-color="#3D1F81"/>
<stop offset="1" stop-color="#6B34A6"/>
</linearGradient>
</defs>
</svg>
