<svg width="500" height="500" viewBox="0 0 500 500" fill="none" xmlns="http://www.w3.org/2000/svg">
<g clip-path="url(#clip0_29_4817)">
<path d="M415.778 489.043H396.586V489.368H415.778V489.043Z" fill="#EBEBEB"/>
<path d="M95.652 491.225H52.459V491.55H95.652V491.225Z" fill="#EBEBEB"/>
<path d="M110.889 491.225H104.556V491.55H110.889V491.225Z" fill="#EBEBEB"/>
<path d="M225.147 496.709H131.471V497.034H225.147V496.709Z" fill="#EBEBEB"/>
<path d="M237.014 422.281H43.915C40.768 422.281 38.207 418.955 38.207 414.868V62.365C38.207 58.2781 40.768 54.9521 43.915 54.9521H237.014C240.16 54.9521 242.721 58.2781 242.721 62.365V414.868C242.721 418.955 240.16 422.281 237.014 422.281ZM43.915 55.2781C40.905 55.2781 38.457 58.4573 38.457 62.3663V414.869C38.457 418.778 40.905 421.957 43.915 421.957H237.014C240.023 421.957 242.471 418.778 242.471 414.869V62.365C242.471 58.4573 240.023 55.2768 237.014 55.2768L43.915 55.2781Z" fill="#EBEBEB"/>
<path d="M453.31 422.281H260.212C257.065 422.281 254.505 418.955 254.505 414.868V62.365C254.505 58.2781 257.066 54.9521 260.212 54.9521H453.31C456.458 54.9521 459.018 58.2781 459.018 62.365V414.868C459.019 418.955 456.458 422.281 453.31 422.281ZM260.212 55.2781C257.203 55.2781 254.755 58.4573 254.755 62.3663V414.869C254.755 418.778 257.203 421.957 260.212 421.957H453.31C456.32 421.957 458.768 418.778 458.768 414.869V62.365C458.768 58.4573 456.32 55.2768 453.31 55.2768L260.212 55.2781Z" fill="#EBEBEB"/>
<path d="M500 480.199H0V480.524H500V480.199Z" fill="#EBEBEB"/>
<path d="M70.8559 147.343V122.051H69.3559V147.343C68.3909 147.754 67.6899 148.92 67.6899 150.311V158.32C67.6899 160.054 68.7719 161.459 70.1059 161.459C71.4409 161.459 72.5229 160.054 72.5229 158.32V150.311C72.5229 148.92 71.8219 147.754 70.8559 147.343Z" fill="#E0E0E0"/>
<path d="M78.1716 122.051H75.1836V406.797H78.1716V122.051Z" fill="#BDD0FB"/>
<path d="M96.1777 407.967H57.1777C57.1777 405.35 58.8107 403.229 60.8257 403.229H92.5287C94.5447 403.229 96.1777 405.35 96.1777 407.967Z" fill="#E0E0E0"/>
<path d="M75.1836 142.188L78.1716 140.912V122.051H75.1836V142.188Z" fill="#E0E0E0"/>
<path d="M94.5778 62.9756H58.7778L47.7778 124.663H105.578L94.5778 62.9756Z" fill="#FDF53F"/>
<path d="M266.658 151.358V140.283C265.607 140.283 265.605 138.162 266.658 138.162C269.908 138.162 273.161 138.134 276.413 138.109V153.48C273.161 153.48 269.909 153.48 266.658 153.48C265.607 153.479 265.606 151.358 266.658 151.358Z" fill="#388EFA"/>
<path d="M274.236 140.283H266.658V151.342H274.236V140.283Z" fill="#F5F5F5"/>
<path d="M272.646 152.419H298.917C300.723 152.419 302.187 149.464 302.187 145.82C302.187 142.176 300.723 139.222 298.917 139.222H272.646V152.419Z" fill="#FAFAFA"/>
<path d="M272.646 138.162C281.247 138.162 289.862 137.961 298.461 138.162C304.352 138.3 304.668 152.965 298.891 153.479C294.863 153.837 290.72 153.479 286.685 153.479C282.005 153.479 277.326 153.479 272.646 153.479C271.595 153.479 271.594 151.358 272.646 151.358C280.798 151.358 288.95 151.358 297.102 151.358C298.989 151.358 300.338 151.331 301.067 148.44C301.698 145.939 301.499 140.835 298.917 140.283C298.639 140.223 298.311 140.283 298.032 140.283C293.587 140.283 289.143 140.283 284.698 140.283C280.68 140.283 276.663 140.283 272.646 140.283C271.595 140.283 271.594 138.162 272.646 138.162Z" fill="#407BFF"/>
<path d="M266.57 136.403V126.56C265.636 126.56 265.635 124.675 266.57 124.675C269.459 124.675 272.349 124.65 275.239 124.627V138.287C272.349 138.287 269.459 138.287 266.57 138.287C265.637 138.287 265.635 136.403 266.57 136.403Z" fill="#388EFA"/>
<path d="M273.304 126.56H266.57V136.388H273.304V126.56Z" fill="#F5F5F5"/>
<path d="M271.892 137.345H295.239C296.844 137.345 298.145 134.72 298.145 131.481C298.145 128.242 296.844 125.618 295.239 125.618H271.892V137.345Z" fill="#FAFAFA"/>
<path d="M271.892 124.675C279.536 124.675 287.192 124.496 294.834 124.675C300.069 124.799 300.351 137.83 295.216 138.287C291.637 138.606 287.955 138.287 284.369 138.287C280.21 138.287 276.052 138.287 271.893 138.287C270.959 138.287 270.958 136.402 271.893 136.402C279.138 136.402 286.382 136.402 293.627 136.402C295.304 136.402 296.503 136.378 297.151 133.809C297.712 131.587 297.535 127.051 295.24 126.56C294.993 126.506 294.702 126.56 294.454 126.56C290.504 126.56 286.554 126.56 282.605 126.56C279.035 126.56 275.464 126.56 271.894 126.56C270.958 126.56 270.956 124.675 271.892 124.675Z" fill="#407BFF"/>
<path d="M266.658 166.411V155.336C265.607 155.336 265.605 153.215 266.658 153.215C269.908 153.215 273.161 153.186 276.413 153.162V168.533C273.161 168.533 269.909 168.533 266.658 168.533C265.607 168.531 265.606 166.411 266.658 166.411Z" fill="#388EFA"/>
<path d="M274.236 155.335H266.658V166.395H274.236V155.335Z" fill="#F5F5F5"/>
<path d="M272.646 167.472H298.917C300.723 167.472 302.187 164.517 302.187 160.873C302.187 157.229 300.723 154.276 298.917 154.276H272.646V167.472Z" fill="#FAFAFA"/>
<path d="M272.646 153.215C281.247 153.215 289.862 153.014 298.461 153.215C304.352 153.353 304.668 168.017 298.891 168.532C294.863 168.89 290.72 168.532 286.685 168.532C282.005 168.532 277.326 168.532 272.646 168.532C271.595 168.532 271.594 166.411 272.646 166.411C280.798 166.411 288.95 166.411 297.102 166.411C298.989 166.411 300.338 166.384 301.067 163.493C301.698 160.991 301.499 155.888 298.917 155.336C298.639 155.276 298.311 155.336 298.032 155.336C293.587 155.336 289.143 155.336 284.698 155.336C280.68 155.336 276.663 155.336 272.646 155.336C271.595 155.336 271.594 153.215 272.646 153.215Z" fill="#407BFF"/>
<path d="M331.201 166.817H333.034H386.1V175.966H333.034H331.201H154.247V166.817H331.201Z" fill="#F5F5F5"/>
<path d="M372.98 198.211V175.966H381.544L372.98 198.211Z" fill="#E0E0E0"/>
<path d="M377.262 198.211L385.826 175.966H381.544L372.98 198.211H377.262Z" fill="#F5F5F5"/>
<path d="M167.094 198.211V175.966H158.529L167.094 198.211Z" fill="#E0E0E0"/>
<path d="M162.811 198.211L154.247 175.966H158.529L167.094 198.211H162.811Z" fill="#F5F5F5"/>
<path d="M317.403 144.536C317.403 157.9 325.745 168.733 336.035 168.733C346.325 168.733 354.667 157.901 354.667 144.536V143.694C354.667 130.33 346.325 119.497 336.035 119.497C325.745 119.497 317.403 130.33 317.403 143.694V144.536Z" fill="#E6E6E6"/>
<path d="M317.403 141.057C317.403 154.42 325.745 165.254 336.035 165.254C346.325 165.254 354.667 154.42 354.667 141.057V140.214C354.667 126.851 346.325 116.017 336.035 116.017C325.745 116.017 317.403 126.851 317.403 140.214V141.057Z" fill="#E0E0E0"/>
<path d="M321.479 140.215C321.479 150.655 327.996 159.118 336.035 159.118C344.074 159.118 350.591 150.655 350.591 140.215C350.591 129.775 344.074 121.311 336.035 121.311C327.996 121.311 321.479 129.775 321.479 140.215Z" fill="#FAFAFA"/>
<path d="M336.035 124.296C328.384 124.296 322.124 131.968 321.537 141.708C321.507 141.214 321.479 140.719 321.479 140.216C321.479 129.776 327.996 121.312 336.035 121.312C344.074 121.312 350.591 129.776 350.591 140.216C350.591 140.719 350.563 141.214 350.533 141.708C349.946 131.966 343.686 124.296 336.035 124.296Z" fill="#E6E6E6"/>
<path d="M326.841 140.205C327.277 140.205 331.977 140.205 334.494 140.205C334.494 136.933 334.494 130.82 334.494 130.267C334.494 129.161 335.184 128.267 336.034 128.267C336.884 128.267 337.574 129.163 337.574 130.267C337.574 131.015 337.574 141.457 337.574 142.205C337.574 143.309 336.884 144.205 336.034 144.205C335.47 144.205 327.404 144.205 326.841 144.205C325.991 144.205 325.301 143.309 325.301 142.205C325.301 141.1 325.991 140.205 326.841 140.205Z" fill="#455A64"/>
<path d="M326.841 142.214C325.991 142.214 325.301 141.318 325.301 140.214C325.301 139.109 325.99 138.214 326.841 138.214C327.417 138.214 335.458 138.214 336.035 138.214C336.885 138.214 337.575 139.109 337.575 140.214C337.575 141.318 336.885 142.214 336.035 142.214C335.47 142.214 327.405 142.214 326.841 142.214Z" fill="#F5F5F5"/>
<path d="M334.494 128.275C334.494 127.17 335.184 126.275 336.034 126.275C336.884 126.275 337.574 127.171 337.574 128.275C337.574 129.023 337.574 139.466 337.574 140.214C337.574 141.318 336.884 142.214 336.034 142.214C335.183 142.214 334.494 141.319 334.494 140.214C334.494 139.483 334.494 129.008 334.494 128.275Z" fill="#455A64"/>
<path d="M218.958 167.131H230.187V106.554H218.958V167.131Z" fill="#E0E0E0"/>
<path d="M224.573 158.684C226.481 158.684 228.028 156.675 228.028 154.197C228.028 151.719 226.481 149.71 224.573 149.71C222.665 149.71 221.118 151.719 221.118 154.197C221.118 156.675 222.665 158.684 224.573 158.684Z" fill="#FAFAFA"/>
<path opacity="0.6" d="M221.118 141.577H228.028V112.411H221.118V141.577Z" fill="#F0F0F0"/>
<path opacity="0.6" d="M221.118 116.524H228.028V112.411H221.118V116.524Z" fill="#FAFAFA"/>
<path d="M210.533 167.13H219.602V118.203H210.533V167.13Z" fill="#E6E6E6"/>
<path d="M212.276 156.684C212.276 158.685 213.525 160.309 215.066 160.309C216.607 160.309 217.857 158.687 217.857 156.684C217.857 154.682 216.608 153.06 215.066 153.06C213.524 153.06 212.276 154.683 212.276 156.684Z" fill="#FAFAFA"/>
<path opacity="0.6" d="M212.277 146.491H217.858V122.934H212.277V146.491Z" fill="#F0F0F0"/>
<path opacity="0.6" d="M212.277 126.256H217.858V122.934H212.277V126.256Z" fill="#FAFAFA"/>
<path d="M237.44 167.131H248.669V106.554H237.44V167.131Z" fill="#EBEBEB"/>
<path d="M243.055 158.684C244.963 158.684 246.51 156.675 246.51 154.197C246.51 151.719 244.963 149.71 243.055 149.71C241.147 149.71 239.6 151.719 239.6 154.197C239.6 156.675 241.147 158.684 243.055 158.684Z" fill="#E0E0E0"/>
<path opacity="0.6" d="M239.6 141.577H246.51V112.411H239.6V141.577Z" fill="#FAFAFA"/>
<path opacity="0.6" d="M239.6 116.524H246.51V112.411H239.6V116.524Z" fill="#FAFAFA"/>
<path d="M200.105 167.131H211.334V106.554H200.105V167.131Z" fill="#E0E0E0"/>
<path d="M205.72 158.684C207.628 158.684 209.175 156.675 209.175 154.197C209.175 151.719 207.628 149.71 205.72 149.71C203.812 149.71 202.265 151.719 202.265 154.197C202.265 156.675 203.812 158.684 205.72 158.684Z" fill="#FAFAFA"/>
<path opacity="0.6" d="M202.264 141.577H209.174V112.411H202.264V141.577Z" fill="#F0F0F0"/>
<path opacity="0.6" d="M202.264 116.524H209.174V112.411H202.264V116.524Z" fill="#FAFAFA"/>
<path d="M184.085 166.213L195.252 167.737L200.126 107.493L188.959 105.969L184.085 166.213Z" fill="#EBEBEB"/>
<path d="M187.272 153.633C187.072 156.097 188.449 158.305 190.347 158.564C192.245 158.823 193.945 157.035 194.144 154.57C194.343 152.105 192.967 149.898 191.069 149.639C189.171 149.381 187.471 151.169 187.272 153.633Z" fill="#E0E0E0"/>
<path opacity="0.6" d="M188.289 141.093L195.161 142.031L197.508 113.027L190.636 112.089L188.289 141.093Z" fill="#F5F5F5"/>
<path opacity="0.6" d="M190.305 116.178L197.177 117.116L197.508 113.025L190.636 112.088L190.305 116.178Z" fill="#FAFAFA"/>
<path d="M229.386 167.13H238.455V118.203H229.386V167.13Z" fill="#E6E6E6"/>
<path d="M231.13 156.684C231.13 158.685 232.379 160.309 233.921 160.309C235.462 160.309 236.712 158.687 236.712 156.684C236.712 154.682 235.463 153.06 233.921 153.06C232.379 153.06 231.13 154.683 231.13 156.684Z" fill="#FAFAFA"/>
<path opacity="0.6" d="M231.129 146.491H236.71V122.934H231.129V146.491Z" fill="#F0F0F0"/>
<path opacity="0.6" d="M231.129 126.256H236.71V122.934H231.129V126.256Z" fill="#FAFAFA"/>
<path d="M245.178 423.714C352.26 423.714 439.067 418.644 439.067 412.391C439.067 406.137 352.26 401.068 245.178 401.068C138.096 401.068 51.2891 406.137 51.2891 412.391C51.2891 418.644 138.096 423.714 245.178 423.714Z" fill="#F5F5F5"/>
<path d="M249.427 274.804H230.687L239.687 246.307H258.427L249.427 274.804Z" fill="#9571F6"/>
<path opacity="0.2" d="M237.06 254.627H255.8L258.427 246.307H239.687L237.06 254.627Z" fill="black"/>
<path d="M264.262 272.992H228.398V277.325H264.262V272.992Z" fill="#9571F6"/>
<path opacity="0.5" d="M264.262 272.992H228.398V277.325H264.262V272.992Z" fill="white"/>
<path opacity="0.6" d="M246.33 272.992H228.398V277.325H246.33V272.992Z" fill="white"/>
<path d="M403.213 240.117L396.682 165.477L294.468 174.489H191.47L87.6782 165.477L85.6782 167.477L92.2082 242.117L195.997 251.129H299L401.213 242.117L403.213 240.117Z" fill="#9571F6"/>
<path opacity="0.2" d="M403.213 240.117L396.682 165.477L294.468 174.489H191.47L87.6782 165.477L94.2082 240.117L197.997 249.129H301L403.213 240.117Z" fill="white"/>
<path opacity="0.8" d="M393.981 168.756L297.714 177.182L303.722 245.822L399.989 237.396L393.981 168.756Z" fill="white"/>
<path opacity="0.5" d="M315.77 184.138C315.185 184.189 314.669 183.753 314.617 183.164C314.565 182.574 314.998 182.055 315.583 182.003L339.793 179.869C340.378 179.817 340.894 180.254 340.946 180.843C340.998 181.433 340.565 181.953 339.98 182.004L315.77 184.138Z" fill="#263238"/>
<g opacity="0.5">
<path opacity="0.5" d="M315.77 184.138C315.185 184.189 314.669 183.753 314.617 183.164C314.565 182.574 314.998 182.055 315.583 182.003L339.793 179.869C340.378 179.817 340.894 180.254 340.946 180.843C340.998 181.433 340.565 181.953 339.98 182.004L315.77 184.138Z" fill="white"/>
</g>
<path opacity="0.5" d="M355.155 180.666C354.57 180.718 354.054 180.281 354.002 179.692C353.95 179.102 354.383 178.582 354.968 178.531L379.178 176.397C379.763 176.345 380.279 176.782 380.331 177.371C380.383 177.961 379.95 178.481 379.365 178.532L355.155 180.666Z" fill="#263238"/>
<g opacity="0.5">
<path opacity="0.5" d="M355.155 180.666C354.57 180.718 354.054 180.281 354.002 179.692C353.95 179.102 354.383 178.582 354.968 178.531L379.178 176.397C379.763 176.345 380.279 176.782 380.331 177.371C380.383 177.961 379.95 178.481 379.365 178.532L355.155 180.666Z" fill="white"/>
</g>
<path d="M341.474 197.16C342.072 203.99 337.062 210.011 330.284 210.609C323.506 211.207 317.528 206.154 316.93 199.324C316.332 192.494 321.343 186.473 328.12 185.875C334.897 185.278 340.876 190.33 341.474 197.16Z" fill="#9571F6"/>
<g opacity="0.9">
<path d="M323.866 204.658L322.467 204.781C322.106 204.813 321.787 204.543 321.755 204.179L321.176 197.563C321.144 197.199 321.411 196.878 321.773 196.846L323.172 196.723C323.533 196.691 323.852 196.961 323.884 197.325L324.463 203.941C324.495 204.305 324.228 204.626 323.866 204.658Z" fill="white"/>
<path d="M325.698 196.233C326.599 195.337 328.857 192.821 328.846 190.109C328.841 188.778 330.676 188.214 331.343 189.364C331.843 190.225 331.961 191.878 331.059 194.962L334.516 194.657C335.44 194.576 336.324 195.054 336.767 195.875C337.026 196.354 337.11 196.91 337.007 197.445L335.997 202.667C335.772 203.829 334.723 204.64 333.55 204.558L326.937 204.092C326.389 204.053 325.95 203.619 325.902 203.067L325.382 197.122C325.352 196.791 325.464 196.466 325.698 196.233Z" fill="white"/>
</g>
<path opacity="0.9" d="M380.859 193.688C380.261 186.858 374.283 181.806 367.505 182.403C360.727 183.001 355.717 189.022 356.315 195.852C356.913 202.682 362.891 207.734 369.669 207.137C376.447 206.539 381.457 200.518 380.859 193.688Z" fill="white"/>
<path d="M362.22 189.386L360.821 189.509C360.46 189.541 360.192 189.862 360.224 190.226L360.803 196.842C360.835 197.206 361.154 197.476 361.515 197.444L362.914 197.321C363.276 197.289 363.543 196.968 363.511 196.604L362.932 189.988C362.9 189.624 362.581 189.355 362.22 189.386Z" fill="#9571F6"/>
<path d="M365.487 197.361C366.53 198.086 369.19 200.168 369.65 202.84C369.876 204.151 371.781 204.385 372.238 203.137C372.58 202.201 372.41 200.553 370.987 197.675L374.444 197.37C375.368 197.288 376.155 196.663 376.448 195.777C376.62 195.26 376.607 194.698 376.412 194.189L374.511 189.224C374.088 188.119 372.914 187.504 371.773 187.791L365.342 189.407C364.809 189.541 364.452 190.046 364.5 190.597L365.02 196.542C365.048 196.872 365.215 197.173 365.487 197.361Z" fill="#9571F6"/>
<path d="M326.003 229.414L318.701 230.057L319.446 238.503L326.747 237.859L326.003 229.414Z" fill="#9571F6"/>
<path opacity="0.9" d="M333.463 230.617L326.161 231.26L326.743 237.864L334.045 237.221L333.463 230.617Z" fill="white"/>
<path opacity="0.9" d="M347.315 220.744L340.014 221.388L341.352 236.572L348.654 235.929L347.315 220.744Z" fill="white"/>
<path opacity="0.9" d="M361.759 217.649L354.458 218.292L355.955 235.284L363.257 234.64L361.759 217.649Z" fill="white"/>
<path opacity="0.9" d="M376.692 220.151L369.39 220.795L370.554 234.003L377.856 233.36L376.692 220.151Z" fill="white"/>
<path d="M340.133 222.752L332.832 223.396L334.05 237.216L341.352 236.572L340.133 222.752Z" fill="#9571F6"/>
<path d="M354.296 216.482L346.994 217.126L348.652 235.933L355.953 235.29L354.296 216.482Z" fill="#9571F6"/>
<path d="M369.219 218.813L361.918 219.457L363.256 234.642L370.558 233.998L369.219 218.813Z" fill="#9571F6"/>
<path d="M383.083 209.12L375.782 209.763L377.861 233.354L385.163 232.71L383.083 209.12Z" fill="#9571F6"/>
<path opacity="0.8" d="M90.9644 168.74L96.9694 237.38L194.714 245.866L188.709 177.227L90.9644 168.74Z" fill="white"/>
<path d="M160.772 200.52L108.315 195.965C106.105 195.773 104.158 193.84 103.966 191.647L103.305 184.088C103.113 181.895 104.749 180.273 106.959 180.465L159.416 185.02C161.626 185.212 163.573 187.145 163.764 189.338L164.425 196.897C164.618 199.089 162.982 200.712 160.772 200.52Z" fill="white"/>
<path d="M116.987 189.027C117.217 191.65 115.26 193.591 112.616 193.361C109.973 193.132 107.644 190.819 107.414 188.195C107.185 185.572 109.141 183.631 111.785 183.861C114.429 184.091 116.758 186.404 116.987 189.027Z" fill="#9571F6"/>
<path d="M123.113 186.892C122.539 186.842 122.034 186.34 121.984 185.77C121.934 185.2 122.359 184.779 122.933 184.829L155.083 187.62C155.657 187.67 156.163 188.172 156.212 188.741C156.262 189.311 155.837 189.732 155.263 189.682L123.113 186.892Z" fill="#263238"/>
<path d="M123.764 194.329C123.19 194.279 122.685 193.777 122.635 193.207C122.585 192.637 123.01 192.216 123.584 192.266L142.415 193.901C142.989 193.951 143.494 194.453 143.544 195.023C143.594 195.593 143.169 196.014 142.595 195.964L123.764 194.329Z" fill="#263238"/>
<path d="M123.439 190.611C122.865 190.561 122.36 190.059 122.31 189.49C122.26 188.92 122.685 188.499 123.259 188.549L150.529 190.917C151.103 190.967 151.609 191.469 151.658 192.038C151.708 192.608 151.283 193.029 150.709 192.979L123.439 190.611Z" fill="#263238"/>
<g opacity="0.5">
<path d="M123.113 186.892C122.539 186.842 122.034 186.34 121.984 185.77C121.934 185.2 122.359 184.779 122.933 184.829L155.083 187.62C155.657 187.67 156.163 188.172 156.212 188.741C156.262 189.311 155.837 189.732 155.263 189.682L123.113 186.892Z" fill="white"/>
<path d="M123.764 194.329C123.19 194.279 122.685 193.777 122.635 193.207C122.585 192.637 123.01 192.216 123.584 192.266L142.415 193.901C142.989 193.951 143.494 194.453 143.544 195.023C143.594 195.593 143.169 196.014 142.595 195.964L123.764 194.329Z" fill="white"/>
<path d="M123.439 190.611C122.865 190.561 122.36 190.059 122.31 189.49C122.26 188.92 122.685 188.499 123.259 188.549L150.529 190.917C151.103 190.967 151.609 191.469 151.658 192.038C151.708 192.608 151.283 193.029 150.709 192.979L123.439 190.611Z" fill="white"/>
</g>
<path d="M163.513 177.85L157.38 177.383C156.537 177.319 155.92 177.946 156.003 178.784L156.505 183.886C156.587 184.722 157.334 185.453 158.176 185.519L159.951 185.66L160.821 186.905C161.116 187.327 161.708 187.369 161.919 186.982L162.543 185.836L164.308 185.976C165.153 186.043 165.773 185.415 165.69 184.575L165.189 179.483C165.106 178.645 164.356 177.914 163.513 177.85Z" fill="#9571F6"/>
<g opacity="0.9">
<path d="M158.794 181.995C158.266 181.478 158.009 180.941 157.968 180.476C157.899 179.683 158.385 179.201 159.193 179.271C159.946 179.336 160.233 179.705 160.718 180.244C161.115 179.781 161.342 179.457 162.095 179.523C162.903 179.593 163.482 180.168 163.551 180.961C163.592 181.426 163.426 181.927 162.981 182.359L161.068 184.246L158.794 181.995Z" fill="white"/>
</g>
<path d="M175.11 219.937L122.653 215.382C120.443 215.19 118.496 213.257 118.304 211.064L117.643 203.505C117.451 201.312 119.087 199.69 121.297 199.882L173.754 204.437C175.964 204.629 177.911 206.562 178.102 208.755L178.763 216.314C178.955 218.506 177.319 220.129 175.11 219.937Z" fill="white"/>
<path d="M131.325 208.444C131.554 211.067 129.598 213.008 126.954 212.778C124.31 212.548 121.982 210.236 121.752 207.612C121.523 204.989 123.479 203.048 126.123 203.278C128.766 203.508 131.095 205.821 131.325 208.444Z" fill="#9571F6"/>
<path d="M137.451 206.309C136.877 206.259 136.371 205.757 136.322 205.187C136.272 204.617 136.697 204.196 137.271 204.246L169.421 207.037C169.995 207.087 170.501 207.589 170.55 208.159C170.6 208.729 170.175 209.15 169.601 209.1L137.451 206.309Z" fill="#263238"/>
<path d="M138.101 213.746C137.527 213.696 137.021 213.194 136.972 212.624C136.922 212.054 137.347 211.633 137.921 211.683L156.751 213.318C157.325 213.368 157.831 213.87 157.88 214.44C157.93 215.009 157.505 215.431 156.931 215.381L138.101 213.746Z" fill="#263238"/>
<path d="M137.777 210.028C137.203 209.978 136.698 209.476 136.648 208.906C136.598 208.336 137.023 207.915 137.597 207.965L164.867 210.333C165.441 210.383 165.946 210.885 165.996 211.454C166.046 212.024 165.621 212.445 165.047 212.395L137.777 210.028Z" fill="#263238"/>
<g opacity="0.5">
<path d="M137.451 206.309C136.877 206.259 136.371 205.757 136.322 205.187C136.272 204.617 136.697 204.196 137.271 204.246L169.421 207.037C169.995 207.087 170.501 207.589 170.55 208.159C170.6 208.729 170.175 209.15 169.601 209.1L137.451 206.309Z" fill="white"/>
<path d="M138.101 213.746C137.527 213.696 137.021 213.194 136.972 212.624C136.922 212.054 137.347 211.633 137.921 211.683L156.751 213.318C157.325 213.368 157.831 213.87 157.88 214.44C157.93 215.009 157.505 215.431 156.931 215.381L138.101 213.746Z" fill="white"/>
<path d="M137.777 210.028C137.203 209.978 136.698 209.476 136.648 208.906C136.598 208.336 137.023 207.915 137.597 207.965L164.867 210.333C165.441 210.383 165.946 210.885 165.996 211.454C166.046 212.024 165.621 212.445 165.047 212.395L137.777 210.028Z" fill="white"/>
</g>
<path d="M177.849 197.267L171.716 196.8C170.873 196.736 170.256 197.363 170.339 198.201L170.841 203.303C170.923 204.139 171.67 204.87 172.512 204.936L174.287 205.077L175.157 206.322C175.452 206.744 176.044 206.786 176.255 206.399L176.879 205.253L178.644 205.393C179.489 205.46 180.109 204.832 180.026 203.992L179.525 198.9C179.442 198.062 178.692 197.331 177.849 197.267Z" fill="#9571F6"/>
<g opacity="0.9">
<path d="M173.132 201.411C172.604 200.895 172.347 200.357 172.306 199.892C172.237 199.099 172.723 198.617 173.531 198.687C174.284 198.752 174.571 199.121 175.056 199.66C175.453 199.197 175.68 198.873 176.433 198.939C177.241 199.009 177.82 199.584 177.889 200.377C177.93 200.841 177.764 201.343 177.319 201.774L175.406 203.661L173.132 201.411Z" fill="white"/>
</g>
<path d="M168.255 238.747L115.798 234.193C113.588 234.001 111.641 232.068 111.449 229.875L110.788 222.316C110.596 220.123 112.232 218.501 114.442 218.693L166.899 223.247C169.109 223.439 171.056 225.372 171.247 227.565L171.908 235.124C172.101 237.317 170.465 238.939 168.255 238.747Z" fill="white"/>
<path d="M124.47 227.254C124.7 229.877 122.743 231.818 120.099 231.589C117.455 231.359 115.126 229.047 114.897 226.423C114.668 223.8 116.624 221.859 119.268 222.089C121.912 222.318 124.241 224.631 124.47 227.254Z" fill="#9571F6"/>
<path d="M130.596 225.119C130.022 225.069 129.516 224.567 129.467 223.998C129.417 223.428 129.842 223.007 130.416 223.057L162.566 225.848C163.14 225.898 163.645 226.4 163.695 226.969C163.745 227.539 163.32 227.96 162.746 227.91L130.596 225.119Z" fill="#263238"/>
<path d="M131.247 232.557C130.673 232.507 130.168 232.005 130.118 231.436C130.068 230.866 130.493 230.445 131.067 230.495L156.951 232.742C157.525 232.792 158.03 233.294 158.08 233.863C158.13 234.433 157.705 234.854 157.131 234.804L131.247 232.557Z" fill="#263238"/>
<path d="M130.923 228.838C130.349 228.788 129.843 228.286 129.794 227.717C129.744 227.147 130.169 226.726 130.743 226.776L153.982 228.794C154.556 228.844 155.061 229.346 155.111 229.915C155.161 230.485 154.736 230.906 154.162 230.856L130.923 228.838Z" fill="#263238"/>
<g opacity="0.5">
<path d="M130.596 225.119C130.022 225.069 129.516 224.567 129.467 223.998C129.417 223.428 129.842 223.007 130.416 223.057L162.566 225.848C163.14 225.898 163.645 226.4 163.695 226.969C163.745 227.539 163.32 227.96 162.746 227.91L130.596 225.119Z" fill="white"/>
<path d="M131.247 232.557C130.673 232.507 130.168 232.005 130.118 231.436C130.068 230.866 130.493 230.445 131.067 230.495L156.951 232.742C157.525 232.792 158.03 233.294 158.08 233.863C158.13 234.433 157.705 234.854 157.131 234.804L131.247 232.557Z" fill="white"/>
<path d="M130.923 228.838C130.349 228.788 129.843 228.286 129.794 227.717C129.744 227.147 130.169 226.726 130.743 226.776L153.982 228.794C154.556 228.844 155.061 229.346 155.111 229.915C155.161 230.485 154.736 230.906 154.162 230.856L130.923 228.838Z" fill="white"/>
</g>
<path d="M171.171 218.093L165.038 217.626C164.195 217.562 163.578 218.189 163.661 219.027L164.163 224.129C164.245 224.965 164.992 225.696 165.834 225.762L167.609 225.903L168.479 227.148C168.774 227.57 169.366 227.612 169.577 227.225L170.201 226.079L171.966 226.219C172.811 226.286 173.431 225.658 173.348 224.818L172.847 219.726C172.764 218.889 172.014 218.157 171.171 218.093Z" fill="#9571F6"/>
<path opacity="0.9" d="M166.492 223.815C166.242 223.793 166.021 223.574 165.999 223.326L165.849 221.609C165.827 221.36 166.013 221.177 166.263 221.198C166.513 221.22 166.734 221.439 166.756 221.687L166.906 223.404C166.928 223.653 166.743 223.836 166.492 223.815Z" fill="white"/>
<path opacity="0.9" d="M167.344 221.205C167.646 220.966 168.403 220.279 168.401 219.398C168.4 218.966 169.015 218.888 169.238 219.3C169.405 219.609 169.444 220.152 169.14 221.102L170.298 221.203C170.607 221.23 170.903 221.436 171.051 221.728C171.137 221.899 171.166 222.084 171.131 222.252L170.79 223.89C170.714 224.255 170.362 224.457 169.97 224.363L167.756 223.83C167.572 223.786 167.426 223.619 167.41 223.437L167.238 221.476C167.227 221.366 167.265 221.267 167.344 221.205Z" fill="white"/>
<path opacity="0.8" d="M194.73 177.489L200.735 246.129H297.738L291.733 177.489H194.73Z" fill="white"/>
<g opacity="0.2">
<path d="M197.709 245.809C197.295 245.809 196.93 245.473 196.893 245.059L195.002 223.447C194.966 223.033 195.272 222.697 195.686 222.697C196.1 222.697 196.465 223.033 196.502 223.447L198.393 245.059C198.43 245.473 198.123 245.809 197.709 245.809Z" fill="black"/>
</g>
<g opacity="0.2">
<path d="M195.468 220.197C195.054 220.197 194.689 219.861 194.652 219.447L191.969 188.78C191.933 188.366 192.239 188.03 192.653 188.03C193.067 188.03 193.432 188.366 193.469 188.78L196.152 219.447C196.189 219.861 195.883 220.197 195.468 220.197Z" fill="black"/>
</g>
<g opacity="0.2">
<path d="M192.45 185.697C192.036 185.697 191.671 185.361 191.634 184.947L191.075 178.559C191.039 178.145 191.345 177.809 191.759 177.809C192.173 177.809 192.538 178.145 192.575 178.559L193.134 184.947C193.171 185.361 192.864 185.697 192.45 185.697Z" fill="black"/>
</g>
<g opacity="0.2">
<path d="M300.708 245.809C300.294 245.809 299.929 245.473 299.892 245.059L297.141 213.613C297.105 213.199 297.411 212.863 297.825 212.863C298.239 212.863 298.604 213.199 298.641 213.613L301.392 245.059C301.428 245.473 301.122 245.809 300.708 245.809Z" fill="black"/>
</g>
<g opacity="0.2">
<path d="M297.636 210.696C297.222 210.696 296.857 210.36 296.82 209.946L294.677 185.446C294.641 185.032 294.947 184.696 295.361 184.696C295.775 184.696 296.14 185.032 296.177 185.446L298.32 209.946C298.356 210.361 298.05 210.696 297.636 210.696Z" fill="black"/>
</g>
<g opacity="0.2">
<path d="M295.104 181.753C294.69 181.753 294.325 181.417 294.288 181.003L294.074 178.559C294.038 178.145 294.344 177.809 294.758 177.809C295.172 177.809 295.537 178.145 295.574 178.559L295.788 181.003C295.824 181.417 295.518 181.753 295.104 181.753Z" fill="black"/>
</g>
<path d="M280.421 207.707C280.371 207.137 280.792 206.676 281.362 206.676C281.932 206.676 282.434 207.138 282.484 207.707L283.67 221.27C283.72 221.84 283.299 222.301 282.729 222.301C282.16 222.301 281.657 221.839 281.608 221.27L280.421 207.707Z" fill="#9571F6"/>
<path d="M202.028 183.262C201.458 183.262 200.956 182.8 200.906 182.231C200.856 181.661 201.278 181.2 201.847 181.2H225.41C225.98 181.2 226.482 181.662 226.531 182.231C226.581 182.801 226.16 183.262 225.59 183.262H202.028Z" fill="#263238"/>
<path d="M202.679 190.699C202.11 190.699 201.607 190.237 201.558 189.668C201.508 189.098 201.929 188.637 202.499 188.637H222.062C222.631 188.637 223.134 189.099 223.183 189.668C223.233 190.238 222.811 190.699 222.242 190.699H202.679Z" fill="#263238"/>
<path d="M202.355 186.979C201.785 186.979 201.283 186.517 201.233 185.948C201.183 185.378 201.605 184.917 202.174 184.917H217.737C218.307 184.917 218.809 185.379 218.859 185.948C218.909 186.518 218.487 186.979 217.918 186.979H202.355Z" fill="#263238"/>
<g opacity="0.5">
<path d="M202.028 183.262C201.458 183.262 200.956 182.8 200.906 182.231C200.856 181.661 201.278 181.2 201.847 181.2H225.41C225.98 181.2 226.482 181.662 226.531 182.231C226.581 182.801 226.16 183.262 225.59 183.262H202.028Z" fill="white"/>
<path d="M202.679 190.699C202.11 190.699 201.607 190.237 201.558 189.668C201.508 189.098 201.929 188.637 202.499 188.637H222.062C222.631 188.637 223.134 189.099 223.183 189.668C223.233 190.238 222.811 190.699 222.242 190.699H202.679Z" fill="white"/>
<path d="M202.355 186.979C201.785 186.979 201.283 186.517 201.233 185.948C201.183 185.378 201.605 184.917 202.174 184.917H217.737C218.307 184.917 218.809 185.379 218.859 185.948C218.909 186.518 218.487 186.979 217.918 186.979H202.355Z" fill="white"/>
</g>
<path d="M286.049 199.257C286.307 202.204 284.127 204.594 281.179 204.594C278.231 204.594 275.633 202.205 275.376 199.257C275.118 196.31 277.298 193.92 280.246 193.92C283.193 193.921 285.791 196.31 286.049 199.257Z" fill="#9571F6"/>
<path d="M278.086 201.803C277.761 201.803 277.474 201.539 277.446 201.214L277.249 198.967C277.221 198.642 277.461 198.378 277.786 198.378C278.111 198.378 278.398 198.642 278.426 198.967L278.623 201.214C278.652 201.54 278.411 201.803 278.086 201.803Z" fill="white"/>
<path d="M279.19 198.265C279.582 197.915 280.565 196.923 280.561 195.762C280.559 195.192 281.357 195.02 281.647 195.537C281.864 195.925 281.915 196.637 281.522 197.923H283.025C283.427 197.923 283.811 198.161 284.003 198.53C284.115 198.745 284.152 198.986 284.107 199.212L283.666 201.41C283.568 201.899 283.111 202.207 282.601 202.127L279.725 201.678C279.487 201.641 279.296 201.438 279.275 201.2L279.051 198.634C279.039 198.491 279.088 198.356 279.19 198.265Z" fill="white"/>
<path d="M288.714 229.72C288.456 226.773 285.858 224.383 282.911 224.383C279.964 224.383 277.783 226.772 278.041 229.72C278.299 232.667 280.897 235.057 283.844 235.057C286.791 235.057 288.972 232.667 288.714 229.72Z" fill="#9571F6"/>
<path d="M280.306 227.174C279.981 227.174 279.74 227.438 279.769 227.763L279.966 230.01C279.995 230.335 280.281 230.599 280.606 230.599C280.931 230.599 281.172 230.335 281.143 230.01L280.946 227.763C280.918 227.438 280.631 227.174 280.306 227.174Z" fill="white"/>
<path d="M282.029 230.712C282.482 231.062 283.638 232.054 283.838 233.215C283.936 233.785 284.764 233.957 284.963 233.44C285.112 233.052 285.038 232.34 284.42 231.054H285.922C286.324 231.054 286.667 230.816 286.795 230.447C286.87 230.232 286.863 229.991 286.779 229.766L285.955 227.568C285.771 227.079 285.261 226.771 284.765 226.851L281.968 227.3C281.736 227.337 281.581 227.54 281.602 227.778L281.826 230.343C281.839 230.486 281.911 230.621 282.029 230.712Z" fill="white"/>
<path d="M267.116 234.464C277.2 223.93 276.054 206.469 264.557 195.464C253.06 184.459 235.566 184.078 225.483 194.612C215.399 205.146 216.545 222.606 228.042 233.611C239.539 244.616 257.033 244.998 267.116 234.464Z" fill="#FF5E5E"/>
<path opacity="0.6" d="M264.091 195.028C258.663 190.036 251.497 186.949 243.88 186.949C228.646 186.949 217.377 199.299 218.71 214.532H246.293L264.091 195.028Z" fill="white"/>
<path opacity="0.2" d="M225.082 195.028L246.293 214.532L243.88 186.949C236.263 186.949 229.637 190.037 225.082 195.028Z" fill="black"/>
<path d="M225.082 195.028L246.293 214.532L243.88 186.949C236.263 186.949 229.637 190.037 225.082 195.028Z" fill="#FF5E5E"/>
<path opacity="0.3" d="M225.082 195.028L246.293 214.532L243.88 186.949C236.263 186.949 229.637 190.037 225.082 195.028Z" fill="black"/>
<path opacity="0.3" d="M248.706 242.116C263.94 242.116 275.209 229.766 273.876 214.533H246.293L228.495 234.037C233.923 239.029 241.089 242.116 248.706 242.116Z" fill="white"/>
<path d="M266.757 237.401C267.081 241.104 264.342 244.106 260.639 244.106C256.936 244.106 253.672 241.104 253.348 237.401C253.024 233.698 255.763 230.696 259.466 230.696C263.168 230.696 266.432 233.698 266.757 237.401Z" fill="#263238"/>
<path d="M257.724 238.516C257.112 237.963 256.814 237.356 256.767 236.814C256.686 235.888 257.249 235.271 258.185 235.271C259.057 235.271 259.391 235.675 259.952 236.26C260.412 235.675 260.674 235.271 261.546 235.271C262.482 235.271 263.153 235.888 263.234 236.814C263.281 237.356 263.09 237.963 262.574 238.516L260.36 240.931L257.724 238.516Z" fill="#FF5E5E"/>
<path d="M228.931 203.803C229.255 207.506 226.516 210.508 222.813 210.508C219.11 210.508 215.846 207.506 215.522 203.803C215.198 200.1 217.937 197.098 221.64 197.098C225.343 197.098 228.607 200.1 228.931 203.803Z" fill="#263238"/>
<path d="M226.449 203.803C226.653 206.135 224.928 208.026 222.595 208.026C220.263 208.026 218.207 206.135 218.002 203.803C217.798 201.471 219.523 199.58 221.856 199.58C224.189 199.58 226.245 201.471 226.449 203.803Z" fill="#FF5E5E"/>
<path opacity="0.5" d="M226.449 203.803C226.653 206.135 224.928 208.026 222.595 208.026C220.263 208.026 218.207 206.135 218.002 203.803C217.798 201.471 219.523 199.58 221.856 199.58C224.189 199.58 226.245 201.471 226.449 203.803Z" fill="white"/>
<path d="M223.773 204.698C222.983 205.49 221.766 205.492 220.836 204.698C220.465 204.382 219.995 204.894 220.368 205.211C221.616 206.276 223.27 206.276 224.332 205.211C224.648 204.894 224.089 204.382 223.773 204.698Z" fill="#FF5E5E"/>
<path d="M221.097 202.428C221.137 202.887 221.01 203.26 220.812 203.26C220.614 203.26 220.421 202.888 220.381 202.428C220.341 201.968 220.469 201.596 220.666 201.596C220.864 201.596 221.057 201.968 221.097 202.428Z" fill="#FF5E5E"/>
<path d="M223.831 202.428C223.871 202.887 223.744 203.26 223.546 203.26C223.348 203.26 223.155 202.888 223.115 202.428C223.075 201.968 223.203 201.596 223.4 201.596C223.598 201.596 223.791 201.968 223.831 202.428Z" fill="#FF5E5E"/>
<path d="M269.871 197.708C270.195 201.411 267.456 204.413 263.753 204.413C260.05 204.413 256.786 201.411 256.462 197.708C256.138 194.005 258.877 191.003 262.58 191.003C266.283 191.003 269.547 194.005 269.871 197.708Z" fill="#263238"/>
<path d="M267.39 197.708C267.594 200.04 265.869 201.931 263.536 201.931C261.204 201.931 259.147 200.04 258.944 197.708C258.74 195.376 260.465 193.485 262.798 193.485C265.129 193.485 267.186 195.376 267.39 197.708Z" fill="#FF5E5E"/>
<path opacity="0.5" d="M267.39 197.708C267.594 200.04 265.869 201.931 263.536 201.931C261.204 201.931 259.147 200.04 258.944 197.708C258.74 195.376 260.465 193.485 262.798 193.485C265.129 193.485 267.186 195.376 267.39 197.708Z" fill="white"/>
<path d="M261.883 199.816C262.673 199.024 263.89 199.022 264.82 199.816C265.191 200.132 265.661 199.62 265.288 199.303C264.04 198.238 262.386 198.238 261.324 199.303C261.008 199.62 261.567 200.132 261.883 199.816Z" fill="#FF5E5E"/>
<path d="M262.037 196.333C262.077 196.793 261.949 197.165 261.752 197.165C261.554 197.165 261.361 196.793 261.321 196.333C261.281 195.874 261.409 195.501 261.606 195.501C261.804 195.501 261.997 195.873 262.037 196.333Z" fill="#FF5E5E"/>
<path d="M264.771 196.333C264.811 196.793 264.683 197.165 264.486 197.165C264.288 197.165 264.095 196.793 264.055 196.333C264.015 195.874 264.142 195.501 264.34 195.501C264.538 195.501 264.731 195.873 264.771 196.333Z" fill="#FF5E5E"/>
<path d="M229.489 224.383C229.813 228.086 227.074 231.088 223.371 231.088C219.668 231.088 216.404 228.086 216.08 224.383C215.756 220.68 218.495 217.678 222.198 217.678C225.9 217.679 229.165 220.68 229.489 224.383Z" fill="#263238"/>
<path d="M227.007 224.383C227.211 226.715 225.486 228.606 223.153 228.606C220.821 228.606 218.764 226.715 218.561 224.383C218.357 222.051 220.082 220.16 222.415 220.16C224.747 220.16 226.803 222.051 227.007 224.383Z" fill="#FF5E5E"/>
<path opacity="0.5" d="M227.007 224.383C227.211 226.715 225.486 228.606 223.153 228.606C220.821 228.606 218.764 226.715 218.561 224.383C218.357 222.051 220.082 220.16 222.415 220.16C224.747 220.16 226.803 222.051 227.007 224.383Z" fill="white"/>
<path d="M220.806 225.722C222.065 226.879 223.941 226.879 224.997 225.722L224.935 225.016H220.744L220.806 225.722Z" fill="#FF5E5E"/>
<path d="M222.226 223.116C221.612 222.63 220.915 222.63 220.387 223.116C220.14 223.343 220.56 223.727 220.806 223.501C221.119 223.213 221.512 223.213 221.875 223.501C222.16 223.726 222.513 223.343 222.226 223.116Z" fill="#FF5E5E"/>
<path d="M224.96 223.116C224.346 222.63 223.649 222.63 223.121 223.116C222.874 223.343 223.294 223.727 223.54 223.501C223.853 223.213 224.246 223.213 224.609 223.501C224.894 223.726 225.247 223.343 224.96 223.116Z" fill="#FF5E5E"/>
<path d="M298.882 272.284H267.869V277.325H329.895V275.253L298.882 272.284Z" fill="#9571F6"/>
<path opacity="0.6" d="M298.882 272.284H267.869V277.325H329.895V275.253L298.882 272.284Z" fill="white"/>
<path opacity="0.6" d="M298.882 277.325H267.869V272.284L298.882 275.253V277.325Z" fill="white"/>
<g opacity="0.5">
<path d="M398.235 217.507L393.968 168.74L388.194 169.249L363.457 240.599L391.073 238.164L398.235 217.507Z" fill="white"/>
</g>
<g opacity="0.5">
<path d="M266.911 246.129L290.708 177.489H263.937L240.139 246.129H266.911Z" fill="white"/>
</g>
<path opacity="0.5" d="M170.07 243.727L189.599 187.398L188.709 177.227L167.007 175.342L144.081 241.47L170.07 243.727Z" fill="white"/>
<path d="M347.775 287.184H151.964C151.012 287.184 150.241 286.413 150.241 285.461V281.21H349.497V285.461C349.497 286.413 348.726 287.184 347.775 287.184Z" fill="#407BFF"/>
<path opacity="0.2" d="M347.775 287.184H151.964C151.012 287.184 150.241 286.413 150.241 285.461V281.21H349.497V285.461C349.497 286.413 348.726 287.184 347.775 287.184Z" fill="black"/>
<path opacity="0.3" d="M240.441 287.184H151.964C151.012 287.184 150.241 286.413 150.241 285.461V281.21H240.441V287.184Z" fill="white"/>
<path d="M353.555 282.325H146.183C145.061 282.325 144.151 281.415 144.151 280.293V279.357C144.151 278.235 145.061 277.325 146.183 277.325H353.555C354.677 277.325 355.587 278.235 355.587 279.357V280.293C355.587 281.415 354.677 282.325 353.555 282.325Z" fill="#407BFF"/>
<path opacity="0.4" d="M240.441 282.325H146.183C145.061 282.325 144.151 281.415 144.151 280.293V279.357C144.151 278.235 145.061 277.325 146.183 277.325H240.441V282.325Z" fill="white"/>
<path d="M229.921 407.409H160.76C156.614 407.409 153.241 404.036 153.241 399.889V294.716C153.241 290.57 156.614 287.198 160.76 287.198H229.921C234.067 287.198 237.441 290.571 237.441 294.716V399.889C237.441 404.035 234.068 407.409 229.921 407.409ZM160.76 291.198C158.82 291.198 157.241 292.776 157.241 294.716V399.889C157.241 401.829 158.82 403.409 160.76 403.409H229.921C231.862 403.409 233.441 401.83 233.441 399.889V294.716C233.441 292.776 231.862 291.198 229.921 291.198H160.76Z" fill="#263238"/>
<g opacity="0.4">
<path opacity="0.2" d="M229.921 407.409H160.76C156.614 407.409 153.241 404.036 153.241 399.889V294.716C153.241 290.57 156.614 287.198 160.76 287.198H229.921C234.067 287.198 237.441 290.571 237.441 294.716V399.889C237.441 404.035 234.068 407.409 229.921 407.409ZM160.76 291.198C158.82 291.198 157.241 292.776 157.241 294.716V399.889C157.241 401.829 158.82 403.409 160.76 403.409H229.921C231.862 403.409 233.441 401.83 233.441 399.889V294.716C233.441 292.776 231.862 291.198 229.921 291.198H160.76Z" fill="white"/>
</g>
<path opacity="0.2" d="M229.921 287.198H160.76C156.871 287.198 153.662 290.167 153.28 293.957H157.329C157.678 292.382 159.082 291.198 160.76 291.198H229.921C231.6 291.198 233.004 292.381 233.353 293.957H237.402C237.02 290.166 233.811 287.198 229.921 287.198Z" fill="black"/>
<path d="M337.577 407.409H268.416C264.27 407.409 260.897 404.036 260.897 399.889V294.716C260.897 290.57 264.27 287.198 268.416 287.198H337.577C341.723 287.198 345.097 290.571 345.097 294.716V399.889C345.097 404.035 341.724 407.409 337.577 407.409ZM268.416 291.198C266.476 291.198 264.897 292.776 264.897 294.716V399.889C264.897 401.829 266.476 403.409 268.416 403.409H337.577C339.518 403.409 341.097 401.83 341.097 399.889V294.716C341.097 292.776 339.518 291.198 337.577 291.198H268.416Z" fill="#263238"/>
<path opacity="0.1" d="M337.577 407.409H268.416C264.27 407.409 260.897 404.036 260.897 399.889V294.716C260.897 290.57 264.27 287.198 268.416 287.198H337.577C341.723 287.198 345.097 290.571 345.097 294.716V399.889C345.097 404.035 341.724 407.409 337.577 407.409ZM268.416 291.198C266.476 291.198 264.897 292.776 264.897 294.716V399.889C264.897 401.829 266.476 403.409 268.416 403.409H337.577C339.518 403.409 341.097 401.83 341.097 399.889V294.716C341.097 292.776 339.518 291.198 337.577 291.198H268.416Z" fill="white"/>
<path opacity="0.2" d="M337.577 287.198H268.416C264.527 287.198 261.318 290.167 260.936 293.957H264.985C265.334 292.382 266.737 291.198 268.416 291.198H337.577C339.256 291.198 340.66 292.381 341.009 293.957H345.058C344.676 290.166 341.467 287.198 337.577 287.198Z" fill="black"/>
<path d="M213.207 311.908H135.86C131.208 311.908 127.437 315.679 127.437 320.331V399.374C127.437 404.026 131.208 407.797 135.86 407.797H213.207C217.859 407.797 221.63 404.026 221.63 399.374V320.331C221.63 315.679 217.859 311.908 213.207 311.908Z" fill="#09005D"/>
<path opacity="0.4" d="M213.207 311.908H135.86C131.208 311.908 127.437 315.679 127.437 320.331V399.374C127.437 404.026 131.208 407.797 135.86 407.797H213.207C217.859 407.797 221.63 404.026 221.63 399.374V320.331C221.63 315.679 217.859 311.908 213.207 311.908Z" fill="white"/>
<path opacity="0.1" d="M127.437 399.307V399.374C127.437 404.026 131.208 407.797 135.86 407.797H213.207C217.859 407.797 221.63 404.026 221.63 399.374V399.307H127.437Z" fill="black"/>
<path d="M213.207 407.797H191.764C187.112 407.797 183.341 404.026 183.341 399.374V320.331C183.341 315.679 187.112 311.908 191.764 311.908H213.207C217.859 311.908 221.63 315.679 221.63 320.331V399.374C221.63 404.026 217.859 407.797 213.207 407.797Z" fill="#09005D"/>
<path opacity="0.3" d="M213.207 403.297C215.37 403.297 217.13 401.537 217.13 399.374V320.331C217.13 318.168 215.37 316.408 213.207 316.408H191.764C189.601 316.408 187.841 318.168 187.841 320.331V399.374C187.841 401.537 189.601 403.297 191.764 403.297H213.207Z" fill="white"/>
<path opacity="0.7" d="M214.236 322.659H190.736V328.909H214.236V322.659Z" fill="white"/>
<path opacity="0.7" d="M214.236 330.159H190.736V336.409H214.236V330.159Z" fill="white"/>
<path d="M202.486 364.748C205.189 364.748 207.381 362.556 207.381 359.853C207.381 357.15 205.189 354.958 202.486 354.958C199.782 354.958 197.591 357.15 197.591 359.853C197.591 362.556 199.782 364.748 202.486 364.748Z" fill="#09005D"/>
<g opacity="0.9">
<path d="M203.624 358.884C204.562 359.901 203.931 361.625 202.486 361.631C201.037 361.637 200.416 359.895 201.348 358.884C201.815 358.378 201.059 357.618 200.59 358.127C199.034 359.814 200.079 362.703 202.485 362.703C204.893 362.703 205.936 359.814 204.38 358.127C203.913 357.619 203.156 358.378 203.624 358.884Z" fill="white"/>
<path d="M201.95 356.998C201.95 357.811 201.95 358.625 201.95 359.438C201.95 360.127 203.021 360.128 203.021 359.438C203.021 358.625 203.021 357.811 203.021 356.998C203.021 356.309 201.95 356.308 201.95 356.998Z" fill="white"/>
</g>
<path d="M193.216 375.825C194.044 375.825 194.716 375.154 194.716 374.325C194.716 373.497 194.044 372.825 193.216 372.825C192.387 372.825 191.716 373.497 191.716 374.325C191.716 375.154 192.387 375.825 193.216 375.825Z" fill="#09005D"/>
<path d="M199.396 375.825C200.224 375.825 200.896 375.154 200.896 374.325C200.896 373.497 200.224 372.825 199.396 372.825C198.568 372.825 197.896 373.497 197.896 374.325C197.896 375.154 198.568 375.825 199.396 375.825Z" fill="#09005D"/>
<path d="M205.576 375.825C206.404 375.825 207.076 375.154 207.076 374.325C207.076 373.497 206.404 372.825 205.576 372.825C204.747 372.825 204.076 373.497 204.076 374.325C204.076 375.154 204.747 375.825 205.576 375.825Z" fill="#09005D"/>
<path d="M211.755 375.825C212.583 375.825 213.255 375.154 213.255 374.325C213.255 373.497 212.583 372.825 211.755 372.825C210.926 372.825 210.255 373.497 210.255 374.325C210.255 375.154 210.926 375.825 211.755 375.825Z" fill="#09005D"/>
<path d="M196.306 381.159C197.134 381.159 197.806 380.488 197.806 379.659C197.806 378.831 197.134 378.159 196.306 378.159C195.477 378.159 194.806 378.831 194.806 379.659C194.806 380.488 195.477 381.159 196.306 381.159Z" fill="#09005D"/>
<path d="M202.486 381.159C203.314 381.159 203.986 380.488 203.986 379.659C203.986 378.831 203.314 378.159 202.486 378.159C201.657 378.159 200.986 378.831 200.986 379.659C200.986 380.488 201.657 381.159 202.486 381.159Z" fill="#09005D"/>
<path d="M208.666 381.159C209.494 381.159 210.166 380.488 210.166 379.659C210.166 378.831 209.494 378.159 208.666 378.159C207.838 378.159 207.166 378.831 207.166 379.659C207.166 380.488 207.838 381.159 208.666 381.159Z" fill="#09005D"/>
<path d="M193.216 387.066C194.044 387.066 194.716 386.395 194.716 385.566C194.716 384.738 194.044 384.066 193.216 384.066C192.387 384.066 191.716 384.738 191.716 385.566C191.716 386.395 192.387 387.066 193.216 387.066Z" fill="#09005D"/>
<path d="M199.396 387.066C200.224 387.066 200.896 386.395 200.896 385.566C200.896 384.738 200.224 384.066 199.396 384.066C198.568 384.066 197.896 384.738 197.896 385.566C197.896 386.395 198.568 387.066 199.396 387.066Z" fill="#09005D"/>
<path d="M205.576 387.066C206.404 387.066 207.076 386.395 207.076 385.566C207.076 384.738 206.404 384.066 205.576 384.066C204.747 384.066 204.076 384.738 204.076 385.566C204.076 386.395 204.747 387.066 205.576 387.066Z" fill="#09005D"/>
<path d="M211.755 387.066C212.583 387.066 213.255 386.395 213.255 385.566C213.255 384.738 212.583 384.066 211.755 384.066C210.926 384.066 210.255 384.738 210.255 385.566C210.255 386.395 210.926 387.066 211.755 387.066Z" fill="#09005D"/>
<path d="M196.306 392.399C197.134 392.399 197.806 391.728 197.806 390.899C197.806 390.071 197.134 389.399 196.306 389.399C195.477 389.399 194.806 390.071 194.806 390.899C194.806 391.728 195.477 392.399 196.306 392.399Z" fill="#09005D"/>
<path d="M202.486 392.399C203.314 392.399 203.986 391.728 203.986 390.899C203.986 390.071 203.314 389.399 202.486 389.399C201.657 389.399 200.986 390.071 200.986 390.899C200.986 391.728 201.657 392.399 202.486 392.399Z" fill="#09005D"/>
<path d="M208.666 392.399C209.494 392.399 210.166 391.728 210.166 390.899C210.166 390.071 209.494 389.399 208.666 389.399C207.838 389.399 207.166 390.071 207.166 390.899C207.166 391.728 207.838 392.399 208.666 392.399Z" fill="#09005D"/>
<path d="M193.216 398.307C194.044 398.307 194.716 397.636 194.716 396.807C194.716 395.979 194.044 395.307 193.216 395.307C192.387 395.307 191.716 395.979 191.716 396.807C191.716 397.636 192.387 398.307 193.216 398.307Z" fill="#09005D"/>
<path d="M199.396 398.307C200.224 398.307 200.896 397.636 200.896 396.807C200.896 395.979 200.224 395.307 199.396 395.307C198.568 395.307 197.896 395.979 197.896 396.807C197.896 397.636 198.568 398.307 199.396 398.307Z" fill="#09005D"/>
<path d="M205.576 398.307C206.404 398.307 207.076 397.636 207.076 396.807C207.076 395.979 206.404 395.307 205.576 395.307C204.747 395.307 204.076 395.979 204.076 396.807C204.076 397.636 204.747 398.307 205.576 398.307Z" fill="#09005D"/>
<path d="M211.755 398.307C212.583 398.307 213.255 397.636 213.255 396.807C213.255 395.979 212.583 395.307 211.755 395.307C210.926 395.307 210.255 395.979 210.255 396.807C210.255 397.636 210.926 398.307 211.755 398.307Z" fill="#09005D"/>
<path d="M330.128 267.632L324.087 264.909L315.619 268.441V272.657C315.619 272.657 328.766 272.218 328.763 272.239C328.763 272.239 343.592 277.176 349.068 276.417C354.545 275.657 371.985 251.352 371.985 251.352L363.223 243.681L346.541 267.455L330.128 267.632Z" fill="#FCC1BB"/>
<path opacity="0.1" d="M330.128 267.632L324.087 264.909L315.619 268.441V272.657C315.619 272.657 328.766 272.218 328.763 272.239C328.763 272.239 329.134 272.363 329.779 272.567L334.022 267.59L330.128 267.632Z" fill="black"/>
<path d="M357.325 250.591C357.325 250.591 363.391 239.805 367.267 236.387C369.62 234.312 372.899 233.666 375.113 233.479C376.505 233.361 377.696 234.465 377.707 235.862C377.738 240.125 376.627 249.4 367.857 258.946L357.325 250.591Z" fill="#263238"/>
<path d="M357.325 248.56C357.325 248.56 364.711 252.035 369.036 258.871L366.677 260.694C366.677 260.694 361.867 254.627 355.85 251.143L357.325 248.56Z" fill="#407BFF"/>
<path d="M342.503 209.62L339.51 214.324C339.51 214.324 341.07 215.475 343.253 214.692L342.503 209.62Z" fill="#EB827E"/>
<path d="M341.993 212.596C340.156 212.596 338.662 210.998 338.662 209.033C338.662 207.069 340.157 205.47 341.993 205.47C343.83 205.47 345.324 207.068 345.324 209.033C345.324 210.998 343.83 212.596 341.993 212.596ZM341.993 206.221C340.57 206.221 339.412 207.483 339.412 209.034C339.412 210.585 340.57 211.847 341.993 211.847C343.416 211.847 344.574 210.585 344.574 209.034C344.574 207.483 343.416 206.221 341.993 206.221Z" fill="#407BFF"/>
<path d="M340.699 208.965C340.693 209.572 341.001 210.07 341.399 210.075C341.797 210.08 342.151 209.567 342.141 208.977C342.131 208.387 341.839 207.873 341.44 207.874C341.041 207.874 340.712 208.359 340.699 208.965Z" fill="#1A2E35"/>
<path d="M364.124 205.173C364.391 213.242 364.679 216.658 361.018 221.159C355.223 225.938 345.526 226.5 342.855 218.666C340.447 211.619 340.415 199.636 347.97 195.654C353.356 192.818 360.021 194.884 362.858 200.27C363.654 201.784 364.087 203.463 364.124 205.173Z" fill="#FCC1BB"/>
<path opacity="0.2" d="M352.79 224.595L352.732 224.2C352.603 223.326 351.739 222.762 350.887 222.996L347.607 223.895C349.184 224.556 350.966 224.769 352.79 224.595Z" fill="#1A2E35"/>
<path d="M342.883 206.215C342.777 206.227 342.671 206.186 342.601 206.105C342.101 205.476 341.328 205.126 340.525 205.166C340.353 205.187 340.195 205.066 340.171 204.894C340.152 204.72 340.275 204.562 340.448 204.538C341.464 204.466 342.45 204.897 343.087 205.692C343.201 205.826 343.185 206.027 343.052 206.141L343.051 206.142C343.002 206.18 342.944 206.206 342.883 206.215Z" fill="#1A2E35"/>
<path d="M352.49 222.556L354.258 234.541L364.267 232.469L361.061 220.202L352.49 222.556Z" fill="#FCC1BB"/>
<path d="M342.463 198.631C345.868 205.115 348.228 199.184 347.603 204.411C346.977 209.637 348.855 211.331 348.855 211.331L355.711 221.556C356.074 222.097 356.77 222.275 357.366 222.014C359.145 221.234 360.299 221.405 360.933 221.663C361.378 221.844 361.878 221.791 362.238 221.472C363.786 220.102 367.46 216.176 368.588 208.976C370.799 194.868 359.958 192.717 359.958 192.717C353.934 191.465 355.478 185.08 351.897 185.081C349.167 185.082 349.971 189.575 349.971 189.575C349.971 189.575 347.047 187.385 345.352 188.131C343.162 189.094 345.104 193.588 345.104 193.588C345.104 193.588 339.125 192.273 342.463 198.631Z" fill="#1A2E35"/>
<path d="M349.512 207.533H339.509L339.991 206.533H349.512V207.533Z" fill="#407BFF"/>
<path d="M347.459 208.768C347.169 210.392 347.538 212.064 348.485 213.415C349.754 215.198 351.775 214.403 352.582 212.499C353.314 210.775 353.521 207.784 351.684 206.67C349.848 205.555 347.836 206.786 347.459 208.768Z" fill="#FFC3BD"/>
<path d="M349.79 230.158C349.79 230.158 356.216 224.084 362.957 224.575C367.54 224.908 368.957 230.658 368.957 230.658L349.79 230.158Z" fill="#263238"/>
<path opacity="0.2" d="M349.79 230.158C349.79 230.158 356.216 224.084 362.957 224.575C367.54 224.908 368.957 230.658 368.957 230.658L349.79 230.158Z" fill="white"/>
<path d="M354.131 303.659L340.048 234.902C339.484 232.149 341.345 229.621 344.108 229.391C352.941 228.654 370.753 227.942 376.709 233.409C390.592 246.154 391.693 304.659 391.693 304.659L354.131 303.659Z" fill="#263238"/>
<path opacity="0.5" d="M344.04 233.825C344.04 233.825 341.799 234.683 340.307 236.171L344.94 258.789C349.078 249.519 348.793 233.825 348.793 233.825H344.04Z" fill="black"/>
<path d="M302.056 266.771L296.081 263.784L287.706 267.659V272.284C287.706 272.284 300.709 271.803 300.706 271.826C300.706 271.826 315.373 277.243 320.789 276.409C326.206 275.576 343.456 248.909 343.456 248.909L334.789 240.492L318.289 266.575L302.056 266.771Z" fill="#FCC1BB"/>
<path d="M328.957 248.075C328.957 248.075 334.957 236.242 338.79 232.492C342.623 228.742 348.945 229.246 348.945 229.246C348.945 229.246 351.195 242.969 339.373 257.242L328.957 248.075Z" fill="#263238"/>
<path d="M328.957 245.846C328.957 245.846 336.262 249.659 340.54 257.159L338.207 259.159C338.207 259.159 333.449 252.503 327.499 248.68L328.957 245.846Z" fill="#263238"/>
<path opacity="0.2" d="M328.957 245.846C328.957 245.846 336.262 249.659 340.54 257.159L338.207 259.159C338.207 259.159 333.449 252.503 327.499 248.68L328.957 245.846Z" fill="white"/>
<path d="M350.082 378.721L353.509 395.324L360.269 394.324L358.644 378.159L350.082 378.721Z" fill="#FCC1BB"/>
<path opacity="0.2" d="M359.715 388.809L358.644 378.159L350.082 378.721L352.224 389.1L359.715 388.809Z" fill="black"/>
<path d="M390.194 303.159C390.194 303.159 393.627 321.159 381.877 321.159C370.127 321.159 354.499 325 354.499 325C354.499 325 358.999 329.274 359.999 383.744L350.249 384.159C350.249 384.159 334.054 322.68 337.249 315.924C341.749 306.409 365.05 303.159 365.05 303.159H390.194Z" fill="#27DEBF"/>
<path opacity="0.2" d="M390.194 303.159C390.194 303.159 393.627 321.159 381.877 321.159C370.127 321.159 354.499 325 354.499 325C354.499 325 358.999 329.274 359.999 383.744L350.249 384.159C350.249 384.159 334.054 322.68 337.249 315.924C341.749 306.409 365.05 303.159 365.05 303.159H390.194Z" fill="black"/>
<path d="M348.182 381.242L361.438 380.909L361.015 386.409L349.893 386.885L348.182 381.242Z" fill="#27DEBF"/>
<path opacity="0.5" d="M348.182 381.242L361.438 380.909L361.015 386.409L349.893 386.885L348.182 381.242Z" fill="white"/>
<path d="M350.466 396.369C349.591 396.474 348.667 396.423 348.332 396.081C348.155 395.879 348.126 395.588 348.258 395.354C348.352 395.146 348.524 394.984 348.736 394.901C349.873 394.436 352.498 395.545 352.613 395.594C352.678 395.622 352.719 395.687 352.714 395.758C352.709 395.828 352.662 395.888 352.596 395.911C351.901 396.126 351.188 396.279 350.466 396.369ZM349.182 395.134C349.074 395.145 348.968 395.172 348.868 395.214C348.732 395.254 348.622 395.355 348.569 395.486C348.47 395.709 348.526 395.804 348.58 395.855C348.962 396.274 350.739 396.072 352.03 395.753C351.127 395.368 350.161 395.159 349.182 395.134Z" fill="#27DEBF"/>
<path d="M352.57 395.912C352.548 395.921 352.523 395.922 352.5 395.914C351.613 395.642 349.738 394.318 349.793 393.508C349.787 393.315 349.903 393.065 350.357 392.964C350.688 392.888 351.036 392.951 351.32 393.137C352.305 393.767 352.721 395.643 352.741 395.73C352.753 395.79 352.731 395.851 352.684 395.89C352.649 395.912 352.609 395.919 352.57 395.912ZM350.506 393.267L350.409 393.27C350.112 393.331 350.107 393.455 350.1 393.499C350.114 393.982 351.367 395.043 352.302 395.454C352.123 394.666 351.706 393.951 351.108 393.408C350.93 393.289 350.717 393.24 350.506 393.267Z" fill="#27DEBF"/>
<path d="M353.197 394.839L360.883 393.917C361.173 393.882 361.448 394.053 361.545 394.328L363.685 400.414C363.879 400.952 363.599 401.546 363.061 401.74C362.992 401.765 362.92 401.782 362.848 401.792C360.072 402.076 357.59 402.22 354.141 402.639C350.071 403.129 351.162 403.492 346.384 404.134C343.505 404.518 342.584 401.304 343.787 400.996C349.298 399.62 349.677 397.861 351.595 395.599C352.017 395.157 352.587 394.887 353.197 394.839Z" fill="#27DEBF"/>
<path d="M330.302 383.169L336.677 398.648L342.885 397.409L338.615 380.846L330.302 383.169Z" fill="#FCC1BB"/>
<path opacity="0.2" d="M341.464 391.895L338.615 380.846L330.302 383.169L334.447 393.232L341.464 391.895Z" fill="black"/>
<path d="M390.194 303.159C390.194 303.159 397.453 321.934 373.457 321.159C364.267 320.862 324.466 330.159 324.466 330.159C324.466 330.159 331.644 333.909 340.644 384.159L330.456 386.472C330.456 386.472 301.577 329.415 304.772 322.659C309.272 313.144 356.629 303.159 356.629 303.159H390.194Z" fill="#48C9B6"/>
<path d="M329.207 385.825L341.29 383.242L342.54 388.242L330.957 390.909L329.207 385.825Z" fill="#48C9B6"/>
<path opacity="0.5" d="M329.207 385.825L341.29 383.242L342.54 388.242L330.957 390.909L329.207 385.825Z" fill="white"/>
<path d="M332.84 399.357C331.965 399.462 331.041 399.41 330.706 399.069C330.529 398.867 330.5 398.576 330.632 398.342C330.727 398.134 330.898 397.972 331.11 397.889C332.247 397.425 334.872 398.533 334.987 398.582C335.052 398.61 335.093 398.675 335.089 398.746C335.084 398.816 335.037 398.876 334.971 398.899C334.275 399.113 333.562 399.267 332.84 399.357ZM331.556 398.121C331.448 398.132 331.342 398.159 331.242 398.201C331.106 398.241 330.996 398.342 330.943 398.474C330.844 398.696 330.9 398.791 330.954 398.843C331.336 399.262 333.113 399.06 334.404 398.741C333.502 398.356 332.536 398.146 331.556 398.121Z" fill="#48C9B6"/>
<path d="M334.944 398.898C334.922 398.907 334.897 398.908 334.874 398.9C333.987 398.628 332.112 397.304 332.167 396.494C332.161 396.301 332.277 396.052 332.731 395.95C333.062 395.874 333.41 395.937 333.694 396.123C334.679 396.752 335.095 398.629 335.115 398.716C335.127 398.776 335.105 398.837 335.058 398.876C335.024 398.898 334.983 398.906 334.944 398.898ZM332.88 396.254L332.783 396.257C332.486 396.318 332.481 396.442 332.474 396.486C332.488 396.969 333.741 398.03 334.676 398.441C334.497 397.653 334.08 396.938 333.482 396.395C333.305 396.276 333.091 396.226 332.88 396.254Z" fill="#48C9B6"/>
<path d="M335.571 397.825L343.257 396.902C343.547 396.867 343.822 397.038 343.919 397.313L346.059 403.399C346.253 403.938 345.973 404.531 345.435 404.725C345.366 404.75 345.294 404.767 345.222 404.777C342.446 405.061 339.964 405.205 336.515 405.624C332.445 406.114 333.536 406.477 328.758 407.119C325.879 407.503 324.958 404.289 326.161 403.981C331.672 402.605 332.051 400.846 333.969 398.584C334.391 398.144 334.962 397.874 335.571 397.825Z" fill="#48C9B6"/>
<path d="M412.158 388.133C406.046 387.128 396.981 385.706 392.944 385.408C392.058 385.343 390.945 385.294 389.722 385.261V353.908H382.045V385.261C380.821 385.294 379.709 385.342 378.823 385.408C374.786 385.705 365.721 387.128 359.609 388.133C356.088 388.712 353.509 391.756 353.509 395.324V396.908H360.955L361.955 394.68C361.955 394.68 375.95 392.256 380.666 391.908C383.268 391.716 388.501 391.716 391.104 391.908C395.82 392.255 409.814 394.68 409.814 394.68L410.814 396.908H418.26V395.324C418.259 391.756 415.68 388.712 412.158 388.133Z" fill="#263238"/>
<path opacity="0.1" d="M412.158 388.133C406.046 387.128 396.981 385.706 392.944 385.408C392.058 385.343 390.945 385.294 389.722 385.261V353.908H382.045V385.261C380.821 385.294 379.709 385.342 378.823 385.408C374.786 385.705 365.721 387.128 359.609 388.133C356.088 388.712 353.509 391.756 353.509 395.324V396.908H360.955L361.955 394.68C361.955 394.68 375.95 392.256 380.666 391.908C383.268 391.716 388.501 391.716 391.104 391.908C395.82 392.255 409.814 394.68 409.814 394.68L410.814 396.908H418.26V395.324C418.259 391.756 415.68 388.712 412.158 388.133Z" fill="white"/>
<path d="M388.481 358.409H383.287C381.318 358.409 379.721 356.813 379.721 354.843V328.342H392.047V354.843C392.047 356.812 390.45 358.409 388.481 358.409Z" fill="#263238"/>
<path opacity="0.2" d="M392.047 328.341H379.721V335.658H392.047V328.341Z" fill="black"/>
<path d="M415.138 407.409C418.037 407.409 420.388 405.058 420.388 402.159C420.388 399.259 418.037 396.909 415.138 396.909C412.238 396.909 409.888 399.259 409.888 402.159C409.888 405.058 412.238 407.409 415.138 407.409Z" fill="#263238"/>
<path d="M356.629 407.409C359.528 407.409 361.879 405.058 361.879 402.159C361.879 399.259 359.528 396.909 356.629 396.909C353.729 396.909 351.379 399.259 351.379 402.159C351.379 405.058 353.729 407.409 356.629 407.409Z" fill="#263238"/>
<path d="M427.556 322.101C420.202 320.226 412.646 319.194 405.068 319.004C397.259 318.808 368.029 318.975 361.088 318.972C352.639 318.969 344.189 320.01 335.991 322.101C330.838 323.415 332.426 330.852 337.081 330.938C337.492 330.946 425.853 330.919 426.177 330.934C431.046 331.155 432.822 323.444 427.556 322.101Z" fill="#9571F6"/>
<path opacity="0.3" d="M427.556 322.101C420.202 320.226 412.646 319.194 405.068 319.004C397.259 318.808 368.029 318.975 361.088 318.972C352.639 318.969 344.189 320.01 335.991 322.101C330.838 323.415 332.426 330.852 337.081 330.938C337.492 330.946 425.853 330.919 426.177 330.934C431.046 331.155 432.822 323.444 427.556 322.101Z" fill="black"/>
<path d="M338.384 330.779C353.227 326.994 368.949 326.994 383.792 330.779C389.407 332.211 391.802 323.533 386.185 322.1C369.79 317.919 352.387 317.919 335.992 322.1C330.383 323.531 332.759 332.213 338.384 330.779Z" fill="#9571F6"/>
<g opacity="0.4">
<path d="M338.384 330.779C353.227 326.994 368.949 326.994 383.792 330.779C389.407 332.211 391.802 323.533 386.185 322.1C369.79 317.919 352.387 317.919 335.992 322.1C330.383 323.531 332.759 332.213 338.384 330.779Z" fill="white"/>
</g>
<path d="M403.923 257.701C402.994 257.683 402.06 258.099 401.438 259.133C389.533 278.93 385.304 302.728 389.411 325.433C389.668 326.856 390.643 327.519 391.724 327.593C393.526 327.716 425.606 327.602 426.77 327.6C428.52 327.596 430.442 326.11 430.031 323.838C426.214 302.739 430.417 280.513 441.453 262.161C442.824 259.88 440.802 257.74 438.757 257.701C437.827 257.683 405.968 257.74 403.923 257.701Z" fill="#9571F6"/>
<path opacity="0.2" d="M403.923 257.701C402.994 257.683 402.06 258.099 401.438 259.133C389.533 278.93 385.304 302.728 389.411 325.433C389.668 326.856 390.643 327.519 391.724 327.593C393.526 327.716 425.606 327.602 426.77 327.6C428.52 327.596 430.442 326.11 430.031 323.838C426.214 302.739 430.417 280.513 441.453 262.161C442.824 259.88 440.802 257.74 438.757 257.701C437.827 257.683 405.968 257.74 403.923 257.701Z" fill="black"/>
<path d="M395.197 323.838C391.38 302.739 395.583 280.513 406.619 262.161C408.614 258.844 403.428 255.824 401.438 259.133C389.533 278.93 385.304 302.728 389.411 325.433C390.098 329.227 395.881 327.619 395.197 323.838Z" fill="#9571F6"/>
<g opacity="0.4">
<path d="M395.197 323.838C391.38 302.739 395.583 280.513 406.619 262.161C408.614 258.844 403.428 255.824 401.438 259.133C389.533 278.93 385.304 302.728 389.411 325.433C390.098 329.227 395.881 327.619 395.197 323.838Z" fill="white"/>
</g>
<path d="M355.908 297.75C366.212 307.175 376.517 316.6 386.821 326.024C388.955 327.975 392.145 324.802 390.003 322.842C379.699 313.417 369.394 303.992 359.09 294.567C356.956 292.616 353.765 295.79 355.908 297.75Z" fill="#263238"/>
<g opacity="0.5">
<path d="M355.908 297.75C366.212 307.175 376.517 316.6 386.821 326.024C388.955 327.975 392.145 324.802 390.003 322.842C379.699 313.417 369.394 303.992 359.09 294.567C356.956 292.616 353.765 295.79 355.908 297.75Z" fill="white"/>
</g>
<path opacity="0.2" d="M359.09 294.568C356.957 292.617 353.766 295.79 355.908 297.75C357.879 299.553 359.851 301.356 361.822 303.159H368.483C365.351 300.295 362.22 297.431 359.09 294.568Z" fill="black"/>
<path d="M339.79 299.159C355.595 299.159 366.401 299.159 382.206 299.159C386.067 299.159 386.073 293.159 382.206 293.159C366.401 293.159 355.595 293.159 339.79 293.159C335.93 293.159 335.923 299.159 339.79 299.159Z" fill="#9571F6"/>
<g opacity="0.3">
<path d="M339.79 299.159C355.595 299.159 366.401 299.159 382.206 299.159C386.067 299.159 386.073 293.159 382.206 293.159C366.401 293.159 355.595 293.159 339.79 293.159C335.93 293.159 335.923 299.159 339.79 299.159Z" fill="white"/>
</g>
</g>
<defs>
<clipPath id="clip0_29_4817">
<rect width="500" height="500" fill="white"/>
</clipPath>
</defs>
</svg>
