<svg width="500" height="490" viewBox="0 0 500 490" fill="none" xmlns="http://www.w3.org/2000/svg">
<path d="M443.713 489.05C454.754 489.05 464.904 481.904 470.035 470.465C499.344 405.12 489.175 309.048 449.631 283.27C400.186 251.04 470.115 156.827 404.424 108.896C338.734 60.9627 285.757 170.051 196.756 110.549C107.756 51.046 28.6434 155.176 45.5964 197.324C62.5493 239.472 75.2637 290.709 25.8189 348.559C-8.20478 388.366 19.9758 444.599 40.8651 475.808C46.479 484.195 55.1048 489.05 64.2127 489.05H443.713Z" fill="#F8EDFC"/>
<path opacity="0.33" d="M448.158 284.218C398.713 251.988 468.642 157.775 402.951 109.844C381.44 94.1472 361.291 95.2901 340.794 101.837C364.181 101.436 399.652 108.341 401.067 153.621C403.186 221.387 320.543 266.014 381.996 314.774C442.816 363.032 407.458 463.891 336.194 490H442.24C453.281 490 463.431 482.854 468.562 471.415C497.87 406.069 487.702 309.996 448.158 284.218Z" fill="#EDBBF9"/>
<path d="M51.9902 114.935C48.8689 108.453 50.2164 100.456 50.4617 93.021C50.7081 85.5856 48.7436 76.6289 42.6713 74.4183C39.6111 73.3041 35.6747 73.9508 33.7905 70.918C31.0388 66.4892 36.1042 60.1329 34.4043 55.031C33.226 51.4932 29.4696 50.3967 27.0124 47.9153C23.8322 44.7046 23.0277 39.2869 23.2869 34.3819C23.5462 29.4768 24.6569 24.6306 24.4652 19.7205C24.2735 14.8117 22.3636 9.5181 18.4775 7.65332C26.1265 9.34391 33.8794 11.0746 40.8783 15.0611C47.8771 19.0488 54.1497 25.6344 56.5886 34.2841C58.2446 40.1592 58.461 47.4052 62.8377 50.8754C65.5562 53.0297 69.0749 52.9645 72.3494 53.2565C75.6238 53.5472 79.2807 54.5962 80.9195 57.9247C82.703 61.5478 81.3009 66.1897 82.1353 70.2538C83.23 75.585 87.7791 78.7356 90.8394 82.8875C95.9283 89.7927 96.8399 100.137 94.0945 108.67C91.4178 116.992 84.9438 126.744 76.6961 126.343C68.3862 125.939 56.488 124.275 51.9902 114.935Z" fill="#9B33B5"/>
<path d="M68.0506 93.7193C67.4315 84.8541 67.8128 75.9325 69.1882 67.1825C69.2353 66.8855 68.8422 66.7853 68.7961 67.0835C67.4658 75.5465 67.0609 84.1761 67.5879 92.7569C67.0534 91.3996 66.5296 90.0387 66.0154 88.6789C60.1242 73.099 55.1134 56.9275 47.0467 42.6283C46.9074 42.3815 46.7649 42.1371 46.6236 41.8915C46.6236 41.8802 46.6236 41.8689 46.6214 41.8564C46.0173 37.8411 45.4142 33.827 44.8101 29.8117C44.7651 29.5147 44.3827 29.6576 44.4266 29.9521C44.9783 33.6202 45.5299 37.2884 46.0816 40.9578L46.0794 40.954C46.0687 40.8864 46.0366 40.8212 45.9777 40.7836C41.8045 33.7305 36.8483 27.3178 30.911 22.2386C30.7043 22.0619 30.4344 22.4103 30.6432 22.5895C36.4477 27.5559 41.2261 33.7167 45.3061 40.5104C42.4472 39.3687 39.5883 38.2258 36.7295 37.0841C36.4852 36.9864 36.4028 37.4463 36.6448 37.5428C39.6612 38.7484 42.6775 39.9527 45.6949 41.1583C49.807 48.1224 53.2025 55.7257 56.222 63.3778C58.8388 70.0111 61.2189 76.7822 63.6782 83.5082C57.8448 75.6718 51.027 68.9057 43.4658 63.4492C43.2463 63.2901 43.0652 63.7099 43.2837 63.8678C51.0409 69.4672 58.0119 76.4576 63.9353 84.5621C63.9835 84.6273 64.0381 84.6423 64.0895 84.6285C67.3062 93.3847 70.6867 102.047 74.9348 110.21C79.1797 118.366 84.3019 125.917 90.6409 131.98C90.8401 132.17 91.1101 131.822 90.9087 131.63C80.494 121.671 73.6441 107.965 68.026 93.8584C68.0431 93.8221 68.0538 93.7757 68.0506 93.7193Z" fill="#781291"/>
<path d="M79.4894 90.9545C81.6231 85.7011 86.5964 83.1069 90.7674 79.9413C94.9384 76.7757 98.9445 71.2728 97.417 65.7374C96.6469 62.9477 94.5207 60.2972 95.3283 57.5213C96.5065 53.4697 102.26 54.392 104.28 50.8241C105.681 48.349 104.587 45.0481 104.836 42.0943C105.157 38.2707 107.752 35.2291 110.548 33.2127C113.344 31.1976 116.491 29.8441 119.084 27.4893C121.678 25.1345 123.708 21.3222 122.977 17.5776C125.499 24.0567 128.046 30.6324 129.022 37.6591C129.998 44.6871 129.227 52.343 125.602 58.0614C123.139 61.9451 119.28 65.3714 119.357 70.2063C119.405 73.209 121.026 75.8094 122.341 78.3885C123.658 80.9677 124.732 84.1734 123.652 86.8979C122.477 89.863 119.311 90.9056 117.468 93.3607C115.049 96.5802 115.379 101.4 114.49 105.558C113.012 112.473 107.774 117.813 101.877 119.605C96.1263 121.354 87.886 120.908 84.3898 114.56C80.8647 108.167 76.4141 98.5239 79.4894 90.9545Z" fill="#CB6DE2"/>
<path d="M98.308 93.4037C102.871 88.9473 107.914 85.214 113.311 82.3002C113.495 82.2012 113.372 81.8629 113.189 81.9619C107.969 84.7804 103.075 88.3633 98.6261 92.623C99.1274 91.6116 99.6341 90.6078 100.145 89.6102C105.999 78.1885 112.572 67.1577 116.747 54.6882C116.818 54.4726 116.888 54.2558 116.959 54.039C116.965 54.034 116.97 54.0278 116.977 54.0215C118.897 51.762 120.818 49.5024 122.739 47.2416C122.881 47.0749 122.629 46.8531 122.489 47.0185C120.734 49.0826 118.979 51.1479 117.224 53.2132L117.225 53.2094C117.258 53.1706 117.278 53.1179 117.273 53.0565C119.244 46.7604 120.514 40.1672 120.612 33.4412C120.616 33.2069 120.304 33.1618 120.301 33.3986C120.203 39.9742 118.992 46.3218 117.119 52.4312C116.455 49.7794 115.791 47.1276 115.127 44.477C115.07 44.2502 114.782 44.3956 114.838 44.6199C115.538 47.4171 116.239 50.2155 116.94 53.0127C114.99 59.2236 112.368 65.1876 109.55 70.891C107.106 75.8362 104.481 80.6648 101.916 85.5323C103.567 77.6421 104.191 69.4974 103.764 61.3879C103.752 61.1523 103.441 61.2062 103.454 61.4405C103.891 69.7618 103.213 78.1208 101.455 86.199C101.441 86.2642 101.458 86.3118 101.488 86.3444C98.1559 92.6931 94.9478 99.1221 92.4039 105.976C89.8621 112.822 88.0465 120.053 87.5913 127.522C87.5773 127.757 87.8891 127.802 87.903 127.565C88.6506 115.294 93.0487 104 98.2212 93.4451C98.2491 93.4438 98.2791 93.4313 98.308 93.4037Z" fill="#9B33B5"/>
<path d="M34.8799 125.642C20.0671 116.944 7.82617 101.9 0.388184 84.1043C16.181 81.2458 32.7848 84.0154 47.6297 91.9846C59.3468 98.2744 70.9226 108.076 78.9979 120.35C89.0645 135.651 62.5624 134.336 56.2866 133.362C48.9054 132.218 41.6356 129.61 34.8799 125.642Z" fill="#CB6DE2"/>
<path d="M85.6249 129.46C78.8799 127.466 72.2014 125.142 65.6042 122.512C63.6387 119.06 62.1552 115.345 61.1494 111.306C61.0872 111.055 60.7862 111.213 60.8484 111.462C61.822 115.371 63.2434 118.964 65.1029 122.318C60.3117 120.394 55.5666 118.295 50.8696 116.043C48.8291 111.494 46.6269 107.072 44.2596 102.775C44.1408 102.558 43.8848 102.81 44.0036 103.027C46.2884 107.172 48.4157 111.436 50.3941 115.82C44.5617 113.007 38.8108 109.933 33.1455 106.624C30.8833 102.002 28.6221 97.3798 26.3599 92.758C26.2506 92.5337 25.9946 92.7868 26.1039 93.0099C28.274 97.4438 30.4441 101.878 32.6142 106.311C23.8116 101.141 15.22 95.391 6.89835 89.0572C6.72054 88.9219 6.52237 89.2465 6.70232 89.3831C15.0861 95.7632 23.7399 101.551 32.6089 106.753C28.861 108.001 25.0606 108.676 21.1755 108.799C20.9656 108.805 21.0095 109.21 21.2173 109.204C25.2459 109.076 29.1866 108.35 33.0673 107.021C38.7004 110.309 44.4182 113.366 50.2162 116.164C45.499 118.386 40.6071 119.718 35.5695 120.172C35.3596 120.191 35.4035 120.596 35.6123 120.577C40.8009 120.109 45.831 118.72 50.6801 116.387C50.7047 116.407 50.7325 116.417 50.7604 116.42C55.4948 118.691 60.2775 120.804 65.1072 122.74C62.3737 125.068 59.488 127.017 56.431 128.609C56.2371 128.71 56.3635 129.086 56.5574 128.986C59.7183 127.34 62.6886 125.321 65.5068 122.895C72.1221 125.535 78.8189 127.864 85.5831 129.864C85.7877 129.925 85.8284 129.52 85.6249 129.46Z" fill="#9B33B5"/>
<path d="M74.4034 58.2584C75.466 42.1446 81.5232 26.3503 90.9118 14.0225C97.7788 27.3754 101.19 43.2361 100.618 59.1482C100.167 71.7079 97.3557 85.2488 91.8105 96.4099C84.8963 110.323 77.4037 85.987 76.0647 80.0154C74.4912 72.9911 73.9182 65.6072 74.4034 58.2584Z" fill="#EDBBF9"/>
<path d="M87.894 105.265C87.081 98.5481 86.5058 91.787 86.1598 85.0021C87.8148 82.1385 89.7974 79.6283 92.1443 77.4452C92.29 77.3099 92.0907 77.0881 91.9461 77.2234C89.6753 79.3351 87.7558 81.7513 86.1309 84.4883C85.8878 79.5569 85.7753 74.6117 85.7785 69.6615C88.135 66.3844 90.3555 63.002 92.4421 59.5093C92.547 59.3338 92.3007 59.1822 92.1957 59.3576C90.183 62.7275 88.0429 65.9921 85.7764 69.1615C85.7914 63.0095 86.0035 56.8499 86.3987 50.6917C88.7327 47.1914 91.0667 43.6924 93.4007 40.1922C93.5143 40.023 93.2668 39.8714 93.1544 40.0406C90.9157 43.3979 88.676 46.7553 86.4373 50.1127C87.0703 40.5356 88.15 30.9673 89.7021 21.4579C89.7353 21.2549 89.4589 21.1785 89.4257 21.384C87.864 30.9636 86.7768 40.6008 86.1448 50.2468C84.1397 47.2578 82.4955 44.0396 81.1876 40.5719C81.1169 40.384 80.8641 40.5532 80.9338 40.7386C82.2888 44.3341 84.0111 47.6614 86.1116 50.7455C85.7207 56.8675 85.5086 62.9919 85.4925 69.1089C82.5383 65.5522 80.1175 61.557 78.2291 57.1532C78.1499 56.9702 77.8971 57.1369 77.9753 57.3199C79.9205 61.8553 82.4237 65.9583 85.4914 69.5976C85.4861 69.6264 85.4882 69.654 85.4947 69.6803C85.4915 74.6694 85.6071 79.6534 85.8535 84.6236C83.4563 82.8905 81.2605 80.9016 79.2467 78.6446C79.1192 78.5017 78.9104 78.7348 79.0378 78.8777C81.1201 81.2124 83.3888 83.2551 85.8771 85.0334C86.223 91.8371 86.8004 98.617 87.6155 105.353C87.6391 105.559 87.9187 105.467 87.894 105.265Z" fill="#9B33B5"/>
<path d="M120.978 159.106H9.94659C4.45272 159.106 0 164.317 0 170.743V225.157C0 231.584 4.4538 236.795 9.94659 236.795H120.978C126.471 236.795 130.924 231.584 130.924 225.157V170.743C130.924 164.317 126.47 159.106 120.978 159.106Z" fill="#CB6DE2"/>
<path d="M130.925 184.025H0V195.02H130.925V184.025Z" fill="#611FC9"/>
<path d="M38.0023 206.256H8.35107V210.654H38.0023V206.256Z" fill="#611FC9"/>
<path d="M29.4407 217.495H8.35107V221.893H29.4407V217.495Z" fill="#611FC9"/>
<path d="M328.193 272.06H270.901V352.223H328.193V272.06Z" fill="#8050DD"/>
<path d="M328.194 272.06H308.002V352.223H328.194V272.06Z" fill="#611FC9"/>
<path d="M359.749 313.471H328.025V352.223H359.749V313.471Z" fill="#CB6DE2"/>
<path d="M359.749 313.471H348.569V352.223H359.749V313.471Z" fill="#B452CC"/>
<path d="M321.257 245.015H277.784V272.034H321.257V245.015Z" fill="#CB6DE2"/>
<path d="M321.257 245.015H305.935V272.034H321.257V245.015Z" fill="#B452CC"/>
<path d="M370.491 277.337H328.025V313.536H370.491V277.337Z" fill="#9B33B5"/>
<path d="M370.491 277.337H355.524V313.536H370.491V277.337Z" fill="#781291"/>
<path d="M250.182 292.496C249.487 292.496 248.884 292.054 248.659 291.282L244.086 275.584C241.963 268.293 236.284 263.764 229.266 263.764H213.273C212.213 263.764 211.504 262.757 211.693 261.517C211.882 260.275 212.894 259.27 213.954 259.27H229.947C238.406 259.27 245.252 264.729 247.811 273.517L252.383 289.215C252.705 290.318 252.131 291.674 251.102 292.244C250.794 292.414 250.48 292.496 250.182 292.496Z" fill="#2C1B4C"/>
<path d="M395.825 288.677C395.571 288.026 395.019 287.631 394.36 287.631H250.578C249.919 287.631 249.246 288.026 248.795 288.677C248.344 289.329 248.178 290.146 248.356 290.843L264.787 355.333C264.987 356.116 265.586 356.615 266.328 356.615H357.704C358.446 356.615 359.197 356.116 359.634 355.333L395.608 290.843C395.997 290.146 396.079 289.329 395.825 288.677ZM368.406 331.981H343.973L351.271 311.468L379.837 311.488L368.406 331.981ZM342.216 331.981H316.629L319.746 311.447L349.513 311.468L342.216 331.981ZM257.848 311.403L286.293 311.423L287.315 331.981H263.091L257.848 311.403ZM288.213 311.424L317.961 311.444L314.843 331.98H289.235L288.213 311.424ZM288.111 309.364L287.255 292.126H320.894L318.277 309.364H288.111ZM314.519 334.109L311.785 352.121H290.237L289.341 334.109H314.519ZM316.307 334.109H341.458L335.05 352.121H313.571L316.307 334.109ZM320.064 309.363L322.68 292.125H356.395L350.263 309.362L320.064 309.363ZM285.334 292.125L286.191 309.363H257.328L252.936 292.124L285.334 292.125ZM263.633 334.109H287.421L288.316 352.121H268.223L263.633 334.109ZM357.172 352.121H336.809L343.217 334.109H367.22L357.172 352.121ZM381.024 309.362L352.021 309.363L358.153 292.126H390.639L381.024 309.362Z" fill="#2C1B4C"/>
<path d="M359.305 406.948H285.544C280.99 406.948 277.331 403.805 276.215 398.939L264.579 354.514C264.294 353.392 265.185 351.762 266.224 351.23C267.263 350.699 267.987 351.256 268.271 352.378L279.985 397.038C279.989 397.055 279.994 397.074 279.998 397.092C280.737 400.349 283.18 402.454 286.225 402.454H359.986C361.046 402.454 361.754 403.46 361.566 404.701C361.378 405.942 360.365 406.948 359.305 406.948Z" fill="#2C1B4C"/>
<path d="M302.648 412.49C302.631 405.868 298.038 400.505 292.374 400.505C286.71 400.505 282.118 405.868 282.1 412.49H302.648Z" fill="#2C1B4C"/>
<path d="M299.603 412.528C299.603 417.2 296.366 420.987 292.373 420.987C288.38 420.987 285.143 417.2 285.143 412.528C285.143 407.856 288.38 404.068 292.373 404.068C296.366 404.068 299.603 407.856 299.603 412.528Z" fill="#2C1B4C"/>
<path d="M292.375 417.017C290.258 417.017 288.537 415.003 288.537 412.527C288.537 410.052 290.258 408.038 292.375 408.038C294.49 408.038 296.212 410.052 296.212 412.527C296.211 415.003 294.489 417.017 292.375 417.017Z" fill="white"/>
<path d="M353.735 412.49C353.718 405.868 349.125 400.505 343.46 400.505C337.796 400.505 333.203 405.868 333.186 412.49H353.735Z" fill="#2C1B4C"/>
<path d="M350.69 412.528C350.69 417.2 347.453 420.987 343.46 420.987C339.467 420.987 336.23 417.2 336.23 412.528C336.23 407.856 339.467 404.068 343.46 404.068C347.453 404.068 350.69 407.856 350.69 412.528Z" fill="#2C1B4C"/>
<path d="M343.46 417.017C341.344 417.017 339.623 415.003 339.623 412.527C339.623 410.052 341.344 408.038 343.46 408.038C345.576 408.038 347.298 410.052 347.298 412.527C347.297 415.003 345.575 417.017 343.46 417.017Z" fill="white"/>
<path d="M236.965 339.703L182.089 116.86C179.54 106.51 170.303 98.1182 161.455 98.1182H70.2465C61.3989 98.1182 56.2938 106.51 58.8431 116.86L113.719 339.703C116.268 350.054 125.505 358.444 134.353 358.444H225.562C234.408 358.444 239.514 350.053 236.965 339.703Z" fill="#2C1B4C"/>
<path d="M169.125 98.1167H77.9169C69.0693 98.1167 63.9642 106.508 66.5135 116.859L121.389 339.702C123.938 350.054 133.176 358.444 142.023 358.444H233.232C242.078 358.444 247.185 350.053 244.635 339.702L189.76 116.859C187.212 106.508 177.973 98.1167 169.125 98.1167Z" fill="#611FC9"/>
<path d="M170.856 105.14H157.472L155.286 115.817C154.468 119.809 151.543 122.306 147.686 122.306H111.27C107.413 122.306 103.258 119.809 100.475 115.817L93.0311 105.14H79.6472C74.1244 105.14 70.9249 110.397 72.5166 116.86L127.392 339.704C128.984 346.165 134.771 351.424 140.295 351.424H231.504C237.027 351.424 240.226 346.166 238.634 339.704L183.759 116.86C182.167 110.397 176.378 105.14 170.856 105.14Z" fill="white"/>
<path d="M77.7492 107.361H91.1331L98.5775 118.038C101.36 122.03 105.515 124.527 109.372 124.527H145.789C148.682 124.527 151.05 123.122 152.398 120.736C151.117 121.744 149.508 122.307 147.687 122.307H111.27C107.413 122.307 103.258 119.809 100.476 115.818L93.0311 105.14H79.6472C76.7894 105.14 74.5615 106.555 73.29 108.81C74.4929 107.888 76.0043 107.361 77.7492 107.361Z" fill="#E8E4EF"/>
<path d="M238.634 339.703L183.759 116.859C182.167 110.396 176.38 105.139 170.856 105.139H157.472L157.017 107.361H168.956C174.479 107.361 180.267 112.618 181.858 119.081L236.734 341.925C237.502 345.043 237.145 347.872 235.961 349.974C238.567 347.979 239.722 344.124 238.634 339.703Z" fill="#E8E4EF"/>
<path d="M183.173 204.585H119.245C115.371 204.585 111.315 200.903 110.202 196.37L98.4263 149.191C97.4291 145.141 100.028 141.101 103.631 141.101H170.321C172.734 141.101 174.857 142.969 175.526 145.684L188.166 196.37C189.285 200.904 187.041 204.585 183.173 204.585Z" fill="#CB6DE2"/>
<path d="M157.26 182.158H131.771C130.23 182.158 128.609 180.685 128.169 178.881L124.315 163.457C123.921 161.879 124.931 160.301 126.335 160.3L153.027 160.273C153.964 160.272 154.789 160.995 155.051 162.048L159.25 178.882C159.7 180.685 158.801 182.158 157.26 182.158Z" fill="#9B33B5"/>
<path d="M156.739 158.167L121.132 158.192C119.931 158.192 118.673 157.05 118.329 155.645L117.78 153.703C117.471 152.447 118.276 151.194 119.394 151.194L155.858 151.169C156.607 151.169 157.264 151.748 157.471 152.59L158.288 155.62C158.633 157.025 157.938 158.167 156.739 158.167Z" fill="#9B33B5"/>
<path d="M194.047 249.614H130.119C126.245 249.614 122.19 245.933 121.077 241.401L117.793 227.5C116.795 223.448 119.394 219.409 122.997 219.409H189.687C192.101 219.409 194.224 221.278 194.892 223.992L199.039 241.402C200.159 245.932 197.915 249.614 194.047 249.614Z" fill="#CB6DE2"/>
<path d="M155.465 294.047L139.517 294.263C135.643 294.263 131.588 290.581 130.475 286.048L127.19 272.148C126.193 268.096 128.792 264.057 132.395 264.057L151.106 263.84C153.519 263.84 155.642 265.709 156.31 268.423L160.458 285.833C161.577 290.366 159.333 294.047 155.465 294.047Z" fill="#CB6DE2"/>
<path d="M202.279 269.533L163.392 269.703C162.774 269.703 162.126 269.115 161.948 268.392L161.424 266.173C161.264 265.526 161.68 264.881 162.255 264.881L201.584 264.71C201.97 264.71 202.308 265.009 202.415 265.442L203.077 268.222C203.255 268.945 202.896 269.533 202.279 269.533Z" fill="#CB6DE2"/>
<path d="M204.984 279.529L166.096 279.7C165.478 279.7 164.83 279.112 164.652 278.389L164.127 276.17C163.968 275.523 164.383 274.877 164.958 274.877L204.287 274.707C204.673 274.707 205.011 275.005 205.119 275.439L205.781 278.219C205.96 278.942 205.602 279.529 204.984 279.529Z" fill="#CB6DE2"/>
<path d="M164.426 335.988L148.479 336.205C144.605 336.205 140.549 332.523 139.437 327.99L136.152 314.089C135.155 310.039 137.754 305.999 141.357 305.999L160.068 305.782C162.482 305.782 164.604 307.65 165.272 310.365L169.42 327.774C170.539 332.306 168.295 335.988 164.426 335.988Z" fill="#CB6DE2"/>
<path d="M212.778 312.238L173.89 312.408C173.272 312.408 172.624 311.821 172.446 311.097L171.921 308.878C171.762 308.231 172.177 307.586 172.752 307.586L212.081 307.416C212.467 307.416 212.805 307.714 212.913 308.147L213.574 310.927C213.753 311.65 213.395 312.238 212.778 312.238Z" fill="#CB6DE2"/>
<path d="M197.356 323.66L175.838 323.805C175.219 323.805 174.571 323.218 174.394 322.493L173.87 320.274C173.71 319.627 174.126 318.982 174.701 318.982L196.66 318.836C197.046 318.836 197.385 319.135 197.492 319.568L198.154 322.348C198.331 323.072 197.974 323.66 197.356 323.66Z" fill="#CB6DE2"/>
<path d="M189.271 290.61L168.09 290.696C167.472 290.696 166.824 290.108 166.646 289.385L166.121 287.165C165.961 286.519 166.377 285.873 166.952 285.873L188.574 285.788C188.96 285.788 189.298 286.086 189.405 286.52L190.067 289.3C190.247 290.023 189.889 290.61 189.271 290.61Z" fill="#CB6DE2"/>
<path d="M174.244 191.444L123.814 191.342C123.228 191.342 122.616 190.785 122.446 190.1L122.179 189.152C122.028 188.54 122.421 187.929 122.966 187.929L173.814 188.032C174.179 188.032 174.499 188.315 174.601 188.725L175 190.203C175.169 190.888 174.829 191.444 174.244 191.444Z" fill="#9B33B5"/>
<path d="M229.176 306.806C229.779 304.707 230.895 302.411 231.746 299.739H210.34C206.186 320.785 204.668 339.781 204.668 339.781L209.531 410.725L218.111 410.836C218.83 401.022 218.955 369.41 221.562 341.294C222.949 326.36 227.383 313.052 229.176 306.806Z" fill="#FFA683"/>
<path d="M246.154 306.805C246.591 304.829 246.945 302.41 247.232 299.738H225.826C226.116 320.785 228.61 339.781 228.61 339.781L248.095 410.948L256.508 410.527C257.241 403.666 249.783 366.894 246.441 338.602C244.706 323.903 245.202 311.112 246.154 306.805Z" fill="#FFA683"/>
<path d="M256.651 410.528L257.321 417.355C257.321 419.36 256.071 420.986 254.53 420.986H234.275C233.185 420.986 232.763 419.142 233.678 418.373C236.354 416.125 245.212 412.896 248.019 410.656L256.651 410.528Z" fill="#7327CC"/>
<path d="M246.776 237.173C245.779 231.088 245.441 224.921 246.88 220.663C249.437 213.107 249.445 199.762 248.146 190.37C252.099 196.454 256.407 204.285 257.23 210.572C258.192 217.975 251.847 229.404 246.776 237.173Z" fill="#FFA683"/>
<path d="M252.142 324.188C243.838 326.44 235.361 327.575 226.892 327.575C219.542 327.575 212.2 326.723 204.962 325.03L201.399 324.188C201.399 324.188 202.89 270.833 207.155 262.802C207.155 262.802 238.507 265.205 250.686 258.472C251.301 263.988 251.613 272.731 249.42 282.487C245.71 298.996 252.887 313.184 252.142 324.188Z" fill="#442D68"/>
<path d="M218.852 179.318C218.852 179.318 212.726 188.802 210.498 194.16C208.646 198.614 203.072 208.495 211.797 220.659C220.523 232.823 207.156 256.714 207.156 262.796C207.156 262.796 241.129 265.402 252.082 257.582C252.082 257.582 242.986 232.17 246.884 220.658C250.783 209.146 248.74 184.168 245.213 180.258C241.686 176.35 218.852 179.318 218.852 179.318Z" fill="#CB6DE2"/>
<path d="M211.496 150.662C211.496 150.662 205.002 171.743 218.93 171.724V179.4H231.316V152.274C231.316 152.274 221.392 147.651 221.103 147.651C220.813 147.651 211.496 150.662 211.496 150.662Z" fill="#FFA683"/>
<path opacity="0.62" d="M219.063 179.018H221.35C221.306 176.366 221.36 173.942 221.672 173.382C222.429 172.025 223.841 169.901 223.841 169.901C222.934 170.432 219.063 171.228 219.063 171.228V179.018Z" fill="#E58365"/>
<path d="M207.767 325.636C206.286 311.321 210.99 281.343 214.574 260.977L207.156 262.796C202.886 270.833 201.4 324.192 201.4 324.192L204.96 325.025C205.894 325.244 206.83 325.446 207.767 325.636Z" fill="#2E1B54"/>
<path d="M224.917 204.296C229.31 197.418 226.897 189.165 226.897 189.165L210.913 193.216C210.765 193.541 210.623 193.859 210.498 194.16C208.646 198.614 203.072 208.495 211.797 220.659C220.523 232.823 207.156 256.714 207.156 262.796C207.156 262.796 209.956 263.01 214.198 263.13C216.165 251.814 217.883 243.035 218.203 240.749C219.13 234.125 218.049 225.292 215.449 219.789C212.849 214.288 220.523 211.175 224.917 204.296Z" fill="#B452CC"/>
<path d="M157.619 180.326L193.043 220.215C194.81 222.413 197.681 222.776 199.803 221.061C209.565 213.171 235.119 191.792 223.607 183.934C216.593 179.147 193.81 204.848 193.81 204.848L162.843 177.196C162.843 177.196 161.705 172.609 160.568 171.935C159.432 171.261 149.124 170.412 149.9 171.392C150.674 172.372 156.049 173.874 156.049 173.874C156.049 173.874 155.36 179.411 157.619 180.326Z" fill="#FFA683"/>
<path opacity="0.62" d="M224.645 184.777C224.338 184.482 223.996 184.2 223.608 183.935C216.594 179.147 193.811 204.848 193.811 204.848L162.844 177.197C162.844 177.197 191.901 208.04 194.093 208.04C196.097 208.04 213.617 185.606 224.645 184.777Z" fill="#E58365"/>
<path d="M222.744 155.996C222.744 155.996 225.502 153.815 227.217 157.042C228.24 158.968 225.899 161.316 224.856 164.106C223.813 166.897 223.589 170.881 228.211 172.712C232.833 174.544 221.045 186.801 226.222 196.462C232.235 207.684 243.04 207.924 248.631 198.067C254.222 188.211 249.234 181.958 246.401 177.073C243.568 172.188 245.606 172.048 245.979 168.211C246.352 164.373 242.822 159.28 241.108 158.06C239.394 156.839 242.668 144.559 236.406 140.46C230.144 136.36 217.395 131.717 210.979 151.161C210.979 151.161 215.247 155.44 222.744 155.996Z" fill="#442D68"/>
<path d="M218.353 410.528L219.023 417.356C219.023 419.361 217.773 420.986 216.232 420.986H195.976C194.887 420.986 194.465 419.143 195.38 418.373C198.056 416.125 206.914 412.897 209.72 410.656L218.353 410.528Z" fill="#7327CC"/>
<path opacity="0.62" d="M250.998 410.806L248.094 410.947L228.608 339.785C228.608 339.785 227.983 335.007 227.316 327.575C229.249 327.565 231.19 327.493 233.124 327.372C233.124 332.097 233.323 338.761 234.363 344.825C235.881 353.709 248.094 399.862 250.998 410.806Z" fill="#E58365"/>
<path opacity="0.62" d="M245.579 328.229C240.352 330.145 231.103 330.46 227.679 330.511C227.548 329.193 227.464 329.147 227.317 327.575C233.376 327.545 239.426 326.936 245.424 325.759C245.476 327.017 245.492 326.899 245.579 328.229Z" fill="#E58365"/>
<path d="M209.053 328.345C209.053 328.345 206.947 334.4 207.138 340.677C207.294 345.971 210.995 395.29 212.156 410.756L209.529 410.725L204.667 339.786C204.667 339.786 205.126 334.015 206.236 325.314C212 326.592 217.834 327.322 223.676 327.515C223.511 328.275 223.364 329.056 223.208 329.837C219.836 329.634 211.203 329.055 209.053 328.345Z" fill="#E58365"/>
<path d="M167.913 198.967L132.042 198.864C131.456 198.864 130.843 198.308 130.674 197.622L130.406 196.675C130.255 196.062 130.648 195.452 131.193 195.452L167.482 195.554C167.848 195.554 168.168 195.836 168.27 196.247L168.668 197.725C168.837 198.411 168.498 198.967 167.913 198.967Z" fill="#9B33B5"/>
<path d="M134.241 225.208L133.908 223.771H136.034L136.367 225.208C138.314 225.651 139.643 227.309 140.251 229.936L140.393 230.545H137.936L137.749 229.743C137.429 228.36 136.834 227.835 136.008 227.835C135.181 227.835 134.829 228.36 135.15 229.743C136.073 233.724 141.197 233.917 142.479 239.445C143.088 242.072 142.51 243.758 140.77 244.201L141.097 245.611H138.97L138.644 244.201C136.675 243.758 135.338 242.072 134.73 239.445L134.422 238.118H136.879L137.232 239.639C137.552 241.021 138.187 241.519 139.014 241.519C139.841 241.519 140.246 241.021 139.926 239.639C139.002 235.659 133.878 235.465 132.596 229.936C131.994 227.338 132.531 225.678 134.241 225.208Z" fill="#9B33B5"/>
<path d="M148.762 238.345L148.584 226.435H151.166L155.649 238.345H156.769L157.717 240.863H156.597L157.801 244.061H155.477L154.273 240.863H149.71L148.762 238.345ZM152.982 237.469L150.669 231.325L150.765 237.469H152.982Z" fill="#9B33B5"/>
<path d="M159.985 238.37L160.601 240.007C161.075 241.265 161.719 241.719 162.473 241.719C163.226 241.719 163.529 241.265 163.055 240.007L161.595 236.128C161.122 234.869 160.468 234.391 159.714 234.391C158.96 234.391 158.668 234.87 159.141 236.128L159.341 236.657H157.102L153.685 226.434H159.927L160.875 228.953H156.764L158.153 233.158C158.271 232.327 158.789 231.874 159.736 231.874C161.48 231.874 162.902 233.309 163.878 235.903L165.356 239.83C166.418 242.651 165.819 244.263 163.495 244.263C161.17 244.263 159.358 242.651 158.296 239.83L157.747 238.37H159.985Z" fill="#9B33B5"/>
<path d="M169.798 241.393L170.803 244.062H168.521L167.517 241.393H169.798Z" fill="#9B33B5"/>
<path d="M170.228 228.75C169.475 228.75 169.181 229.229 169.655 230.487L170.366 232.376H168.127L167.482 230.664C166.421 227.843 167.02 226.232 169.344 226.232C171.668 226.232 173.481 227.844 174.542 230.664C176.628 236.204 172.69 238.268 173.781 241.164C173.828 241.29 173.875 241.416 173.945 241.542H178.422L179.37 244.059H172.525L171.71 241.894C169.758 236.707 174.128 235.851 172.213 230.764C171.615 229.179 170.981 228.75 170.228 228.75Z" fill="#9B33B5"/>
<path d="M181.037 238.37L181.653 240.007C182.127 241.265 182.77 241.719 183.524 241.719C184.277 241.719 184.581 241.265 184.107 240.007L182.647 236.128C182.174 234.869 181.519 234.391 180.766 234.391C180.012 234.391 179.72 234.87 180.193 236.128L180.392 236.657H178.154L174.737 226.434H180.978L181.926 228.953H177.815L179.205 233.158C179.322 232.327 179.841 231.874 180.788 231.874C182.531 231.874 183.954 233.309 184.93 235.903L186.408 239.83C187.469 242.651 186.871 244.263 184.546 244.263C182.222 244.263 180.41 242.651 179.348 239.83L178.799 238.37H181.037Z" fill="#9B33B5"/>
<path d="M63.2084 379.795C61.7034 378.183 59.1413 380.626 49.652 375.014C35.8108 366.828 26.4233 317.225 26.4233 317.225C45.8345 310.455 48.9708 361.745 57.3814 369.593C61.1764 373.134 63.1312 376.765 64.136 379.686L63.2084 379.795Z" fill="#28AB52"/>
<path d="M33.8473 331.456C39.1934 345.854 45.8794 367.231 54.5878 373.277C57.0171 374.964 58.8616 376.979 60.2819 379.008C58.2918 378.807 55.1276 378.252 49.653 375.015C35.8128 366.829 26.4243 317.226 26.4243 317.226C26.4243 317.226 28.5013 317.056 33.8473 331.456Z" fill="#68F001"/>
<path d="M71.1019 380.592H68.9468C67.5458 376.423 67.0948 368.592 71.78 354.209C80.4498 327.591 84.8254 293.07 78.7831 282.917C78.7831 282.917 99.4732 303.547 94.7687 325.004C90.3535 345.143 68.1252 358.558 71.1019 380.592Z" fill="#28AB52"/>
<path d="M70.2249 380.592H68.9459C67.5438 376.426 67.095 368.593 71.7802 354.209C80.4499 327.591 84.8255 293.07 78.7832 282.917C78.7832 282.917 92.4392 304.161 87.2581 324.504C82.1423 344.588 66.3795 355.045 70.2249 380.592Z" fill="#68F001"/>
<path d="M87.8147 373.174C80.5813 377.296 77.4868 380.038 75.4698 383.509H72.9302C74.8282 375.481 75.9604 366.894 80.4164 360.401C85.4753 353.028 104.972 340.894 105.642 339.486C106.311 338.079 97.5846 367.606 87.8147 373.174Z" fill="#28AB52"/>
<path d="M75.1624 381.241C75.0114 381.885 74.7907 382.665 74.5283 383.509H72.9302C74.8282 375.481 75.9604 366.894 80.4164 360.401C85.4753 353.029 104.972 340.894 105.642 339.486C105.642 339.486 96.1792 356.089 85.6542 363.675C78.1188 369.109 76.1243 377.139 75.1624 381.241Z" fill="#68F001"/>
<path d="M65.1267 367.973C65.3924 373.244 66.2418 377.451 67.1469 380.593H65.6409C60.4726 371.259 52.5237 353.142 54.0115 331.988C56.187 301.074 58.5532 262.319 58.5532 262.319C58.5532 262.319 87.6431 293.173 73.3284 327.394C66.1914 344.456 64.6276 358.064 65.1267 367.973Z" fill="#28AB52"/>
<path d="M63.652 310.941C60.7021 336.559 60.6646 365.244 65.3648 377.382C64.5079 376.533 63.591 375.641 62.6527 374.735C57.9172 364.64 52.7907 349.333 54.0118 331.986C56.1873 301.072 58.5534 262.318 58.5534 262.318C58.5534 262.318 67.4899 277.601 63.652 310.941Z" fill="#68F001"/>
<path d="M86.1531 379.022H53.0442C50.1093 379.022 47.8834 382.117 48.3847 385.501L52.6157 414.009C53.2734 418.057 56.2983 420.987 59.8202 420.987H79.376C82.8979 420.987 85.9228 418.057 86.5804 414.009L90.8115 385.501C91.3138 382.117 89.088 379.022 86.1531 379.022Z" fill="#F6C19F"/>
<path d="M90.8745 384.744C90.9698 381.67 88.8672 379.022 86.1529 379.022H53.0441C50.3298 379.022 48.2271 381.67 48.3214 384.744H90.8745Z" fill="#FFA8A7"/>
<path d="M86.1534 379.022H76.9469C79.8818 379.022 82.1077 382.117 81.6064 385.501L77.3754 414.009C76.7177 418.057 73.6928 420.987 70.1709 420.987H79.3773C82.8992 420.987 85.9241 418.057 86.5818 414.009L90.8128 385.501C91.3141 382.117 89.0883 379.022 86.1534 379.022Z" fill="#FFA8A7"/>
<path d="M190.633 368.986H141.563V420.987H190.633V368.986Z" fill="#CB6DE2"/>
<path d="M168.097 381.916H148.77V386.42H168.097V381.916Z" fill="white"/>
<path d="M168.097 395.888H148.77V400.392H168.097V395.888Z" fill="white"/>
<path d="M190.633 368.986H174.669V420.987H190.633V368.986Z" fill="#B452CC"/>
<path d="M134.472 388.582H103.893V420.987H134.472V388.582Z" fill="#8050DD"/>
<path d="M122.215 403.51H108.219V407.742H122.215V403.51Z" fill="white"/>
<path d="M134.472 388.582H125.734V420.987H134.472V388.582Z" fill="#611FC9"/>
<path d="M261.136 20.4236C261.136 5.16324 234.395 0 201.407 0C168.42 0 141.678 5.16324 141.678 20.4236C141.678 35.684 168.419 48.0557 201.407 48.0557C234.395 48.0557 261.136 35.684 261.136 20.4236Z" fill="#F8EDFC"/>
<path opacity="0.33" d="M230.839 1.80371C237.674 4.97183 241.699 9.36309 241.699 15.2745C241.699 30.5349 214.958 42.9066 181.97 42.9066C175.177 42.9066 168.657 42.374 162.572 41.4078C173.015 45.5484 186.575 48.0548 201.407 48.0548C234.394 48.0548 261.136 35.6831 261.136 20.4227C261.136 10.115 248.925 4.41917 230.839 1.80371Z" fill="#EDBBF9"/>
<path d="M465.47 159.74H365.431C359.916 159.74 355.446 163.913 355.446 169.061V212.644C355.446 217.792 359.916 221.966 365.431 221.966H465.786C470.883 221.966 475.732 219.915 479.094 216.339L498.272 195.936C500.524 193.539 500.581 189.97 498.405 187.512L479.116 165.735C475.751 161.938 470.748 159.74 465.47 159.74Z" fill="#CB6DE2"/>
<path d="M378.819 191.708C378.819 191.377 378.686 191.068 378.419 190.78C378.163 190.492 377.843 190.231 377.459 189.996C377.075 189.751 376.542 189.447 375.859 189.084C375.059 188.657 374.414 188.289 373.923 187.98C373.433 187.66 373.011 187.292 372.659 186.876C372.318 186.449 372.147 185.98 372.147 185.468C372.147 184.935 372.377 184.364 372.835 183.756C373.305 183.137 373.875 182.62 374.547 182.204C375.219 181.777 375.838 181.564 376.403 181.564C377.086 181.564 377.881 181.644 378.787 181.804C379.705 181.964 380.371 182.135 380.787 182.316V185.58H379.827C379.337 184.716 378.793 184.044 378.195 183.564C377.609 183.084 376.99 182.844 376.339 182.844C375.795 182.844 375.369 183.015 375.059 183.356C374.75 183.687 374.595 184.119 374.595 184.652C374.595 185.004 374.729 185.335 374.995 185.644C375.262 185.943 375.593 186.215 375.987 186.46C376.393 186.705 376.937 187.004 377.619 187.356C378.398 187.761 379.033 188.119 379.523 188.428C380.014 188.737 380.425 189.1 380.755 189.516C381.097 189.932 381.267 190.391 381.267 190.892C381.267 191.425 381.017 192.001 380.515 192.62C380.025 193.228 379.422 193.745 378.707 194.172C377.993 194.588 377.342 194.796 376.755 194.796C376.041 194.796 375.187 194.716 374.195 194.556C373.214 194.396 372.505 194.225 372.067 194.044V190.78H373.043C373.555 191.644 374.142 192.316 374.803 192.796C375.465 193.276 376.142 193.516 376.835 193.516C377.433 193.516 377.913 193.34 378.275 192.988C378.638 192.625 378.819 192.199 378.819 191.708ZM391.734 194.46H388.454V193.068L386.646 194.492C386.433 194.577 386.166 194.62 385.846 194.62C384.886 194.62 384.188 194.385 383.75 193.916C383.324 193.436 383.11 192.86 383.11 192.188C383.11 191.793 383.244 191.409 383.51 191.036C383.788 190.652 384.177 190.289 384.678 189.948H388.454V189.212C388.454 187.996 387.804 187.388 386.502 187.388C385.82 187.388 384.945 187.745 383.878 188.46L383.398 187.74L385.67 185.932C386.118 185.815 386.678 185.756 387.35 185.756C388.406 185.756 389.228 186.007 389.814 186.508C390.401 187.009 390.694 187.74 390.694 188.7V193.1L392.134 193.66L391.734 194.46ZM386.47 192.94C387.068 192.94 387.729 192.668 388.454 192.124V190.764H385.718C385.505 191.02 385.398 191.329 385.398 191.692C385.398 192.044 385.494 192.343 385.686 192.588C385.889 192.823 386.15 192.94 386.47 192.94ZM397.633 194.46H392.929V193.804L394.353 192.652V183.244L392.929 182.268V181.612L395.825 180.492H396.593V193.132L398.033 193.66L397.633 194.46ZM405.152 194.444C404.662 194.561 404.059 194.62 403.344 194.62C402.608 194.62 401.947 194.439 401.36 194.076C400.784 193.703 400.331 193.201 400 192.572C399.67 191.932 399.504 191.228 399.504 190.46C399.504 189.628 399.76 188.855 400.272 188.14C400.795 187.415 401.446 186.839 402.224 186.412C403.003 185.975 403.755 185.756 404.48 185.756C405.536 185.756 406.358 186.167 406.944 186.988C407.531 187.809 407.819 188.913 407.808 190.3H401.936C402.022 191.111 402.262 191.767 402.656 192.268C403.062 192.769 403.606 193.02 404.288 193.02C405.003 193.02 406.027 192.545 407.36 191.596L407.824 192.332L405.152 194.444ZM403.568 187.292C402.512 187.292 401.958 188.023 401.904 189.484H405.376C405.291 188.961 405.195 188.556 405.088 188.268C404.992 187.969 404.822 187.735 404.576 187.564C404.342 187.383 404.006 187.292 403.568 187.292ZM421.147 191.708C421.147 191.377 421.014 191.068 420.747 190.78C420.491 190.492 420.171 190.231 419.787 189.996C419.403 189.751 418.87 189.447 418.187 189.084C417.387 188.657 416.742 188.289 416.251 187.98C415.761 187.66 415.339 187.292 414.987 186.876C414.646 186.449 414.475 185.98 414.475 185.468C414.475 184.935 414.705 184.364 415.163 183.756C415.633 183.137 416.203 182.62 416.875 182.204C417.547 181.777 418.166 181.564 418.731 181.564C419.414 181.564 420.209 181.644 421.115 181.804C422.033 181.964 422.699 182.135 423.115 182.316V185.58H422.155C421.665 184.716 421.121 184.044 420.523 183.564C419.937 183.084 419.318 182.844 418.667 182.844C418.123 182.844 417.697 183.015 417.387 183.356C417.078 183.687 416.923 184.119 416.923 184.652C416.923 185.004 417.057 185.335 417.323 185.644C417.59 185.943 417.921 186.215 418.315 186.46C418.721 186.705 419.265 187.004 419.947 187.356C420.726 187.761 421.361 188.119 421.851 188.428C422.342 188.737 422.753 189.1 423.083 189.516C423.425 189.932 423.595 190.391 423.595 190.892C423.595 191.425 423.345 192.001 422.843 192.62C422.353 193.228 421.75 193.745 421.035 194.172C420.321 194.588 419.67 194.796 419.083 194.796C418.369 194.796 417.515 194.716 416.523 194.556C415.542 194.396 414.833 194.225 414.395 194.044V190.78H415.371C415.883 191.644 416.47 192.316 417.131 192.796C417.793 193.276 418.47 193.516 419.163 193.516C419.761 193.516 420.241 193.34 420.603 192.988C420.966 192.625 421.147 192.199 421.147 191.708ZM435.023 194.46H431.743V192.908L429.839 194.492C429.615 194.577 429.305 194.62 428.911 194.62C428.153 194.62 427.551 194.401 427.103 193.964C426.655 193.516 426.431 192.913 426.431 192.156V188.492L425.007 187.66V187.004L427.903 185.644H428.671V191.196C428.671 191.761 428.756 192.156 428.927 192.38C429.097 192.593 429.396 192.7 429.823 192.7C430.121 192.7 430.42 192.647 430.719 192.54C431.017 192.433 431.359 192.231 431.743 191.932V188.492L430.319 187.66V187.004L433.215 185.644H433.983V193.132L435.423 193.66L435.023 194.46ZM441.759 194.62C441.236 194.62 440.762 194.471 440.335 194.172V197.068L442.655 197.724L442.255 198.524H436.671V197.868L438.095 196.732V188.492L436.671 187.628V186.972L439.647 185.612L440.207 187.596L442.383 185.884C442.724 185.799 443.114 185.756 443.551 185.756C444.159 185.756 444.703 185.943 445.183 186.316C445.674 186.679 446.058 187.175 446.335 187.804C446.612 188.433 446.751 189.132 446.751 189.9C446.751 190.732 446.49 191.511 445.967 192.236C445.455 192.961 444.81 193.543 444.031 193.98C443.252 194.407 442.5 194.62 441.775 194.62H441.759ZM442.655 187.548C442.26 187.548 441.882 187.617 441.519 187.756C441.167 187.884 440.767 188.129 440.319 188.492V191.132C440.319 191.687 440.522 192.151 440.927 192.524C441.343 192.887 441.93 193.068 442.687 193.068C443.786 193.068 444.335 192.268 444.335 190.668C444.335 189.783 444.191 189.041 443.903 188.444C443.615 187.847 443.199 187.548 442.655 187.548ZM453.681 194.62C453.158 194.62 452.684 194.471 452.257 194.172V197.068L454.577 197.724L454.177 198.524H448.593V197.868L450.017 196.732V188.492L448.593 187.628V186.972L451.569 185.612L452.129 187.596L454.305 185.884C454.646 185.799 455.036 185.756 455.473 185.756C456.081 185.756 456.625 185.943 457.105 186.316C457.596 186.679 457.98 187.175 458.257 187.804C458.534 188.433 458.673 189.132 458.673 189.9C458.673 190.732 458.412 191.511 457.889 192.236C457.377 192.961 456.732 193.543 455.953 193.98C455.174 194.407 454.422 194.62 453.697 194.62H453.681ZM454.577 187.548C454.182 187.548 453.804 187.617 453.441 187.756C453.089 187.884 452.689 188.129 452.241 188.492V191.132C452.241 191.687 452.444 192.151 452.849 192.524C453.265 192.887 453.852 193.068 454.609 193.068C455.708 193.068 456.257 192.268 456.257 190.668C456.257 189.783 456.113 189.041 455.825 188.444C455.537 187.847 455.121 187.548 454.577 187.548ZM465.731 185.756C466.467 185.756 467.128 185.943 467.715 186.316C468.302 186.679 468.755 187.175 469.075 187.804C469.406 188.433 469.571 189.132 469.571 189.9C469.571 190.732 469.31 191.511 468.787 192.236C468.275 192.961 467.63 193.543 466.851 193.98C466.072 194.407 465.32 194.62 464.595 194.62C463.859 194.62 463.198 194.439 462.611 194.076C462.035 193.703 461.582 193.201 461.251 192.572C460.92 191.932 460.755 191.228 460.755 190.46C460.755 189.628 461.011 188.855 461.523 188.14C462.046 187.415 462.696 186.839 463.475 186.412C464.254 185.975 465.006 185.756 465.731 185.756ZM464.803 187.292C464.27 187.292 463.864 187.495 463.587 187.9C463.32 188.305 463.187 188.903 463.187 189.692C463.187 190.663 463.39 191.468 463.795 192.108C464.2 192.748 464.776 193.068 465.523 193.068C466.611 193.068 467.155 192.263 467.155 190.652C467.155 189.692 466.952 188.892 466.547 188.252C466.142 187.612 465.56 187.292 464.803 187.292ZM476.509 187.66C476.04 187.66 475.56 187.905 475.069 188.396V192.988L477.389 193.66L476.989 194.46H471.405V193.804L472.829 192.652V188.492L471.405 187.628V186.972L474.381 185.612L474.925 187.5L476.509 185.884C476.701 185.799 476.979 185.756 477.341 185.756C477.779 185.756 478.157 185.863 478.477 186.076C478.797 186.289 479.032 186.588 479.181 186.972L477.933 188.54H477.165C477.133 188.231 477.064 188.012 476.957 187.884C476.861 187.745 476.712 187.676 476.509 187.676V187.66ZM484.926 194.492C484.638 194.577 484.286 194.62 483.87 194.62C482.921 194.62 482.228 194.391 481.79 193.932C481.364 193.463 481.15 192.743 481.15 191.772V187.212H479.422V186.476L482.622 182.86H483.39V186.396H486.27V187.212H483.39V191.836C483.39 192.263 483.492 192.572 483.694 192.764C483.908 192.956 484.222 193.052 484.638 193.052C484.862 193.052 485.076 193.015 485.278 192.94C485.492 192.855 485.753 192.7 486.062 192.476L486.542 193.212L484.926 194.492Z" fill="white"/>
</svg>
