<svg width="550" height="550" viewBox="0 0 550 550" fill="none" xmlns="http://www.w3.org/2000/svg">
<path d="M486.94 473.1C475.769 484.863 465.199 492.449 456.848 498.443C358.681 568.896 242.524 548.359 217.838 543.344C181.383 535.938 110.918 521.623 59.9723 461.697C-17.1037 371.035 -5.1018 228.198 54.6835 133.91C65.6192 116.663 123.385 20.9389 240.793 5.58782C311.847 -3.70246 394.673 15.0351 454.654 65.2993C580.558 170.808 571.595 383.956 486.94 473.1Z" fill="url(#paint0_linear_29_8466)"/>
<path d="M150.681 362.101C150.681 362.101 152.368 291.159 119.701 272.171C87.0337 253.184 24.9221 241.313 22.594 139.447C21.2308 79.8102 19.7557 53.7358 18.7669 42.3663C18.3812 37.9312 22.3213 34.3515 26.695 35.1753C57.6335 41.0051 158.139 65.0006 179.211 133.617C204.192 214.963 150.681 362.101 150.681 362.101Z" fill="#7BC57E"/>
<path opacity="0.5" d="M50.6216 63.5174C84.5827 93.8135 123.853 147.431 144.784 201.049C147.47 209.886 155.33 228.678 158.742 262.066C161.791 289.912 160.275 319.338 156.579 338.816C156.345 340.047 155.158 340.856 153.927 340.622C151.81 340.22 152.092 337.943 152.111 338.015C156.332 304.736 154.58 263.315 144.907 225.942C132.55 180.051 104.988 135.559 76.4798 97.8228L73.546 94.107C51.4591 65.7351 46.8095 65.5262 48.8741 63.5483C49.3619 63.0812 50.1253 63.0769 50.6216 63.5174Z" fill="white"/>
<path d="M203.178 498.497C207.598 500.664 161.336 442.476 146.845 351.087C140.016 308.022 139.927 254.065 115.402 233.272C94.9898 215.967 25.5309 226.892 2.80402 231.044C-0.0358661 231.563 -0.991821 235.151 1.21864 237.008C12.1176 246.164 35.432 267.759 41.5068 289.523C49.5138 318.21 76.7802 336.456 101.19 341.394C125.601 346.332 139.18 351.124 151.071 390.172C162.963 429.219 190.62 492.337 203.178 498.497Z" fill="#5CC9BF"/>
<path opacity="0.5" d="M34.768 243.165C63.7641 244.379 94.8892 257.61 110.684 282.427L112.175 284.795C115.618 290.348 135.132 329.822 145.97 362.544C146.105 362.952 145.884 363.392 145.476 363.527C144.783 363.756 144.436 362.994 144.502 363.061C136.951 344.576 126.106 321.139 117.468 303.613C108.206 284.489 101.723 271.537 80.5945 259.131C57.0777 245.771 34.6109 244.395 34.6784 244.409C34.3356 244.374 34.0859 244.068 34.121 243.725C34.1549 243.395 34.4415 243.152 34.768 243.165Z" fill="white"/>
<path d="M183.347 506.151C185.969 507.535 168.573 477.584 167.238 451.198C165.903 424.811 159.952 379.775 137.203 352.835C114.454 325.895 89.5418 323.437 58.1511 347.928C31.9922 368.337 15.6749 378.637 6.10546 380.552C3.73591 381.026 2.52664 383.702 3.67977 385.826C9.81759 397.131 27.1702 423.101 56.3064 421.272C93.4716 418.94 138.513 394.774 152.241 414.934C165.969 435.093 164.206 446.373 164.628 455.927C165.049 465.481 165.99 496.998 183.347 506.151Z" fill="#5CC9BF"/>
<path opacity="0.5" d="M68.6966 380.276C80.0821 369.358 98.6249 358.629 114.831 360.63C135.915 364.027 149.961 378.111 157.622 399.076C160.618 407.978 161.85 412.73 163.62 423.641C163.762 424.512 162.477 424.773 162.263 423.922C160.974 418.797 159.698 413.43 157.789 407.88C146.675 372.07 122.952 367.247 122.029 366.514C120.235 366.691 109.362 358.55 83.5626 372.436C78.7449 375.059 74.0552 378.053 69.6523 381.355L69.6279 381.374C69.3093 381.613 68.8575 381.548 68.6186 381.229C68.3976 380.934 68.4367 380.525 68.6966 380.276Z" fill="white"/>
<path d="M161.627 42.6643C149.335 43.7336 139.911 54.0306 139.875 66.3721C139.661 141.845 139.308 402.172 144.226 494.313C144.747 504.075 152.748 511.743 162.521 511.848C210.855 512.369 349.889 513.325 428.818 508.275C445.258 507.223 458.051 493.604 458.031 477.127C457.935 397.915 456.67 175.144 445.822 73.3186C444.522 61.1182 434.717 51.5952 422.488 50.6422C369.772 46.5337 229.783 36.7355 161.627 42.6643Z" fill="url(#paint1_linear_29_8466)"/>
<path d="M159.278 86.1517C158.328 150.712 155.626 365.478 160.344 444.745C161.033 456.331 170.03 465.478 181.14 465.865C226.882 467.459 344.18 470.545 411.018 463.189C423.054 461.864 432.252 451.429 432.573 438.794C434.245 372.91 438.761 172.881 434.175 94.5006C433.444 81.9969 423.893 72.0197 411.922 71.2129C362.394 67.8749 235.213 60.1765 178.376 64.9109C167.706 65.7996 159.442 74.9746 159.278 86.1517Z" fill="url(#paint2_linear_29_8466)"/>
<path d="M269.796 53.8893C269.835 55.6729 271.257 57.1134 273.04 57.1676C281.841 57.435 306.635 58.1942 317.718 58.5936C319.903 58.6724 321.572 56.6725 321.111 54.5347C321.073 54.4675 320.79 51.7263 317.991 51.5316C310.494 51.0102 287.878 49.6046 272.932 50.4669C269.863 50.6443 269.696 54.1353 269.796 53.8893Z" fill="url(#paint3_linear_29_8466)"/>
<path d="M243.545 222.194C280.065 222.194 309.671 192.581 309.671 156.051C309.671 119.521 280.065 89.9082 243.545 89.9082C207.024 89.9082 177.418 119.521 177.418 156.051C177.418 192.581 207.024 222.194 243.545 222.194Z" fill="white"/>
<mask id="mask0_29_8466" style="mask-type:luminance" maskUnits="userSpaceOnUse" x="184" y="97" width="119" height="118">
<path d="M243.545 214.957C276.069 214.957 302.436 188.584 302.436 156.051C302.436 123.518 276.069 97.1455 243.545 97.1455C211.02 97.1455 184.654 123.518 184.654 156.051C184.654 188.584 211.02 214.957 243.545 214.957Z" fill="white"/>
</mask>
<g mask="url(#mask0_29_8466)">
<path d="M243.801 166.821C258.054 166.821 269.609 155.263 269.609 141.006C269.609 126.749 258.054 115.191 243.801 115.191C229.547 115.191 217.992 126.749 217.992 141.006C217.992 155.263 229.547 166.821 243.801 166.821Z" fill="url(#paint4_linear_29_8466)"/>
</g>
<mask id="mask1_29_8466" style="mask-type:luminance" maskUnits="userSpaceOnUse" x="184" y="97" width="119" height="118">
<path d="M243.545 214.957C276.069 214.957 302.436 188.584 302.436 156.051C302.436 123.518 276.069 97.1455 243.545 97.1455C211.02 97.1455 184.654 123.518 184.654 156.051C184.654 188.584 211.02 214.957 243.545 214.957Z" fill="white"/>
</mask>
<g mask="url(#mask1_29_8466)">
<path d="M204.6 218.525H286.822C291.862 218.525 294.883 212.01 292.168 207.038C285.184 194.246 270.572 175.453 245.266 176.301C220.876 177.118 206.42 194.094 199.152 206.268C196.067 211.436 199.213 218.525 204.6 218.525Z" fill="url(#paint5_linear_29_8466)"/>
</g>
<g opacity="0.8">
<path d="M410.849 134.193L335.259 133.038C333.953 133.018 332.901 131.934 332.921 130.627L333.095 119.274C333.115 117.968 334.199 116.916 335.505 116.936L411.095 118.09C412.4 118.11 413.452 119.195 413.432 120.501L413.259 131.854C413.239 133.16 412.154 134.212 410.849 134.193Z" fill="white"/>
<path d="M410.375 167.176L334.785 166.022C333.479 166.002 332.427 164.917 332.447 163.611L332.62 152.258C332.64 150.952 333.725 149.899 335.031 149.919L410.62 151.073C411.926 151.093 412.978 152.178 412.958 153.484L412.785 164.838C412.765 166.144 411.68 167.196 410.375 167.176Z" fill="white"/>
<path d="M409.842 200.158L334.252 199.004C332.946 198.984 331.895 197.899 331.914 196.593L332.088 185.24C332.108 183.934 333.192 182.882 334.498 182.902L410.088 184.056C411.393 184.076 412.445 185.161 412.426 186.467L412.252 197.82C412.232 199.126 411.148 200.178 409.842 200.158Z" fill="white"/>
</g>
<path d="M344.431 83.8214C344.174 83.7241 343.982 83.487 343.961 83.2001C343.89 82.2536 343.839 81.2897 343.807 80.3355C343.794 79.9434 344.107 79.6204 344.505 79.6136C345.471 79.592 345.21 80.5561 345.401 83.1176C345.43 83.5088 345.132 83.8448 344.734 83.8674C344.628 83.8733 344.525 83.8569 344.431 83.8214Z" fill="#BDD0FB"/>
<path d="M344.094 71.4114C344.271 69.5965 344.524 67.7664 344.845 65.9725C344.914 65.5874 345.288 65.335 345.681 65.4088C346.75 65.6161 346.053 66.219 345.531 71.568C345.493 71.9577 345.141 72.2384 344.744 72.1952C344.342 72.1509 344.056 71.7964 344.094 71.4114ZM346.973 57.3211C347.524 55.5746 348.154 53.8174 348.826 52.1598C349.185 51.2683 350.514 51.8479 350.168 52.7017C349.5 54.3547 348.892 56.0503 348.353 57.7597C348.236 58.1327 347.832 58.3365 347.451 58.2154C347.065 58.0928 346.857 57.6902 346.973 57.3211ZM352.691 44.1362C353.586 42.5511 354.558 40.9815 355.579 39.4706C356.106 38.6922 357.309 39.4936 356.785 40.2684C355.785 41.7486 354.833 43.2868 353.956 44.8395C353.495 45.6566 352.231 44.9508 352.691 44.1362ZM361.127 33.4175C360.825 33.1578 360.79 32.7092 361.05 32.4157C362.26 31.049 363.542 29.7124 364.86 28.4431C365.538 27.7909 366.556 28.8126 365.879 29.4648C364.587 30.7083 363.331 32.0181 362.145 33.3568C361.885 33.6509 361.429 33.6779 361.127 33.4175ZM371.565 23.6534C371.321 23.3391 371.38 22.8945 371.697 22.6599C373.169 21.5676 374.704 20.5199 376.259 19.5457C377.059 19.0467 377.848 20.2447 377.048 20.7465C375.524 21.7011 374.02 22.7276 372.577 23.7979C372.262 24.0322 371.808 23.9677 371.565 23.6534ZM384.23 16.5694C384.061 16.5055 383.915 16.3807 383.83 16.2077C383.656 15.8527 383.806 15.4299 384.164 15.264C385.837 14.4905 387.56 13.7736 389.286 13.1323C389.657 12.9944 390.076 13.1799 390.222 13.5472C390.368 13.9143 390.185 14.3235 389.814 14.4614C388.122 15.0894 386.434 15.7926 384.795 16.5503C384.611 16.6355 384.407 16.6364 384.23 16.5694ZM397.858 11.8807C397.642 11.7991 397.468 11.6184 397.408 11.3821C397.31 11.0005 397.544 10.6179 397.931 10.5275C399.73 10.1066 401.57 9.75083 403.4 9.47027C403.792 9.40915 404.166 9.67444 404.233 10.0626C404.3 10.4497 404.036 10.8128 403.643 10.8729C401.851 11.1481 400.048 11.4967 398.285 11.9091C398.138 11.9436 397.99 11.9305 397.858 11.8807ZM411.743 9.39011C411.726 8.99803 412.036 8.67221 412.434 8.6615C414.287 8.61269 416.169 8.6361 418.027 8.73075C418.983 8.78214 418.925 10.1967 417.973 10.1485C416.154 10.0556 414.31 10.0332 412.495 10.0808C412.097 10.0915 411.76 9.78278 411.743 9.39011ZM457.994 24.8104C453.67 21.5073 452.698 21.5609 453.291 20.6654C453.507 20.3388 453.953 20.2517 454.289 20.4678C455.85 21.4793 457.391 22.5651 458.869 23.6943C459.628 24.2735 458.756 25.3908 457.994 24.8104ZM426.235 10.3338C426.3 9.94806 426.672 9.6919 427.065 9.76195C428.895 10.0872 430.737 10.487 432.542 10.9511C433.469 11.19 433.122 12.5625 432.196 12.3242C430.428 11.8696 428.622 11.4773 426.829 11.1586C426.432 11.0876 426.17 10.7156 426.235 10.3338ZM445.73 17.2728C440.837 14.9066 439.884 15.1499 440.278 14.1479C440.528 13.5123 441.298 13.75 441.211 13.7536C442.949 14.4358 444.679 15.1919 446.351 16.0001C446.711 16.1741 446.864 16.6001 446.692 16.9513C446.529 17.2869 446.113 17.452 445.73 17.2728Z" fill="#BDD0FB"/>
<path d="M466.74 32.7212C465.082 30.9497 464.053 30.3497 464.742 29.6737C465.022 29.3992 465.479 29.4012 465.763 29.683C467.551 31.4458 468.448 32.1488 467.76 32.7706C467.553 32.9571 467.011 33.0105 466.74 32.7212Z" fill="#BDD0FB"/>
<path d="M486.049 84.457C485.761 84.3479 485.562 84.0643 485.579 83.7466C485.629 82.8141 485.66 81.8702 485.671 80.9406C485.676 80.5487 486.003 80.2397 486.402 80.2503C486.8 80.262 487.12 80.5868 487.115 80.9793C487.104 81.9279 487.072 82.8911 487.021 83.8429C487 84.234 486.66 84.5296 486.262 84.503C486.187 84.4981 486.116 84.4822 486.049 84.457Z" fill="#BDD0FB"/>
<path d="M388.686 144.067C386.828 143.307 384.981 142.461 383.195 141.552C382.839 141.371 382.695 140.942 382.874 140.595C383.38 139.616 383.789 140.534 389.223 142.758C389.593 142.909 389.773 143.325 389.624 143.687C389.365 144.318 388.599 144.07 388.686 144.067ZM397.464 146.306C397.738 145.241 398.369 146.055 404.115 147.071C404.51 147.139 404.775 147.51 404.711 147.896C404.646 148.282 404.274 148.538 403.881 148.468C401.915 148.121 399.932 147.686 397.988 147.176C397.598 147.073 397.367 146.683 397.464 146.306ZM374.776 136.529C373.131 135.39 371.512 134.168 369.965 132.896C369.657 132.642 369.613 132.194 369.866 131.895C370.579 131.051 370.772 132.034 375.595 135.372C375.924 135.6 376.006 136.043 375.781 136.363C375.554 136.682 375.105 136.756 374.776 136.529ZM413.384 149.477C413.102 149.371 412.904 149.098 412.912 148.786C412.923 148.394 413.254 148.09 413.653 148.106C415.614 148.185 417.598 148.183 419.55 148.099C419.949 148.083 420.29 148.386 420.313 148.777C420.337 149.169 420.033 149.5 419.635 149.518C417.643 149.603 415.617 149.605 413.615 149.524C413.534 149.521 413.456 149.504 413.384 149.477ZM428.938 148.407C428.71 148.321 428.53 148.124 428.479 147.872C428.402 147.486 428.656 147.117 429.047 147.046C430.967 146.701 432.895 146.27 434.779 145.765C435.163 145.662 435.562 145.886 435.673 146.264C435.782 146.643 435.561 147.033 435.178 147.135C433.255 147.65 431.287 148.09 429.327 148.443C429.193 148.467 429.059 148.453 428.938 148.407ZM443.826 144.003C443.65 143.937 443.498 143.803 443.416 143.618C443.255 143.257 443.42 142.841 443.785 142.688C445.576 141.936 447.357 141.1 449.077 140.203C449.428 140.021 449.865 140.154 450.057 140.5C450.248 140.848 450.119 141.277 449.769 141.459C448.013 142.375 446.196 143.228 444.368 143.995C444.189 144.07 443.996 144.067 443.826 144.003ZM457.336 136.499C457.209 136.45 457.093 136.366 457.006 136.249C456.769 135.93 456.837 135.487 457.159 135.259C458.735 134.14 460.283 132.94 461.757 131.693C462.057 131.439 462.513 131.474 462.776 131.774C463.039 132.073 463.009 132.521 462.708 132.774C461.204 134.047 459.625 135.272 458.016 136.414C457.812 136.559 457.557 136.582 457.336 136.499ZM468.593 126.118C467.746 125.382 468.743 125.235 472.196 120.631C472.758 119.881 473.925 120.734 473.362 121.485C472.184 123.055 470.922 124.596 469.611 126.061C469.351 126.352 468.895 126.38 468.593 126.118ZM477.593 113.692C476.604 113.156 477.536 112.803 479.865 107.544C480.242 106.691 481.57 107.269 481.19 108.127C480.395 109.921 479.514 111.701 478.57 113.417C478.379 113.764 477.935 113.881 477.593 113.692ZM483.507 99.5723C483.158 99.4404 482.961 99.0659 483.063 98.7088C483.593 96.8529 484.049 94.9598 484.417 93.0822C484.492 92.6984 484.871 92.452 485.262 92.5315C485.655 92.6137 485.91 92.9871 485.835 93.3711C485.46 95.2872 484.995 97.2186 484.453 99.112C484.346 99.4878 483.948 99.7023 483.564 99.5908C483.544 99.5856 483.525 99.5793 483.507 99.5723Z" fill="#BDD0FB"/>
<path d="M362.819 126.155C361.112 124.311 360.251 123.571 360.968 122.982C361.715 122.369 362.133 123.32 363.88 125.209C364.151 125.501 364.132 125.95 363.839 126.211C363.546 126.472 363.089 126.447 362.819 126.155Z" fill="#BDD0FB"/>
<path d="M370.713 108.211L380.974 106.94C384.1 110.618 387.837 113.841 392.1 116.436C392.501 126.332 391.828 127.054 392.885 127.407L404.71 131.347C405.055 131.462 405.434 131.35 405.652 131.068L411.879 123.027C416.842 123.507 421.759 123.167 426.457 122.096L433.921 129.273C434.183 129.525 434.576 129.588 434.899 129.43L445.968 124.036C446.291 123.879 446.474 123.535 446.424 123.181L444.976 113.072C448.67 110.054 451.892 106.427 454.466 102.275L464.82 102.236C465.183 102.235 465.502 102.007 465.614 101.669L469.443 90.1008C469.555 89.7626 469.435 89.3886 469.145 89.1698L460.871 82.9245C461.284 78.0514 460.865 73.2117 459.704 68.5758C466.573 61.3656 467.539 61.3592 467.037 60.3854C461.302 49.7266 461.629 48.8194 460.506 48.9581L450.245 50.229C447.119 46.5509 443.382 43.3275 439.119 40.7334C438.719 30.8432 439.392 30.1152 438.334 29.7623C426.518 26.0494 426.236 25.2363 425.567 26.101L419.339 34.1424C414.376 33.6622 409.46 34.0015 404.762 35.0728C397.414 28.2927 397.318 27.2522 396.32 27.7388C385.461 33.2689 384.639 32.8961 384.795 33.988L386.243 44.0966C382.549 47.1148 379.327 50.7415 376.752 54.8943C366.869 55.1338 365.954 54.4435 365.605 55.4999C362.023 67.0119 361.179 67.3232 362.074 67.999L370.347 74.2445C369.934 79.1171 370.354 83.9572 371.514 88.5932C364.669 95.779 363.678 95.8044 364.182 96.7836C369.916 107.442 369.59 108.35 370.713 108.211Z" fill="#91B3FA"/>
<path d="M403.516 77.6201C403.956 71.0712 409.739 66.1757 416.407 66.7075C423.075 67.2413 428.142 72.9998 427.703 79.5489C427.262 86.0978 421.48 90.9933 414.812 90.4619C408.142 89.9301 403.077 84.1676 403.516 77.6201ZM416.265 68.83C410.853 68.3981 406.044 72.3327 405.678 77.7921C405.316 83.1707 409.478 87.9037 414.954 88.3388C420.431 88.7753 425.18 84.7547 425.542 79.3763C425.903 73.9898 421.732 69.2648 416.265 68.83Z" fill="white"/>
<path d="M405.06 106.945C403.38 106.31 401.756 105.537 400.218 104.637C399.755 104.367 399.565 103.816 399.744 103.342C399.765 103.285 399.792 103.23 399.824 103.176C400.124 102.672 400.788 102.51 401.304 102.811C403.073 103.846 404.966 104.701 406.928 105.356C421.716 110.284 437.614 102.839 442.949 88.7103C443.085 88.3496 443.214 87.9843 443.337 87.6149C448.277 72.6884 439.88 56.5941 424.74 51.5446C409.621 46.5065 393.266 54.4009 388.332 69.2861C385.399 78.1476 387.962 84.0941 387.618 85.0064C387.245 85.9922 385.787 85.8769 385.546 84.8473C384.23 79.223 384.523 73.1569 386.688 67.4217C396.034 42.676 431.24 41.169 443.508 64.9655C447.284 72.2884 447.955 80.5761 445.397 88.3014C445.265 88.701 445.125 89.0969 444.977 89.4888C442.268 96.6651 436.979 102.451 429.97 105.867C422.578 109.468 414.158 110.003 406.262 107.371C405.858 107.238 405.457 107.095 405.06 106.945Z" fill="white"/>
<path d="M491.55 55.5604C493.436 57.4897 495.643 59.1322 498.116 60.3932L498.639 66.1432C498.697 66.7813 499.226 66.4954 505.726 68.2173C506.327 68.3649 506.223 67.8211 509.37 63.1633C512.145 63.1943 514.862 62.7643 517.428 61.9309L521.866 65.6293C522.359 66.0396 522.529 65.4634 528.343 62.0833C528.516 61.9784 528.604 61.7752 528.561 61.5774L527.346 55.9291C529.275 54.0429 530.917 51.8353 532.177 49.3614C537.66 48.7466 538.193 49.0909 538.344 48.4788C539.866 41.7866 540.32 41.5753 539.796 41.2372L534.947 38.1049C534.978 35.3284 534.548 32.6108 533.715 30.0446L537.412 25.6058C537.822 25.1137 537.246 24.942 533.867 19.1269C533.549 18.5995 533.26 19.0507 527.715 20.1244C525.829 18.1949 523.622 16.5528 521.148 15.2916L520.625 9.54138C520.567 8.90266 520.039 9.18918 513.538 7.46728C512.941 7.32005 513.057 7.84011 509.895 12.5213C507.119 12.4899 504.402 12.9203 501.837 13.7537L497.399 10.0553C497.243 9.92552 497.023 9.90905 496.85 10.0138L490.922 13.6011C490.748 13.7058 490.661 13.909 490.703 14.1072L491.919 19.7553C489.99 21.6415 488.348 23.8491 487.087 26.3231C481.604 26.9378 481.071 26.5935 480.921 27.2056C479.399 33.8952 478.944 34.1083 479.469 34.4472L484.318 37.5793C484.287 40.3558 484.717 43.0734 485.55 45.6396C482.107 49.9522 481.484 50.0868 481.811 50.6279L485.398 56.5573C485.718 57.0879 486.033 56.6285 491.55 55.5604Z" fill="#91B3FA"/>
<path d="M502.403 37.8856C502.38 33.889 505.593 30.6349 509.59 30.6115C513.584 30.5875 516.838 33.8023 516.862 37.7991C516.885 41.7861 513.662 45.0498 509.675 45.0736C505.689 45.0968 502.427 41.8735 502.403 37.8856ZM504.557 37.8725C504.575 40.6718 506.866 42.935 509.662 42.9185C514.155 42.8912 516.407 37.4024 513.199 34.2319C510.006 31.076 504.531 33.3489 504.557 37.8725Z" fill="white"/>
<path d="M474.2 51.1962C473.857 50.2878 473.546 49.3533 473.275 48.4179C473.164 48.0367 473.383 47.6385 473.764 47.5278C474.723 47.2492 474.661 48.3465 475.544 50.6892C475.684 51.0607 475.497 51.475 475.125 51.6149C474.756 51.7546 474.341 51.5692 474.2 51.1962Z" fill="#BDD0FB"/>
<path d="M471.792 38.9283C471.738 37.0215 471.824 35.0262 472.08 33.0175C472.2 32.0727 473.624 32.259 473.505 33.1989C472.843 38.4031 473.732 39.593 472.53 39.6264C472.13 39.6371 471.803 39.3228 471.792 38.9283ZM474.893 24.6557C474.525 24.5077 474.346 24.0894 474.494 23.7209C475.228 21.895 476.113 20.111 477.125 18.4189C477.614 17.604 478.846 18.3407 478.358 19.1568C477.385 20.7845 476.533 22.5004 475.827 24.2569C475.567 24.9033 474.806 24.6596 474.893 24.6557ZM483.305 12.0535C483.211 12.018 483.123 11.9623 483.048 11.8863C482.769 11.6037 482.773 11.1489 483.055 10.8702C484.458 9.48657 485.979 8.20299 487.578 7.05532C487.9 6.82436 488.35 6.89797 488.58 7.2198C488.812 7.54204 488.738 7.99127 488.416 8.22223C486.878 9.32684 485.414 10.562 484.064 11.8932C483.857 12.0964 483.559 12.1498 483.305 12.0535ZM496.025 3.83295C495.84 3.76311 495.685 3.61786 495.608 3.41905C495.466 3.04899 495.65 2.6329 496.02 2.49044C497.857 1.78187 499.765 1.214 501.692 0.802668C502.08 0.720324 502.461 0.967355 502.544 1.35567C502.627 1.74358 502.38 2.12514 501.991 2.20808C500.139 2.60334 498.303 3.14939 496.537 3.83077C496.366 3.89705 496.184 3.89307 496.025 3.83295ZM510.508 0.688574C510.525 0.292326 510.86 -0.0160223 511.256 0.000645104C513.23 0.0835852 515.206 0.321894 517.131 0.708617C518.06 0.890966 517.782 2.30471 516.848 2.1174C514.996 1.74516 513.095 1.51619 511.196 1.43662C510.79 1.41817 510.492 1.07708 510.508 0.688574Z" fill="#BDD0FB"/>
<path d="M528.107 6.42878C525.837 5.09023 524.873 5.00372 525.299 4.13265C525.473 3.77628 525.895 3.6235 526.26 3.80307C527.129 4.22809 527.996 4.69517 528.837 5.19102C529.179 5.39242 529.292 5.83292 529.091 6.175C528.892 6.51132 528.457 6.63275 528.107 6.42878Z" fill="#BDD0FB"/>
<path d="M545.353 30.6491C544.833 28.0549 544.255 27.2866 545.189 27.0233C545.571 26.9154 545.967 27.1378 546.075 27.5194C546.338 28.4514 546.569 29.4094 546.761 30.3665C546.839 30.7556 546.587 31.1344 546.198 31.212C545.81 31.2904 545.43 31.0388 545.353 30.6491Z" fill="#BDD0FB"/>
<path d="M499.754 73.6649C500.048 72.5083 500.978 73.6121 506.144 74.1034C507.087 74.1911 506.956 75.6239 506.008 75.534C504.076 75.3503 502.147 75.0152 500.273 74.5384C499.895 74.4431 499.655 74.0546 499.754 73.6649ZM514.624 74.6612C514.564 74.2691 514.833 73.9022 515.225 73.8421C520.397 73.0464 521.214 71.8914 521.577 73.0329C521.697 73.4113 521.488 73.8151 521.11 73.9354C519.266 74.5211 517.359 74.9679 515.443 75.2624C515.051 75.3221 514.685 75.0533 514.624 74.6612ZM528.687 69.7427C528.053 68.7278 529.482 68.8298 533.421 65.4294C534.14 64.8096 535.08 65.8961 534.359 66.5176C532.891 67.7843 531.316 68.9467 529.676 69.9711C529.34 70.1812 528.897 70.0796 528.687 69.7427ZM539.686 59.6873C538.704 59 540.063 58.5345 542.355 53.8645C542.773 53.0122 544.064 53.6432 543.645 54.4972C542.792 56.2346 541.797 57.921 540.686 59.5101C540.459 59.8359 540.011 59.9137 539.686 59.6873ZM545.302 45.2704C546.364 40.1492 545.568 38.9733 546.767 39.0345C547.163 39.0543 547.468 39.392 547.448 39.7883C547.349 41.729 547.1 43.6716 546.708 45.5625C546.628 45.9508 546.247 46.2006 545.859 46.1199C545.471 46.0395 545.221 45.6597 545.302 45.2704Z" fill="#BDD0FB"/>
<path d="M491.456 71.061C490.603 70.5931 489.759 70.0864 488.946 69.5552C488.614 69.3379 488.521 68.8929 488.738 68.5605C489.285 67.7246 489.949 68.595 492.147 69.801C492.495 69.9921 492.622 70.4287 492.431 70.7765C492.238 71.1295 491.797 71.2491 491.456 71.061Z" fill="#BDD0FB"/>
<path d="M501.975 53.7703C501.361 53.4746 501.194 52.8157 501.44 52.3107C501.701 51.7755 502.352 51.5545 502.881 51.8144C503.874 52.2986 504.928 52.6801 506.014 52.9478C506.248 52.9593 511.863 54.7523 517.848 51.1422C529.715 43.9599 526.973 25.8822 513.489 22.5648C505.732 20.6555 497.876 24.9226 495.122 32.2193C492.347 39.5679 496.315 43.0085 494.084 43.6938C493.516 43.8694 492.913 43.5502 492.737 42.9811C491.792 39.9129 491.701 36.6356 492.472 33.5025C494.811 23.9884 504.462 18.1233 514.005 20.472C524.273 22.9987 530.199 33.9885 526.389 44.0802C523.316 52.2194 514.495 57.2553 505.499 55.0408C505.499 55.0408 505.499 55.0408 505.498 55.0406C504.281 54.7404 503.095 54.3133 501.975 53.7703Z" fill="white"/>
<path d="M343.558 448.882H261.315C258.624 448.882 256.423 446.68 256.423 443.99V420.598C256.423 417.907 258.624 415.705 261.315 415.705H343.558C346.248 415.705 348.449 417.907 348.449 420.598V443.99C348.449 446.68 346.248 448.882 343.558 448.882Z" fill="url(#paint6_linear_29_8466)"/>
<g opacity="0.8">
<path d="M405.127 295.57H219.575C218.099 295.57 216.892 294.362 216.892 292.886V279.986C216.892 278.51 218.099 277.303 219.575 277.303H405.127C406.603 277.303 407.81 278.51 407.81 279.986V292.886C407.81 294.362 406.603 295.57 405.127 295.57Z" fill="white"/>
<path d="M192.402 297.456C198.517 297.456 203.474 292.497 203.474 286.381C203.474 280.265 198.517 275.307 192.402 275.307C186.288 275.307 181.331 280.265 181.331 286.381C181.331 292.497 186.288 297.456 192.402 297.456Z" fill="white"/>
<path d="M405.127 329.849H219.575C218.099 329.849 216.892 328.642 216.892 327.166V314.266C216.892 312.79 218.099 311.582 219.575 311.582H405.127C406.603 311.582 407.81 312.79 407.81 314.266V327.166C407.81 328.642 406.603 329.849 405.127 329.849Z" fill="white"/>
<path d="M196.652 330.896C202.302 328.555 204.984 322.077 202.644 316.426C200.304 310.775 193.827 308.092 188.178 310.433C182.528 312.773 179.846 319.252 182.186 324.903C184.526 330.553 191.003 333.237 196.652 330.896Z" fill="white"/>
<path d="M405.127 364.127H219.575C218.099 364.127 216.892 362.919 216.892 361.443V348.543C216.892 347.067 218.099 345.859 219.575 345.859H405.127C406.603 345.859 407.81 347.067 407.81 348.543V361.443C407.81 362.919 406.603 364.127 405.127 364.127Z" fill="white"/>
<path d="M192.402 366.012C198.517 366.012 203.474 361.054 203.474 354.938C203.474 348.821 198.517 343.863 192.402 343.863C186.288 343.863 181.331 348.821 181.331 354.938C181.331 361.054 186.288 366.012 192.402 366.012Z" fill="white"/>
<path d="M405.128 398.406H219.575C218.099 398.406 216.892 397.199 216.892 395.722V382.822C216.892 381.346 218.099 380.139 219.575 380.139H405.128C406.603 380.139 407.811 381.346 407.811 382.822V395.722C407.811 397.199 406.604 398.406 405.128 398.406Z" fill="white"/>
<path d="M196.654 399.454C202.303 397.113 204.986 390.635 202.646 384.984C200.306 379.333 193.829 376.65 188.179 378.99C182.53 381.331 179.847 387.809 182.187 393.46C184.527 399.111 191.004 401.794 196.654 399.454Z" fill="white"/>
</g>
<path d="M131.125 117.349L127.409 120.22L127.399 120.228C127.134 120.432 126.754 120.384 126.549 120.119C126.345 119.854 126.394 119.473 126.658 119.269C126.66 119.267 126.665 119.263 126.667 119.262L130.455 116.445C130.704 116.26 131.056 116.312 131.242 116.561C131.425 116.807 131.376 117.154 131.135 117.341L131.125 117.349Z" fill="white"/>
<path d="M118.156 127.915C115.808 129.968 113.503 132.071 111.23 134.206C110.908 134.509 110.402 134.493 110.099 134.171C109.797 133.849 109.813 133.343 110.135 133.04C110.136 133.038 110.141 133.034 110.143 133.032C112.46 130.916 114.825 128.851 117.223 126.827C117.525 126.572 117.977 126.61 118.233 126.913C118.485 127.212 118.45 127.658 118.156 127.915Z" fill="white"/>
<path d="M102.66 142.645C100.491 144.885 98.3626 147.164 96.2778 149.481C95.9276 149.87 95.329 149.902 94.9405 149.552C94.5517 149.202 94.5202 148.603 94.8699 148.214C94.8719 148.212 94.8771 148.207 94.8789 148.205C97.0112 145.899 99.1861 143.633 101.401 141.408C101.745 141.063 102.304 141.062 102.649 141.406C102.991 141.746 102.995 142.299 102.66 142.645Z" fill="white"/>
<path d="M88.4527 158.605C86.4819 161.019 84.5565 163.469 82.6789 165.954C82.3147 166.436 81.6288 166.532 81.1465 166.168C80.6645 165.803 80.5688 165.117 80.9331 164.635C80.935 164.633 80.9406 164.625 80.9422 164.623C82.871 162.142 84.8467 159.697 86.8672 157.291C87.233 156.856 87.8822 156.799 88.3178 157.165C88.7493 157.528 88.808 158.17 88.4527 158.605Z" fill="white"/>
<path d="M75.679 175.715C73.9286 178.29 72.2287 180.899 70.582 183.54C70.2194 184.122 69.4539 184.299 68.8723 183.936C68.2906 183.574 68.1129 182.808 68.4759 182.226C68.4775 182.223 68.4831 182.215 68.485 182.212C70.1855 179.565 71.9387 176.954 73.7419 174.378C74.115 173.845 74.8486 173.716 75.381 174.089C75.9087 174.458 76.04 175.184 75.679 175.715Z" fill="white"/>
<path d="M64.4891 193.879C62.9763 196.598 61.5194 199.347 60.1215 202.125C59.7863 202.791 58.9747 203.059 58.3086 202.724C57.6427 202.389 57.3747 201.577 57.7099 200.911L57.7149 200.901C59.1537 198.101 60.651 195.331 62.2042 192.595C62.5615 191.965 63.3615 191.744 63.9912 192.102C64.6172 192.457 64.8384 193.251 64.4891 193.879Z" fill="white"/>
<path d="M55.0235 212.98C53.7795 215.829 52.5966 218.705 51.4766 221.604C51.1899 222.346 50.3564 222.715 49.6145 222.429C48.8725 222.142 48.5034 221.308 48.79 220.566L48.7944 220.555C49.9541 217.626 51.177 214.723 52.4611 211.847C52.7767 211.141 53.6049 210.824 54.3113 211.14C55.0139 211.454 55.3305 212.276 55.0235 212.98Z" fill="white"/>
<path d="M47.4736 232.902C46.5186 235.859 45.6285 238.836 44.8049 241.832C44.5809 242.647 43.7388 243.125 42.9243 242.901C42.1096 242.677 41.6307 241.835 41.8551 241.02L41.8583 241.008C42.7194 237.976 43.6472 234.964 44.6406 231.973C44.9005 231.192 45.7442 230.769 46.525 231.029C47.3022 231.287 47.7245 232.124 47.4736 232.902Z" fill="white"/>
<path d="M41.9579 253.469C41.3056 256.506 40.7204 259.557 40.2021 262.619C40.0529 263.501 39.2168 264.095 38.335 263.946C37.4528 263.797 36.8591 262.96 37.0083 262.078L37.0107 262.065C37.5628 258.96 38.1829 255.868 38.8704 252.792C39.0609 251.94 39.9059 251.404 40.7575 251.594C41.6048 251.784 42.1394 252.622 41.9579 253.469Z" fill="white"/>
<path d="M38.6223 274.477C38.3005 277.569 38.0337 280.668 37.8171 283.771C37.7514 284.713 36.9347 285.424 35.9926 285.358C35.0508 285.292 34.3404 284.475 34.4061 283.533L34.4074 283.519C34.653 280.38 34.949 277.246 35.3017 274.117C35.4049 273.2 36.2319 272.54 37.1484 272.643C38.0599 272.746 38.7171 273.566 38.6223 274.477Z" fill="white"/>
<path d="M37.2275 295.754C37.1353 298.864 37.1033 301.974 37.0997 305.084C37.0987 306.075 36.2952 306.877 35.3047 306.876C34.3142 306.875 33.5122 306.071 33.5132 305.081V305.079C33.5187 301.931 33.5949 298.783 33.7092 295.638C33.7447 294.666 34.5604 293.907 35.5318 293.943C36.4995 293.978 37.2557 294.788 37.2275 295.754Z" fill="white"/>
<path d="M37.3485 317.075C37.4782 320.182 37.6597 323.285 37.8952 326.384C37.9718 327.388 37.2198 328.264 36.2158 328.34C35.2118 328.417 34.336 327.665 34.2599 326.66L34.2595 326.655C34.0293 323.513 33.8542 320.368 33.7314 317.221C33.6923 316.222 34.4703 315.38 35.4693 315.341C36.4681 315.302 37.3094 316.076 37.3485 317.075Z" fill="white"/>
<path d="M39.0785 338.308C39.4577 341.391 39.8952 344.465 40.3937 347.529C40.5581 348.54 39.8727 349.492 38.8626 349.657C37.8527 349.821 36.9007 349.135 36.7361 348.125L36.7355 348.12C36.2376 345.006 35.8021 341.882 35.4254 338.753C35.3042 337.744 36.0235 336.827 37.0324 336.706C38.0414 336.585 38.9569 337.299 39.0785 338.308Z" fill="white"/>
<path d="M42.6301 359.287C43.2929 362.317 44.0219 365.331 44.8213 368.326C45.0895 369.331 44.4926 370.363 43.4883 370.631C42.4837 370.899 41.4518 370.302 41.1838 369.297L41.1824 369.292C40.3762 366.238 39.6421 363.166 38.9761 360.081C38.7581 359.071 39.3998 358.076 40.409 357.858C41.4183 357.64 42.4121 358.277 42.6301 359.287Z" fill="white"/>
<path d="M48.263 379.767C49.2505 382.701 50.314 385.609 51.4572 388.483C51.8474 389.465 51.3685 390.577 50.3872 390.968C49.4056 391.358 48.2936 390.879 47.9034 389.897L47.9014 389.892C46.7397 386.948 45.6614 383.973 44.6612 380.974C44.3291 379.978 44.8667 378.902 45.8619 378.57C46.8571 378.238 47.9311 378.771 48.263 379.767Z" fill="white"/>
<path d="M56.2707 399.39C57.625 402.168 59.0638 404.902 60.5897 407.585C61.1201 408.518 60.794 409.704 59.8616 410.234C58.9297 410.765 57.7436 410.439 57.2136 409.506L57.211 409.501C55.651 406.74 54.1821 403.93 52.8008 401.078C52.3364 400.119 52.7371 398.965 53.696 398.5C54.6546 398.035 55.8059 398.431 56.2707 399.39Z" fill="white"/>
<path d="M66.9084 417.664C68.6594 420.202 70.4989 422.677 72.4255 425.082C73.1067 425.932 72.97 427.173 72.1204 427.854C71.2703 428.535 70.0297 428.399 69.3485 427.549L69.3449 427.544C67.3652 425.06 65.4769 422.504 63.681 419.886C63.0693 418.994 63.2962 417.774 64.1881 417.162C65.08 416.549 66.2962 416.772 66.9084 417.664Z" fill="white"/>
<path d="M80.2831 433.983C82.4297 436.19 84.659 438.316 86.9663 440.353C87.7953 441.085 87.874 442.35 87.1422 443.179C86.4108 444.008 85.1462 444.087 84.3172 443.355L84.3132 443.351C81.9352 441.24 79.6382 439.038 77.4284 436.753C76.6648 435.963 76.6858 434.704 77.475 433.94C78.2649 433.176 79.52 433.194 80.2831 433.983Z" fill="white"/>
<path d="M96.237 447.762C97.4818 448.666 98.7438 449.548 100.022 450.405C101.296 451.269 102.61 452.073 103.904 452.906L103.965 452.944C104.893 453.542 105.162 454.779 104.565 455.708C103.968 456.637 102.738 456.91 101.809 456.313C100.469 455.459 99.1106 454.633 97.7911 453.746C96.4679 452.866 95.161 451.96 93.8714 451.031C92.9676 450.379 92.7633 449.118 93.4146 448.214C94.0662 447.31 95.3269 447.105 96.2307 447.757L96.237 447.762Z" fill="white"/>
<path d="M114.292 458.649C117.056 460.007 119.872 461.26 122.73 462.407C123.734 462.81 124.222 463.951 123.819 464.956C123.417 465.961 122.282 466.451 121.278 466.048C118.325 464.876 115.415 463.593 112.556 462.202C111.575 461.725 111.166 460.541 111.644 459.559C112.121 458.577 113.304 458.168 114.286 458.646L114.292 458.649Z" fill="white"/>
<path d="M133.953 466.306C136.909 467.18 139.897 467.949 142.909 468.615C143.944 468.844 144.597 469.868 144.369 470.903C144.14 471.938 143.123 472.594 142.088 472.365C138.988 471.692 135.909 470.912 132.861 470.023C131.834 469.723 131.245 468.648 131.544 467.621C131.844 466.594 132.919 466.004 133.946 466.304L133.953 466.306Z" fill="white"/>
<path d="M154.629 470.682C157.691 471.09 160.766 471.4 163.849 471.619C164.885 471.692 165.664 472.59 165.591 473.626C165.518 474.661 164.626 475.441 163.591 475.368C160.432 475.156 157.278 474.85 154.136 474.443C153.097 474.309 152.364 473.358 152.498 472.319C152.633 471.28 153.583 470.546 154.622 470.681L154.629 470.682Z" fill="white"/>
<path d="M175.77 472.016C178.865 472.007 181.961 471.913 185.053 471.74C186.067 471.684 186.935 472.46 186.991 473.474C187.048 474.488 186.279 475.355 185.265 475.412C182.111 475.6 178.95 475.707 175.788 475.729C174.763 475.736 173.927 474.91 173.92 473.885C173.913 472.859 174.738 472.023 175.763 472.016L175.77 472.016Z" fill="white"/>
<path d="M196.959 470.695C200.038 470.33 203.109 469.892 206.171 469.388C207.15 469.227 208.076 469.891 208.237 470.871C208.398 471.851 207.741 472.775 206.761 472.937C203.651 473.461 200.527 473.917 197.394 474.302C196.399 474.424 195.493 473.716 195.371 472.72C195.249 471.724 195.957 470.818 196.952 470.696L196.959 470.695Z" fill="white"/>
<path d="M217.932 467.157C220.968 466.502 223.991 465.786 227.001 465.014C227.907 464.782 228.829 465.328 229.061 466.233C229.291 467.132 228.754 468.048 227.861 468.288C224.819 469.105 221.761 469.866 218.688 470.565C217.748 470.779 216.812 470.191 216.599 469.251C216.385 468.311 216.973 467.375 217.913 467.161C217.916 467.16 217.929 467.157 217.932 467.157Z" fill="white"/>
<path d="M238.543 461.765C241.516 460.854 244.474 459.891 247.416 458.879C248.236 458.597 249.129 459.033 249.411 459.853C249.692 460.667 249.263 461.554 248.454 461.843C245.491 462.901 242.51 463.909 239.511 464.865C238.657 465.138 237.744 464.666 237.471 463.811C237.199 462.957 237.671 462.043 238.525 461.771C238.528 461.77 238.539 461.766 238.543 461.765Z" fill="white"/>
<path d="M258.68 454.734C261.578 453.598 264.458 452.416 267.318 451.188C268.054 450.873 268.905 451.212 269.221 451.948C269.534 452.678 269.2 453.523 268.476 453.844C265.601 455.117 262.706 456.344 259.791 457.525C259.023 457.836 258.147 457.465 257.836 456.696C257.524 455.927 257.895 455.052 258.664 454.74C258.667 454.739 258.677 454.735 258.68 454.734Z" fill="white"/>
<path d="M278.251 446.222C281.059 444.876 283.837 443.477 286.607 442.041C287.258 441.704 288.059 441.957 288.396 442.608C288.73 443.254 288.482 444.049 287.842 444.39C285.073 445.866 282.278 447.312 279.459 448.704C278.776 449.042 277.949 448.762 277.611 448.079C277.273 447.395 277.553 446.567 278.236 446.229C278.238 446.228 278.248 446.223 278.251 446.222Z" fill="white"/>
<path d="M297.11 436.244C299.796 434.672 302.448 433.043 305.066 431.359C305.604 431.013 306.32 431.169 306.665 431.706C307.007 432.237 306.858 432.944 306.336 433.294C303.722 435.043 301.071 436.738 298.384 438.376C297.799 438.733 297.035 438.548 296.678 437.962C296.321 437.376 296.506 436.612 297.092 436.255C297.096 436.253 297.106 436.247 297.11 436.244Z" fill="white"/>
<path d="M314.986 424.593C317.511 422.77 319.999 420.894 322.447 418.967C322.866 418.638 323.472 418.71 323.801 419.129C324.127 419.543 324.059 420.14 323.653 420.472C321.219 422.459 318.744 424.397 316.229 426.283C315.766 426.63 315.108 426.536 314.761 426.072C314.414 425.609 314.508 424.952 314.971 424.604C314.975 424.602 314.983 424.596 314.986 424.593Z" fill="white"/>
<path d="M331.695 411.29C334.042 409.238 336.341 407.13 338.612 404.993C338.92 404.704 339.404 404.718 339.693 405.026C339.978 405.329 339.968 405.803 339.675 406.094C337.445 408.304 335.157 410.455 332.833 412.568C332.484 412.886 331.942 412.86 331.624 412.51C331.306 412.16 331.332 411.619 331.682 411.301C331.685 411.298 331.692 411.292 331.695 411.29Z" fill="white"/>
<path d="M347.157 396.513L350.374 393.09L350.381 393.082C350.594 392.855 350.95 392.844 351.176 393.057C351.399 393.266 351.413 393.615 351.21 393.842L348.062 397.359C347.833 397.614 347.442 397.636 347.187 397.407C346.932 397.179 346.911 396.788 347.139 396.533C347.142 396.53 347.144 396.527 347.147 396.524L347.157 396.513Z" fill="white"/>
<path d="M329.687 259.869H184.146C182.836 259.869 181.765 258.797 181.765 257.488V243.983C181.765 242.673 182.836 241.602 184.146 241.602H329.687C330.997 241.602 332.068 242.673 332.068 243.983V257.488C332.068 258.797 330.997 259.869 329.687 259.869Z" fill="white"/>
<path d="M335.263 338.969L364.169 380.894L380.129 343.288L335.263 338.969Z" fill="url(#paint7_linear_29_8466)"/>
<path d="M507.154 184.885L462.434 362.281C461.578 365.678 459.376 368.579 456.337 370.318C453.297 372.057 449.681 372.484 446.32 371.501L269.946 319.879C267.927 319.288 266.468 317.531 266.257 315.436C266.047 313.342 267.128 311.33 268.99 310.349L507.154 184.885Z" fill="url(#paint8_linear_29_8466)"/>
<path d="M335.28 338.965L507.154 184.885L363.718 347.384L371.239 359.352L335.28 338.965Z" fill="url(#paint9_linear_29_8466)"/>
<path d="M380.617 352.248L364.17 380.895L363.718 347.384L380.617 352.248Z" fill="url(#paint10_linear_29_8466)"/>
<defs>
<linearGradient id="paint0_linear_29_8466" x1="620.737" y1="711.359" x2="134.245" y2="107.317" gradientUnits="userSpaceOnUse">
<stop stop-color="#FFC727"/>
<stop offset="1" stop-color="#E9EFFD"/>
</linearGradient>
<linearGradient id="paint1_linear_29_8466" x1="411.115" y1="672.524" x2="248.576" y2="128.781" gradientUnits="userSpaceOnUse">
<stop stop-color="#09005D"/>
<stop offset="1" stop-color="#1A0F91"/>
</linearGradient>
<linearGradient id="paint2_linear_29_8466" x1="214.63" y1="96.5441" x2="510.516" y2="715.251" gradientUnits="userSpaceOnUse">
<stop stop-color="#FEBBBA"/>
<stop offset="1" stop-color="#FF928E"/>
</linearGradient>
<linearGradient id="paint3_linear_29_8466" x1="310.11" y1="-125.865" x2="298.388" y2="18.6697" gradientUnits="userSpaceOnUse">
<stop stop-color="#09005D"/>
<stop offset="1" stop-color="#1A0F91"/>
</linearGradient>
<linearGradient id="paint4_linear_29_8466" x1="335.338" y1="368.572" x2="388.994" y2="501.899" gradientUnits="userSpaceOnUse">
<stop stop-color="#FF928E"/>
<stop offset="1" stop-color="#FE7062"/>
</linearGradient>
<linearGradient id="paint5_linear_29_8466" x1="190.463" y1="112.052" x2="331.97" y2="365.918" gradientUnits="userSpaceOnUse">
<stop stop-color="#FF928E"/>
<stop offset="1" stop-color="#FE7062"/>
</linearGradient>
<linearGradient id="paint6_linear_29_8466" x1="259.429" y1="402.854" x2="468.401" y2="545.829" gradientUnits="userSpaceOnUse">
<stop stop-color="#E1473D"/>
<stop offset="1" stop-color="#E9605A"/>
</linearGradient>
<linearGradient id="paint7_linear_29_8466" x1="301.459" y1="179.488" x2="346.782" y2="309.692" gradientUnits="userSpaceOnUse">
<stop stop-color="#9495DA"/>
<stop offset="1" stop-color="#CCCCF3"/>
</linearGradient>
<linearGradient id="paint8_linear_29_8466" x1="383.854" y1="250.906" x2="860.85" y2="400.841" gradientUnits="userSpaceOnUse">
<stop stop-color="#91B3FA"/>
<stop offset="1" stop-color="#B2DEFE"/>
</linearGradient>
<linearGradient id="paint9_linear_29_8466" x1="382.698" y1="151.21" x2="428.021" y2="281.415" gradientUnits="userSpaceOnUse">
<stop stop-color="#6484CD"/>
<stop offset="1" stop-color="#91B3FA"/>
</linearGradient>
<linearGradient id="paint10_linear_29_8466" x1="476.203" y1="175.292" x2="384.524" y2="329.442" gradientUnits="userSpaceOnUse">
<stop stop-color="#09005D"/>
<stop offset="1" stop-color="#1A0F91"/>
</linearGradient>
</defs>
</svg>
